<?xml version="1.0" encoding="UTF-8" standalone="no"?>
<!-- Created with Inkscape (http://www.inkscape.org/) -->

<svg
   width="1000"
   height="200"
   viewBox="0 0 264.58333 52.916666"
   version="1.1"
   id="svg5"
   xml:space="preserve"
   inkscape:version="1.2.2 (b0a8486541, 2022-12-01)"
   sodipodi:docname="aircraft_carrier.svg"
   xmlns:inkscape="http://www.inkscape.org/namespaces/inkscape"
   xmlns:sodipodi="http://sodipodi.sourceforge.net/DTD/sodipodi-0.dtd"
   xmlns="http://www.w3.org/2000/svg"
   xmlns:svg="http://www.w3.org/2000/svg"><sodipodi:namedview
     id="namedview7"
     pagecolor="#ffffff"
     bordercolor="#000000"
     borderopacity="0.25"
     inkscape:showpageshadow="2"
     inkscape:pageopacity="0.0"
     inkscape:pagecheckerboard="0"
     inkscape:deskcolor="#d1d1d1"
     inkscape:document-units="mm"
     showgrid="false"
     inkscape:zoom="0.5"
     inkscape:cx="1233"
     inkscape:cy="131"
     inkscape:window-width="2560"
     inkscape:window-height="1322"
     inkscape:window-x="0"
     inkscape:window-y="0"
     inkscape:window-maximized="1"
     inkscape:current-layer="layer1"
     showguides="true" /><defs
     id="defs2" /><g
     inkscape:label="Layer 1"
     inkscape:groupmode="layer"
     id="layer1"><path
       style="fill:#999999;stroke:#110404;stroke-width:1.07049;stroke-dasharray:none;stroke-opacity:0.478431"
       d="M 256.77681,42.820059 V 8.0289062 L 243.05794,4.4379653 H 191.98222 L 175.81255,7.0829061 17.51251,8.0073472 7.8065196,15.068996 v 16.402323 l 17.9456414,6.27199 48.72558,0.821725 6.503855,10.959525 51.112494,-4.205836 29.69801,2.156979 23.39282,-4.485548 h 27.30818 l 5.61849,5.488547 h 30.83137 z"
       id="path449"
       sodipodi:nodetypes="cccccccccccccccccc" /><path
       style="fill:none;stroke:#e4e4e4;stroke-width:0.80299997;stroke-dasharray:none;stroke-opacity:1"
       d="M 187.41792,17.424959 H 11.560608"
       id="path733" /><path
       style="fill:none;stroke:#e4e4e4;stroke-width:0.830208;stroke-dasharray:none;stroke-opacity:1"
       d="M 166.52493,29.434324 H 11.651348"
       id="path735" /><path
       style="fill:none;stroke:#e4e4e4;stroke-width:0.80287;stroke-dasharray:none;stroke-opacity:1"
       d="M 250.7527,33.575674 81.29956,47.972835"
       id="path737" /><path
       style="fill:none;stroke:#e4e4e4;stroke-width:0.814983;stroke-dasharray:none;stroke-opacity:1"
       d="M 157.93249,29.440867 79.629218,36.007795"
       id="path739" /><path
       id="path793"
       style="fill:#dedede;stroke:#ffffff;stroke-width:0.185322;stroke-opacity:0.478431;fill-opacity:1"
       d="M 254.66777,9.9970534 V 23.053098 l -12.37357,6.276363 -19.03906,2.36747 -18.97381,-2.445718 -14.80523,-6.324725 0.10553,-12.295011 4.86388,-4.1725198 h 48.12502 z"
       sodipodi:nodetypes="cccccccccc" /><path
       style="fill:none;fill-opacity:1;stroke:#f8ba1c;stroke-width:0.665;stroke-dasharray:3.98999583,1.33000191;stroke-dashoffset:0;stroke-opacity:1"
       d="M 143.16352,23.422807 H 22.434497"
       id="path1402" /><path
       style="fill:none;stroke:#e4e4e4;stroke-width:0.661458;stroke-dasharray:none;stroke-opacity:1"
       d="M 19.50728,19.18919 H 11.560608"
       id="path1404" /><path
       style="fill:none;stroke:#e4e4e4;stroke-width:0.661458;stroke-dasharray:none;stroke-opacity:1"
       d="M 19.50728,20.88265 H 11.560608"
       id="path1406" /><path
       style="fill:none;stroke:#e4e4e4;stroke-width:0.661458;stroke-dasharray:none;stroke-opacity:1"
       d="M 19.50728,22.57611 H 11.560608"
       id="path1408" /><path
       style="fill:none;stroke:#e4e4e4;stroke-width:0.661458;stroke-dasharray:none;stroke-opacity:1"
       d="M 19.50728,24.269569 H 11.560608"
       id="path1410" /><path
       style="fill:none;stroke:#e4e4e4;stroke-width:0.661458;stroke-dasharray:none;stroke-opacity:1"
       d="M 19.50728,25.963029 H 11.560608"
       id="path1412" /><path
       style="fill:none;stroke:#e4e4e4;stroke-width:0.661458;stroke-dasharray:none;stroke-opacity:1"
       d="M 19.50728,27.656489 H 11.560608"
       id="path1414" /><g
       id="g4534"
       transform="translate(-0.50958)"><path
         style="fill:none;stroke:#e4e4e4;stroke-width:0.661458;stroke-dasharray:none;stroke-opacity:1"
         d="m 152.55001,19.18919 h -7.94667"
         id="path4514" /><path
         style="fill:none;stroke:#e4e4e4;stroke-width:0.661458;stroke-dasharray:none;stroke-opacity:1"
         d="m 152.55001,20.88265 h -7.94667"
         id="path4516" /><path
         style="fill:none;stroke:#e4e4e4;stroke-width:0.661458;stroke-dasharray:none;stroke-opacity:1"
         d="m 152.55001,22.57611 h -7.94667"
         id="path4518" /><path
         style="fill:none;stroke:#e4e4e4;stroke-width:0.661458;stroke-dasharray:none;stroke-opacity:1"
         d="m 152.55001,24.269569 h -7.94667"
         id="path4520" /><path
         style="fill:none;stroke:#e4e4e4;stroke-width:0.661458;stroke-dasharray:none;stroke-opacity:1"
         d="m 152.55001,25.963029 h -7.94667"
         id="path4522" /><path
         style="fill:none;stroke:#e4e4e4;stroke-width:0.661458;stroke-dasharray:none;stroke-opacity:1"
         d="m 152.55001,27.656489 h -7.94667"
         id="path4524" /></g><path
       style="fill:none;fill-opacity:1;stroke:#f8ba1c;stroke-width:0.6651625;stroke-dasharray:3.99097127,1.33032692;stroke-dashoffset:0;stroke-opacity:1"
       d="M 186.55546,23.422807 H 152.97067"
       id="path4526" /><g
       id="g4575"
       transform="rotate(-5.4608628,307.09075,700.11854)"><path
         style="fill:none;stroke:#e4e4e4;stroke-width:0.661458;stroke-dasharray:none;stroke-opacity:1"
         d="m 152.55001,19.18919 h -7.94667"
         id="path4563" /><path
         style="fill:none;stroke:#e4e4e4;stroke-width:0.661458;stroke-dasharray:none;stroke-opacity:1"
         d="m 152.55001,20.88265 h -7.94667"
         id="path4565" /><path
         style="fill:none;stroke:#e4e4e4;stroke-width:0.661458;stroke-dasharray:none;stroke-opacity:1"
         d="m 152.55001,22.57611 h -7.94667"
         id="path4567" /><path
         style="fill:none;stroke:#e4e4e4;stroke-width:0.661458;stroke-dasharray:none;stroke-opacity:1"
         d="m 152.55001,24.269569 h -7.94667"
         id="path4569" /><path
         style="fill:none;stroke:#e4e4e4;stroke-width:0.661458;stroke-dasharray:none;stroke-opacity:1"
         d="m 152.55001,25.963029 h -7.94667"
         id="path4571" /><path
         style="fill:none;stroke:#e4e4e4;stroke-width:0.661458;stroke-dasharray:none;stroke-opacity:1"
         d="m 152.55001,27.656489 h -7.94667"
         id="path4573" /></g><g
       id="g4598"
       transform="rotate(-5.4608628,283.40598,37.861466)"><path
         style="fill:none;stroke:#e4e4e4;stroke-width:0.661458;stroke-dasharray:none;stroke-opacity:1"
         d="m 152.55001,19.18919 h -7.94667"
         id="path4586" /><path
         style="fill:none;stroke:#e4e4e4;stroke-width:0.661458;stroke-dasharray:none;stroke-opacity:1"
         d="m 152.55001,20.88265 h -7.94667"
         id="path4588" /><path
         style="fill:none;stroke:#e4e4e4;stroke-width:0.661458;stroke-dasharray:none;stroke-opacity:1"
         d="m 152.55001,22.57611 h -7.94667"
         id="path4590" /><path
         style="fill:none;stroke:#e4e4e4;stroke-width:0.661458;stroke-dasharray:none;stroke-opacity:1"
         d="m 152.55001,24.269569 h -7.94667"
         id="path4592" /><path
         style="fill:none;stroke:#e4e4e4;stroke-width:0.661458;stroke-dasharray:none;stroke-opacity:1"
         d="m 152.55001,25.963029 h -7.94667"
         id="path4594" /><path
         style="fill:none;stroke:#e4e4e4;stroke-width:0.661458;stroke-dasharray:none;stroke-opacity:1"
         d="m 152.55001,27.656489 h -7.94667"
         id="path4596" /></g><path
       style="fill:none;fill-opacity:1;stroke:#f8ba1c;stroke-width:0.665;stroke-dasharray:3.98999, 1.33;stroke-dashoffset:0;stroke-opacity:1"
       d="M 142.50998,36.221184 89.836223,41.273998"
       id="path4641" /><path
       style="fill:none;fill-opacity:1;stroke:#f8ba1c;stroke-width:0.665;stroke-dasharray:3.98999, 1.33;stroke-dashoffset:0;stroke-opacity:1"
       d="m 197.5438,30.667417 -44.73641,4.291406"
       id="path4643" /><path
       id="path4645"
       style="fill:#bdbdbd;stroke:#ffffff;stroke-width:0.161135;stroke-opacity:0.478431;fill-opacity:1"
       d="m 250.41356,11.182274 v 11.352064 l -10.75866,5.457217 -16.55422,2.058485 -16.49748,-2.12652 -12.87296,-5.499268 0.0918,-10.690355 4.22908,-3.6279524 h 41.84409 z"
       sodipodi:nodetypes="cccccccccc" /><path
       id="path4647"
       style="fill:#9b9b9b;stroke:#ffffff;stroke-width:0.128049;stroke-opacity:0.478431;fill-opacity:1"
       d="m 244.59416,12.803556 v 9.021162 l -8.5496,4.336695 -13.15516,1.63582 -13.11008,-1.689885 -10.22978,-4.370112 0.0729,-8.495321 3.36073,-2.883031 h 33.25231 z"
       sodipodi:nodetypes="cccccccccc" /><path
       id="path4649"
       style="fill:#858585;stroke:#ffffff;stroke-width:0.102793;stroke-opacity:0.478431;fill-opacity:1"
       d="m 240.15195,14.041153 v 7.24188 l -6.86332,3.48135 -10.56051,1.31318 -10.52433,-1.356582 -8.21211,-3.508176 0.0585,-6.819752 2.69788,-2.314398 h 26.69381 z"
       sodipodi:nodetypes="cccccccccc" /><g
       id="g20464"
       transform="matrix(-0.91285005,0.16860819,-0.16860819,-0.91285005,309.41945,112.22875)"><path
         style="fill:#b3b3b3;fill-opacity:1;stroke:none;stroke-width:0.15875;stroke-dasharray:none;stroke-dashoffset:0;stroke-opacity:1"
         d="M 77.908,87.8453 V 87.378 h 0.763841 v 0.4673 z"
         id="path18561"
         sodipodi:nodetypes="ccccc" /><path
         style="fill:#c4d5f3;fill-opacity:1;stroke:#98abd9;stroke-width:0.15875;stroke-dasharray:none;stroke-dashoffset:0;stroke-opacity:1"
         d="m 77.15008,87.745625 v -0.4673 h 0.763841 v 0.4673 h 1.814463 l 1.293721,0.34665 v 1.41685 l -2.237929,3.38361 c 0,0 -0.03819,2.65664 -0.795271,2.65664 -0.757084,0 -0.795272,-2.65664 -0.795272,-2.65664 l -2.259046,-3.38361 v -1.49701 l 1.606636,-0.26649 z"
         id="path4760"
         sodipodi:nodetypes="cccccccczccccc" /><path
         style="fill:#c4d5f3;fill-opacity:1;stroke:#d2e3ff;stroke-width:0.15875;stroke-dasharray:none;stroke-dashoffset:0;stroke-opacity:1"
         d="m 77.988901,95.549375 c -0.757084,0 -0.795272,-2.65664 -0.795272,-2.65664 l -2.259046,-3.38361 v -1.49701 l 1.606636,-0.26649 h 0.608861 v -0.4673 h 0.763841 v 0.4673"
         id="path15523"
         sodipodi:nodetypes="ccccccccc" /><ellipse
         style="fill:#92b0fc;fill-opacity:1;stroke:none;stroke-width:0.264583;stroke-dasharray:none;stroke-dashoffset:0;stroke-opacity:1"
         id="path8475"
         cx="77.960632"
         cy="93.613136"
         rx="0.31799805"
         ry="1.1172293" /><path
         style="fill:#92b0fc;fill-opacity:1;stroke:#a1b0d1;stroke-width:0.15875;stroke-dasharray:none;stroke-dashoffset:0;stroke-opacity:1"
         d="M 78.784375,92.914882 V 87.679"
         id="path11511"
         sodipodi:nodetypes="cc" /><path
         style="fill:#a1b0d1;fill-opacity:1;stroke:#a1b0d1;stroke-width:0.0529167;stroke-dasharray:none;stroke-dashoffset:0;stroke-opacity:1"
         d="m 77.876387,87.655426 c 0.148909,0.19483 -0.155622,1.303985 -0.410718,1.947575"
         id="path18902"
         sodipodi:nodetypes="cc" /></g><g
       id="g20478"
       transform="matrix(-0.91285005,0.16860819,-0.16860819,-0.91285005,318.42691,111.34198)"><path
         style="fill:#b3b3b3;fill-opacity:1;stroke:none;stroke-width:0.15875;stroke-dasharray:none;stroke-dashoffset:0;stroke-opacity:1"
         d="M 77.908,87.8453 V 87.378 h 0.763841 v 0.4673 z"
         id="path20466"
         sodipodi:nodetypes="ccccc" /><path
         style="fill:#c4d5f3;fill-opacity:1;stroke:#98abd9;stroke-width:0.15875;stroke-dasharray:none;stroke-dashoffset:0;stroke-opacity:1"
         d="m 77.15008,87.745625 v -0.4673 h 0.763841 v 0.4673 h 1.814463 l 1.293721,0.34665 v 1.41685 l -2.237929,3.38361 c 0,0 -0.03819,2.65664 -0.795271,2.65664 -0.757084,0 -0.795272,-2.65664 -0.795272,-2.65664 l -2.259046,-3.38361 v -1.49701 l 1.606636,-0.26649 z"
         id="path20468"
         sodipodi:nodetypes="cccccccczccccc" /><path
         style="fill:#c4d5f3;fill-opacity:1;stroke:#d2e3ff;stroke-width:0.15875;stroke-dasharray:none;stroke-dashoffset:0;stroke-opacity:1"
         d="m 77.988901,95.549375 c -0.757084,0 -0.795272,-2.65664 -0.795272,-2.65664 l -2.259046,-3.38361 v -1.49701 l 1.606636,-0.26649 h 0.608861 v -0.4673 h 0.763841 v 0.4673"
         id="path20470"
         sodipodi:nodetypes="ccccccccc" /><ellipse
         style="fill:#92b0fc;fill-opacity:1;stroke:none;stroke-width:0.264583;stroke-dasharray:none;stroke-dashoffset:0;stroke-opacity:1"
         id="ellipse20472"
         cx="77.960632"
         cy="93.613136"
         rx="0.31799805"
         ry="1.1172293" /><path
         style="fill:#92b0fc;fill-opacity:1;stroke:#a1b0d1;stroke-width:0.15875;stroke-dasharray:none;stroke-dashoffset:0;stroke-opacity:1"
         d="M 78.784375,92.914882 V 87.679"
         id="path20474"
         sodipodi:nodetypes="cc" /><path
         style="fill:#a1b0d1;fill-opacity:1;stroke:#a1b0d1;stroke-width:0.0529167;stroke-dasharray:none;stroke-dashoffset:0;stroke-opacity:1"
         d="m 77.876387,87.655426 c 0.148909,0.19483 -0.155622,1.303985 -0.410718,1.947575"
         id="path20476"
         sodipodi:nodetypes="cc" /></g><g
       id="g20492"
       transform="matrix(-0.91285005,0.16860819,-0.16860819,-0.91285005,327.43437,110.0604)"><path
         style="fill:#b3b3b3;fill-opacity:1;stroke:none;stroke-width:0.15875;stroke-dasharray:none;stroke-dashoffset:0;stroke-opacity:1"
         d="M 77.908,87.8453 V 87.378 h 0.763841 v 0.4673 z"
         id="path20480"
         sodipodi:nodetypes="ccccc" /><path
         style="fill:#c4d5f3;fill-opacity:1;stroke:#98abd9;stroke-width:0.15875;stroke-dasharray:none;stroke-dashoffset:0;stroke-opacity:1"
         d="m 77.15008,87.745625 v -0.4673 h 0.763841 v 0.4673 h 1.814463 l 1.293721,0.34665 v 1.41685 l -2.237929,3.38361 c 0,0 -0.03819,2.65664 -0.795271,2.65664 -0.757084,0 -0.795272,-2.65664 -0.795272,-2.65664 l -2.259046,-3.38361 v -1.49701 l 1.606636,-0.26649 z"
         id="path20482"
         sodipodi:nodetypes="cccccccczccccc" /><path
         style="fill:#c4d5f3;fill-opacity:1;stroke:#d2e3ff;stroke-width:0.15875;stroke-dasharray:none;stroke-dashoffset:0;stroke-opacity:1"
         d="m 77.988901,95.549375 c -0.757084,0 -0.795272,-2.65664 -0.795272,-2.65664 l -2.259046,-3.38361 v -1.49701 l 1.606636,-0.26649 h 0.608861 v -0.4673 h 0.763841 v 0.4673"
         id="path20484"
         sodipodi:nodetypes="ccccccccc" /><ellipse
         style="fill:#92b0fc;fill-opacity:1;stroke:none;stroke-width:0.264583;stroke-dasharray:none;stroke-dashoffset:0;stroke-opacity:1"
         id="ellipse20486"
         cx="77.960632"
         cy="93.613136"
         rx="0.31799805"
         ry="1.1172293" /><path
         style="fill:#92b0fc;fill-opacity:1;stroke:#a1b0d1;stroke-width:0.15875;stroke-dasharray:none;stroke-dashoffset:0;stroke-opacity:1"
         d="M 78.784375,92.914882 V 87.679"
         id="path20488"
         sodipodi:nodetypes="cc" /><path
         style="fill:#a1b0d1;fill-opacity:1;stroke:#a1b0d1;stroke-width:0.0529167;stroke-dasharray:none;stroke-dashoffset:0;stroke-opacity:1"
         d="m 77.876387,87.655426 c 0.148909,0.19483 -0.155622,1.303985 -0.410718,1.947575"
         id="path20490"
         sodipodi:nodetypes="cc" /></g><g
       id="g20506"
       transform="matrix(0.92829072,5.2303039e-4,-5.2303039e-4,0.92829072,73.042848,-72.543462)"><path
         style="fill:#b3b3b3;fill-opacity:1;stroke:none;stroke-width:0.15875;stroke-dasharray:none;stroke-dashoffset:0;stroke-opacity:1"
         d="M 77.908,87.8453 V 87.378 h 0.763841 v 0.4673 z"
         id="path20494"
         sodipodi:nodetypes="ccccc" /><path
         style="fill:#c4d5f3;fill-opacity:1;stroke:#98abd9;stroke-width:0.15875;stroke-dasharray:none;stroke-dashoffset:0;stroke-opacity:1"
         d="m 77.15008,87.745625 v -0.4673 h 0.763841 v 0.4673 h 1.814463 l 1.293721,0.34665 v 1.41685 l -2.237929,3.38361 c 0,0 -0.03819,2.65664 -0.795271,2.65664 -0.757084,0 -0.795272,-2.65664 -0.795272,-2.65664 l -2.259046,-3.38361 v -1.49701 l 1.606636,-0.26649 z"
         id="path20496"
         sodipodi:nodetypes="cccccccczccccc" /><path
         style="fill:#c4d5f3;fill-opacity:1;stroke:#d2e3ff;stroke-width:0.15875;stroke-dasharray:none;stroke-dashoffset:0;stroke-opacity:1"
         d="m 77.988901,95.549375 c -0.757084,0 -0.795272,-2.65664 -0.795272,-2.65664 l -2.259046,-3.38361 v -1.49701 l 1.606636,-0.26649 h 0.608861 v -0.4673 h 0.763841 v 0.4673"
         id="path20498"
         sodipodi:nodetypes="ccccccccc" /><ellipse
         style="fill:#92b0fc;fill-opacity:1;stroke:none;stroke-width:0.264583;stroke-dasharray:none;stroke-dashoffset:0;stroke-opacity:1"
         id="ellipse20500"
         cx="77.960632"
         cy="93.613136"
         rx="0.31799805"
         ry="1.1172293" /><path
         style="fill:#92b0fc;fill-opacity:1;stroke:#a1b0d1;stroke-width:0.15875;stroke-dasharray:none;stroke-dashoffset:0;stroke-opacity:1"
         d="M 78.784375,92.914882 V 87.679"
         id="path20502"
         sodipodi:nodetypes="cc" /><path
         style="fill:#a1b0d1;fill-opacity:1;stroke:#a1b0d1;stroke-width:0.0529167;stroke-dasharray:none;stroke-dashoffset:0;stroke-opacity:1"
         d="m 77.876387,87.655426 c 0.148909,0.19483 -0.155622,1.303985 -0.410718,1.947575"
         id="path20504"
         sodipodi:nodetypes="cc" /></g><g
       id="g20520"
       transform="matrix(0.92829072,5.2303039e-4,-5.2303039e-4,0.92829072,62.459508,-72.543462)"><path
         style="fill:#b3b3b3;fill-opacity:1;stroke:none;stroke-width:0.15875;stroke-dasharray:none;stroke-dashoffset:0;stroke-opacity:1"
         d="M 77.908,87.8453 V 87.378 h 0.763841 v 0.4673 z"
         id="path20508"
         sodipodi:nodetypes="ccccc" /><path
         style="fill:#c4d5f3;fill-opacity:1;stroke:#98abd9;stroke-width:0.15875;stroke-dasharray:none;stroke-dashoffset:0;stroke-opacity:1"
         d="m 77.15008,87.745625 v -0.4673 h 0.763841 v 0.4673 h 1.814463 l 1.293721,0.34665 v 1.41685 l -2.237929,3.38361 c 0,0 -0.03819,2.65664 -0.795271,2.65664 -0.757084,0 -0.795272,-2.65664 -0.795272,-2.65664 l -2.259046,-3.38361 v -1.49701 l 1.606636,-0.26649 z"
         id="path20510"
         sodipodi:nodetypes="cccccccczccccc" /><path
         style="fill:#c4d5f3;fill-opacity:1;stroke:#d2e3ff;stroke-width:0.15875;stroke-dasharray:none;stroke-dashoffset:0;stroke-opacity:1"
         d="m 77.988901,95.549375 c -0.757084,0 -0.795272,-2.65664 -0.795272,-2.65664 l -2.259046,-3.38361 v -1.49701 l 1.606636,-0.26649 h 0.608861 v -0.4673 h 0.763841 v 0.4673"
         id="path20512"
         sodipodi:nodetypes="ccccccccc" /><ellipse
         style="fill:#92b0fc;fill-opacity:1;stroke:none;stroke-width:0.264583;stroke-dasharray:none;stroke-dashoffset:0;stroke-opacity:1"
         id="ellipse20514"
         cx="77.960632"
         cy="93.613136"
         rx="0.31799805"
         ry="1.1172293" /><path
         style="fill:#92b0fc;fill-opacity:1;stroke:#a1b0d1;stroke-width:0.15875;stroke-dasharray:none;stroke-dashoffset:0;stroke-opacity:1"
         d="M 78.784375,92.914882 V 87.679"
         id="path20516"
         sodipodi:nodetypes="cc" /><path
         style="fill:#a1b0d1;fill-opacity:1;stroke:#a1b0d1;stroke-width:0.0529167;stroke-dasharray:none;stroke-dashoffset:0;stroke-opacity:1"
         d="m 77.876387,87.655426 c 0.148909,0.19483 -0.155622,1.303985 -0.410718,1.947575"
         id="path20518"
         sodipodi:nodetypes="cc" /></g><g
       id="g20534"
       transform="matrix(0.92829072,5.2303039e-4,-5.2303039e-4,0.92829072,51.876168,-72.543462)"><path
         style="fill:#b3b3b3;fill-opacity:1;stroke:none;stroke-width:0.15875;stroke-dasharray:none;stroke-dashoffset:0;stroke-opacity:1"
         d="M 77.908,87.8453 V 87.378 h 0.763841 v 0.4673 z"
         id="path20522"
         sodipodi:nodetypes="ccccc" /><path
         style="fill:#c4d5f3;fill-opacity:1;stroke:#98abd9;stroke-width:0.15875;stroke-dasharray:none;stroke-dashoffset:0;stroke-opacity:1"
         d="m 77.15008,87.745625 v -0.4673 h 0.763841 v 0.4673 h 1.814463 l 1.293721,0.34665 v 1.41685 l -2.237929,3.38361 c 0,0 -0.03819,2.65664 -0.795271,2.65664 -0.757084,0 -0.795272,-2.65664 -0.795272,-2.65664 l -2.259046,-3.38361 v -1.49701 l 1.606636,-0.26649 z"
         id="path20524"
         sodipodi:nodetypes="cccccccczccccc" /><path
         style="fill:#c4d5f3;fill-opacity:1;stroke:#d2e3ff;stroke-width:0.15875;stroke-dasharray:none;stroke-dashoffset:0;stroke-opacity:1"
         d="m 77.988901,95.549375 c -0.757084,0 -0.795272,-2.65664 -0.795272,-2.65664 l -2.259046,-3.38361 v -1.49701 l 1.606636,-0.26649 h 0.608861 v -0.4673 h 0.763841 v 0.4673"
         id="path20526"
         sodipodi:nodetypes="ccccccccc" /><ellipse
         style="fill:#92b0fc;fill-opacity:1;stroke:none;stroke-width:0.264583;stroke-dasharray:none;stroke-dashoffset:0;stroke-opacity:1"
         id="ellipse20528"
         cx="77.960632"
         cy="93.613136"
         rx="0.31799805"
         ry="1.1172293" /><path
         style="fill:#92b0fc;fill-opacity:1;stroke:#a1b0d1;stroke-width:0.15875;stroke-dasharray:none;stroke-dashoffset:0;stroke-opacity:1"
         d="M 78.784375,92.914882 V 87.679"
         id="path20530"
         sodipodi:nodetypes="cc" /><path
         style="fill:#a1b0d1;fill-opacity:1;stroke:#a1b0d1;stroke-width:0.0529167;stroke-dasharray:none;stroke-dashoffset:0;stroke-opacity:1"
         d="m 77.876387,87.655426 c 0.148909,0.19483 -0.155622,1.303985 -0.410718,1.947575"
         id="path20532"
         sodipodi:nodetypes="cc" /></g><g
       id="g20548"
       transform="matrix(0.92829072,5.2303039e-4,-5.2303039e-4,0.92829072,41.292828,-72.543462)"><path
         style="fill:#b3b3b3;fill-opacity:1;stroke:none;stroke-width:0.15875;stroke-dasharray:none;stroke-dashoffset:0;stroke-opacity:1"
         d="M 77.908,87.8453 V 87.378 h 0.763841 v 0.4673 z"
         id="path20536"
         sodipodi:nodetypes="ccccc" /><path
         style="fill:#c4d5f3;fill-opacity:1;stroke:#98abd9;stroke-width:0.15875;stroke-dasharray:none;stroke-dashoffset:0;stroke-opacity:1"
         d="m 77.15008,87.745625 v -0.4673 h 0.763841 v 0.4673 h 1.814463 l 1.293721,0.34665 v 1.41685 l -2.237929,3.38361 c 0,0 -0.03819,2.65664 -0.795271,2.65664 -0.757084,0 -0.795272,-2.65664 -0.795272,-2.65664 l -2.259046,-3.38361 v -1.49701 l 1.606636,-0.26649 z"
         id="path20538"
         sodipodi:nodetypes="cccccccczccccc" /><path
         style="fill:#c4d5f3;fill-opacity:1;stroke:#d2e3ff;stroke-width:0.15875;stroke-dasharray:none;stroke-dashoffset:0;stroke-opacity:1"
         d="m 77.988901,95.549375 c -0.757084,0 -0.795272,-2.65664 -0.795272,-2.65664 l -2.259046,-3.38361 v -1.49701 l 1.606636,-0.26649 h 0.608861 v -0.4673 h 0.763841 v 0.4673"
         id="path20540"
         sodipodi:nodetypes="ccccccccc" /><ellipse
         style="fill:#92b0fc;fill-opacity:1;stroke:none;stroke-width:0.264583;stroke-dasharray:none;stroke-dashoffset:0;stroke-opacity:1"
         id="ellipse20542"
         cx="77.960632"
         cy="93.613136"
         rx="0.31799805"
         ry="1.1172293" /><path
         style="fill:#92b0fc;fill-opacity:1;stroke:#a1b0d1;stroke-width:0.15875;stroke-dasharray:none;stroke-dashoffset:0;stroke-opacity:1"
         d="M 78.784375,92.914882 V 87.679"
         id="path20544"
         sodipodi:nodetypes="cc" /><path
         style="fill:#a1b0d1;fill-opacity:1;stroke:#a1b0d1;stroke-width:0.0529167;stroke-dasharray:none;stroke-dashoffset:0;stroke-opacity:1"
         d="m 77.876387,87.655426 c 0.148909,0.19483 -0.155622,1.303985 -0.410718,1.947575"
         id="path20546"
         sodipodi:nodetypes="cc" /></g></g></svg>
