<?xml version="1.0" encoding="UTF-8" standalone="no"?>
<!-- Generated by Wings3D 2.2.6.1 Hidden Lines Renderer -->

<svg
   version="1.2"
   id="Layer1"
   x="0px"
   y="0px"
   width="85.416061"
   height="47.999996"
   viewBox="0 0 85.416061 47.999996"
   stroke="#000000"
   stroke-linecap="round"
   sodipodi:docname="d100.svg"
   inkscape:version="1.1 (c68e22c387, 2021-05-23)"
   xmlns:inkscape="http://www.inkscape.org/namespaces/inkscape"
   xmlns:sodipodi="http://sodipodi.sourceforge.net/DTD/sodipodi-0.dtd"
   xmlns="http://www.w3.org/2000/svg"
   xmlns:svg="http://www.w3.org/2000/svg">
  <sodipodi:namedview
     id="namedview67947"
     pagecolor="#ffffff"
     bordercolor="#666666"
     borderopacity="1.0"
     inkscape:pageshadow="2"
     inkscape:pageopacity="0.0"
     inkscape:pagecheckerboard="0"
     showgrid="false"
     fit-margin-top="0"
     fit-margin-left="0"
     fit-margin-right="0"
     fit-margin-bottom="0"
     inkscape:zoom="2"
     inkscape:cx="49.25"
     inkscape:cy="37"
     inkscape:window-width="1920"
     inkscape:window-height="1002"
     inkscape:window-x="-8"
     inkscape:window-y="-8"
     inkscape:window-maximized="1"
     inkscape:current-layer="edges" />
  <defs
     id="defs67905">
    <rect
       x="105.83518"
       y="45.467098"
       width="132.58054"
       height="114.04982"
       id="rect70006" />
    <rect
       x="105.83518"
       y="45.467098"
       width="132.58054"
       height="114.04982"
       id="rect85004" />
    <rect
       x="105.83518"
       y="45.467098"
       width="132.58054"
       height="114.04982"
       id="rect86770" />
  </defs>
  <g
     id="faces"
     inkscape:label="faces"
     inkscape:groupmode="layer"
     stroke="none"
     shape-rendering="crispEdges"
     transform="translate(-58.402391,-56.415455)" />
  <g
     id="edges"
     inkscape:label="edges"
     inkscape:groupmode="layer"
     transform="translate(-58.402391,-56.415455)">
    <g
       id="Line10_0"
       inkscape:label="Line10_0"
       inkscape:groupmode="layer"
       stroke="#000000"
       opacity="1"
       stroke-width="1"
       fill="none"
       stroke-linejoin="round">
      <g
         id="g84970"
         transform="matrix(1.0079375,0.23559116,-0.23559116,1.0079375,-97.624025,-81.237209)">
        <path
           id="path67907"
           style="fill:#c83737;fill-opacity:1;stroke:none;stroke-width:0.886914;stroke-linejoin:round"
           d="m 188.76784,117.50977 -5.59236,2.83984 21.30932,15.74023 v -0.01 l -2.38289,-13.60938 z" />
        <path
           id="path67911"
           style="fill:#c83737;fill-opacity:1;stroke:#000000;stroke-width:0.591276;stroke-linejoin:round;stroke-miterlimit:4;stroke-dasharray:none"
           d="m 215.23778,114.13086 -13.12819,8.34961 2.38289,13.60937 18.72208,-20.66015 z" />
        <path
           style="fill:#c9cfb1;stroke:none;stroke-width:0.886914;stroke-linejoin:round"
           d="m 204.48474,136.08 0.008,0.01 -2.38344,-13.61 -0.008,-0.01 z"
           id="path67915" />
        <path
           style="fill:#c9cfb1;stroke:none;stroke-width:0.886914;stroke-linejoin:round"
           d="m 204.48474,136.09 h 0.008 l -0.008,-0.01 z"
           id="path67917" />
        <path
           id="path67919"
           style="fill:#c83737;fill-opacity:1;stroke:#000000;stroke-width:0.591276;stroke-linejoin:round;stroke-miterlimit:4;stroke-dasharray:none"
           d="m 199.79583,90.880859 -11.02799,26.628911 13.34175,4.9707 13.12819,-8.34961 z" />
        <path
           id="path67923"
           style="fill:#c83737;fill-opacity:1;stroke:#000000;stroke-width:0.591276;stroke-linejoin:round;stroke-miterlimit:4;stroke-dasharray:none"
           d="m 199.79583,90.880859 15.44195,23.250001 7.97678,1.29883 -1.84978,-8.12891 z" />
        <path
           id="path67927"
           style="fill:#c83737;fill-opacity:1;stroke:#000000;stroke-width:0.443457;stroke-linejoin:round;stroke-miterlimit:4;stroke-dasharray:none"
           d="m 199.79583,90.880859 -15.61403,21.628911 -1.00632,7.83984 5.59236,-2.83984 z" />
        <g
           aria-label="10"
           transform="matrix(0.3087452,-0.0166971,0.0166971,0.3087452,160.62643,93.589102)"
           id="text70004"
           style="font-size:40px;line-height:1.25;font-family:Montserrat;-inkscape-font-specification:'Montserrat, Normal';white-space:pre;shape-inside:url(#rect70006);fill:#ffffff;stroke:none">
          <path
             d="m 119.19594,54.230538 v 28 h -7.92 v -21.88 h -5.2 v -6.12 z"
             style="font-weight:800;-inkscape-font-specification:'Montserrat Ultra-Bold'"
             id="path89483" />
          <path
             d="m 135.75589,82.790538 q -3.6,0 -6.4,-1.72 -2.8,-1.72 -4.4,-5 -1.56,-3.32 -1.56,-7.84 0,-4.52 1.56,-7.8 1.6,-3.32 4.4,-5.04 2.8,-1.72 6.4,-1.72 3.56,0 6.36,1.72 2.8,1.72 4.36,5.04 1.6,3.28 1.6,7.8 0,4.52 -1.6,7.84 -1.56,3.28 -4.36,5 -2.8,1.72 -6.36,1.72 z m 0,-6.48 q 2,0 3.16,-1.92 1.2,-1.96 1.2,-6.16 0,-4.2 -1.2,-6.12 -1.16,-1.96 -3.16,-1.96 -2.04,0 -3.24,1.96 -1.16,1.92 -1.16,6.12 0,4.2 1.16,6.16 1.2,1.92 3.24,1.92 z"
             style="font-weight:800;-inkscape-font-specification:'Montserrat Ultra-Bold'"
             id="path89485" />
        </g>
        <path
           d="m 184.16644,112.5 -1.0226,7.8"
           id="path67932"
           style="stroke:#000000;stroke-width:0.443457;stroke-linejoin:round;stroke-miterlimit:4;stroke-dasharray:none;stroke-opacity:1" />
        <path
           d="M 221.37339,107.3 199.8201,90.9"
           id="path67934"
           style="stroke:#000000;stroke-width:0.443457;stroke-linejoin:round;stroke-miterlimit:4;stroke-dasharray:none;stroke-opacity:1" />
        <path
           d="m 221.37339,107.3 1.80922,8.1"
           id="path67936"
           style="stroke:#000000;stroke-width:0.443457;stroke-linejoin:round;stroke-miterlimit:4;stroke-dasharray:none;stroke-opacity:1" />
        <path
           d="m 223.18261,115.4 -18.72147,20.7"
           id="path67938"
           style="stroke:#000000;stroke-width:0.443457;stroke-linejoin:round;stroke-miterlimit:4;stroke-dasharray:none;stroke-opacity:1" />
        <path
           d="m 199.8201,90.9 -15.65366,21.6"
           id="path67940"
           style="stroke:#000000;stroke-width:0.443457;stroke-linejoin:round;stroke-miterlimit:4;stroke-dasharray:none;stroke-opacity:1" />
        <path
           d="m 204.46114,136.1 -21.3173,-15.8"
           id="path67942"
           style="stroke:#000000;stroke-width:0.443457;stroke-linejoin:round;stroke-miterlimit:4;stroke-dasharray:none;stroke-opacity:1" />
      </g>
      <g
         id="g86768"
         transform="matrix(1.0347595,-0.02672164,0.02672164,1.0347595,-90.545411,-31.979522)">
        <path
           id="path86738"
           style="fill:#c83737;fill-opacity:1;stroke:none;stroke-width:0.886914;stroke-linejoin:round"
           d="m 188.76784,117.50977 -5.59236,2.83984 21.30932,15.74023 v -0.01 l -2.38289,-13.60938 z" />
        <path
           id="path86740"
           style="fill:#c83737;fill-opacity:1;stroke:#000000;stroke-width:0.591276;stroke-linejoin:round;stroke-miterlimit:4;stroke-dasharray:none"
           d="m 215.23778,114.13086 -13.12819,8.34961 2.38289,13.60937 18.72208,-20.66015 z" />
        <path
           style="fill:#c9cfb1;stroke:none;stroke-width:0.886914;stroke-linejoin:round"
           d="m 204.48474,136.08 0.008,0.01 -2.38344,-13.61 -0.008,-0.01 z"
           id="path86742" />
        <path
           style="fill:#c9cfb1;stroke:none;stroke-width:0.886914;stroke-linejoin:round"
           d="m 204.48474,136.09 h 0.008 l -0.008,-0.01 z"
           id="path86744" />
        <path
           id="path86746"
           style="fill:#c83737;fill-opacity:1;stroke:#000000;stroke-width:0.591276;stroke-linejoin:round;stroke-miterlimit:4;stroke-dasharray:none"
           d="m 199.79583,90.880859 -11.02799,26.628911 13.34175,4.9707 13.12819,-8.34961 z" />
        <path
           id="path86748"
           style="fill:#c83737;fill-opacity:1;stroke:#000000;stroke-width:0.591276;stroke-linejoin:round;stroke-miterlimit:4;stroke-dasharray:none"
           d="m 199.79583,90.880859 15.44195,23.250001 7.97678,1.29883 -1.84978,-8.12891 z" />
        <path
           id="path86750"
           style="fill:#c83737;fill-opacity:1;stroke:#000000;stroke-width:0.443457;stroke-linejoin:round;stroke-miterlimit:4;stroke-dasharray:none"
           d="m 199.79583,90.880859 -15.61403,21.628911 -1.00632,7.83984 5.59236,-2.83984 z" />
        <g
           aria-label="0"
           transform="matrix(0.3087452,-0.0166971,0.0166971,0.3087452,163.39058,93.78014)"
           id="text86754"
           style="font-size:40px;line-height:1.25;font-family:Montserrat;-inkscape-font-specification:'Montserrat, Normal';white-space:pre;shape-inside:url(#rect86770);fill:#ffffff;stroke:none">
          <path
             d="m 119.55594,82.790538 q -3.6,0 -6.4,-1.72 -2.8,-1.72 -4.4,-5 -1.56,-3.32 -1.56,-7.84 0,-4.52 1.56,-7.8 1.6,-3.32 4.4,-5.04 2.8,-1.72 6.4,-1.72 3.56,0 6.36,1.72 2.8,1.72 4.36,5.04 1.6,3.28 1.6,7.8 0,4.52 -1.6,7.84 -1.56,3.28 -4.36,5 -2.8,1.72 -6.36,1.72 z m 0,-6.48 q 2,0 3.16,-1.92 1.2,-1.96 1.2,-6.16 0,-4.2 -1.2,-6.12 -1.16,-1.96 -3.16,-1.96 -2.04,0 -3.24,1.96 -1.16,1.92 -1.16,6.12 0,4.2 1.16,6.16 1.2,1.92 3.24,1.92 z"
             style="font-weight:800;-inkscape-font-specification:'Montserrat Ultra-Bold'"
             id="path91892" />
        </g>
        <path
           d="m 184.16644,112.5 -1.0226,7.8"
           id="path86756"
           style="stroke:#000000;stroke-width:0.443457;stroke-linejoin:round;stroke-miterlimit:4;stroke-dasharray:none;stroke-opacity:1" />
        <path
           d="M 221.37339,107.3 199.8201,90.9"
           id="path86758"
           style="stroke:#000000;stroke-width:0.443457;stroke-linejoin:round;stroke-miterlimit:4;stroke-dasharray:none;stroke-opacity:1" />
        <path
           d="m 221.37339,107.3 1.80922,8.1"
           id="path86760"
           style="stroke:#000000;stroke-width:0.443457;stroke-linejoin:round;stroke-miterlimit:4;stroke-dasharray:none;stroke-opacity:1" />
        <path
           d="m 223.18261,115.4 -18.72147,20.7"
           id="path86762"
           style="stroke:#000000;stroke-width:0.443457;stroke-linejoin:round;stroke-miterlimit:4;stroke-dasharray:none;stroke-opacity:1" />
        <path
           d="m 199.8201,90.9 -15.65366,21.6"
           id="path86764"
           style="stroke:#000000;stroke-width:0.443457;stroke-linejoin:round;stroke-miterlimit:4;stroke-dasharray:none;stroke-opacity:1" />
        <path
           d="m 204.46114,136.1 -21.3173,-15.8"
           id="path86766"
           style="stroke:#000000;stroke-width:0.443457;stroke-linejoin:round;stroke-miterlimit:4;stroke-dasharray:none;stroke-opacity:1" />
      </g>
    </g>
  </g>
</svg>
