<?xml version="1.0" encoding="UTF-8" standalone="no"?>
<!-- Created with Inkscape (http://www.inkscape.org/) -->

<svg
   width="12.7mm"
   height="12.381422mm"
   viewBox="0 0 12.7 12.381422"
   version="1.1"
   id="svg5"
   inkscape:version="1.1 (c68e22c387, 2021-05-23)"
   sodipodi:docname="d2.svg"
   xmlns:inkscape="http://www.inkscape.org/namespaces/inkscape"
   xmlns:sodipodi="http://sodipodi.sourceforge.net/DTD/sodipodi-0.dtd"
   xmlns="http://www.w3.org/2000/svg"
   xmlns:svg="http://www.w3.org/2000/svg">
  <sodipodi:namedview
     id="namedview7"
     pagecolor="#ffffff"
     bordercolor="#666666"
     borderopacity="1.0"
     inkscape:pageshadow="2"
     inkscape:pageopacity="0.0"
     inkscape:pagecheckerboard="0"
     inkscape:document-units="mm"
     showgrid="false"
     fit-margin-top="0"
     fit-margin-left="0"
     fit-margin-right="0"
     fit-margin-bottom="0"
     inkscape:zoom="1.4142136"
     inkscape:cx="12.374369"
     inkscape:cy="24.748737"
     inkscape:window-width="1920"
     inkscape:window-height="1002"
     inkscape:window-x="-8"
     inkscape:window-y="-8"
     inkscape:window-maximized="1"
     inkscape:current-layer="g92783" />
  <defs
     id="defs2">
    <rect
       x="71.010979"
       y="445.867"
       width="151.58113"
       height="111.29605"
       id="rect2764" />
  </defs>
  <g
     inkscape:label="Layer 1"
     inkscape:groupmode="layer"
     id="layer1"
     transform="translate(-19.030146,-116.04293)">
    <g
       id="g92783"
       transform="matrix(0.35268911,0,0,0.35268911,12.318421,75.115849)">
      <circle
         style="fill:#c83737;fill-opacity:1;stroke:#000000;stroke-width:1.32292;stroke-linecap:round;stroke-miterlimit:4;stroke-dasharray:none;stroke-dashoffset:0;stop-color:#000000"
         id="circle1022"
         cx="-35.770073"
         cy="-134.40877"
         r="16.078466"
         transform="scale(-1)" />
      <circle
         style="fill:#c83737;fill-opacity:1;stroke:#000000;stroke-width:1.32292;stroke-linecap:round;stroke-miterlimit:4;stroke-dasharray:none;stroke-dashoffset:0;stop-color:#000000"
         id="path846"
         cx="-38.299271"
         cy="-132.78285"
         r="16.078466"
         transform="scale(-1)" />
      <g
         aria-label="2"
         transform="matrix(0.26458333,0,0,0.26458333,14.173557,5.0071081)"
         id="text2762"
         style="font-size:64px;line-height:1.25;font-family:Montserrat;-inkscape-font-specification:'Montserrat, Normal';white-space:pre;shape-inside:url(#rect2764);fill:#ffffff">
        <path
           d="m 107.81172,494.64117 v 10.048 H 72.931719 v -7.936 l 16.768,-15.68 q 2.432,-2.304 3.264,-3.904 0.832,-1.664 0.832,-3.328 0,-2.176 -1.472,-3.392 -1.472,-1.216 -4.288,-1.216 -2.496,0 -4.608,1.152 -2.048,1.088 -3.392,3.2 l -9.408,-5.248 q 2.624,-4.352 7.36,-6.848 4.736,-2.496 11.2,-2.496 5.12,0 9.024,1.664 3.968001,1.664 6.144001,4.8 2.24,3.072 2.24,7.168 0,3.648 -1.6,6.912 -1.536,3.2 -6.016001,7.296 l -8.448,7.808 z"
           style="font-weight:800;-inkscape-font-specification:'Montserrat Ultra-Bold'"
           id="path93883" />
      </g>
    </g>
  </g>
</svg>
