<?xml version="1.0" encoding="UTF-8" standalone="no"?>
<!-- Generated by Wings3D 2.2.6.1 Hidden Lines Renderer -->

<svg
   version="1.2"
   id="Layer1"
   x="0px"
   y="0px"
   width="48"
   height="48"
   viewBox="0 0 47.999999 48.000001"
   stroke="#000000"
   stroke-linecap="round"
   sodipodi:docname="d20.svg"
   inkscape:version="1.1 (c68e22c387, 2021-05-23)"
   xmlns:inkscape="http://www.inkscape.org/namespaces/inkscape"
   xmlns:sodipodi="http://sodipodi.sourceforge.net/DTD/sodipodi-0.dtd"
   xmlns="http://www.w3.org/2000/svg"
   xmlns:svg="http://www.w3.org/2000/svg">
  <sodipodi:namedview
     id="namedview14713"
     pagecolor="#ffffff"
     bordercolor="#666666"
     borderopacity="1.0"
     inkscape:pageshadow="2"
     inkscape:pageopacity="0.0"
     inkscape:pagecheckerboard="0"
     showgrid="false"
     showguides="false"
     fit-margin-top="0"
     fit-margin-left="0"
     fit-margin-right="0"
     fit-margin-bottom="0"
     inkscape:zoom="16"
     inkscape:cx="40.34375"
     inkscape:cy="20.125"
     inkscape:window-width="1920"
     inkscape:window-height="1002"
     inkscape:window-x="-8"
     inkscape:window-y="-8"
     inkscape:window-maximized="1"
     inkscape:current-layer="text19200" />
  <defs
     id="defs14629">
    <rect
       x="39.926991"
       y="51.580322"
       width="113.66775"
       height="83.101631"
       id="rect19202" />
  </defs>
  <g
     id="faces"
     inkscape:label="faces"
     inkscape:groupmode="layer"
     stroke="none"
     shape-rendering="crispEdges"
     transform="translate(-25.889233,-35.500001)">
    <g
       id="g30831"
       transform="matrix(0.46165873,0,0,0.4613366,14.203015,20.055721)"
       style="stroke-width:2.16686">
      <g
         id="g30486"
         style="stroke-width:2.16686">
        <path
           style="fill:#c83737;fill-opacity:1;stroke:none;stroke-width:1.3115;stroke-linecap:butt;stroke-linejoin:round;stroke-miterlimit:4;stroke-dasharray:none"
           d="m 48.595726,133.23429 43.463135,3.06514 15.145799,-10.14663 z"
           id="path14649"
           sodipodi:nodetypes="cccc" />
        <path
           style="fill:#c83737;fill-opacity:1;stroke:#000000;stroke-width:1.3115;stroke-linecap:butt;stroke-linejoin:round;stroke-miterlimit:4;stroke-dasharray:none"
           d="M 107.21474,126.14271 128.63071,99.693032 120.19748,64.557943 Z"
           id="path14645" />
        <path
           style="fill:#c83737;fill-opacity:1;stroke:none;stroke-width:1.3115;stroke-linecap:butt;stroke-linejoin:round;stroke-miterlimit:4;stroke-dasharray:none"
           d="M 120.19748,64.547856 115.14091,48.830559 69.517398,34.809626 120.1773,64.537768 Z"
           id="path14647"
           sodipodi:nodetypes="ccccc" />
        <path
           style="fill:#c83737;fill-opacity:1;stroke:#000000;stroke-width:1.3115;stroke-linecap:butt;stroke-linejoin:round;stroke-miterlimit:4;stroke-dasharray:none"
           d="M 107.21474,126.13262 120.19748,64.547856 61.7903,83.401571 Z"
           id="path14651" />
        <path
           style="fill:#c83737;fill-opacity:1;stroke:none;stroke-width:1.3115;stroke-linecap:butt;stroke-linejoin:round;stroke-miterlimit:4;stroke-dasharray:none"
           d="m 120.19748,64.557943 v -0.01009 l -12.98274,61.584767 v 0.0101 0 z"
           id="path14653" />
        <path
           style="fill:#c83737;fill-opacity:1;stroke:none;stroke-width:1.3115;stroke-linecap:butt;stroke-linejoin:round;stroke-miterlimit:4;stroke-dasharray:none"
           d="m 120.1773,64.537768 0.0202,0.01009 v 0 z"
           id="path14655" />
        <path
           style="fill:#c83737;fill-opacity:1;stroke:#000000;stroke-width:1.3115;stroke-linecap:butt;stroke-linejoin:round;stroke-miterlimit:4;stroke-dasharray:none"
           d="M 61.7903,83.401571 120.19748,64.547856 69.517398,34.809626 61.770125,83.401571 Z"
           id="path14657" />
        <path
           style="fill:#c83737;fill-opacity:1;stroke:#000000;stroke-width:1.3115;stroke-linecap:butt;stroke-linejoin:round;stroke-miterlimit:4;stroke-dasharray:none"
           d="M 48.595726,133.23429 107.20466,126.1528 61.780213,83.421746 Z"
           id="path14659" />
        <path
           style="fill:#c83737;fill-opacity:1;stroke:#000000;stroke-width:1.3115;stroke-linecap:butt;stroke-linejoin:round;stroke-miterlimit:4;stroke-dasharray:none"
           d="m 107.18448,126.1528 -58.588754,7.08149 v 0 0 l 58.608934,-7.08149 v 0 z"
           id="path14661" />
        <path
           style="fill:#c83737;fill-opacity:1;stroke:none;stroke-width:1.3115;stroke-linecap:butt;stroke-linejoin:round;stroke-miterlimit:4;stroke-dasharray:none"
           d="m 61.7903,83.401571 h -0.01009 v 0.02018 l 45.42445,42.731059 0.0101,-0.0202 z"
           id="path14663" />
        <path
           style="fill:#c83737;fill-opacity:1;stroke:none;stroke-width:1.3115;stroke-linecap:butt;stroke-linejoin:round;stroke-miterlimit:4;stroke-dasharray:none"
           d="m 107.20466,126.1528 0.0101,-0.0101 v -0.0101 z"
           id="path14665" />
        <path
           style="fill:#c83737;fill-opacity:1;stroke:none;stroke-width:1.3115;stroke-linecap:butt;stroke-linejoin:round;stroke-miterlimit:4;stroke-dasharray:none"
           d="m 107.20466,126.1528 v 0 h -0.0202 z"
           id="path14667" />
        <path
           style="fill:#c83737;fill-opacity:1;stroke:none;stroke-width:1.3115;stroke-linecap:butt;stroke-linejoin:round;stroke-miterlimit:4;stroke-dasharray:none"
           d="M 107.20466,126.1528 Z"
           id="path14669" />
        <path
           style="fill:#c83737;fill-opacity:1;stroke:none;stroke-width:1.3115;stroke-linecap:butt;stroke-linejoin:round;stroke-miterlimit:4;stroke-dasharray:none"
           d="m 61.770125,83.401571 h 0.01009 0.01009 z"
           id="path14671" />
        <path
           style="fill:#c83737;fill-opacity:1;stroke:#000000;stroke-width:1.3115;stroke-linecap:butt;stroke-linejoin:round;stroke-miterlimit:4;stroke-dasharray:none"
           d="M 25.969251,77.046386 48.585639,133.23429 61.770125,83.411658 Z"
           id="path14673" />
        <path
           style="fill:#c83737;fill-opacity:1;stroke:none;stroke-width:1.3115;stroke-linecap:butt;stroke-linejoin:round;stroke-miterlimit:4;stroke-dasharray:none"
           d="m 61.780213,83.421746 -0.01009,-0.01009 -13.184486,49.822634 h 0.01009 z"
           id="path14675" />
        <path
           style="fill:#c83737;fill-opacity:1;stroke:none;stroke-width:1.3115;stroke-linecap:butt;stroke-linejoin:round;stroke-miterlimit:4;stroke-dasharray:none"
           d="m 48.595726,133.23429 h -0.01009 z"
           id="path14677" />
        <path
           style="fill:#c83737;fill-opacity:1;stroke:none;stroke-width:1.3115;stroke-linecap:butt;stroke-linejoin:round;stroke-miterlimit:4;stroke-dasharray:none"
           d="m 61.780213,83.401571 -0.01009,0.01009 0.01009,0.01009 z"
           id="path14679" />
        <path
           style="fill:#c83737;fill-opacity:1;stroke:none;stroke-width:1.3115;stroke-linecap:butt;stroke-linejoin:round;stroke-miterlimit:4;stroke-dasharray:none"
           d="m 61.770125,83.401571 v 0.01009 l 0.01009,-0.01009 z"
           id="path14681" />
        <path
           style="fill:#c83737;fill-opacity:1;stroke:#000000;stroke-width:1.3115;stroke-linecap:butt;stroke-linejoin:round;stroke-miterlimit:4;stroke-dasharray:none"
           d="m 69.517398,34.809626 -43.548147,42.23676 35.800874,6.365272 z"
           id="path14683" />
        <g
           aria-label="20"
           transform="matrix(0.95854226,-0.31431265,0.31431265,0.95854226,-26.735797,32.362209)"
           id="text19200"
           style="font-size:21.3333px;line-height:1.25;font-family:Montserrat;-inkscape-font-specification:'Montserrat, Normal';letter-spacing:1px;white-space:pre;shape-inside:url(#rect19202);fill:#000000;stroke-width:2.16686">
          <path
             d="m 93.465752,68.047952 v 3.982466 H 79.641266 V 68.88503 l 6.645898,-6.214678 q 0.96391,-0.913177 1.293668,-1.547327 0.329759,-0.659516 0.329759,-1.319034 0,-0.862444 -0.58342,-1.344399 -0.583417,-0.481954 -1.699523,-0.481954 -0.989274,0 -1.826353,0.456587 -0.811714,0.431224 -1.344401,1.268303 l -3.728805,-2.080015 q 1.040007,-1.72489 2.917092,-2.714165 1.877086,-0.989276 4.439055,-0.989276 2.029284,0 3.576611,0.659517 1.572695,0.659516 2.435139,1.902452 0.887811,1.21757 0.887811,2.840995 0,1.445865 -0.63415,2.739533 -0.608785,1.268301 -2.384408,2.891726 l -3.348316,3.094657 z"
             style="font-weight:800;-inkscape-font-specification:'Montserrat Ultra-Bold';text-align:center;text-anchor:middle;fill:#ffffff;stroke-width:2.57648"
             id="path35808" />
          <path
             d="m 103.3968,72.661024 q -2.28293,0 -4.058541,-1.09074 -1.775615,-1.090738 -2.790257,-3.170753 -0.989275,-2.105379 -0.989275,-4.971742 0,-2.866361 0.989275,-4.946376 1.014642,-2.10538 2.790257,-3.196119 1.775611,-1.09074 4.058541,-1.09074 2.25757,0 4.0332,1.09074 1.77563,1.090739 2.76489,3.196119 1.01465,2.080015 1.01465,4.946376 0,2.866363 -1.01465,4.971742 -0.98926,2.080015 -2.76489,3.170753 -1.77563,1.09074 -4.0332,1.09074 z m 0,-4.109297 q 1.26831,0 2.00391,-1.217568 0.76098,-1.242936 0.76098,-3.90637 0,-2.663433 -0.76098,-3.881003 -0.7356,-1.242934 -2.00391,-1.242934 -1.29368,0 -2.05465,1.242934 -0.73562,1.21757 -0.73562,3.881003 0,2.663434 0.73562,3.90637 0.76097,1.217568 2.05465,1.217568 z"
             style="font-weight:800;-inkscape-font-specification:'Montserrat Ultra-Bold';text-align:center;text-anchor:middle;fill:#ffffff;stroke-width:2.57648"
             id="path35810" />
        </g>
      </g>
    </g>
  </g>
  <g
     id="edges"
     inkscape:label="edges"
     inkscape:groupmode="layer"
     transform="translate(-25.889233,-35.500001)">
    <g
       id="Line10_0"
       inkscape:label="Line10_0"
       inkscape:groupmode="layer"
       stroke="#000000"
       opacity="1"
       stroke-width="1"
       fill="none"
       stroke-linejoin="round">
      <path
         d="M 36.632998,81.52623 26.201259,55.604693"
         id="path14690"
         style="stroke-width:0.50438;stroke-miterlimit:4;stroke-dasharray:none" />
      <path
         id="path14696"
         style="stroke-width:0.50438;stroke-miterlimit:4;stroke-dasharray:none"
         d="M 56.702792,82.93564 63.69032,78.268587 M 36.632998,81.52623 56.702792,82.93564"
         sodipodi:nodetypes="cccc" />
      <path
         d="M 63.69032,78.268586 73.609786,66.029153"
         id="path14700"
         style="stroke-width:0.50438;stroke-miterlimit:4;stroke-dasharray:none" />
      <path
         id="path14702"
         style="stroke-width:0.50438;stroke-miterlimit:4;stroke-dasharray:none"
         d="m 46.319613,36.105369 21.043863,6.463715 m 2.334407,7.264926 -2.339063,-7.250965"
         sodipodi:nodetypes="cccc" />
      <path
         d="M 73.609786,66.029153 69.697883,49.83401"
         id="path14704"
         style="stroke-width:0.50438;stroke-miterlimit:4;stroke-dasharray:none" />
      <path
         d="M 26.201259,55.604693 46.319613,36.105369"
         id="path14706"
         style="stroke-width:0.50438;stroke-miterlimit:4;stroke-dasharray:none" />
    </g>
  </g>
</svg>
