<?xml version="1.0" encoding="UTF-8" standalone="no"?>
<!-- Created with Inkscape (http://www.inkscape.org/) -->

<svg
   width="48"
   height="48"
   viewBox="0 0 12.7 12.7"
   version="1.1"
   id="svg62239"
   inkscape:version="1.1 (c68e22c387, 2021-05-23)"
   sodipodi:docname="d6.svg"
   xmlns:inkscape="http://www.inkscape.org/namespaces/inkscape"
   xmlns:sodipodi="http://sodipodi.sourceforge.net/DTD/sodipodi-0.dtd"
   xmlns="http://www.w3.org/2000/svg"
   xmlns:svg="http://www.w3.org/2000/svg">
  <sodipodi:namedview
     id="namedview62241"
     pagecolor="#ffffff"
     bordercolor="#666666"
     borderopacity="1.0"
     inkscape:pageshadow="2"
     inkscape:pageopacity="0.0"
     inkscape:pagecheckerboard="0"
     inkscape:document-units="mm"
     showgrid="false"
     fit-margin-top="0"
     fit-margin-left="0"
     fit-margin-right="0"
     fit-margin-bottom="0"
     inkscape:zoom="11.313708"
     inkscape:cx="26.383922"
     inkscape:cy="34.825009"
     inkscape:window-width="1920"
     inkscape:window-height="1002"
     inkscape:window-x="-8"
     inkscape:window-y="-8"
     inkscape:window-maximized="1"
     inkscape:current-layer="g62205"
     units="px" />
  <defs
     id="defs62236">
    <rect
       x="105.77111"
       y="118.46904"
       width="108.74296"
       height="63.354595"
       id="rect48711" />
  </defs>
  <g
     inkscape:label="Layer 1"
     inkscape:groupmode="layer"
     id="layer1"
     transform="translate(-72.963728,-117.58091)">
    <g
       id="g62205"
       transform="matrix(0.54233359,0,0,0.54233359,1.8711909,50.033265)">
      <path
         id="path38654"
         style="fill:#c83737;fill-opacity:1;stroke:none"
         d="m 142.7793,124.80078 -6.29883,4.85938 -3.11133,2.40039 -0.0684,0.0586 9.47852,7.78125 9.48047,-7.84961 -0.73047,-0.56055 -6.91016,-5.27929 z" />
      <path
         id="path38890"
         style="fill:#c83737;fill-opacity:1;stroke:none;stroke-width:2.04976"
         d="M 43.421875 15.373047 L 23.96875 31.484375 L 24.091797 47.472656 L 24.091797 47.492188 L 42.601562 31.607422 L 43.421875 15.373047 z "
         transform="matrix(0.48786086,0,0,0.48786086,131.08636,124.54999)" />
      <path
         style="fill:#c83737;fill-opacity:1;stroke:#000000;stroke-width:0.5;stroke-linejoin:round;stroke-miterlimit:4;stroke-dasharray:none;stroke-opacity:1"
         d="m 142.78,139.9 v 0.01 l 9.49,-7.86 h -0.01 z"
         id="path38894" />
      <path
         id="path38896"
         style="fill:#c83737;fill-opacity:1;stroke:none;stroke-width:2.04976"
         d="M 4.5175781 15.517578 L 5.5820312 31.730469 L 24.091797 47.492188 L 23.96875 31.484375 L 4.5175781 15.517578 z "
         transform="matrix(0.48786086,0,0,0.48786086,131.08636,124.54999)" />
      <path
         style="fill:#c9cfb1;stroke:#000000;stroke-width:0.5;stroke-linejoin:round;stroke-miterlimit:4;stroke-dasharray:none;stroke-opacity:1"
         d="m 142.78,139.9 -9.48,-7.78 h -0.01 l 9.49,7.79 z"
         id="path38900" />
      <path
         style="fill:#c9cfb1;stroke:#000000;stroke-width:0.5;stroke-linejoin:round;stroke-miterlimit:4;stroke-dasharray:none;stroke-opacity:1"
         d="m 142.78,139.91 v 0 l 0.06,7.81 v -0.01 z"
         id="path38902" />
      <path
         style="fill:#c9cfb1;stroke:none"
         d="m 142.84,147.71 v 0.01 0 z"
         id="path38904" />
      <path
         style="fill:#c9cfb1;stroke:none"
         d="m 142.78,139.9 v 0.01 0 z"
         id="path38906" />
      <path
         style="fill:#c9cfb1;stroke:none"
         d="m 142.78,139.91 v 0 -0.01 z"
         id="path38908" />
      <path
         d="m 133.3,132.1 0.5,7.9"
         id="path38963"
         style="stroke:#000000;stroke-width:0.5;stroke-linecap:round;stroke-linejoin:round;stroke-miterlimit:4;stroke-dasharray:none;stroke-opacity:1" />
      <path
         d="m 142.8,147.7 -9,-7.7"
         id="path38979"
         style="stroke:#000000;stroke-width:0.5;stroke-linejoin:round;stroke-miterlimit:4;stroke-dasharray:none;stroke-opacity:1" />
      <path
         d="m 152.3,132.1 -9.5,-7.3"
         id="path38991"
         style="stroke:#000000;stroke-width:0.5;stroke-linecap:round;stroke-linejoin:round;stroke-miterlimit:4;stroke-dasharray:none;stroke-opacity:1" />
      <path
         d="m 142.8,124.8 -9.5,7.3"
         id="path38993"
         style="stroke:#000000;stroke-width:0.5;stroke-linejoin:round;stroke-miterlimit:4;stroke-dasharray:none;stroke-opacity:1" />
      <path
         d="m 151.9,140 0.4,-7.9"
         id="path39003"
         style="stroke:#000000;stroke-width:0.5;stroke-linecap:round;stroke-linejoin:round;stroke-miterlimit:4;stroke-dasharray:none;stroke-opacity:1" />
      <path
         d="m 151.9,140 -9.1,7.7"
         id="path39063"
         style="stroke:#000000;stroke-width:0.5;stroke-linejoin:round;stroke-miterlimit:4;stroke-dasharray:none;stroke-opacity:1" />
      <g
         aria-label="6"
         transform="matrix(0.30069113,-0.34064527,0.34088284,0.30048158,64.475525,132.03793)"
         id="text48709"
         style="font-size:21.3333px;line-height:1.25;font-family:Montserrat;-inkscape-font-specification:'Montserrat, Normal';white-space:pre;shape-inside:url(#rect48711);stroke-width:2.20075">
        <path
           d="m 114.03112,129.08325 q 1.01099,0 1.85349,0.4289 0.84249,0.41359 1.33267,1.19481 0.50549,0.76591 0.50549,1.76159 0,1.08758 -0.56676,1.93007 -0.55146,0.82718 -1.5165,1.28672 -0.94972,0.44422 -2.12921,0.44422 -2.29772,0 -3.63039,-1.3633 -1.33267,-1.36331 -1.33267,-3.92143 0,-1.83818 0.70463,-3.15553 0.71995,-1.33268 2.00667,-2.02199 1.28672,-0.68932 2.98703,-0.68932 0.91908,0 1.74626,0.19914 0.82718,0.19914 1.40926,0.58209 l -1.10289,2.17517 q -0.78123,-0.55146 -1.97604,-0.55146 -1.16418,0 -1.88413,0.64337 -0.71995,0.64336 -0.82717,1.85349 0.91908,-0.79654 2.42026,-0.79654 z m -0.70463,4.88647 q 0.64335,0 1.04162,-0.36764 0.41359,-0.36763 0.41359,-0.99568 0,-0.61272 -0.41359,-0.98036 -0.39827,-0.36763 -1.05695,-0.36763 -0.65867,0 -1.07226,0.38296 -0.41359,0.36763 -0.41359,0.98035 0,0.59741 0.39827,0.98036 0.41359,0.36764 1.10291,0.36764 z"
           style="font-weight:800;-inkscape-font-specification:'Montserrat Ultra-Bold';stroke-width:1.58022;fill:#ffffff"
           id="path62429" />
      </g>
    </g>
  </g>
</svg>
