<?xml version="1.0" encoding="UTF-8" standalone="no"?>
<svg
   version="1.1"
   id="Layer_1"
   x="0px"
   y="0px"
   viewBox="0 0 42.000001 42.000001"
   xml:space="preserve"
   sodipodi:docname="shot.svg"
   width="42"
   height="42"
   inkscape:version="1.2.2 (b0a8486541, 2022-12-01)"
   xmlns:inkscape="http://www.inkscape.org/namespaces/inkscape"
   xmlns:sodipodi="http://sodipodi.sourceforge.net/DTD/sodipodi-0.dtd"
   xmlns="http://www.w3.org/2000/svg"
   xmlns:svg="http://www.w3.org/2000/svg"><g
     id="g5632"
     transform="matrix(0.52876857,0,0,0.52876857,-2.010586,141.82877)"><path
       style="fill:#ec6f59;fill-opacity:1;stroke:none;stroke-width:0.2"
       d="m 32.66676,-248.92626 -31.72684966,-17.26998 14.51767966,31.7057 -19.5543197,11.35293 20.2205797,8.7804 -1.24792,17.94947 18.37514,0.72046 10.62188,24.53147 6.30571,-25.43039 19.66669,5.68968 0.70063,-21.66019 30.51727,-8.2622 -33.92129,-18.8246 10.64171,-16.46227 -25.88382,2.46808 -7.94626,-20.81149 z"
       id="path388" /><path
       style="fill:#fad15c;fill-opacity:1;stroke:none;stroke-width:0.2"
       d="m 25.065119,-244.91758 14.9031,8.7974 7.18432,-13.16848 6.81004,12.99309 9.60395,-4.02305 -0.96399,12.17411 16.20822,5.60299 -17.35174,6.21757 2.75385,12.56772 -11.42281,-5.31711 -6.90949,12.72239 -9.06533,-11.39381 -7.54891,3.70541 -1.41698,-11.52501 -11.43662,-4.45533 9.53075,-7.95633 z"
       id="path3006" /></g><defs
     id="defs667" /><sodipodi:namedview
     id="namedview665"
     pagecolor="#ffffff"
     bordercolor="#000000"
     borderopacity="0.25"
     inkscape:showpageshadow="2"
     inkscape:pageopacity="0.0"
     inkscape:pagecheckerboard="0"
     inkscape:deskcolor="#d1d1d1"
     showgrid="false"
     inkscape:zoom="2"
     inkscape:cx="-131.25"
     inkscape:cy="-48.75"
     inkscape:window-width="2560"
     inkscape:window-height="1322"
     inkscape:window-x="0"
     inkscape:window-y="0"
     inkscape:window-maximized="1"
     inkscape:current-layer="Layer_1" /><style
     type="text/css"
     id="style656">.st0{fill-rule:evenodd;clip-rule:evenodd;fill:#EC6F59;} .st1{fill-rule:evenodd;clip-rule:evenodd;fill:#FAD15C;}</style></svg>
