<?xml version="1.0" encoding="UTF-8" standalone="no"?>
<svg
   version="1.1"
   id="Layer_1"
   x="0px"
   y="0px"
   viewBox="0 0 42.000001 42.000001"
   xml:space="preserve"
   sodipodi:docname="shot.svg"
   width="42"
   height="42"
   inkscape:version="1.2.2 (b0a8486541, 2022-12-01)"
   xmlns:inkscape="http://www.inkscape.org/namespaces/inkscape"
   xmlns:sodipodi="http://sodipodi.sourceforge.net/DTD/sodipodi-0.dtd"
   xmlns="http://www.w3.org/2000/svg"
   xmlns:svg="http://www.w3.org/2000/svg"><defs
     id="defs667" /><sodipodi:namedview
     id="namedview665"
     pagecolor="#ffffff"
     bordercolor="#000000"
     borderopacity="0.25"
     inkscape:showpageshadow="2"
     inkscape:pageopacity="0.0"
     inkscape:pagecheckerboard="0"
     inkscape:deskcolor="#d1d1d1"
     showgrid="false"
     inkscape:zoom="8.3577476"
     inkscape:cx="44.330126"
     inkscape:cy="61.559648"
     inkscape:window-width="2560"
     inkscape:window-height="1322"
     inkscape:window-x="0"
     inkscape:window-y="0"
     inkscape:window-maximized="1"
     inkscape:current-layer="Layer_1" /><style
     type="text/css"
     id="style656">.st0{fill-rule:evenodd;clip-rule:evenodd;fill:#EC6F59;} .st1{fill-rule:evenodd;clip-rule:evenodd;fill:#FAD15C;}</style><g
     id="g662"
     transform="matrix(0.34180497,0,0,0.34180497,5.2311754,0)"><path
       class="st0"
       d="M 18.61,54.89 C 15.7,28.8 30.94,10.45 59.52,0 42.02,22.71 74.44,47.31 76.23,70.89 80.42,63.74 82.8,54.2 83.27,41.44 c 21.43,33.62 3.66,88.57 -43.5,80.67 -4.33,-0.72 -8.5,-2.09 -12.3,-4.13 C 10.27,108.8 0,88.79 0,69.68 0,57.5 5.21,46.63 11.95,37.99 c 0.9,8.46 2.82,14.77 6.66,16.9 z"
       id="path658" /><path
       class="st1"
       d="m 33.87,92.58 c -4.86,-12.55 -4.19,-32.82 9.42,-39.93 0.1,23.3 23.05,26.27 18.8,51.14 3.92,-4.44 5.9,-11.54 6.25,-17.15 6.22,14.24 1.34,25.63 -7.53,31.43 -26.97,17.64 -50.19,-18.12 -34.75,-37.72 0.47,4.38 5.83,11.14 7.81,12.23 z"
       id="path660" /></g></svg>
