<?xml version="1.0" encoding="UTF-8" standalone="no"?>
<!-- Created with Inkscape (http://www.inkscape.org/) -->

<svg
   version="1.1"
   id="svg1"
   xml:space="preserve"
   width="980"
   height="735"
   sodipodi:docname="spectrum.svg"
   inkscape:version="1.2.2 (b0a8486541, 2022-12-01)"
   xmlns:inkscape="http://www.inkscape.org/namespaces/inkscape"
   xmlns:sodipodi="http://sodipodi.sourceforge.net/DTD/sodipodi-0.dtd"
   xmlns="http://www.w3.org/2000/svg"
   xmlns:svg="http://www.w3.org/2000/svg"><defs
     id="defs1"><rect
       x="561.64258"
       y="194.45117"
       width="145.37891"
       height="82.667969"
       id="rect787" /><rect
       x="81.363281"
       y="226.16406"
       width="97.414062"
       height="38.925781"
       id="rect416" /><rect
       x="242.36636"
       y="345.57632"
       width="211.89725"
       height="102.01396"
       id="rect464" /><rect
       x="119.63915"
       y="470.58508"
       width="234.49704"
       height="88.63694"
       id="rect927" /></defs><sodipodi:namedview
     id="namedview1"
     pagecolor="#ffffff"
     bordercolor="#000000"
     borderopacity="0.25"
     inkscape:showpageshadow="2"
     inkscape:pageopacity="0"
     inkscape:pagecheckerboard="0"
     inkscape:deskcolor="#d1d1d1"
     showgrid="false"
     inkscape:zoom="1"
     inkscape:cx="171"
     inkscape:cy="406"
     inkscape:window-width="3440"
     inkscape:window-height="1303"
     inkscape:window-x="0"
     inkscape:window-y="0"
     inkscape:window-maximized="1"
     inkscape:current-layer="svg1"
     inkscape:pageshadow="2"
     showguides="false" /><inkscape:clipboard
     min="38.679246,51.71354"
     max="761.89587,740.75465"
     geom-min="40.288131,53.322266"
     geom-max="760.28712,740.75465" /><path
     id="disagree"
     style="display:inline;fill:#000000;stroke:#ffffff;stroke-width:4.33496;stroke-opacity:1"
     d="M 800.29158,111.98067 689.56984,251.17306 a 299.53094,299.53094 0 0 1 80.67957,117.05286 L 933.78137,288.81868 A 485.04223,485.04223 0 0 0 800.29158,111.98067 Z" /><path
     id="slightlyDisagree"
     style="display:inline;fill:#000000;stroke:#ffffff;stroke-width:4.33496;stroke-opacity:1"
     d="M 598.48545,12.304553 559.60983,183.41578 a 299.53094,299.53094 0 0 1 129.97213,67.74216 L 800.29158,111.98067 A 485.04223,485.04223 0 0 0 598.48545,12.304553 Z" /><path
     id="stronglyDisagree"
     style="display:inline;fill:#000000;stroke:#ffffff;stroke-width:4.33496;stroke-opacity:1"
     d="m 933.78137,288.81868 -163.53196,79.40724 c 16.08069,50.10019 23.02802,92.65491 17.61551,140.03253 l 185.87694,-0.3232 C 977.68125,432.953 962.16104,348.01989 933.78137,288.81884 Z"
     sodipodi:nodetypes="ccccc" /><path
     id="agree"
     style="display:inline;fill:#000000;stroke:#ffffff;stroke-width:4.33496;stroke-opacity:1"
     d="m 169.35499,121.77512 c -29.58247,26.28466 -55.74199,56.00533 -77.968781,88.44737 -18.760653,27.38292 -34.719511,56.70463 -47.570007,87.53538 l 80.637118,38.63469 83.11241,39.82065 c 8.07135,-23.08755 18.91214,-45.02129 32.23097,-65.34284 11.8061,-18.01347 25.5593,-34.76021 41.05665,-49.921 l -55.24381,-68.95631 z"
     sodipodi:nodetypes="cscccsccc" /><path
     id="stronglyAgree"
     style="display:inline;fill:#000000;stroke:#ffffff;stroke-width:4.33496;stroke-opacity:1"
     d="M 43.816202,297.75487 C 31.615562,323.87099 21.212249,357.34664 14.363831,392.71772 6.7908634,431.83097 3.5647811,473.26173 7.0620907,509.62141 l 80.9670573,-0.14087 104.852462,-0.18233 c -2.65351,-22.99498 -2.06127,-47.79702 0.92734,-71.60406 2.77248,-22.0855 7.60728,-43.31466 13.82628,-61.45059 L 123.26132,335.8184 Z"
     sodipodi:nodetypes="cscccsccc"
     inkscape:label="stronglyAgree" /><path
     id="slightlyAgree"
     style="display:inline;fill:#000000;stroke:#ffffff;stroke-width:4.33496;stroke-opacity:1"
     d="M 371.61442,15.69831 C 330.66473,25.952354 291.3769,41.470217 254.69321,61.757716 224.27792,78.578546 195.65282,98.678238 169.35499,121.77512 l 53.39254,66.64553 58.10582,72.52872 c 17.86932,-17.52868 37.79087,-32.67621 59.26162,-45.1526 22.05658,-12.8168 45.74807,-22.81469 70.52918,-29.67928 l -17.2265,-75.21761 z"
     sodipodi:nodetypes="cscccsccc" /><path
     id="neutral"
     style="display:inline;fill:#000000;stroke:#ffffff;stroke-width:4.33496;stroke-opacity:1"
     d="m 371.61442,15.69831 39.03577,170.44638 c 50.66775,-13.11413 101.67597,-13.75645 148.95964,-2.72589 L 598.48545,12.304553 C 514.16241,-2.1592719 447.5796,-1.2692573 371.61442,15.69831 Z"
     sodipodi:nodetypes="ccccc" /><path
     style="display:inline;fill:#cccccc;stroke:none;stroke-width:2.96414;stroke-opacity:1"
     d="m 490.3123,376.06525 c -39.40349,0.0201 -74.83213,17.28019 -99.07942,44.69453 -20.13764,22.76785 -32.56291,52.54022 -33.14781,85.25997 H 622.6002 C 622.01236,473.1343 609.46415,443.22709 589.14728,420.41593 564.8952,393.1865 529.57366,376.06831 490.3123,376.06525 Z"
     id="indifferent"
     sodipodi:nodetypes="csccsc" /><path
     style="display:inline;fill:#cccccc;stroke:none;stroke-width:2.96414;stroke-opacity:1"
     d="m 490.3123,642.18192 c -40.5289,-0.0201 -76.85264,-18.28014 -101.12947,-47.06814 -18.92823,-22.44553 -30.53308,-51.2921 -31.09776,-82.88676 H 622.6002 c -0.58784,32.89153 -13.14048,62.80373 -33.46387,85.6165 -24.25176,27.22227 -59.56858,44.33534 -98.82403,44.3384 z"
     id="notReplied"
     sodipodi:nodetypes="csccsc" /><path
     id="path1562"
     style="font-weight:bold;font-size:8px;line-height:1;font-family:monospace;-inkscape-font-specification:'monospace Bold';text-align:center;letter-spacing:0px;white-space:pre;display:inline;fill:#ffffff;stroke-width:1.54729;stroke-linecap:round"
     d="m 506.3925,22.630961 q -0.62217,0.239523 -1.2656,0.351658 -0.64346,0.112094 -1.35644,0.09563 -1.69799,-0.03904 -2.57735,-0.966351 -0.87325,-0.933061 -0.83377,-2.643085 0.0407,-1.655635 0.92449,-2.596444 0.88628,-0.940809 2.37873,-0.906352 1.50459,0.03462 2.31175,0.948135 0.81335,0.907494 0.77596,2.526877 l -0.0161,0.719056 -4.58623,-0.105855 q -0.0121,0.797747 0.44403,1.201249 0.45626,0.403514 1.38067,0.424851 0.61033,0.01409 1.20655,-0.147474 0.59621,-0.16156 1.2515,-0.527312 z m -1.41062,-3.841355 q 0.004,-0.701206 -0.33809,-1.065807 -0.33608,-0.370494 -1.01283,-0.386151 -0.61026,-0.01409 -0.98148,0.35218 -0.37109,0.360231 -0.4532,1.041489 z m -5.7188,-0.884948 q -0.28819,-0.267858 -0.6803,-0.403462 -0.38599,-0.135559 -0.85135,-0.138658 -0.56208,-0.0037 -0.98647,0.192914 -0.41859,0.190621 -0.6505,0.563819 -0.14651,0.228696 -0.2093,0.554674 -0.0567,0.326019 -0.0612,0.990847 l -0.0201,3.118682 -1.77085,-0.01167 0.0459,-6.769227 1.77088,0.01167 -0.0121,1.051647 q 0.26363,-0.578486 0.80377,-0.889189 0.54003,-0.316721 1.25928,-0.311972 0.36265,0.0025 0.7065,0.09539 0.34976,0.08698 0.66318,0.258279 z m -10.356,-3.803851 0.0201,1.921927 2.31477,-0.02254 0.0161,1.359859 -2.31481,0.02254 0.0322,3.203221 q 0.004,0.453266 0.22419,0.650616 0.2258,0.191224 0.73917,0.186233 l 1.35986,-0.01328 0.0161,1.359856 -1.4868,0.01409 q -1.52303,0.01489 -2.06567,-0.463502 -0.54264,-0.484327 -0.5554,-1.80188 l -0.0322,-3.118601 -1.72854,0.0169 -0.0161,-1.359855 1.72854,-0.01691 -0.0201,-1.921927 z m -10.63022,6.537835 -0.11471,-4.404652 1.77036,-0.04633 0.10747,4.13276 q 0.0201,0.731086 0.23264,1.039926 0.21372,0.308833 0.69099,0.296436 0.47712,-0.01207 0.7321,-0.442267 0.26081,-0.430046 0.24069,-1.19132 l -0.10143,-3.885034 1.77028,-0.04633 0.17629,6.767091 -1.77036,0.04633 -0.0242,-1.002982 q -0.17267,0.566785 -0.61782,0.88673 -0.43896,0.31978 -1.07349,0.336282 -0.96675,0.02496 -1.47888,-0.60239 -0.50617,-0.62771 -0.53881,-1.884459 z m -1.71071,2.089022 q -0.60523,0.279732 -1.23992,0.433609 -0.63477,0.153873 -1.34734,0.1841 -1.69687,0.07184 -2.63496,-0.795892 -0.93229,-0.874007 -1.00466,-2.582956 -0.0704,-1.654601 0.75286,-2.651304 0.8229,-0.996703 2.31445,-1.059838 1.50363,-0.06363 2.36879,0.795063 0.87087,0.852409 0.93938,2.470777 l 0.0322,0.718606 -4.58338,0.194001 q 0.0407,0.79685 0.52139,1.169682 0.48174,0.372869 1.40546,0.333746 0.60994,-0.02616 1.19431,-0.225999 0.58438,-0.200199 1.2144,-0.60796 z m -1.65863,-3.740982 q -0.0407,-0.699974 -0.40688,-1.041432 -0.35943,-0.347753 -1.03585,-0.319136 -0.60986,0.02616 -0.95637,0.415533 -0.34694,0.383695 -0.38438,1.068874 z m -12.23141,-4.259698 1.91272,-0.112094 2.8936,6.399543 -0.38358,-6.546614 1.56879,-0.09193 0.52783,9.008372 -1.90061,0.111369 -2.90571,-6.39883 0.38358,6.546609 -1.5688,0.09193 z" /><path
     id="path1595"
     style="font-weight:bold;font-size:8px;line-height:1;font-family:monospace;-inkscape-font-specification:'monospace Bold';text-align:center;letter-spacing:0px;white-space:pre;display:inline;fill:#ffffff;stroke-width:1.54729;stroke-linecap:round"
     d="m 756.67887,102.37233 2.08946,-2.926962 1.43641,1.025412 -5.46415,7.65438 -1.43641,-1.02541 0.58293,-0.8166 q -0.57186,0.31209 -1.11285,0.2898 -0.53608,-0.0189 -1.03296,-0.37352 -0.94449,-0.67424 -0.92517,-1.80404 0.0201,-1.12981 1.00265,-2.5072 0.99734,-1.39708 2.05742,-1.76905 1.06507,-0.368486 2.04401,0.33032 0.44254,0.31604 0.62697,0.79658 0.19239,0.47914 0.13201,1.12625 z m -3.42577,0.55463 q -0.56888,0.79692 -0.62632,1.43912 -0.0575,0.64221 0.4099,0.97581 0.4675,0.33359 1.06093,0.0742 0.59368,-0.2594 1.16256,-1.05635 0.56888,-0.79692 0.62141,-1.44264 0.0523,-0.64571 -0.41505,-0.97932 -0.46746,-0.33358 -1.05602,-0.0707 -0.58873,0.2629 -1.15761,1.05986 z m -1.46668,-2.92235 q -0.0877,-0.383611 -0.33608,-0.716033 -0.2427,-0.328997 -0.62624,-0.593108 -0.4629,-0.318975 -0.9244,-0.394845 -0.45325,-0.0774 -0.85489,0.100784 -0.24995,0.106781 -0.48481,0.341233 -0.23022,0.237872 -0.60732,0.785294 l -1.76983,2.567925 -1.45819,-1.00497 3.84154,-5.573792 1.45819,1.00497 -0.59682,0.865933 q 0.54325,-0.330285 1.16458,-0.283797 0.62466,0.04174 1.21689,0.449648 0.29825,0.205794 0.53077,0.475979 0.24069,0.268623 0.40333,0.586306 z m -8.57228,-6.551793 q -0.52843,-0.351457 -1.1417,-0.08428 -0.60986,0.262143 -1.16216,1.092536 -0.5523,0.830373 -0.56168,1.499243 -0.004,0.66383 0.52248,1.01529 0.53342,0.354837 1.14332,0.09261 0.61327,-0.267174 1.16557,-1.097567 0.5523,-0.830374 0.55826,-1.494208 0.0121,-0.668869 -0.52409,-1.023678 z m -3.77843,0.02737 q 0.90714,-1.363828 2.14053,-1.690358 1.24181,-0.328192 2.43456,0.46508 1.19773,0.796652 1.37012,2.065448 0.18072,1.267109 -0.72642,2.630941 -0.90709,1.363829 -2.1489,1.692041 -1.23344,0.326542 -2.43122,-0.470119 -1.19266,-0.793308 -1.37338,-2.060421 -0.17267,-1.268792 0.73471,-2.63262 z m -3.05339,1.633767 q -0.51679,-0.02294 -1.01778,-0.193357 -0.50412,-0.165504 -1.00273,-0.485345 -1.31755,-0.845297 -1.55116,-2.115389 -0.23385,-1.270104 0.66717,-2.674165 0.90404,-1.409149 2.16102,-1.722988 1.26016,-0.318935 2.57776,0.526367 0.4578,0.293738 0.81159,0.671445 0.35862,0.380999 0.63738,0.875706 l -0.87465,1.363361 q -0.14611,-0.488657 -0.44303,-0.887503 -0.28858,-0.40064 -0.70589,-0.668277 -0.72746,-0.46671 -1.41616,-0.25506 -0.68871,0.211631 -1.23702,1.066278 -0.54832,0.854648 -0.45019,1.563799 0.0978,0.70915 0.82543,1.175852 0.43232,0.277438 0.90025,0.376491 0.47104,0.09402 0.99613,0.01409 z m -6.2866,-4.012732 q -0.51716,-0.01409 -1.02084,-0.176493 -0.50666,-0.157133 -1.01062,-0.468694 -1.33136,-0.82341 -1.5859,-2.089477 -0.25477,-1.266063 0.6229,-2.684815 0.88061,-1.423892 2.13224,-1.758456 1.25477,-0.339703 2.58614,0.483719 0.46238,0.286132 0.82253,0.65795 0.36506,0.375002 0.65179,0.865052 l -0.85203,1.377625 q -0.15416,-0.486214 -0.4578,-0.880056 -0.29543,-0.395811 -0.71679,-0.656525 -0.73508,-0.454643 -1.4202,-0.231634 -0.68512,0.22298 -1.21919,1.086567 -0.53414,0.863587 -0.42418,1.571019 0.10948,0.707436 0.84475,1.162063 0.4369,0.270233 0.90633,0.361559 0.47257,0.08617 0.99625,-0.0022 z m -6.77543,-7.460202 q -0.85155,-0.507398 -1.31897,-0.490441 -0.46745,0.01691 -0.78304,0.54658 -0.23506,0.394603 -0.14047,0.767484 0.0942,0.372869 0.49398,0.611096 0.60228,0.358902 1.20377,0.105171 0.60454,-0.258883 1.09023,-1.074094 l 0.062,-0.103843 z m 2.46804,0.675558 -1.977,3.317831 -1.51091,-0.900298 0.38639,-0.649031 q -0.50412,0.220244 -1.0588,0.17114 -0.55467,-0.0489 -1.07397,-0.3585 -0.99166,-0.590923 -1.23476,-1.446375 -0.23787,-0.852358 0.32199,-1.792156 0.6064,-1.017677 1.5535,-1.107638 0.95024,-0.09519 2.3314,0.727806 l 1.05404,0.628048 0.15174,-0.254415 q 0.21936,-0.368642 0.0612,-0.716448 -0.15013,-0.349886 -0.66959,-0.659282 -0.54517,-0.324851 -1.14275,-0.490947 -0.58929,-0.168202 -1.32424,-0.198107 l 0.77339,-1.298057 q 0.62744,0.09241 1.20542,0.303157 0.57802,0.210705 1.15958,0.557242 1.4175,0.844618 1.64519,1.761273 0.23264,0.919751 -0.65192,2.404733 z m -5.73551,-6.526303 -0.77001,1.342117 q -0.26846,-0.516232 -0.65143,-0.917215 -0.37472,-0.403208 -0.83626,-0.667883 -0.51374,-0.294745 -0.8631,-0.293054 -0.34615,-0.0036 -0.51475,0.289995 -0.24029,0.419401 0.73093,1.325169 l 0.0511,0.0489 0.38036,0.357493 q 0.72456,0.680441 0.8569,1.348626 0.14047,0.665952 -0.29221,1.42089 -0.52034,0.906983 -1.37966,1.020224 -0.85103,0.111008 -2.04639,-0.574726 -0.52952,-0.303761 -1.0311,-0.716943 -0.50465,-0.407946 -0.97073,-0.919256 l 0.76992,-1.342113 q 0.34333,0.580079 0.78015,1.032883 0.44202,0.45581 0.93511,0.738516 0.53999,0.309758 0.90811,0.311891 0.36828,0.0022 0.5395,-0.296717 0.16864,-0.293577 0.0596,-0.565155 -0.10385,-0.268583 -0.74075,-0.870884 l -0.3707,-0.337972 q -0.76646,-0.704502 -0.92657,-1.360742 -0.15979,-0.656243 0.24914,-1.369241 0.48734,-0.849303 1.37137,-0.969253 0.88403,-0.119943 1.99548,0.517665 0.498,0.285729 0.94271,0.652319 0.45325,0.364335 0.82636,0.794559 z m -8.99155,2.033993 q -0.66242,-0.07567 -1.28463,-0.274137 -0.62222,-0.198429 -1.24664,-0.543087 -1.48697,-0.820681 -1.83738,-2.049586 -0.34212,-1.231279 0.48428,-2.728811 0.80027,-1.449905 2.02135,-1.873633 1.22104,-0.423728 2.52806,0.297643 1.31763,0.727222 1.61037,1.910497 0.30106,1.180911 -0.48175,2.599068 l -0.34775,0.629703 -4.01635,-2.216713 q -0.38035,0.701415 -0.1626,1.270257 0.21734,0.568842 1.0272,1.015684 0.53443,0.294987 1.13772,0.427757 0.6033,0.132742 1.3535,0.111893 z m 0.52767,-4.058029 q 0.32803,-0.619665 0.19359,-1.101267 -0.12638,-0.483972 -0.71905,-0.811074 -0.53443,-0.294986 -1.03303,-0.14212 -0.49547,0.147514 -0.88388,0.713385 z m 2.44988,-5.226915 1.49228,0.823599 -3.04545,0.914889 -1.04246,-0.575354 z m -8.60741,-0.02536 1.68548,-3.176813 1.55905,0.827157 -4.40769,8.30775 -1.55909,-0.827154 0.47003,-0.886299 q -0.52566,0.384782 -1.06496,0.433915 -0.53386,0.052 -1.07316,-0.23409 -1.02511,-0.543879 -1.15483,-1.666381 -0.13001,-1.122502 0.66351,-2.617466 0.80446,-1.516325 1.80634,-2.024777 1.0072,-0.505614 2.06966,0.05812 0.48069,0.254938 0.72645,0.707005 0.25398,0.449548 0.27893,1.099065 z m -3.32277,1.001276 q -0.4588,0.864943 -0.43131,1.509111 0.0242,0.644173 0.53495,0.913283 0.50718,0.269106 1.06141,-0.06629 0.55431,-0.335396 1.0132,-1.200348 0.4588,-0.864951 0.42571,-1.511953 -0.0362,-0.647002 -0.54026,-0.916112 -0.50718,-0.269106 -1.05614,0.06915 -0.54896,0.338214 -1.0078,1.203186 z m -9.21264,-5.87219 -1.92999,3.947513 -1.5801,-0.772515 1.81053,-3.703176 q 0.324,-0.662446 0.27208,-1.037714 -0.0459,-0.37806 -0.46745,-0.58511 -0.42878,-0.209699 -0.86725,0.05365 -0.43284,0.266087 -0.76731,0.950227 l -1.7017,3.480546 -1.58006,-0.772519 2.97329,-6.081457 1.5801,0.772519 -0.44608,0.91222 q 0.41501,-0.422661 0.95785,-0.500523 0.54264,-0.0778 1.11816,0.20358 0.86335,0.422102 1.02177,1.212701 0.16099,0.785165 -0.39364,1.920011 z m -8.32156,0.467217 q -0.66597,-0.0314 -1.29997,-0.188608 -0.63397,-0.156892 -1.27977,-0.459533 -1.53796,-0.720658 -1.96871,-1.923735 -0.42265,-1.205983 0.30308,-2.754845 0.70275,-1.499605 1.89316,-2.003074 1.19037,-0.503477 2.54226,0.130005 1.36272,0.63859 1.73301,1.799948 0.37834,1.158449 -0.30911,2.62521 l -0.30509,0.651289 -4.154,-1.94654 q -0.33286,0.725001 -0.0785,1.278218 0.25478,0.553217 1.09209,0.945607 0.55278,0.259043 1.16352,0.351617 0.6107,0.09261 1.35789,0.02254 z m 0.2584,-4.084015 q 0.28657,-0.639998 0.12034,-1.111655 -0.15778,-0.47455 -0.77109,-0.761796 -0.55271,-0.259044 -1.04016,-0.07358 -0.48477,0.179954 -0.83481,0.770217 z m -18.25926,-6.219657 1.73676,-4.04942 1.62755,0.698026 -1.62953,3.799464 q -0.28818,0.672122 -0.22298,1.041972 0.0652,0.36985 0.50364,0.558055 0.43896,0.188205 0.84998,-0.09583 0.41658,-0.281584 0.71692,-0.981526 l 1.53185,-3.571714 1.62755,0.698026 -2.66824,6.22134 -1.62751,-0.69803 0.39565,-0.922089 q -0.39364,0.442725 -0.93189,0.547352 -0.53258,0.106983 -1.11579,-0.143166 -0.88882,-0.38116 -1.09176,-1.165331 -0.19762,-0.781777 0.29784,-1.937166 z m -2.42727,1.18296 q -0.66672,0.0013 -1.30777,-0.124007 -0.64097,-0.125336 -1.30098,-0.39557 -1.57173,-0.64356 -2.0616,-1.823816 -0.48175,-1.183556 0.16582,-2.76648 0.62753,-1.532581 1.79154,-2.09442 1.164,-0.561839 2.5456,0.0039 1.39274,0.570275 1.82003,1.711863 0.43541,1.138276 -0.17871,2.637297 l -0.27249,0.665613 -4.24536,-1.738307 q -0.29704,0.740622 -0.0161,1.280537 0.28174,0.539919 1.13756,0.890328 0.56494,0.231312 1.17954,0.293578 0.61453,0.06222 1.35737,-0.04532 z m 0.0556,-4.091806 q 0.25478,-0.65341 0.0652,-1.116255 -0.18112,-0.466151 -0.80788,-0.722655 -0.56494,-0.231312 -1.04254,-0.02173 -0.47514,0.203781 -0.79564,0.810635 z m -10.45208,-0.752302 -1.28334,3.288179 -1.6441,-0.641685 3.39735,-8.704655 1.6441,0.641685 -0.36908,0.945908 q 0.47204,-0.445067 1.00216,-0.556139 0.52996,-0.111047 1.0986,0.110846 1.08106,0.421949 1.33942,1.521956 0.2584,1.100026 -0.35701,2.676552 -0.62411,1.599044 -1.56622,2.217533 -0.93648,0.620687 -2.05694,0.183376 -0.50669,-0.197785 -0.81106,-0.615004 -0.29623,-0.420677 -0.39404,-1.068588 z m 3.18287,-1.37247 q 0.3558,-0.912127 0.25397,-1.548797 -0.10183,-0.636666 -0.63674,-0.845431 -0.53491,-0.208772 -1.04672,0.188367 -0.51189,0.397139 -0.86789,1.309266 -0.35581,0.912132 -0.24834,1.550999 0.10746,0.638864 0.64238,0.847628 0.53491,0.208773 1.04112,-0.19054 0.50618,-0.399352 0.86226,-1.311472 z m -12.46711,-5.773482 -1.46157,4.143848 -1.65867,-0.585034 1.37109,-3.887348 q 0.24552,-0.695398 0.15013,-1.062157 -0.0869,-0.370453 -0.53181,-0.527264 -0.45019,-0.158824 -0.85522,0.153389 -0.39927,0.314226 -0.6526,1.032417 l -1.28866,3.653653 -1.65871,-0.585034 2.25174,-6.383922 1.65867,0.585034 -0.33769,0.957589 q 0.36345,-0.46778 0.8937,-0.607686 0.53008,-0.139866 1.13426,0.07317 0.90629,0.319659 1.15491,1.0867 0.25035,0.761342 -0.16945,1.952626 z m -12.97083,-3.327285 1.80498,-5.399854 1.69107,0.565248 -1.94682,5.824048 q -0.21453,0.642023 -0.0121,1.118107 0.20567,0.470376 0.78498,0.663878 0.57894,0.193518 1.02643,-0.0584 0.44914,-0.257676 0.66395,-0.899675 l 1.94678,-5.824048 1.69103,0.565248 -1.80498,5.399858 q -0.58248,1.742625 -1.5405,2.301839 -0.95801,0.559215 -2.49432,0.04584 -1.53052,-0.511595 -1.96545,-1.536425 -0.42926,-1.022905 0.15335,-2.765534 z" /><path
     id="path1704"
     style="font-weight:bold;font-size:8px;line-height:1;font-family:monospace;-inkscape-font-specification:'monospace Bold';text-align:center;letter-spacing:0px;text-anchor:middle;white-space:pre;shape-inside:url(#rect464);display:inline;fill:#ffffff;stroke-width:1.54729;stroke-linecap:round"
     d="m 556.31588,527.43225 q -0.61646,0.25357 -1.25714,0.38075 -0.64069,0.12679 -1.35387,0.12679 -1.69839,0 -2.59897,-0.90661 -0.89458,-0.91266 -0.89458,-2.62317 0,-1.65605 0.86435,-2.61708 0.86432,-0.96103 2.3572,-0.96103 1.505,0 2.333,0.89458 0.83413,0.88846 0.83413,2.50825 v 0.71929 h -4.58753 q 0.004,0.79782 0.47156,1.19069 0.46545,0.39243 1.39017,0.39243 0.61046,0 1.20277,-0.17508 0.59231,-0.17508 1.23903,-0.55604 z m -1.49892,-3.80782 q -0.0121,-0.70106 -0.36265,-1.05767 -0.34493,-0.36264 -1.0214,-0.36264 -0.61046,0 -0.97311,0.37472 -0.36264,0.36868 -0.42925,1.05167 z m -5.65723,-0.76156 q -0.29019,-0.26564 -0.68303,-0.39887 -0.38719,-0.13282 -0.85219,-0.13282 -0.56208,0 -0.98522,0.19964 -0.41707,0.1936 -0.64673,0.56816 -0.1453,0.22982 -0.20527,0.556 -0.0543,0.32642 -0.0543,0.9913 v 3.11871 h -1.77097 v -6.7694 h 1.77097 v 1.05167 q 0.2596,-0.58023 0.79777,-0.89453 0.53794,-0.32039 1.25715,-0.32039 0.36264,0 0.70718,0.0906 0.35057,0.0845 0.66483,0.25357 z m -10.686,-0.5923 q -0.63461,0 -0.99721,0.56212 -0.36265,0.55608 -0.36265,1.55334 0,0.99721 0.36265,1.55937 0.36264,0.55604 0.99721,0.55604 0.64073,0 1.00333,-0.55604 0.36265,-0.56216 0.36265,-1.55937 0,-0.99726 -0.36265,-1.55334 -0.36264,-0.56212 -1.00333,-0.56212 z m -3.13083,2.11546 q 0,-1.63795 0.84616,-2.59294 0.85224,-0.96103 2.28467,-0.96103 1.43851,0 2.28467,0.96103 0.85223,0.95499 0.85223,2.59294 0,1.63794 -0.85223,2.59897 -0.84616,0.95495 -2.28467,0.95495 -1.43243,0 -2.28467,-0.95495 -0.84616,-0.96103 -0.84616,-2.59897 z m -1.6319,3.0341 q -0.44713,0.25961 -0.96103,0.3868 -0.5137,0.13282 -1.10605,0.13282 -1.56541,0 -2.44787,-0.94292 -0.88243,-0.94288 -0.88243,-2.61101 0,-1.67424 0.8885,-2.61708 0.88851,-0.94896 2.45388,-0.94896 0.54401,0 1.04563,0.12679 0.5077,0.12678 1.00937,0.39323 v 1.61983 q -0.3872,-0.33245 -0.8522,-0.5077 -0.45932,-0.18112 -0.95495,-0.18112 -0.86435,0 -1.32971,0.55 -0.46544,0.55005 -0.46544,1.56546 0,1.01536 0.46544,1.55933 0.46544,0.54397 1.32971,0.54397 0.5137,0 0.96099,-0.16905 0.44713,-0.17508 0.84616,-0.52585 z m -7.39189,-4.04951 v 4.39404 h -1.75885 v -4.12204 q 0,-0.73744 -0.21171,-1.05171 -0.20567,-0.32038 -0.67691,-0.32038 -0.47768,0 -0.75552,0.42929 -0.27208,0.4293 -0.27208,1.1907 v 3.87426 h -1.75881 v -6.76939 h 1.75881 v 1.01541 q 0.18756,-0.56208 0.64069,-0.87035 0.4532,-0.30791 1.09397,-0.30791 0.96099,0 1.45058,0.64073 0.48939,0.63457 0.48939,1.89783 z m -7.26502,4.06163 q -0.61649,0.25357 -1.25718,0.38075 -0.64069,0.12679 -1.35386,0.12679 -1.6984,0 -2.59898,-0.90661 -0.89453,-0.91266 -0.89453,-2.62317 0,-1.65605 0.86435,-2.61708 0.86423,-0.96103 2.35715,-0.96103 1.505,0 2.33305,0.89458 0.83408,0.88846 0.83408,2.50825 v 0.71929 h -4.58748 q 0.004,0.79782 0.47156,1.19069 0.46544,0.39243 1.39016,0.39243 0.61046,0 1.20281,-0.17508 0.59231,-0.17508 1.23903,-0.55604 z m -1.49896,-3.80782 q -0.0121,-0.70106 -0.36264,-1.05767 -0.34494,-0.36264 -1.02149,-0.36264 -0.61046,0 -0.97306,0.37472 -0.36265,0.36868 -0.4293,1.05167 z m -19.09929,1.777 v -4.40616 h 1.77088 v 4.1342 q 0,0.73129 0.20568,1.04559 0.20567,0.31435 0.68294,0.31435 0.47768,0 0.74341,-0.42318 0.27208,-0.42314 0.27208,-1.18466 v -3.88634 h 1.77089 v 6.76939 h -1.77089 v -1.00333 q -0.18756,0.56208 -0.64073,0.87039 -0.44708,0.30791 -1.08185,0.30791 -0.96707,0 -1.46266,-0.64069 -0.48939,-0.64069 -0.48939,-1.89783 z m -3.63857,-3.44513 v -3.59626 h 1.76489 v 9.40462 h -1.76489 v -1.00333 q -0.28416,0.58627 -0.73737,0.88247 -0.44708,0.29623 -1.0577,0.29623 -1.16051,0 -1.80116,-0.9308 -0.64068,-0.93081 -0.64068,-2.62312 0,-1.71655 0.64672,-2.63528 0.6528,-0.91869 1.85557,-0.91869 0.54393,0 0.97306,0.28416 0.43542,0.27812 0.76156,0.84012 z m -2.46599,2.4418 q 0,0.97914 0.32642,1.53519 0.32642,0.55608 0.9005,0.55608 0.57423,0 0.90665,-0.55608 0.33246,-0.55605 0.33246,-1.53519 0,-0.97914 -0.33246,-1.53523 -0.33246,-0.55604 -0.90665,-0.55604 -0.57416,0 -0.9005,0.55604 -0.32642,0.55609 -0.32642,1.53523 z m -3.29403,-1.02748 v 4.39404 h -1.75881 v -4.12204 q 0,-0.73744 -0.21131,-1.05171 -0.20568,-0.32038 -0.67695,-0.32038 -0.47768,0 -0.75552,0.42929 -0.27209,0.4293 -0.27209,1.1907 v 3.87426 h -1.75881 v -6.76939 h 1.75881 v 1.01541 q 0.18757,-0.56208 0.64069,-0.87035 0.45321,-0.30791 1.09397,-0.30791 0.96103,0 1.45059,0.64073 0.48939,0.63457 0.48939,1.89783 z m -10.20241,-1.10005 q -0.63461,0 -0.9973,0.56212 -0.36264,0.55608 -0.36264,1.55334 0,0.99721 0.36264,1.55937 0.36265,0.55604 0.9973,0.55604 0.64064,0 1.00333,-0.55604 0.36265,-0.56216 0.36265,-1.55937 0,-0.99726 -0.36265,-1.55334 -0.36265,-0.56212 -1.00333,-0.56212 z m -3.13087,2.11546 q 0,-1.63795 0.8462,-2.59294 0.85224,-0.96103 2.28467,-0.96103 1.43846,0 2.28466,0.96103 0.85224,0.95499 0.85224,2.59294 0,1.63794 -0.85224,2.59897 -0.8462,0.95495 -2.28466,0.95495 -1.43243,0 -2.28467,-0.95495 -0.8462,-0.96103 -0.8462,-2.59897 z m -5.37319,2.42368 v 3.52974 h -1.76484 v -9.34418 h 1.76484 v 1.01541 q 0.27813,-0.58627 0.73137,-0.88247 0.45321,-0.29623 1.06375,-0.29623 1.16046,0 1.80111,0.9308 0.64069,0.93081 0.64069,2.62316 0,1.71651 -0.65276,2.63524 -0.64673,0.91869 -1.84945,0.91869 -0.54401,0 -0.97915,-0.27812 -0.4293,-0.28416 -0.75556,-0.8522 z m 2.46599,-2.4358 q 0,-0.97914 -0.32642,-1.53518 -0.32642,-0.55609 -0.90057,-0.55609 -0.5742,0 -0.90662,0.55609 -0.33246,0.55604 -0.33246,1.53518 0,0.97914 0.33246,1.53519 0.33246,0.55608 0.90662,0.55608 0.57423,0 0.90057,-0.55608 0.32642,-0.55605 0.32642,-1.53519 z m -5.92923,3.05834 q -0.6165,0.25357 -1.25718,0.38075 -0.64065,0.12679 -1.3539,0.12679 -1.69836,0 -2.59894,-0.90661 -0.89453,-0.91266 -0.89453,-2.62317 0,-1.65605 0.86431,-2.61708 0.86435,-0.96103 2.35719,-0.96103 1.505,0 2.33305,0.89458 0.83404,0.88846 0.83404,2.50825 v 0.71929 h -4.58744 q 0.004,0.79782 0.47156,1.19069 0.46544,0.39243 1.39012,0.39243 0.61042,0 1.20277,-0.17508 0.59235,-0.17508 1.23907,-0.55604 z m -1.49896,-3.80782 q -0.0121,-0.70106 -0.36264,-1.05767 -0.34494,-0.36264 -1.02149,-0.36264 -0.61042,0 -0.97306,0.37472 -0.36265,0.36868 -0.4293,1.05167 z m -0.38076,-5.75994 h 1.70448 l -2.22429,2.27251 h -1.1907 z m -5.27647,4.99838 q -0.29019,-0.26564 -0.68298,-0.39887 -0.3872,-0.13282 -0.85224,-0.13282 -0.56212,0 -0.98518,0.19964 -0.41706,0.1936 -0.64673,0.56816 -0.14529,0.22982 -0.20567,0.556 -0.0543,0.32642 -0.0543,0.9913 v 3.11871 h -1.77089 v -6.7694 h 1.77089 v 1.05167 q 0.2596,-0.58023 0.79781,-0.89453 0.53794,-0.32039 1.25719,-0.32039 0.36264,0 0.7071,0.0906 0.35016,0.0845 0.66487,0.25357 z m -15.87183,-1.65605 v 1.5473 q -0.48935,-0.31435 -1.0214,-0.47156 -0.52582,-0.16301 -1.05771,-0.16301 -0.59235,0 -0.89458,0.17509 -0.30187,0.16904 -0.30187,0.5077 0,0.48327 1.29345,0.7857 l 0.0668,0.0201 0.50771,0.12075 q 0.96707,0.22982 1.41432,0.7434 0.45324,0.5077 0.45324,1.37805 0,1.04564 -0.68906,1.57149 -0.68299,0.51974 -2.06101,0.51974 -0.61046,0 -1.25114,-0.10908 -0.64069,-0.10303 -1.29949,-0.31434 v -1.5473 q 0.58627,0.33246 1.19069,0.5077 0.61046,0.17509 1.17862,0.17509 0.62254,0 0.94288,-0.18113 0.32038,-0.18112 0.32038,-0.52589 0,-0.3385 -0.22982,-0.51978 -0.22338,-0.18112 -1.07586,-0.3868 l -0.48935,-0.10907 q -1.01541,-0.22982 -1.48081,-0.71921 -0.46544,-0.48939 -0.46544,-1.3116 0,-0.97915 0.70714,-1.52311 0.70714,-0.54401 1.98855,-0.54401 0.57415,0 1.14227,0.0966 0.57424,0.0906 1.11213,0.27812 z m -9.21115,3.37864 q -0.99121,0 -1.38409,0.25357 -0.39323,0.25397 -0.39323,0.87039 0,0.45932 0.27208,0.73133 0.27209,0.27208 0.73737,0.27208 0.7011,0 1.08797,-0.52589 0.3868,-0.53186 0.3868,-1.48081 v -0.12075 z m 2.46599,-0.68299 v 3.86219 h -1.75881 v -0.75551 q -0.32038,0.44708 -0.82201,0.68902 -0.50158,0.2419 -1.10609,0.2419 -1.15438,0 -1.80111,-0.6105 -0.64073,-0.61046 -0.64073,-1.70443 0,-1.18462 0.76764,-1.74678 0.76759,-0.56808 2.37534,-0.56808 h 1.22696 v -0.29623 q 0,-0.4293 -0.31435,-0.64672 -0.3079,-0.22339 -0.91261,-0.22339 -0.63469,0 -1.23303,0.16301 -0.59231,0.15738 -1.23903,0.50771 v -1.51104 q 0.58627,-0.2419 1.19069,-0.35661 0.60438,-0.11471 1.28137,-0.11471 1.64998,0 2.31486,0.67092 0.67091,0.67083 0.67091,2.39949 z m -11.38706,-3.66268 v 2.64727 h 0.73133 q 0.87638,0 1.22691,-0.29623 0.35661,-0.29583 0.35661,-1.02744 0,-0.73137 -0.35661,-1.02748 -0.35017,-0.29624 -1.22691,-0.29624 z m -1.783,-1.499 h 2.44787 q 1.86761,0 2.68354,0.66492 0.82201,0.66484 0.82201,2.15772 0,1.49284 -0.82201,2.15776 -0.81593,0.66484 -2.68354,0.66484 h -0.66487 v 3.37863 h -1.783 z" /><path
     id="path3074"
     style="font-weight:bold;font-size:7.99999px;line-height:1;font-family:monospace;-inkscape-font-specification:'monospace Bold';text-align:center;letter-spacing:0px;white-space:pre;display:inline;fill:#ffffff;stroke-width:5.09229;stroke-linecap:round"
     d="m 51.079517,335.64481 -3.458445,-0.98595 0.483868,-1.69727 9.04427,2.57829 -0.48382,1.69726 -0.964874,-0.2749 q 0.485905,0.43389 0.646471,0.95105 0.162204,0.51133 -0.0052,1.09836 -0.31813,1.11603 -1.388912,1.47699 -1.07077,0.36103 -2.69827,-0.10304 -1.650757,-0.47051 -2.356957,-1.34437 -0.704547,-0.87964 -0.374801,-2.03632 0.149083,-0.52312 0.539963,-0.85796 0.386674,-0.34211 1.016719,-0.5021 z m 1.672194,3.0409 q 0.94163,0.26847 1.565859,0.10707 0.624233,-0.1614 0.781643,-0.71366 0.157415,-0.55214 -0.286171,-1.0243 -0.443591,-0.47205 -1.385237,-0.74059 -0.94163,-0.26846 -1.567514,-0.10143 -0.625887,0.16704 -0.783301,0.71942 -0.157415,0.55222 0.287862,1.0185 0.445269,0.46649 1.386895,0.73475 z m -2.260645,2.36279 q -0.331815,0.21171 -0.561678,0.55689 -0.228293,0.3397 -0.348437,0.78901 -0.145098,0.54304 -0.06158,1.00329 0.07925,0.45268 0.381965,0.77141 0.184462,0.19964 0.484177,0.34212 0.301266,0.13685 0.943599,0.30871 l 3.013079,0.80499 -0.457086,1.71091 -6.540008,-1.74722 0.457086,-1.71091 1.01603,0.27128 q -0.493495,-0.40088 -0.658291,-1.00168 -0.170657,-0.60237 0.01489,-1.29723 0.09358,-0.35017 0.270112,-0.65981 0.172227,-0.31676 0.416857,-0.57681 z m -3.293134,10.27525 q -0.153591,0.61573 0.304043,1.10359 0.451789,0.48633 1.419412,0.72779 0.967635,0.24149 1.600783,0.0241 0.627284,-0.21734 0.780851,-0.83311 0.15508,-0.62161 -0.296717,-1.1081 -0.457646,-0.48782 -1.425277,-0.72916 -0.967631,-0.24149 -1.594915,-0.0241 -0.633152,0.21574 -0.78818,0.83747 z m 1.294946,3.54969 q -1.589268,-0.39605 -2.311085,-1.44852 -0.726233,-1.0594 -0.37959,-2.44929 0.348115,-1.39576 1.4853,-1.98424 1.132802,-0.59577 2.72207,-0.19964 1.589268,0.39605 2.315492,1.45577 0.721825,1.05212 0.373714,2.44788 -0.346626,1.38984 -1.479432,1.98565 -1.137209,0.58845 -2.726477,0.19199 z m 2.564478,2.32754 q 0.152223,0.49446 0.15983,1.02353 0.01328,0.53049 -0.120225,1.1075 -0.353468,1.52496 -1.471241,2.17177 -1.117769,0.64672 -2.742858,0.27007 -1.630975,-0.37794 -2.348888,-1.45646 -0.723805,-1.07981 -0.370373,-2.60481 0.122841,-0.52988 0.359707,-0.98993 0.238276,-0.46596 0.610629,-0.89458 l 1.577982,0.36547 q -0.411202,0.30187 -0.687017,0.71559 -0.280376,0.40635 -0.392269,0.88934 -0.195128,0.84198 0.235578,1.41955 0.430707,0.57758 1.419908,0.80684 0.98918,0.22902 1.62418,-0.10143 0.635008,-0.33044 0.83016,-1.1725 0.115998,-0.50058 0.05216,-0.97443 -0.06975,-0.4751 -0.321189,-0.94304 z m -1.667066,7.26932 q 0.160394,0.49189 0.176855,1.02072 0.02254,0.53025 -0.10175,1.10939 -0.328031,1.53068 -1.434876,2.19596 -1.106853,0.66524 -2.737992,0.31555 -1.637036,-0.35097 -2.372811,-1.41713 -0.741672,-1.06761 -0.413645,-2.59833 0.113985,-0.53189 0.343205,-0.99577 0.230467,-0.47003 0.595652,-0.90468 l 1.58385,0.3393 q -0.40611,0.30872 -0.675007,0.7269 -0.273574,0.41095 -0.377377,0.89579 -0.181121,0.84507 0.259165,1.4154 0.440282,0.57038 1.433145,0.78309 0.992863,0.21292 1.622272,-0.12839 0.629414,-0.34131 0.810523,-1.18619 0.107666,-0.5021 0.03582,-0.97511 -0.07764,-0.4741 -0.336846,-0.93757 z m -4.748693,8.88912 q -0.191506,0.97254 -0.01852,1.40703 0.173152,0.43441 0.778025,0.55367 0.450671,0.0885 0.770112,-0.12517 0.319418,-0.21453 0.409319,-0.67092 0.135519,-0.6879 -0.305693,-1.16904 -0.447104,-0.48222 -1.378141,-0.66564 l -0.118614,-0.0241 z m -0.193599,-2.55152 3.78937,0.74634 -0.339864,1.72569 -0.74127,-0.14611 q 0.376934,0.40089 0.517194,0.93962 0.140229,0.53894 0.02334,1.13197 -0.223101,1.13269 -0.946999,1.64925 -0.722747,0.5106 -1.796109,0.29946 -1.162317,-0.22902 -1.565489,-1.09068 -0.409113,-0.86294 -0.09845,-2.44035 l 0.237108,-1.20385 -0.290559,-0.0571 q -0.421031,-0.0829 -0.695261,0.18313 -0.279007,0.2592 -0.39577,0.85224 -0.12264,0.62269 -0.07816,1.24132 0.03985,0.61151 0.258681,1.31382 l -1.482543,-0.29181 q -0.123968,-0.62197 -0.119782,-1.23718 0.004,-0.61521 0.134956,-1.2794 0.318894,-1.61895 1.105577,-2.14162 0.78789,-0.52855 2.483919,-0.19441 z m -6.910172,8.63599 3.301573,0.59336 -0.273694,1.52291 -3.301566,-0.59336 z m 1.925332,7.72089 -3.549609,-0.57718 0.283234,-1.74198 9.282673,1.50934 -0.283233,1.74199 -0.990304,-0.161 q 0.533077,0.37432 0.752648,0.86946 0.220566,0.48887 0.122559,1.09156 -0.186273,1.14542 -1.207798,1.62841 -1.021549,0.48274 -2.691951,0.2113 -1.694266,-0.2753 -2.497262,-1.06129 -0.80203,-0.79178 -0.608991,-1.97893 0.0873,-0.53692 0.436563,-0.9149 0.344292,-0.38479 0.951463,-0.61686 z m 2.01438,2.82589 q 0.966448,0.15738 1.567675,-0.0761 0.60123,-0.23264 0.693385,-0.79963 0.09217,-0.56675 -0.403362,-0.98409 -0.495483,-0.41759 -1.461939,-0.57452 -0.966452,-0.15737 -1.568653,0.0813 -0.6022,0.23868 -0.694355,0.80563 -0.09217,0.56671 0.404328,0.97814 0.49645,0.41143 1.462913,0.56852 z m -7.161492,12.34621 1.906307,0.24552 0.295389,-2.29594 1.348799,0.17347 -0.295389,2.29598 3.177171,0.40889 q 0.4496,0.058 0.675193,-0.13242 0.220364,-0.19722 0.28593,-0.70665 l 0.173555,-1.34884 1.348799,0.17388 -0.189735,1.47465 q -0.194363,1.51063 -0.742602,1.98252 -0.554215,0.47103 -1.861054,0.30307 l -3.093244,-0.39806 -0.220606,1.71441 -1.348799,-0.17347 0.220606,-1.71442 -1.906303,-0.24552 z m 3.612463,5.73015 4.366817,0.48839 -0.195491,1.74798 -4.096519,-0.45832 q -0.732809,-0.0821 -1.068669,0.0934 -0.341192,0.16864 -0.393597,0.63711 -0.05305,0.47461 0.342521,0.79854 0.396213,0.31757 1.153079,0.40277 l 3.850247,0.43083 -0.19549,1.74794 -6.727425,-0.75246 0.19549,-1.74786 1.00912,0.1127 q -0.537794,-0.24834 -0.793742,-0.73346 -0.255945,-0.4848 -0.184744,-1.12146 0.106781,-0.95508 0.79794,-1.37041 0.685114,-0.41606 1.940499,-0.2753 z m 3.241425,7.67842 q 0.194323,0.63775 0.26005,1.28758 0.06569,0.64978 -0.0019,1.35978 -0.160795,1.69074 -1.148591,2.50144 -0.993242,0.8041 -2.696033,0.64214 -1.648643,-0.15697 -2.523508,-1.1081 -0.874869,-0.95145 -0.733534,-2.43765 0.142483,-1.4982 1.111382,-2.23782 0.963457,-0.74622 2.575997,-0.59291 l 0.716013,0.0684 -0.434325,4.56688 q 0.794809,0.0692 1.229967,-0.35661 0.435138,-0.4262 0.522709,-1.3467 0.0578,-0.60772 -0.06062,-1.21395 -0.118413,-0.60628 -0.436257,-1.28617 z m -3.932577,1.13169 q -0.699108,-0.0543 -1.087296,0.26082 -0.393637,0.30871 -0.457746,0.98252 -0.0578,0.60768 0.28094,1.00418 0.332659,0.39565 1.006318,0.52674 z m -2.697489,8.32643 q -0.412221,-0.23223 -0.592984,-0.55576 -0.180759,-0.3232 -0.145782,-0.76928 0.06854,-0.87369 0.697076,-1.15785 0.629026,-0.29019 2.533107,-0.14047 l 3.802137,0.29825 -0.113422,1.44615 -4.332392,-0.3397 q -0.753195,-0.0592 -1.015246,0.0362 -0.262062,0.0946 -0.285689,0.39565 -0.02334,0.30147 0.226,0.44202 0.249625,0.14047 0.990794,0.19923 l 4.332388,0.33971 -0.112013,1.42804 -4.332392,-0.3397 q -0.741145,-0.058 -1.009696,0.0406 -0.268583,0.10022 -0.292209,0.40128 -0.02334,0.30147 0.220445,0.43538 0.244071,0.13443 0.997294,0.1936 l 4.332393,0.3397 -0.113463,1.44615 -6.748644,-0.52927 0.100663,-1.28347 0.698964,0.0551 q -0.38591,-0.18193 -0.58885,-0.53117 -0.208974,-0.34976 -0.176855,-0.75962 0.0322,-0.40994 0.305652,-0.72779 0.267496,-0.31877 0.622643,-0.36345 z m 5.367074,5.40362 q 0.215293,0.63099 0.302473,1.27828 0.08714,0.64732 0.04327,1.35913 -0.104809,1.69518 -1.065288,2.53804 -0.966122,0.83653 -2.673336,0.73096 -1.652922,-0.10223 -2.558759,-1.02422 -0.905836,-0.92195 -0.813698,-2.41197 0.0929,-1.50214 1.036804,-2.27336 0.938265,-0.77765 2.554991,-0.67768 l 0.717873,0.0459 -0.283113,4.57871 q 0.796672,0.0407 1.21751,-0.39726 0.42083,-0.44049 0.477915,-1.36328 0.03783,-0.6093 -0.100744,-1.2113 -0.138417,-0.60201 -0.478522,-1.27099 z m -3.893024,1.26109 q -0.700521,-0.0322 -1.078075,0.29704 -0.383212,0.32119 -0.425003,0.99709 -0.03783,0.60929 0.313944,0.99444 0.34562,0.38478 1.023179,0.49341 z m -5.017252,8.29286 1.920052,0.0869 0.104769,-2.31251 1.358523,0.0616 -0.104769,2.31251 3.200078,0.1453 q 0.45286,0.0201 0.661946,-0.18796 0.203339,-0.21493 0.226563,-0.72783 l 0.06158,-1.35853 1.358523,0.0616 -0.06726,1.48532 q -0.06895,1.52154 -0.5763,2.03701 -0.513415,0.51523 -1.829677,0.45578 l -3.11555,-0.14087 -0.0782,1.72681 -1.358527,-0.0616 0.0782,-1.72685 -1.920052,-0.0869 z m 8.138679,5.34156 q 0.235981,0.62354 0.344372,1.26761 0.108431,0.64406 0.08782,1.357 -0.0489,1.69767 -0.981131,2.57172 -0.938052,0.86789 -2.647822,0.81859 -1.655385,-0.0459 -2.591091,-0.93938 -0.935701,-0.8916 -0.892687,-2.38392 0.04327,-1.50431 0.961384,-2.30624 0.912148,-0.80816 2.531285,-0.76147 l 0.718947,0.0201 -0.132178,4.5856 q 0.797663,0.0161 1.203773,-0.43695 0.406115,-0.45369 0.432748,-1.37821 0.01771,-0.61022 -0.140551,-1.20736 -0.158099,-0.5971 -0.520116,-1.25453 z m -3.849386,1.38859 q -0.701169,-0.0121 -1.067727,0.33206 -0.372466,0.33407 -0.391946,1.01058 -0.01771,0.61022 0.346545,0.98349 0.358097,0.37311 1.038864,0.45932 z m -5.815792,1.85187 2.320922,-1.64422 -0.03421,1.19017 -2.33573,2.1578 z m 6.919751,8.50478 -5.221682,-0.0648 -0.02254,1.79495 -1.359816,-0.0161 0.04432,-3.56572 6.581501,0.0813 q 0.797755,0.0121 1.133233,-0.23385 0.335477,-0.24351 0.342802,-0.83598 l 0.01731,-1.41415 1.359816,0.0161 -0.02375,1.90978 q -0.0157,1.26314 -0.675213,1.80502 -0.659536,0.54187 -2.17648,0.52304 z m 1.857384,7.15912 3.529719,-0.0161 0.0072,1.76489 -9.344079,0.0362 -0.0072,-1.76489 1.015403,-0.004 q -0.587381,-0.2753 -0.88533,-0.72786 -0.297965,-0.45216 -0.30038,-1.06254 -0.0048,-1.16043 0.923643,-1.80482 0.928239,-0.64435 2.620573,-0.65107 1.716504,-0.004 2.637784,0.6423 0.92126,0.6431 0.926026,1.84587 0.0022,0.54397 -0.274097,0.98023 -0.282349,0.4303 -0.849214,0.7589 z m -2.445517,-2.45632 q -0.979134,0.004 -1.533897,0.33245 -0.554755,0.32844 -0.552477,0.90275 0.0023,0.57416 0.559645,0.9044 0.557367,0.33005 1.536501,0.32642 0.979131,-0.004 1.533869,-0.33849 0.554731,-0.33447 0.552453,-0.90883 -0.0023,-0.57415 -0.559621,-0.89832 -0.557343,-0.32441 -1.536473,-0.32038 z m -2.613494,8.5286 q -0.433101,-0.19038 -0.6448,-0.49446 -0.211751,-0.30388 -0.220807,-0.75117 -0.01771,-0.87623 0.579762,-1.22084 0.597418,-0.35097 2.506957,-0.38961 l 3.813025,-0.0773 0.02938,1.4503 -4.344797,0.0881 q -0.755357,0.0161 -1.006826,0.13524 -0.251477,0.12035 -0.245359,0.42218 0.006,0.30186 0.268422,0.41754 0.262304,0.11552 1.005562,0.10022 l 4.344801,-0.0881 0.02898,1.43214 -4.344801,0.0881 q -0.74327,0.0161 -1.000659,0.14127 -0.257354,0.12639 -0.251236,0.42825 0.006,0.30187 0.262264,0.41196 0.256146,0.10947 1.011483,0.0942 l 4.344805,-0.0882 0.02938,1.4503 -6.76798,0.13765 -0.02616,-1.28713 0.700972,-0.0161 q -0.401888,-0.14329 -0.638263,-0.47052 -0.242381,-0.32763 -0.250753,-0.73849 -0.0081,-0.41094 0.23256,-0.75431 0.234854,-0.34333 0.583859,-0.42318 z m 0.821768,7.97389 q 0.02335,0.63417 0.598184,0.97604 0.568939,0.34212 1.565549,0.3055 0.996607,-0.0362 1.545071,-0.4196 0.54243,-0.38277 0.519226,-1.0169 -0.02334,-0.64024 -0.592359,-0.98236 -0.57498,-0.34172 -1.571591,-0.30549 -0.996602,0.0362 -1.539033,0.41911 -0.548464,0.38277 -0.525047,1.02318 z m 2.228466,3.05141 q -1.636851,0.06 -2.622111,-0.7508 -0.991515,-0.81658 -1.043887,-2.24808 -0.05261,-1.4375 0.876849,-2.31828 0.923176,-0.88649 2.560026,-0.94638 1.636851,-0.06 2.628374,0.75661 0.98526,0.81074 1.037846,2.24824 0.05236,1.4315 -0.870808,2.31807 -0.929434,0.88073 -2.566289,0.94062 z m 3.187033,1.39955 q 0.239603,0.41094 0.372788,0.87003 0.133225,0.45884 0.160312,0.97205 0.09632,1.82277 -1.054082,2.84591 -1.150395,1.02313 -3.419806,1.14303 -2.275444,0.12035 -3.527247,-0.77596 -1.251803,-0.89619 -1.348111,-2.719 -0.02697,-0.51305 0.05667,-0.98952 0.08376,-0.47667 0.27937,-0.89845 l 1.979693,-0.10424 q -0.398266,0.48122 -0.568435,0.92577 -0.176574,0.43896 -0.152303,0.8978 0.05168,0.97777 0.856728,1.43758 0.798717,0.45425 2.325736,0.37311 1.520993,-0.0805 2.27344,-0.61642 0.746099,-0.54175 0.694436,-1.51952 -0.02455,-0.45885 -0.240006,-0.87708 -0.222136,-0.42418 -0.668874,-0.86044 z" /><path
     id="path3142"
     style="font-weight:bold;font-size:7.99999px;line-height:1;font-family:monospace;-inkscape-font-specification:'monospace Bold';text-align:center;letter-spacing:0px;white-space:pre;display:inline;fill:#ffffff;stroke-width:5.09229;stroke-linecap:round"
     d="m 949.12102,493.3204 3.59409,0.12316 -0.0608,1.76385 -9.39908,-0.322 0.0608,-1.76384 1.00273,0.0362 q -0.57621,-0.30388 -0.85671,-0.76714 -0.28053,-0.45732 -0.2596,-1.06725 0.0407,-1.15978 0.99194,-1.76823 0.95213,-0.60841 2.64353,-0.55045 1.71546,0.0584 2.61152,0.7366 0.89583,0.68384 0.85462,1.88588 -0.0201,0.54364 -0.31717,0.9628 -0.29301,0.42519 -0.86568,0.73233 z m -2.35595,-2.54814 q -0.97853,-0.0362 -1.54548,0.2733 -0.56691,0.3071 -0.5866,0.88101 -0.0201,0.57387 0.52473,0.92513 0.54433,0.35138 1.52291,0.38518 0.97854,0.0362 1.54565,-0.27973 0.56715,-0.31314 0.58679,-0.88701 0.0201,-0.57387 -0.52489,-0.91905 -0.54453,-0.34534 -1.52311,-0.37874 z m 1.6245,-2.83752 q 0.27088,-0.28497 0.41095,-0.67579 0.14006,-0.38438 0.14811,-0.84978 0.0121,-0.56196 -0.18192,-0.98856 -0.18595,-0.42012 -0.55661,-0.65671 -0.227,-0.14932 -0.5523,-0.21533 -0.32561,-0.06 -0.99009,-0.0716 l -3.11831,-0.0555 0.0322,-1.77064 6.76831,0.12035 -0.0322,1.77064 -1.05151,-0.0201 q 0.57552,0.27048 0.88021,0.8136 0.31072,0.54353 0.29784,1.26266 -0.004,0.36264 -0.10344,0.70545 -0.0906,0.34896 -0.26524,0.6602 z m 0.72107,-10.7653 q 8e-4,-0.63461 -0.56088,-0.99794 -0.55564,-0.36304 -1.55289,-0.36465 -0.9973,-10e-4 -1.55982,0.36063 -0.55652,0.36224 -0.55725,0.99661 -7.6e-4,0.64069 0.5548,1.00402 0.56167,0.36304 1.55893,0.36465 0.99729,10e-4 1.55378,-0.36063 0.56256,-0.36224 0.56333,-1.00265 z m -2.1116,-3.1334 q 1.63794,0.002 2.59189,0.84934 0.95994,0.8534 0.95817,2.28583 -0.002,1.43851 -0.96376,2.2835 -0.95604,0.85103 -2.59398,0.84906 -1.63795,-0.002 -2.59789,-0.85542 -0.95395,-0.84736 -0.95217,-2.28583 0.002,-1.43247 0.95777,-2.2835 0.96203,-0.84499 2.59997,-0.84298 z m -3.04936,-1.64132 q -0.26685,-0.44306 -0.40128,-0.95503 -0.14047,-0.51161 -0.14973,-1.10392 -0.0242,-1.56521 0.90533,-2.46196 0.92927,-0.89675 2.59728,-0.92223 1.674,-0.0241 2.63032,0.84833 0.9624,0.87389 0.98635,2.4391 0.0121,0.54393 -0.11109,1.04745 -0.11913,0.50959 -0.37713,1.01524 l -1.61963,0.0242 q 0.32642,-0.39162 0.49446,-0.85984 0.17428,-0.46186 0.16663,-0.95765 -0.0161,-0.86423 -0.57029,-1.3211 -0.55705,-0.45679 -1.57237,-0.44149 -1.01525,0.0161 -1.55205,0.48935 -0.53681,0.47357 -0.52356,1.33784 0.0121,0.51366 0.18393,0.95833 0.18233,0.44456 0.5387,0.83803 z m -0.13121,-7.45697 q -0.2741,-0.43896 -0.41706,-0.94827 -0.14933,-0.50923 -0.16824,-1.10126 -0.0511,-1.56461 0.86459,-2.47657 0.9143,-0.91201 2.58162,-0.96506 1.6734,-0.0531 2.64405,0.80482 0.97669,0.85788 1.02644,2.42248 0.0161,0.54373 -0.0938,1.04918 -0.11109,0.51145 -0.36063,1.02132 l -1.61899,0.0515 q 0.31998,-0.39726 0.48018,-0.86793 0.16663,-0.46492 0.15053,-0.96019 -0.0242,-0.86387 -0.59203,-1.31156 -0.56453,-0.44761 -1.57942,-0.41553 -1.01488,0.0322 -1.5438,0.51475 -0.52887,0.48226 -0.50158,1.34633 0.0161,0.51346 0.19963,0.95516 0.18958,0.44149 0.55251,0.82897 z m 2.47154,-9.77001 q -0.0459,-0.99005 -0.32038,-1.37021 -0.27249,-0.37995 -0.8883,-0.35016 -0.45884,0.0201 -0.71736,0.3071 -0.2588,0.28456 -0.23586,0.74964 0.0362,0.7003 0.57777,1.06129 0.54997,0.36063 1.49776,0.31475 l 0.12075,-0.004 z m 0.80132,2.43012 -3.85768,0.18636 -0.0849,-1.7568 0.75464,-0.0362 q -0.46239,-0.29825 -0.72795,-0.78772 -0.26565,-0.48935 -0.29503,-1.09309 -0.0555,-1.15306 0.52272,-1.82852 0.57882,-0.66942 1.67155,-0.72223 1.18324,-0.0576 1.78175,0.6823 0.60454,0.73926 0.68222,2.34512 l 0.0592,1.22551 0.29583,-0.0161 q 0.42878,-0.0201 0.63079,-0.34534 0.20809,-0.31877 0.17911,-0.92243 -0.0322,-0.63388 -0.22258,-1.22369 -0.18555,-0.58402 -0.56699,-1.21304 l 1.50926,-0.0729 q 0.27007,0.57392 0.41348,1.17206 0.14409,0.59814 0.1767,1.27429 0.0793,1.64812 -0.5583,2.3446 -0.63767,0.70247 -2.36428,0.78598 z m 2.26821,-8.38716 -1.54404,0.10022 q 0.28215,-0.50875 0.40434,-1.04986 0.1288,-0.53528 0.0942,-1.06608 -0.0407,-0.59106 -0.23264,-0.8813 -0.18836,-0.291 -0.52621,-0.26887 -0.48275,0.0322 -0.7003,1.34159 l -0.0161,0.0672 -0.0877,0.5145 q -0.16663,0.97991 -0.65023,1.45948 -0.47715,0.48532 -1.34581,0.54163 -1.04338,0.0676 -1.61275,-0.5857 -0.56296,-0.6479 -0.65223,-2.02309 -0.0407,-0.60913 0.0241,-1.25549 0.0612,-0.64604 0.22983,-1.31716 l 1.544,-0.10022 q -0.29382,0.6066 -0.42978,1.22108 -0.13564,0.62056 -0.0982,1.18747 0.0407,0.62121 0.2419,0.92916 0.20164,0.3079 0.54549,0.28577 0.33769,-0.0201 0.50364,-0.26283 0.16663,-0.23465 0.31636,-1.0986 l 0.0769,-0.49547 q 0.16341,-1.02821 0.62181,-1.52436 0.45831,-0.49599 1.27863,-0.54936 0.97713,-0.0636 1.56574,0.607 0.5886,0.67043 0.67168,1.9491 0.0362,0.57299 -0.0201,1.14618 -0.0535,0.57883 -0.20527,1.12778 z m -6.66515,-6.3686 q -0.30308,-0.59387 -0.48174,-1.22204 -0.17871,-0.62829 -0.23626,-1.33913 -0.13806,-1.69276 0.6924,-2.66402 0.83698,-0.96574 2.54178,-1.10476 1.65062,-0.13443 2.67871,0.64878 1.02804,0.78341 1.14935,2.2713 0.12236,1.50001 -0.70199,2.39805 -0.81778,0.90351 -2.43217,1.03517 l -0.71692,0.0584 -0.37271,-4.57231 q -0.79472,0.0708 -1.14847,0.56663 -0.35379,0.49599 -0.27853,1.4175 0.0507,0.60844 0.27249,1.18453 0.22298,0.57613 0.65494,1.18977 z m 3.67338,-1.80336 q 0.69781,-0.0692 1.02471,-0.44765 0.33366,-0.37271 0.27852,-1.04753 -0.0511,-0.60841 -0.45272,-0.93942 -0.39686,-0.33165 -1.08307,-0.34211 z m 5.71,-0.84765 0.13846,1.6988 -2.44579,-2.03218 -0.0966,-1.18675 z m -4.73645,-7.1869 3.579,-0.35137 0.17267,1.75639 -9.35955,0.91893 -0.17267,-1.75635 0.9985,-0.0982 q -0.61122,-0.2254 -0.9502,-0.64765 -0.33849,-0.41606 -0.39806,-1.0237 -0.11351,-1.15495 0.75032,-1.8835 0.86371,-0.72855 2.54802,-0.8939 1.70825,-0.16743 2.68579,0.38599 0.97805,0.55987 1.09558,1.75688 0.0531,0.54139 -0.18756,0.99617 -0.23425,0.46037 -0.76172,0.84004 z m -2.67114,-2.21564 q -0.97447,0.0958 -1.4959,0.47462 -0.52151,0.37955 -0.46544,0.95065 0.056,0.57138 0.64198,0.84789 0.58586,0.27651 1.56034,0.18072 0.97447,-0.0958 1.49537,-0.48074 0.52091,-0.38518 0.46492,-0.95656 -0.0559,-0.57146 -0.64137,-0.84197 -0.58534,-0.27048 -1.55978,-0.17469 z m -0.19842,-10.92319 -4.35646,0.57355 -0.22982,-1.74375 4.08674,-0.53809 q 0.73109,-0.0962 1.01509,-0.34695 0.2906,-0.24552 0.22902,-0.71298 -0.062,-0.47361 -0.52409,-0.69301 -0.46085,-0.21332 -1.21601,-0.1139 l -3.84114,0.50565 -0.22982,-1.74376 6.71147,-0.88367 0.22982,1.74376 -1.00671,0.13242 q 0.58176,0.11269 0.9465,0.52159 0.36466,0.40941 0.44866,1.04438 0.12517,0.95278 -0.4456,1.52178 -0.5653,0.56824 -1.81769,0.73314 z m -4.98893,-6.67641 q -0.34172,-0.57255 -0.56132,-1.18764 -0.21936,-0.61505 -0.32441,-1.32053 -0.24954,-1.67996 0.51499,-2.7039 0.77138,-1.01891 2.46329,-1.27019 1.6381,-0.24351 2.71566,0.47051 1.07759,0.71374 1.29683,2.19049 0.22096,1.48861 -0.54208,2.4391 -0.75628,0.95551 -2.35852,1.19347 l -0.71145,0.10585 -0.67393,-4.53769 q -0.78828,0.12316 -1.1085,0.64121 -0.32039,0.51809 -0.18435,1.43283 0.0898,0.60378 0.34977,1.16393 0.26041,0.56018 0.73209,1.14396 z m 3.54627,-2.04209 q 0.69173,-0.11511 0.99295,-0.51406 0.30791,-0.39404 0.20889,-1.06363 -0.0897,-0.60385 -0.51358,-0.90749 -0.4181,-0.30469 -1.10331,-0.27008 z m 1.89107,-16.63894 -1.89074,0.34534 0.41553,2.27726 -1.33789,0.24391 -0.41553,-2.2773 -3.15131,0.57504 q -0.44608,0.0813 -0.60309,0.33085 -0.15013,0.25478 -0.058,0.76011 l 0.24391,1.3378 -1.33781,0.24391 -0.26685,-1.46266 q -0.27329,-1.49835 0.10586,-2.11437 0.38518,-0.61702 1.68129,-0.85356 l 3.06807,-0.55987 -0.31032,-1.70053 1.33781,-0.24391 0.31032,1.70057 1.89074,-0.34534 z m -5.18148,-4.36305 -4.30904,0.86008 -0.34413,-1.7248 4.04235,-0.80683 q 0.72308,-0.1445 0.98993,-0.41348 0.27409,-0.26444 0.18192,-0.72658 -0.0934,-0.4685 -0.56868,-0.65691 -0.47409,-0.18273 -1.22092,-0.0362 l -3.79932,0.75837 -0.34413,-1.72484 6.63846,-1.325 0.34413,1.7248 -0.99572,0.19883 q 0.58788,0.0737 0.97894,0.4578 0.39122,0.38397 0.5164,1.0125 0.18796,0.94236 -0.34413,1.54791 -0.52659,0.6043 -1.76534,0.85159 z m -5.41907,-6.33229 q -0.37875,-0.54868 -0.63852,-1.14791 -0.2596,-0.59919 -0.41094,-1.29618 -0.35983,-1.65984 0.33487,-2.73208 0.70239,-1.06761 2.37398,-1.43005 1.6185,-0.35097 2.74081,0.2902 1.12235,0.64096 1.43875,2.09996 0.31877,1.47082 -0.37995,2.46965 -0.6916,1.00341 -2.27461,1.34666 l -0.70287,0.15214 -0.97222,-4.48328 q -0.77842,0.17508 -1.0637,0.71305 -0.28497,0.53814 -0.0898,1.44185 0.1292,0.59658 0.4262,1.13829 0.29704,0.54171 0.80603,1.09305 z m 3.40367,-2.27174 q 0.68259,-0.1606 0.95685,-0.57863 0.28174,-0.41348 0.13805,-1.07505 -0.1292,-0.59662 -0.57246,-0.8716 -0.43691,-0.27611 -1.11873,-0.19642 z m 0.0459,-8.75203 q 0.46343,0.0962 0.7337,0.34936 0.27047,0.25317 0.3723,0.6887 0.20004,0.85333 -0.31273,1.31479 -0.51129,0.46749 -2.37084,0.90299 l -3.71339,0.86966 -0.33085,-1.41234 4.2312,-0.99098 q 0.73563,-0.17227 0.95656,-0.34212 0.22097,-0.16945 0.15214,-0.46391 -0.0688,-0.29422 -0.34936,-0.35218 -0.28054,-0.0584 -1.00446,0.11109 l -4.2312,0.99097 -0.32642,-1.39471 4.2312,-0.99098 q 0.7238,-0.16945 0.94932,-0.34614 0.22579,-0.1771 0.15616,-0.47104 -0.0688,-0.29422 -0.34212,-0.34815 -0.27329,-0.0539 -1.00892,0.11833 l -4.2312,0.99102 -0.33085,-1.41235 6.59101,-1.54372 0.29342,1.25348 -0.68263,0.15979 q 0.42266,0.0559 0.72223,0.32763 0.30549,0.26967 0.39927,0.67007 0.0938,0.40048 -0.0704,0.78627 -0.15858,0.38438 -0.48327,0.53523 z m -6.75386,-3.52044 q -0.39686,-0.53588 -0.67615,-1.12621 -0.27973,-0.5903 -0.45373,-1.2819 -0.41452,-1.64708 0.24512,-2.74165 0.66669,-1.09027 2.32548,-1.50778 1.60594,-0.40434 2.74886,0.19923 1.14292,0.60354 1.50733,2.05126 0.36707,1.45948 -0.29784,2.48084 -0.658,1.02576 -2.22884,1.42112 l -0.69744,0.17549 -1.11985,-4.4487 q -0.77218,0.20044 -1.0396,0.74779 -0.26726,0.54722 -0.0407,1.44402 0.14932,0.59198 0.46339,1.12359 0.31475,0.53161 0.84173,1.06584 z m 3.32668,-2.38311 q 0.67695,-0.18274 0.9372,-0.60986 0.26725,-0.42266 0.10223,-1.07904 -0.14932,-0.59199 -0.60088,-0.8522 -0.44608,-0.26162 -1.12464,-0.15938 z m 2.26369,-9.42448 -1.85589,0.50006 0.60213,2.2352 -1.31317,0.35379 -0.60205,-2.23524 -3.09311,0.83316 q -0.43743,0.11793 -0.57371,0.37995 -0.1284,0.26645 0.004,0.76232 l 0.35379,1.31313 -1.31309,0.35379 -0.38639,-1.43569 q -0.39605,-1.47066 -0.0692,-2.11586 0.33327,-0.64676 1.6051,-0.98944 l 3.01145,-0.81115 -0.44967,-1.66913 1.31317,-0.35379 0.44967,1.66913 1.85581,-0.50005 z m -9.37601,-2.61921 q -0.414,-0.52248 -0.71301,-1.10323 -0.29906,-0.58076 -0.49547,-1.26624 -0.46903,-1.63243 0.15415,-2.74826 0.63027,-1.11164 2.27432,-1.58381 1.59178,-0.45731 2.75406,0.10827 1.16219,0.56551 1.57426,2.00039 0.41554,1.44652 -0.21573,2.48929 -0.62378,1.04692 -2.18066,1.49397 l -0.69128,0.19843 -1.2662,-4.40922 q -0.76514,0.2262 -1.01432,0.78176 -0.24915,0.55572 0.004,1.44459 0.16864,0.58675 0.50058,1.10765 0.33206,0.52095 0.87647,1.03743 z m 3.2461,-2.49175 q 0.67055,-0.20527 0.91655,-0.64045 0.25357,-0.43131 0.0668,-1.08185 -0.16865,-0.5868 -0.62878,-0.83188 -0.45473,-0.24713 -1.12927,-0.12235 z m 4.97907,-3.53014 -1.71216,2.27135 -0.32844,-1.14445 1.57037,-2.76506 z m -9.17586,-6.00295 4.99477,-1.52408 -0.52396,-1.71695 1.30073,-0.39685 1.04076,3.41075 -6.29546,1.92098 q -0.76304,0.23264 -1.00868,0.56687 -0.24552,0.33407 -0.0729,0.90057 l 0.41295,1.35278 -1.30073,0.39686 -0.55745,-1.82668 q -0.36868,-1.2082 0.0954,-1.9248 0.46391,-0.71656 1.91486,-1.15934 z m -3.94434,-6.2563 -3.35859,1.08581 -0.54288,-1.67932 8.89101,-2.8744 0.54296,1.67928 -0.96618,0.31233 q 0.64338,0.0841 1.06463,0.42419 0.42112,0.34011 0.60901,0.92106 0.35701,1.1042 -0.33166,2.00015 -0.68858,0.89594 -2.29887,1.41653 -1.63327,0.52803 -2.70821,0.18957 -1.07308,-0.33246 -1.44309,-1.47714 -0.16744,-0.51765 -0.0362,-1.01722 0.13846,-0.49547 0.57851,-0.98108 z m 3.07629,1.59717 q 0.93161,-0.30146 1.36034,-0.78284 0.42878,-0.48175 0.25196,-1.02793 -0.17669,-0.54638 -0.808,-0.69164 -0.63135,-0.1453 -1.56304,0.15576 -0.93165,0.30147 -1.35849,0.78861 -0.42672,0.48733 -0.24995,1.03368 0.1767,0.54634 0.8062,0.68584 0.62945,0.13967 1.56114,-0.1618 z m -0.10223,-8.92083 q 0.47055,0.0511 0.76473,0.2753 0.29382,0.225 0.43844,0.6485 0.28295,0.82933 -0.18113,1.33933 -0.46238,0.51572 -2.26989,1.13314 l -3.60902,1.23295 -0.46899,-1.37266 4.11234,-1.40494 q 0.71495,-0.24431 0.91805,-0.43489 0.20326,-0.19038 0.10545,-0.47663 -0.0978,-0.28617 -0.38317,-0.31636 -0.28497,-0.0322 -0.98856,0.2097 l -4.1123,1.4049 -0.46287,-1.35551 4.1123,-1.4049 q 0.70356,-0.24029 0.9104,-0.43896 0.20688,-0.19843 0.10948,-0.48428 -0.0978,-0.28617 -0.37553,-0.31273 -0.27772,-0.0241 -0.99226,0.21734 l -4.11234,1.4049 -0.46903,-1.37266 6.4059,-2.18847 0.41602,1.21822 -0.66347,0.22661 q 0.42624,0.0161 0.75117,0.25397 0.33045,0.23827 0.46339,0.62732 0.13282,0.38921 0.0121,0.78937 -0.11914,0.39806 -0.42777,0.58035 z m -3.20831,-7.34741 q -0.21493,-0.59714 -0.8668,-0.74783 -0.64604,-0.15295 -1.58429,0.18555 -0.93829,0.33809 -1.34425,0.86958 -0.40007,0.5296 -0.18555,1.1267 0.21695,0.60277 0.86315,0.75556 0.65171,0.15053 1.59,-0.18757 0.93829,-0.33809 1.33853,-0.86753 0.40587,-0.53169 0.18877,-1.13446 z m -3.05117,-2.22876 q 1.54102,-0.55508 2.7262,-0.0825 1.19291,0.47615 1.67839,1.82381 0.4873,1.35338 -0.13,2.47517 -0.60966,1.1254 -2.15068,1.6804 -1.54102,0.55508 -2.73401,0.0789 -1.18517,-0.47257 -1.67267,-1.82587 -0.48529,-1.34774 0.12437,-2.47307 0.61746,-1.12178 2.15848,-1.67686 z m -3.46195,-0.36345 q -0.35339,-0.31877 -0.62004,-0.71519 -0.26685,-0.39686 -0.44866,-0.87707 -0.64681,-1.70689 0.13765,-3.03173 0.78422,-1.32484 2.90934,-2.13011 2.13075,-0.8074 3.59606,-0.33487 1.46519,0.47256 2.112,2.17933 0.18192,0.48021 0.24753,0.95982 0.0652,0.47917 0.0121,0.94079 l -1.85379,0.70247 q 0.23264,-0.57943 0.2596,-1.05489 0.0362,-0.47209 -0.12839,-0.90151 -0.34695,-0.91558 -1.25376,-1.10846 -0.89909,-0.18957 -2.32902,0.35258 -1.42426,0.53967 -1.97777,1.27945 -0.54566,0.7432 -0.19843,1.65887 0.16301,0.42978 0.49551,0.76224 0.34051,0.33608 0.89913,0.61593 z" /><path
     id="path1522"
     style="font-weight:bold;font-size:8px;line-height:1;font-family:monospace;-inkscape-font-specification:'monospace Bold';text-align:center;letter-spacing:0px;white-space:pre;display:inline;fill:#ffffff;stroke-width:1.54729;stroke-linecap:round"
     d="m 320.99896,50.973147 -1.37046,-3.324866 1.6317,-0.672556 3.58393,8.694943 -1.6317,0.672556 -0.38233,-0.927604 q -0.039,0.650287 -0.34546,1.09686 -0.30066,0.444254 -0.86503,0.676883 -1.0729,0.442214 -2.01994,-0.174159 -0.94701,-0.616461 -1.59196,-2.181052 -0.65413,-1.586986 -0.40631,-2.682831 0.25341,-1.098115 1.36541,-1.556489 0.50292,-0.207323 1.00792,-0.10823 0.50826,0.09121 1.02422,0.486569 z m -1.34938,3.197304 q 0.37311,0.905261 0.88679,1.29497 0.51365,0.389773 1.04452,0.170898 0.53086,-0.218755 0.62628,-0.859598 0.0954,-0.640784 -0.27767,-1.546033 -0.37312,-0.905261 -0.89239,-1.292683 -0.51924,-0.387359 -1.0501,-0.168604 -0.53087,0.218835 -0.62071,0.8573 -0.0898,0.638473 0.28327,1.543726 z m -3.25543,-0.308993 q -0.37174,-0.12924 -0.78516,-0.09547 -0.40784,0.03099 -0.83511,0.215776 -0.51604,0.222779 -0.8254,0.573651 -0.30621,0.342924 -0.3684,0.778026 -0.0423,0.268381 0.0314,0.591957 0.0794,0.321229 0.34296,0.931596 l 1.23629,2.863239 -1.62584,0.702007 -2.68341,-6.214811 1.62584,-0.702003 0.4169,0.965522 q 0.009,-0.635708 0.37786,-1.137515 0.36683,-0.507345 1.02719,-0.792438 0.33295,-0.14377 0.68515,-0.19706 0.3554,-0.0613 0.71101,-0.03059 z m -10.10387,3.785796 q -0.57838,0.261177 -0.67749,0.922765 -0.10159,0.65605 0.30883,1.564913 0.41049,0.908892 0.97235,1.271891 0.55937,0.357534 1.13774,0.09628 0.5839,-0.263672 0.6855,-0.919742 0.0991,-0.661544 -0.31133,-1.570424 -0.41049,-0.908875 -0.96986,-1.266381 -0.56188,-0.362967 -1.14574,-0.09929 z m -1.98259,3.216599 q -0.67419,-1.492762 -0.29611,-2.711367 0.38112,-1.226607 1.68659,-1.816209 1.31099,-0.592106 2.47772,-0.06456 1.16974,0.519557 1.84395,2.012291 0.67418,1.492771 0.29305,2.719385 -0.37806,1.218609 -1.68908,1.810699 -1.30548,0.589599 -2.47523,0.07007 -1.16671,-0.527554 -1.84091,-2.020301 z m -0.2367,3.455149 q -0.29362,0.425869 -0.70409,0.759877 -0.4079,0.339461 -0.94359,0.592202 -1.41577,0.667932 -2.61617,0.191707 -1.20041,-0.47618 -1.91216,-1.984913 -0.71435,-1.514167 -0.31313,-2.745998 0.39862,-1.237309 1.81442,-1.905249 0.49197,-0.232117 0.99982,-0.331371 0.51332,-0.101831 1.0805,-0.07535 l 0.69115,1.464962 q -0.49172,-0.135599 -0.98737,-0.09555 -0.49284,0.0322 -0.94103,0.243467 -0.78168,0.368804 -0.9679,1.064813 -0.18619,0.696009 0.24701,1.614343 0.43325,0.918318 1.08626,1.211715 0.6531,0.293215 1.43469,-0.07535 0.46462,-0.219157 0.79692,-0.563114 0.32972,-0.349404 0.54092,-0.836604 z m -6.73758,3.197831 q -0.28654,0.430707 -0.69137,0.771465 -0.40217,0.346183 -0.93364,0.607771 -1.4045,0.691332 -2.61261,0.235055 -1.2081,-0.456269 -1.94483,-1.952923 -0.73938,-1.502093 -0.35866,-2.740428 0.3781,-1.243744 1.78257,-1.935081 0.48805,-0.240207 0.99419,-0.347914 0.51159,-0.110363 1.0791,-0.0933 l 0.71535,1.453298 q -0.49385,-0.127428 -0.98883,-0.07913 -0.49217,0.04025 -0.93686,0.259043 -0.77547,0.381724 -0.95012,1.080712 -0.1746,0.698996 0.27378,1.610012 0.44843,0.911029 1.1062,1.193542 0.65781,0.282469 1.43324,-0.09921 0.46095,-0.226925 0.7875,-0.57624 0.32388,-0.354797 0.52697,-0.845467 z m -9.91894,1.782871 q -0.88196,0.452453 -1.11565,0.85761 -0.23365,0.405197 0.0479,0.953709 0.20965,0.408706 0.57582,0.52654 0.36606,0.11785 0.78023,-0.09459 0.62383,-0.319981 0.72796,-0.964427 0.10139,-0.649811 -0.33169,-1.494123 l -0.0551,-0.107546 z m 1.88241,-1.733231 1.7628,3.436408 -1.56493,0.802775 -0.34485,-0.67223 q -0.0809,0.544157 -0.41691,0.988238 -0.336,0.444098 -0.87381,0.719942 -1.02716,0.526914 -1.88121,0.278967 -0.84868,-0.250712 -1.34801,-1.224103 -0.5407,-1.05405 -0.11427,-1.90454 0.42358,-0.85592 1.85416,-1.589675 l 1.0917,-0.560015 -0.13516,-0.263511 q -0.19585,-0.381845 -0.57484,-0.431931 -0.37633,-0.05824 -0.91411,0.217587 -0.56468,0.289634 -1.02259,0.707972 -0.45531,0.410188 -0.8707,1.017282 l -0.68967,-1.344464 q 0.41125,-0.482697 0.89665,-0.860745 0.48535,-0.378061 1.08768,-0.687018 1.46813,-0.753119 2.3659,-0.459634 0.90314,0.29072 1.69214,1.828767 z m -11.0596,-0.0714 1.58023,2.958936 -1.36483,0.728897 -1.58024,-2.958936 z m -4.86595,6.294903 -1.74629,-3.143781 1.54284,-0.857002 4.56675,8.221391 -1.54282,0.857006 -0.48719,-0.877095 q 0.0362,0.650451 -0.21605,1.129481 -0.24721,0.476032 -0.78086,0.772515 -1.01446,0.563493 -2.02651,0.0609 -1.01202,-0.502665 -1.83383,-1.982016 -0.83352,-1.500555 -0.71427,-2.61772 0.12449,-1.120087 1.17599,-1.704123 0.47557,-0.264156 0.98861,-0.224228 0.51542,0.03139 1.0737,0.364617 z m -0.97002,3.332054 q 0.47547,0.855952 1.03079,1.183564 0.55543,0.327427 1.05728,0.0489 0.50195,-0.278806 0.52243,-0.926408 0.0205,-0.647509 -0.4549,-1.503465 -0.47547,-0.855951 -1.03607,-1.180638 -0.56076,-0.324448 -1.06256,-0.04584 -0.50195,0.278806 -0.51742,0.923328 -0.0153,0.644567 0.46014,1.500535 z m -13.62109,9.10022 -2.26525,-3.779255 1.51896,-0.910441 2.12541,3.545959 q 0.37597,0.627296 0.71384,0.791215 0.33793,0.163814 0.74738,-0.08155 0.40953,-0.24544 0.42017,-0.745057 0.0157,-0.502765 -0.37577,-1.155929 l -1.99801,-3.333423 1.51895,-0.910441 3.48022,5.806257 -1.51896,0.910445 -0.51582,-0.860564 q 0.12824,0.578466 -0.10207,1.075894 -0.22532,0.49426 -0.76949,0.820592 -0.82946,0.497163 -1.58394,0.202454 -0.74927,-0.297844 -1.39562,-1.376128 z m -0.46239,2.66007 q -0.38941,0.541151 -0.86642,0.987289 -0.477,0.446138 -1.08264,0.822794 -1.44223,0.896942 -2.68576,0.602676 -1.24161,-0.302594 -2.14493,-1.755067 -0.87461,-1.406299 -0.6482,-2.678806 0.2264,-1.272526 1.49412,-2.06096 1.27799,-0.794805 2.45355,-0.472514 1.1775,0.313984 2.03296,1.689477 l 0.37983,0.610749 -3.89554,2.422725 q 0.42648,0.674274 1.02915,0.762134 0.60268,0.08778 1.38794,-0.40056 0.51838,-0.322396 0.9288,-0.784034 0.41044,-0.461671 0.7585,-1.126563 z m -3.2838,-2.441839 q -0.38056,-0.588974 -0.86654,-0.706667 -0.48403,-0.126101 -1.05891,0.231514 -0.51837,0.322396 -0.62844,0.832112 -0.11326,0.504596 0.19102,1.11968 z m -6.73255,8.030502 1.91295,2.966434 -1.48322,0.956462 -5.06407,-7.852933 1.48323,-0.956482 0.55029,0.853375 q -0.0841,-0.643403 0.13637,-1.137974 0.22032,-0.494614 0.73347,-0.825406 0.97527,-0.628914 2.01814,-0.193881 1.04286,0.435038 1.96003,1.857312 0.93026,1.442584 0.87957,2.568423 -0.0459,1.122574 -1.05648,1.774414 -0.45713,0.294785 -0.97356,0.296999 -0.51458,-0.006 -1.09679,-0.306739 z m 0.75239,-3.383506 q -0.53064,-0.82289 -1.1063,-1.113293 -0.57573,-0.290317 -1.05822,0.02093 -0.4826,0.311207 -0.46054,0.95866 0.0217,0.647464 0.55262,1.470367 0.53064,0.822891 1.11136,1.110049 0.5805,0.287621 1.06329,-0.02375 0.48254,-0.311207 0.45545,-0.955395 -0.027,-0.644201 -0.55769,-1.467084 z m -11.9819,6.718462 2.50045,3.613241 -1.44629,1.00086 -2.34567,-3.389587 q -0.41961,-0.606335 -0.77243,-0.744393 -0.35121,-0.146628 -0.73894,0.121794 -0.39263,0.271722 -0.37709,0.782778 0.0205,0.507603 0.45392,1.133868 l 2.20467,3.18581 -1.44629,1.00086 -3.85214,-5.566456 1.44628,-1.000865 0.57783,0.834958 q -0.16579,-0.568822 0.0314,-1.080273 0.19734,-0.511439 0.72418,-0.876004 0.79024,-0.546862 1.55739,-0.298609 0.76374,0.243226 1.48256,1.28201 z m -10.29941,8.556081 -3.31545,-4.62861 1.44952,-1.03828 3.57589,4.99224 q 0.3942,0.55032 0.89953,0.66415 0.50185,0.10891 0.99809,-0.24653 0.49624,-0.35548 0.55459,-0.86565 0.0549,-0.51512 -0.33934,-1.06542 l -3.5759,-4.992223 1.44953,-1.038285 3.31544,4.628628 q 1.06996,1.49373 0.96111,2.59768 -0.10883,1.10396 -1.4257,2.0472 -1.31193,0.93973 -2.3971,0.69103 -1.08024,-0.25217 -2.1502,-1.74595 z" /><path
     id="path1671"
     style="font-weight:bold;font-size:8px;line-height:1;font-family:monospace;-inkscape-font-specification:'monospace Bold';text-align:center;letter-spacing:0px;white-space:pre;shape-inside:url(#rect927);display:inline;fill:#ffffff;stroke-width:1.54729;stroke-linecap:round"
     d="m 578.31638,489.09323 v 1.54726 q -0.48935,-0.31435 -1.02145,-0.47156 -0.52585,-0.16301 -1.05775,-0.16301 -0.59226,0 -0.8945,0.17508 -0.30186,0.16905 -0.30186,0.50771 0,0.48327 1.2934,0.78574 l 0.0668,0.0201 0.5077,0.12074 q 0.96703,0.22983 1.41428,0.74345 0.4532,0.5077 0.4532,1.37801 0,1.04567 -0.68898,1.57149 -0.68303,0.51978 -2.06108,0.51978 -0.61046,0 -1.25111,-0.10908 -0.64069,-0.10304 -1.29945,-0.31434 v -1.5473 q 0.58627,0.33245 1.19066,0.5077 0.61042,0.17508 1.17857,0.17508 0.62258,0 0.94288,-0.18112 0.32039,-0.18112 0.32039,-0.52585 0,-0.3385 -0.22983,-0.51982 -0.22338,-0.18112 -1.07578,-0.3868 l -0.48939,-0.10907 q -1.01541,-0.22983 -1.48081,-0.71922 -0.46544,-0.48939 -0.46544,-1.3116 0,-0.97914 0.70714,-1.52311 0.70718,-0.54396 1.98851,-0.54396 0.5742,0 1.14235,0.0966 0.57416,0.0906 1.11213,0.27813 z m -12.10628,-0.21171 h 3.50554 v 5.40949 h 2.20007 v 1.3599 h -6.17705 v -1.3599 h 2.20606 v -4.04955 h -1.73462 z m 1.73462,-3.294 h 1.77092 v 2.06704 h -1.77092 z m -3.55392,3.294 -2.15169,6.76939 h -2.18191 l -2.15168,-6.76939 h 1.79508 l 1.44454,5.28255 1.45058,-5.28255 z m -10.19034,3.59023 q -0.99122,0 -1.38409,0.25357 -0.39283,0.25397 -0.39283,0.87031 0,0.45932 0.27208,0.73136 0.27209,0.27209 0.73741,0.27209 0.70114,0 1.08794,-0.52582 0.38719,-0.53189 0.38719,-1.48085 v -0.12074 z m 2.46599,-0.68299 v 3.86215 h -1.75885 v -0.75548 q -0.32038,0.44709 -0.82197,0.68899 -0.50162,0.2419 -1.10605,0.2419 -1.15442,0 -1.80115,-0.61046 -0.64069,-0.6105 -0.64069,-1.70448 0,-1.18461 0.76764,-1.74669 0.76755,-0.56816 2.3753,-0.56816 h 1.22692 v -0.29623 q 0,-0.4293 -0.31435,-0.64673 -0.3079,-0.22378 -0.91265,-0.22378 -0.63461,0 -1.23299,0.16301 -0.59227,0.15737 -1.23899,0.5077 v -1.51099 q 0.58623,-0.2419 1.19069,-0.35661 0.60438,-0.11471 1.28129,-0.11471 1.65006,0 2.31494,0.67091 0.67083,0.67091 0.67083,2.3995 z m -15.6119,-2.69565 v 1.54726 q -0.48935,-0.31435 -1.02141,-0.47156 -0.52581,-0.16301 -1.0577,-0.16301 -0.59235,0 -0.89458,0.17508 -0.30187,0.16905 -0.30187,0.50771 0,0.48323 1.29345,0.78574 l 0.0668,0.0201 0.5077,0.12074 q 0.96707,0.22983 1.41432,0.74345 0.45321,0.5077 0.45321,1.37801 0,1.04567 -0.68903,1.57149 -0.68299,0.51978 -2.061,0.51978 -0.61046,0 -1.25119,-0.10908 -0.64064,-0.10304 -1.29944,-0.31434 v -1.5473 q 0.58627,0.33245 1.19069,0.5077 0.61046,0.17508 1.17858,0.17508 0.62253,0 0.94291,-0.18112 0.32039,-0.18112 0.32039,-0.52581 0,-0.3385 -0.22982,-0.51982 -0.22339,-0.18112 -1.07587,-0.3872 l -0.48935,-0.10908 q -1.0154,-0.22982 -1.4808,-0.71925 -0.46545,-0.48935 -0.46545,-1.31156 0,-0.97914 0.70714,-1.52311 0.70714,-0.54397 1.98851,-0.54397 0.57416,0 1.14232,0.0966 0.57423,0.0906 1.11212,0.27812 z m -6.96883,2.16376 v 4.39404 h -1.75881 v -4.12204 q 0,-0.73737 -0.21131,-1.05167 -0.20567,-0.32039 -0.67695,-0.32039 -0.47768,0 -0.75552,0.42926 -0.27208,0.4293 -0.27208,1.19069 v 3.87427 h -1.75881 v -6.76939 h 1.75881 v 1.01541 q 0.18756,-0.56208 0.64069,-0.87031 0.4532,-0.30831 1.09397,-0.30831 0.96099,0 1.45058,0.64069 0.48939,0.6346 0.48939,1.89783 z m -9.6947,1.21488 q -0.99122,0 -1.38409,0.25357 -0.39243,0.25397 -0.39243,0.87031 0,0.45932 0.27208,0.73136 0.27209,0.27209 0.73737,0.27209 0.70118,0 1.08797,-0.52582 0.3868,-0.53189 0.3868,-1.48085 v -0.12074 z m 2.46598,-0.68299 v 3.86215 h -1.75885 v -0.75548 q -0.32038,0.44709 -0.82196,0.68899 -0.50163,0.2419 -1.10605,0.2419 -1.15443,0 -1.80115,-0.61046 -0.64069,-0.6105 -0.64069,-1.70448 0,-1.18461 0.76759,-1.74669 0.76759,-0.56816 2.37535,-0.56816 h 1.22691 v -0.29623 q 0,-0.4293 -0.31434,-0.64673 -0.30791,-0.22378 -0.91265,-0.22378 -0.63465,0 -1.233,0.16301 -0.59234,0.15737 -1.23907,0.5077 v -1.51099 q 0.58631,-0.2419 1.19069,-0.35661 0.60447,-0.11471 1.28138,-0.11471 1.65001,0 2.31489,0.67091 0.67087,0.67091 0.67087,2.3995 z m -8.15952,-2.69565 v 1.54726 q -0.48935,-0.31435 -1.02144,-0.47156 -0.52586,-0.16301 -1.05775,-0.16301 -0.59227,0 -0.8945,0.17508 -0.30187,0.16905 -0.30187,0.50771 0,0.48323 1.29345,0.78574 l 0.0668,0.0201 0.5077,0.12074 q 0.96703,0.22983 1.41428,0.74345 0.4532,0.5077 0.4532,1.37801 0,1.04567 -0.68902,1.57149 -0.68299,0.51978 -2.06101,0.51978 -0.61049,0 -1.25114,-0.10908 -0.64065,-0.10304 -1.29949,-0.31434 v -1.5473 q 0.58627,0.33245 1.19065,0.5077 0.61046,0.17508 1.17862,0.17508 0.62254,0 0.94292,-0.18112 0.32038,-0.18112 0.32038,-0.52581 0,-0.3385 -0.22982,-0.51982 -0.22338,-0.18112 -1.07586,-0.3872 l -0.48939,-0.10908 q -1.01541,-0.22982 -1.48077,-0.71925 -0.46544,-0.48935 -0.46544,-1.31156 0,-0.97914 0.70718,-1.52311 0.70714,-0.54397 1.98847,-0.54397 0.57424,0 1.14235,0.0966 0.57416,0.0906 1.11213,0.27812 z m -19.92734,4.19457 v -4.40616 h 1.77089 v 4.1342 q 0,0.73128 0.20567,1.04559 0.20527,0.31435 0.68299,0.31435 0.47768,0 0.74336,-0.42314 0.27209,-0.42318 0.27209,-1.1847 v -3.88634 h 1.77088 v 6.76939 h -1.77088 v -1.00333 q -0.18756,0.56216 -0.64073,0.87039 -0.44709,0.3079 -1.08186,0.3079 -0.96707,0 -1.46265,-0.64064 -0.48939,-0.64065 -0.48939,-1.89787 z m -4.69627,-3.13083 q -0.63461,0 -0.9973,0.56208 -0.36264,0.55609 -0.36264,1.55334 0,0.9973 0.36264,1.55938 0.36265,0.55608 0.9973,0.55608 0.64064,0 1.00333,-0.55608 0.36264,-0.56208 0.36264,-1.55938 0,-0.99725 -0.36264,-1.55334 -0.36265,-0.56208 -1.00333,-0.56208 z m -3.13087,2.11542 q 0,-1.63794 0.8462,-2.59289 0.8522,-0.96103 2.28467,-0.96103 1.43846,0 2.28466,0.96103 0.85224,0.95495 0.85224,2.59289 0,1.63794 -0.85224,2.59897 -0.8462,0.95496 -2.28466,0.95496 -1.43247,0 -2.28467,-0.95496 -0.8462,-0.96103 -0.8462,-2.59897 z m -11.32661,-5.31273 v 1.92198 h 2.3149 v 1.35994 h -2.3149 v 3.20339 q 0,0.45321 0.21735,0.65276 0.22338,0.1936 0.73736,0.1936 h 1.35994 v 1.3599 h -1.48684 q -1.52311,0 -2.06104,-0.48327 -0.53789,-0.48935 -0.53789,-1.80719 v -3.11875 h -1.72867 v -1.35994 h 1.72867 v -1.92198 z m -5.14956,4.29733 v 4.39404 h -1.75881 v -4.12204 q 0,-0.73737 -0.21171,-1.05167 -0.20567,-0.32039 -0.67691,-0.32039 -0.47764,0 -0.75548,0.42926 -0.27208,0.4293 -0.27208,1.19069 v 3.87427 h -1.75885 v -6.76939 h 1.75885 v 1.01541 q 0.18756,-0.56208 0.64064,-0.87031 0.45321,-0.30831 1.09398,-0.30831 0.96103,0 1.45062,0.64069 0.48935,0.6346 0.48935,1.89783 z m -7.26498,4.06162 q -0.61654,0.25398 -1.25719,0.38076 -0.64068,0.12679 -1.3539,0.12679 -1.69839,0 -2.59897,-0.90658 -0.8945,-0.91269 -0.8945,-2.62316 0,-1.65609 0.86431,-2.61708 0.86427,-0.96103 2.3572,-0.96103 1.50496,0 2.33304,0.89454 0.83405,0.8885 0.83405,2.50829 v 0.71925 h -4.58745 q 0.004,0.79782 0.47156,1.19069 0.46544,0.39324 1.39009,0.39324 0.61046,0 1.20281,-0.17509 0.59234,-0.17508 1.23907,-0.55608 z m -1.49896,-3.80777 q -0.0121,-0.7011 -0.36265,-1.05771 -0.34493,-0.36265 -1.02148,-0.36265 -0.61042,0 -0.97311,0.37472 -0.36264,0.36869 -0.42926,1.05171 z m -5.65727,-0.76156 q -0.2902,-0.26564 -0.68299,-0.39887 -0.38679,-0.13282 -0.85224,-0.13282 -0.56208,0 -0.98513,0.19964 -0.41707,0.19359 -0.64673,0.56815 -0.1453,0.22983 -0.20567,0.55605 -0.0543,0.32642 -0.0543,0.99125 v 3.11875 h -1.77092 v -6.76939 h 1.77092 v 1.05167 q 0.25961,-0.58019 0.79778,-0.89454 0.53797,-0.32038 1.25722,-0.32038 0.36265,0 0.70714,0.0906 0.35057,0.0845 0.66488,0.25397 z m -7.74849,4.56933 q -0.61654,0.25398 -1.25719,0.38076 -0.64069,0.12679 -1.3539,0.12679 -1.6984,0 -2.59897,-0.90658 -0.8945,-0.91269 -0.8945,-2.62316 0,-1.65609 0.86431,-2.61708 0.86427,-0.96103 2.35719,-0.96103 1.50496,0 2.33305,0.89454 0.83404,0.8885 0.83404,2.50829 v 0.71925 h -4.58744 q 0.004,0.79782 0.47156,1.19069 0.46544,0.39324 1.39009,0.39324 0.61046,0 1.2028,-0.17509 0.59235,-0.17508 1.23908,-0.55608 z m -1.49897,-3.80777 q -0.0121,-0.7011 -0.36264,-1.05771 -0.34494,-0.36265 -1.02149,-0.36265 -0.61046,0 -0.9731,0.37472 -0.36265,0.36869 -0.42926,1.05171 z m -0.38075,-5.75999 h 1.70439 l -2.22421,2.27251 h -1.19069 z m -7.76669,2.53852 v 0.59227 h 2.07919 v 1.35994 h -2.07919 v 5.40945 h -1.77089 v -5.40945 h -1.64401 v -1.35994 h 1.64401 v -0.47156 q 0,-1.22088 0.50771,-1.69232 0.5077,-0.47156 1.88571,-0.47156 h 1.45666 v 1.35998 h -1.38409 q -0.39887,0 -0.54397,0.1453 -0.13885,0.1449 -0.15133,0.53789 z m -7.45234,0 v 0.59227 h 2.07915 v 1.35994 h -2.07915 v 5.40945 h -1.77093 v -5.40945 h -1.64402 v -1.35994 h 1.64402 v -0.47156 q 0,-1.22088 0.50771,-1.69232 0.5077,-0.47156 1.88575,-0.47156 h 1.45662 v 1.35998 h -1.38409 q -0.39887,0 -0.54397,0.1453 -0.13886,0.1449 -0.15133,0.53789 z m -10.58325,0.59227 h 3.50563 v 5.40949 h 2.20002 v 1.3599 h -6.17701 v -1.3599 h 2.20606 v -4.04955 h -1.7347 z m 1.7347,-3.294 h 1.77093 v 2.06704 h -1.77093 z m -5.74187,4.25503 v -3.59623 h 1.76485 v 9.40459 h -1.76485 v -1.00333 q -0.28416,0.58627 -0.7374,0.88246 -0.44713,0.29624 -1.05775,0.29624 -1.16043,0 -1.80108,-0.93077 -0.64068,-0.9308 -0.64068,-2.62316 0,-1.71651 0.64668,-2.63519 0.6528,-0.91873 1.85553,-0.91873 0.54401,0 0.97315,0.28416 0.43489,0.27812 0.76155,0.84012 z m -2.46599,2.4418 q 0,0.97914 0.32642,1.53522 0.32642,0.55605 0.90058,0.55605 0.57419,0 0.90661,-0.55605 0.33246,-0.55608 0.33246,-1.53522 0,-0.97915 -0.33246,-1.53519 -0.33246,-0.55608 -0.90661,-0.55608 -0.57424,0 -0.90058,0.55608 -0.32642,0.55604 -0.32642,1.53519 z m -3.29407,-1.02748 v 4.39404 h -1.75881 v -4.12204 q 0,-0.73737 -0.21131,-1.05167 -0.20567,-0.32039 -0.67691,-0.32039 -0.47768,0 -0.75552,0.42926 -0.27208,0.4293 -0.27208,1.19069 v 3.87427 h -1.75889 v -6.76939 h 1.75889 v 1.01541 q 0.18756,-0.56208 0.64068,-0.87031 0.45321,-0.30831 1.09398,-0.30831 0.96103,0 1.45054,0.64069 0.48935,0.6346 0.48935,1.89783 z m -12.88599,-3.05826 v -1.57149 h 5.37319 v 1.57149 h -1.79507 v 5.88085 h 1.79507 v 1.57145 h -5.37319 v -1.57145 h 1.79512 v -5.88085 z" /><path
     id="path700"
     d="m 128.47229,194.60657 -2.91392,-2.42333 1.18926,-1.43003 7.62028,6.33733 -1.18927,1.43002 -0.81296,-0.67609 q 0.28364,0.62524 0.21811,1.19211 -0.0614,0.56197 -0.47277,1.05661 -0.78198,0.94029 -1.96789,0.83219 -1.18592,-0.10811 -2.55717,-1.24849 -1.39085,-1.15668 -1.69946,-2.29977 -0.30452,-1.14798 0.50596,-2.12256 0.36655,-0.44076 0.8859,-0.59704 0.51853,-0.16527 1.19391,-0.051 z m 0.3168,3.64355 q 0.79337,0.65979 1.46386,0.77004 0.67049,0.11024 1.05741,-0.355 0.38691,-0.46525 0.16035,-1.10931 -0.22656,-0.64405 -1.01992,-1.30385 -0.79338,-0.6598 -1.46794,-0.76515 -0.67456,-0.10533 -1.06148,0.35991 -0.38691,0.46525 -0.15628,1.10441 0.23062,0.63916 1.02399,1.29895 z m -3.18452,1.31334 q -0.41002,0.0625 -0.77874,0.29724 -0.36474,0.22978 -0.67219,0.61189 -0.37134,0.46153 -0.48709,0.94068 -0.11672,0.4702 0.0391,0.90635 0.0927,0.27084 0.32082,0.53608 0.23204,0.26029 0.77794,0.69952 l 2.56074,2.06037 -1.16994,1.45407 -5.55819,-4.47214 1.16994,-1.45406 0.8635,0.69478 q -0.30472,-0.59672 -0.2074,-1.24604 0.0923,-0.6533 0.56752,-1.24386 0.23956,-0.29776 0.54162,-0.52074 0.30106,-0.23195 0.64765,-0.37818 z m -7.55504,8.49655 q -0.4108,0.52778 -0.17806,1.19321 0.22768,0.66153 1.05706,1.30706 0.82937,0.64554 1.53157,0.7078 0.69718,0.0584 1.10798,-0.46943 0.4147,-0.53281 0.18699,-1.19433 -0.23272,-0.66544 -1.06209,-1.31098 -0.82936,-0.64554 -1.52654,-0.70388 -0.7022,-0.0623 -1.11692,0.47055 z m -0.26734,3.97303 q -1.36218,-1.06024 -1.60863,-2.3821 -0.24757,-1.3308 0.67965,-2.52208 0.93114,-1.1963 2.27808,-1.27794 1.34583,-0.0906 2.708,0.96966 1.36218,1.06024 1.60975,2.39104 0.24644,1.32186 -0.68468,2.51816 -0.92723,1.19128 -2.27305,1.28186 -1.34694,0.0817 -2.70912,-0.9786 z m 1.47833,3.3354 q -0.0647,0.5413 -0.28344,1.0543 -0.21368,0.51683 -0.58911,1.01553 -0.99221,1.31799 -2.34538,1.46333 -1.35317,0.14534 -2.75768,-0.91201 -1.40959,-1.06118 -1.64029,-2.40686 -0.23578,-1.34951 0.75642,-2.6675 0.34478,-0.45799 0.76962,-0.79992 0.42867,-0.34698 0.97054,-0.60081 l 1.3638,1.02669 q -0.52507,0.115 -0.96763,0.39574 -0.44381,0.2718 -0.75795,0.6891 -0.54783,0.72769 -0.37971,1.46815 0.16808,0.74045 1.02301,1.38405 0.85492,0.6436 1.6079,0.59655 0.75297,-0.0471 1.30079,-0.77475 0.32562,-0.43254 0.46664,-0.91638 0.13592,-0.48767 0.0936,-1.04573 z m -4.71541,6.29303 q -0.056,0.54227 -0.26649,1.05871 -0.20535,0.52019 -0.57273,1.02486 -0.97093,1.33375 -2.32159,1.50079 -1.35066,0.16704 -2.77196,-0.86762 -1.42645,-1.0384 -1.67873,-2.38021 -0.25743,-1.34555 0.71351,-2.67931 0.33737,-0.46346 0.75667,-0.81216 0.42304,-0.35383 0.96077,-0.61632 l 1.38011,1.00467 q -0.52315,0.12341 -0.96115,0.4112 -0.43939,0.27889 -0.74679,0.70118 -0.53608,0.7364 -0.35613,1.47406 0.17996,0.73766 1.04511,1.36745 0.86513,0.62979 1.61726,0.57066 0.75212,-0.0591 1.28819,-0.79553 0.31866,-0.43772 0.45187,-0.92376 0.12807,-0.48979 0.0768,-1.04709 z m -8.37688,6.5248 q -0.60112,0.85433 -0.62059,1.34687 -0.0193,0.49256 0.51189,0.86643 0.39589,0.27856 0.79527,0.20909 0.39935,-0.0695 0.6816,-0.47059 0.42518,-0.60427 0.20655,-1.25656 -0.22382,-0.65595 -1.04169,-1.23142 l -0.10416,-0.0733 z m 0.90684,-2.53958 3.32874,2.34219 -1.06664,1.51591 -0.65116,-0.45818 q 0.19123,0.54734 0.0953,1.12632 -0.0959,0.57899 -0.4624,1.09992 -0.70009,0.99497 -1.61842,1.18217 -0.91468,0.18196 -1.85756,-0.48147 -1.02102,-0.71842 -1.03998,-1.72088 -0.0242,-1.00613 0.95084,-2.3918 l 0.74407,-1.05749 -0.25526,-0.17959 q -0.36985,-0.26025 -0.74799,-0.12131 -0.37967,0.13004 -0.74622,0.65098 -0.38486,0.54697 -0.6071,1.16166 -0.22378,0.60581 -0.31382,1.3758 l -1.30232,-0.91635 q 0.14719,-0.65192 0.41473,-1.24249 0.26758,-0.59057 0.67809,-1.17401 1.00066,-1.42214 1.98209,-1.5883 0.98509,-0.17138 2.47495,0.87693 z m -10.352839,5.35027 2.923622,1.98737 -0.916696,1.34855 -2.923622,-1.98736 z m -4.129512,9.23755 5.117409,3.35875 0.279611,-0.42601 q 0.608137,-0.92657 0.286333,-1.70158 -0.327105,-0.77852 -1.727625,-1.69772 -1.389849,-0.9122 -2.228916,-0.89911 -0.839067,0.0133 -1.447209,0.93966 z m -2.447514,0.64121 1.104435,-1.68272 q 1.279192,-1.94899 2.773785,-2.19469 1.489269,-0.24918 3.598006,1.13484 2.114057,1.38754 2.488569,2.86001 0.36917,1.46897 -0.91,3.41795 l -1.104438,1.68273 z"
     style="font-weight:bold;font-size:3.24105px;line-height:1;font-family:monospace;-inkscape-font-specification:'monospace Bold';text-align:center;letter-spacing:0px;text-anchor:middle;white-space:pre;display:inline;fill:#ffffff;stroke-width:4.02492;stroke-linecap:round" /><path
     id="path814"
     style="font-weight:bold;font-size:3.24106px;line-height:1;font-family:monospace;-inkscape-font-specification:'monospace Bold';text-align:center;letter-spacing:0px;text-anchor:middle;white-space:pre;display:inline;fill:#ffffff;stroke-width:4.02492;stroke-linecap:round"
     d="m 882.59887,239.46012 3.23225,-1.97892 0.97117,1.58624 -8.45273,5.17515 -0.97117,-1.58625 0.90178,-0.5521 q -0.68327,0.0673 -1.1989,-0.17718 -0.5123,-0.23904 -0.84822,-0.78769 -0.63859,-1.04301 -0.15455,-2.13104 0.48403,-1.08802 2.00509,-2.01927 1.54279,-0.94457 2.72439,-0.86885 1.18494,0.0812 1.84679,1.16219 0.29946,0.48891 0.28014,1.03093 -0.0121,0.54412 -0.33608,1.14678 z m -3.55163,-0.87272 q -0.88005,0.5388 -1.20023,1.13814 -0.32039,0.59933 -0.004,1.1154 0.31596,0.51607 0.99867,0.50887 0.6827,-0.007 1.56271,-0.54601 0.88005,-0.5388 1.19689,-1.14356 0.31676,-0.60477 8.9e-4,-1.12084 -0.31596,-0.51608 -0.99533,-0.50344 -0.67936,0.0125 -1.55941,0.55144 z m -0.21896,-3.43838 q 0.0728,-0.40834 -0.0322,-0.83298 -0.10022,-0.41926 -0.36304,-0.83333 -0.31757,-0.5001 -0.73395,-0.76386 -0.40764,-0.26178 -0.87075,-0.2545 -0.28617,6.8e-4 -0.61082,0.13126 -0.32119,0.13596 -0.91261,0.51149 l -2.77478,1.76161 -1.00028,-1.57559 6.02273,-3.82365 1.00032,1.57559 -0.93568,0.59403 q 0.66303,-0.0965 1.24648,0.20455 0.58885,0.29764 0.99512,0.93757 0.20487,0.32264 0.31878,0.68037 0.12276,0.35971 0.14972,0.73491 z m -5.61307,-9.88539 q -0.36748,-0.55873 -1.07252,-0.55243 -0.69961,0.003 -1.57765,0.58046 -0.878,0.57764 -1.16284,1.2225 -0.27933,0.64136 0.0882,1.20009 0.37109,0.56406 1.07071,0.56125 0.70492,-0.006 1.58292,-0.58395 0.87803,-0.57764 1.15752,-1.219 0.28497,-0.64486 -0.0861,-1.20892 z m -3.67592,-1.53111 q 1.44209,-0.94874 2.77297,-0.7569 1.33969,0.19364 2.16939,1.4548 0.83324,1.26646 0.47728,2.56809 -0.34736,1.30344 -1.7892,2.25218 -1.44209,0.94874 -2.78179,0.75508 -1.33088,-0.19183 -2.16412,-1.45831 -0.82969,-1.26114 -0.48254,-2.56458 0.3558,-1.30162 1.79801,-2.25036 z m -3.63491,0.32529 q -0.49172,-0.23529 -0.90713,-0.60741 -0.42069,-0.36852 -0.77218,-0.88439 -0.92892,-1.36334 -0.63139,-2.69138 0.29744,-1.32804 1.75035,-2.31794 1.45807,-0.99349 2.8065,-0.77921 1.35366,0.2107 2.28257,1.57404 0.3228,0.47375 0.50996,0.98597 0.19078,0.51748 0.25679,1.11219 l -1.41069,0.96122 q 0.06,-0.53416 -0.0636,-1.04348 -0.11471,-0.50766 -0.40877,-0.9393 -0.51289,-0.75273 -1.26805,-0.83167 -0.7552,-0.0789 -1.63955,0.52361 -0.88432,0.60255 -1.0819,1.33067 -0.19762,0.72811 0.31515,1.48085 0.30469,0.44743 0.71765,0.73653 0.41806,0.28553 0.9601,0.4249 z m -4.44101,-6.48627 q -0.49551,-0.22732 -0.91684,-0.59269 -0.42656,-0.36167 -0.78635,-0.8718 -0.95081,-1.34817 -0.67478,-2.68084 0.27611,-1.33267 1.71273,-2.3459 1.44185,-1.0169 2.79353,-0.82441 1.35689,0.18881 2.30769,1.53698 0.33045,0.46848 0.52582,0.97761 0.19923,0.51434 0.2749,1.10791 l -1.39504,0.98386 q 0.0515,-0.53505 -0.0805,-1.04232 -0.12276,-0.50574 -0.42386,-0.93257 -0.52497,-0.74436 -1.28133,-0.8111 -0.75637,-0.0667 -1.63086,0.55002 -0.8745,0.61674 -1.06029,1.34795 -0.18595,0.73121 0.33931,1.47557 0.31193,0.44245 0.72943,0.72485 0.42262,0.27873 0.96683,0.40935 z m -3.4855,-10.02978 q -0.61574,-0.84388 -1.07586,-1.02065 -0.46017,-0.17678 -0.98502,0.20616 -0.39123,0.28532 -0.45365,0.68583 -0.0628,0.40048 0.2266,0.7967 0.4355,0.59689 1.12344,0.59957 0.69309,-0.001 1.50097,-0.59051 l 0.10304,-0.0751 z m 2.11324,1.67513 -3.288,2.39906 -1.09256,-1.49735 0.64322,-0.4693 q -0.57975,0.005 -1.09719,-0.2718 -0.51745,-0.27692 -0.89289,-0.79146 -0.71708,-0.9828 -0.59911,-1.91257 0.12155,-0.92462 1.05308,-1.60417 1.00852,-0.73586 1.96388,-0.43154 0.96047,0.30059 1.95917,1.66929 l 0.76212,1.04455 0.25196,-0.18398 q 0.36546,-0.26657 0.3554,-0.6693 -10e-4,-0.40132 -0.37633,-0.91589 -0.39404,-0.54028 -0.90484,-0.94832 -0.50171,-0.40665 -1.20189,-0.73947 l 1.28641,-0.9386 q 0.57001,0.34896 1.04322,0.79216 0.47321,0.44323 0.89369,1.01953 1.02495,1.40473 0.86677,2.38748 -0.15456,0.9879 -1.62603,2.06166 z m -2.86208,-8.6987 -1.30166,0.98215 q -0.0463,-0.61135 -0.25196,-1.15855 -0.19642,-0.54594 -0.53411,-0.99339 -0.37592,-0.49829 -0.71526,-0.64126 -0.33407,-0.14679 -0.61892,0.068 -0.4068,0.30694 0.15979,1.58686 l 0.0282,0.0674 0.22056,0.50384 q 0.42065,0.95933 0.27249,1.66169 -0.13926,0.70362 -0.87152,1.25608 -0.87964,0.66372 -1.75937,0.41785 -0.87083,-0.24463 -1.74553,-1.40391 -0.3876,-0.51354 -0.70267,-1.12157 -0.32038,-0.60419 -0.56043,-1.29269 l 1.30166,-0.98215 q 0.0926,0.70421 0.32884,1.32393 0.23988,0.62481 0.60068,1.10276 0.39524,0.52371 0.75105,0.67811 0.3558,0.15439 0.64567,-0.0643 0.28457,-0.21485 0.29141,-0.52316 0.0121,-0.30324 -0.35741,-1.1506 l -0.22033,-0.48091 q -0.45131,-1 -0.33487,-1.70228 0.11632,-0.70227 0.80796,-1.22404 0.8237,-0.62151 1.73019,-0.3719 0.9065,0.24962 1.71981,1.32755 0.36466,0.48304 0.64379,1.02237 0.28818,0.54059 0.472,1.11205 z m -9.55488,-1.74852 q -0.61054,-0.34771 -1.13128,-0.79779 -0.52079,-0.45008 -0.98309,-1.0427 -1.1009,-1.41125 -0.93133,-2.74723 0.17871,-1.33489 1.59979,-2.44364 1.37608,-1.07349 2.73489,-0.97825 1.35877,0.0952 2.32649,1.33572 0.97552,1.25053 0.769,2.51842 -0.19763,1.26899 -1.54356,2.31897 l -0.59766,0.46623 -2.97365,-3.81187 q -0.659,0.52219 -0.68375,1.16356 -0.0241,0.64137 0.57463,1.40977 0.39565,0.50724 0.92529,0.8858 0.5296,0.37854 1.26524,0.66911 z m 2.19237,-3.71375 q 0.57476,-0.46452 0.64383,-0.98696 0.0781,-0.52134 -0.36063,-1.08383 -0.39565,-0.50724 -0.94216,-0.56567 -0.54143,-0.0623 -1.15201,0.32514 z m 4.53935,-4.05012 1.10484,1.41627 -3.33014,-0.37505 -0.77178,-0.98937 z m -8.32865,-3.59036 2.95023,-2.37906 1.16751,1.44783 -7.71513,6.22154 -1.16755,-1.44783 0.8231,-0.66373 q -0.6689,0.15479 -1.2117,-0.0213 -0.53886,-0.17098 -0.94272,-0.67178 -0.76767,-0.95199 -0.42793,-2.09333 0.3397,-1.14134 1.72806,-2.2609 1.40816,-1.13555 2.58967,-1.21277 1.1855,-0.0722 1.98119,0.91445 0.35983,0.44624 0.4107,0.98621 0.06,0.54092 -0.18555,1.18053 z m -3.6345,-0.40763 q -0.80325,0.64774 -1.0435,1.28335 -0.24029,0.6356 0.13966,1.10664 0.37996,0.47104 1.0559,0.37589 0.67611,-0.0951 1.47932,-0.74289 0.80325,-0.64774 1.03952,-1.28831 0.23626,-0.64056 -0.14369,-1.1116 -0.37995,-0.47104 -1.05192,-0.37094 -0.67208,0.1001 -1.47533,0.74785 z m -6.48616,-9.50864 -3.50852,3.02225 -1.20973,-1.40437 3.29134,-2.83518 q 0.58876,-0.50717 0.69421,-0.89225 0.11431,-0.38442 -0.20969,-0.76084 -0.32844,-0.38124 -0.8623,-0.30811 -0.52972,0.078 -1.13777,0.60179 l -3.09347,2.66473 -1.20973,-1.40437 5.40511,-4.656 1.20973,1.40436 -0.81074,0.6984 q 0.57765,-0.23702 1.13559,-0.0871 0.55789,0.14992 0.99858,0.66149 0.66097,0.76733 0.48613,1.5989 -0.16985,0.8274 -1.17862,1.69625 z m -8.53307,-2.78933 -3.93875,-4.42462 7.10318,-6.32316 3.93875,4.42461 -1.23702,1.10115 -2.68933,-3.0211 -1.53197,1.36373 2.43524,2.73565 -1.23698,1.10115 -2.43528,-2.73564 -1.86023,1.65596 2.68937,3.02111 z" /></svg>
