<?xml version="1.0" encoding="UTF-8" standalone="no"?>
<!-- Created with Inkscape (http://www.inkscape.org/) -->

<svg
   version="1.1"
   id="svg1"
   xml:space="preserve"
   width="629.75922"
   height="600"
   sodipodi:docname="spectrum.svg"
   inkscape:version="1.2.2 (b0a8486541, 2022-12-01)"
   xmlns:inkscape="http://www.inkscape.org/namespaces/inkscape"
   xmlns:sodipodi="http://sodipodi.sourceforge.net/DTD/sodipodi-0.dtd"
   xmlns="http://www.w3.org/2000/svg"
   xmlns:svg="http://www.w3.org/2000/svg"><defs
     id="defs1" /><sodipodi:namedview
     id="namedview1"
     pagecolor="#ffffff"
     bordercolor="#000000"
     borderopacity="0.25"
     inkscape:showpageshadow="2"
     inkscape:pageopacity="0.0"
     inkscape:pagecheckerboard="0"
     inkscape:deskcolor="#d1d1d1"
     showgrid="false"
     inkscape:zoom="2.8284272"
     inkscape:cx="315.54639"
     inkscape:cy="183.4942"
     inkscape:window-width="3440"
     inkscape:window-height="1303"
     inkscape:window-x="0"
     inkscape:window-y="0"
     inkscape:window-maximized="1"
     inkscape:current-layer="g1"
     inkscape:pageshadow="2" /><inkscape:clipboard
     min="38.679246,51.71354"
     max="761.89587,740.75465"
     geom-min="40.288131,53.322266"
     geom-max="760.28712,740.75465" /><g
     id="g2"
     transform="scale(0.87077532)"><g
       id="g1"
       transform="matrix(3.7795276,0,0,3.7795276,-38.679246,-51.71354)"><circle
         style="fill:none;stroke:none;stroke-width:0.864744;stroke-opacity:1"
         id="circle73"
         cx="-115.20844"
         cy="96.023712"
         r="87.383476"
         transform="rotate(-94.975676)" /><circle
         style="fill:none;stroke:none;stroke-width:0.864744;stroke-opacity:1"
         id="circle74"
         cx="-72.191391"
         cy="131.4608"
         r="87.383476"
         transform="rotate(-73.559427)" /><path
         id="disagree"
         style="fill:#000000;stroke:#ffffff;stroke-width:0.85128;stroke-opacity:1"
         d="M 166.77554 36.10854 L 145.0326 63.442397 A 58.820286 58.820286 0 0 1 160.87602 86.428616 L 192.98955 70.835042 A 95.25 95.25 0 0 0 166.77554 36.10854 z " /><path
         id="slightlyDisagree"
         style="fill:#000000;stroke:#ffffff;stroke-width:0.85128;stroke-opacity:1"
         d="M 127.14593 16.534676 L 119.51175 50.136585 A 58.820286 58.820286 0 0 1 145.03498 63.439429 L 166.77554 36.10854 A 95.25 95.25 0 0 0 127.14593 16.534676 z " /><path
         id="stronglyDisagree"
         style="fill:#000000;stroke:#ffffff;stroke-width:0.85128;stroke-opacity:1"
         d="m 192.98955,70.835042 -32.11353,15.593574 c 3.15784,9.838407 4.52212,18.195074 3.45924,27.498834 l 36.50152,-0.0635 c 0.7736,-14.724607 -2.27418,-31.403312 -7.84723,-43.028908 z"
         sodipodi:nodetypes="ccccc" /><path
         id="agree"
         style="fill:#000000;stroke:#ffffff;stroke-width:0.85128;stroke-opacity:1"
         d="M 42.875585 38.031922 A 95.25 95.25 0 0 0 18.222949 72.590476 L 50.379206 87.997112 A 58.820286 58.820286 0 0 1 64.771037 65.362217 L 42.875585 38.031922 z " /><path
         id="stonglyAgree"
         style="fill:#000000;stroke:#ffffff;stroke-width:0.85128;stroke-opacity:1"
         d="M 18.222949,72.589883 C 13.177677,83.389544 9.6975157,100.598 11.005373,114.1951 l 36.490244,-0.0635 c -1.00448,-8.70471 0.359527,-18.728046 2.897238,-26.128553 z"
         sodipodi:nodetypes="ccccc" /><path
         id="slightlyAgree"
         style="fill:#000000;stroke:#ffffff;stroke-width:0.85128;stroke-opacity:1"
         d="M 82.594214 17.201124 A 95.25 95.25 0 0 0 42.875585 38.031922 L 64.771037 65.362217 A 58.820286 58.820286 0 0 1 90.258661 50.667132 L 82.594214 17.201124 z " /><path
         id="neutral"
         style="fill:#000000;stroke:#ffffff;stroke-width:0.85128;stroke-opacity:1"
         d="m 82.594214,17.201124 7.665634,33.471349 c 9.949862,-2.575282 19.966582,-2.701417 29.251902,-0.535295 l 7.63418,-33.602502 C 110.58702,13.694348 97.511852,13.869124 82.594214,17.201124 Z"
         sodipodi:nodetypes="ccccc" /><circle
         style="fill:#cccccc;stroke:#ffffff;stroke-width:0.582083;stroke-opacity:1"
         id="path58"
         cx="105.90928"
         cy="107.35947"
         r="58.820286" /><path
         d="m 98.08325,17.064577 0.490028,-0.03727 0.770618,1.628319 -0.127554,-1.677225 0.401916,-0.03056 0.175518,2.307923 -0.486936,0.03703 -0.77371,-1.628084 0.127553,1.677224 -0.401915,0.03057 z m 3.59905,1.999553 q -0.15439,0.07356 -0.31672,0.114939 -0.16233,0.04138 -0.345,0.05126 -0.435,0.02352 -0.67821,-0.196206 -0.24175,-0.221362 -0.26544,-0.659455 -0.0229,-0.42416 0.18512,-0.682269 0.20805,-0.258109 0.59042,-0.278787 0.38546,-0.02085 0.60993,0.196793 0.22593,0.216007 0.24837,0.63088 l 0.01,0.184215 -1.17495,0.06354 q 0.0126,0.204256 0.13723,0.298432 0.12464,0.09417 0.36149,0.08137 0.15635,-0.0085 0.30563,-0.06155 0.14928,-0.0531 0.30965,-0.159582 z m -0.43666,-0.954498 q -0.0128,-0.179404 -0.10753,-0.265882 -0.0933,-0.08811 -0.26664,-0.07873 -0.15635,0.0085 -0.24404,0.109456 -0.0878,0.09945 -0.0954,0.275302 z m 0.87263,0.414841 -0.0363,-1.12958 0.454,-0.0146 0.0341,1.059852 q 0.006,0.187489 0.0613,0.266368 0.0553,0.07888 0.17769,0.07494 0.12241,-0.0039 0.1871,-0.114594 0.0662,-0.110707 0.06,-0.305943 l -0.032,-0.996324 0.454,-0.0146 0.0558,1.735431 -0.454,0.0146 -0.008,-0.257215 q -0.0434,0.145647 -0.15707,0.228409 -0.11212,0.08271 -0.27482,0.08794 -0.24792,0.008 -0.38026,-0.152186 -0.13079,-0.160209 -0.14116,-0.482503 z m 2.72898,-1.687824 0.005,0.492967 0.59373,-0.0061 0.004,0.348798 -0.59373,0.0061 0.008,0.821611 q 0.001,0.116266 0.0575,0.16685 0.0579,0.04902 0.18964,0.04766 l 0.3488,-0.0036 0.004,0.348798 -0.38135,0.0039 q -0.39065,0.004 -0.5299,-0.118584 -0.13926,-0.12415 -0.14273,-0.462096 l -0.008,-0.799909 -0.44336,0.0046 -0.004,-0.348798 0.44336,-0.0046 -0.005,-0.492967 z m 2.66367,0.984046 q -0.0736,-0.06907 -0.17398,-0.104344 -0.0988,-0.03525 -0.21818,-0.03664 -0.14417,-0.0017 -0.25328,0.04823 -0.10753,0.04837 -0.16756,0.143793 -0.0379,0.05848 -0.0544,0.142006 -0.0149,0.08355 -0.0169,0.254069 l -0.009,0.799898 -0.4542,-0.0053 0.0201,-1.736211 0.4542,0.0053 -0.003,0.269733 q 0.0684,-0.148045 0.20728,-0.227054 0.13892,-0.08056 0.32339,-0.07842 0.093,0.0011 0.18111,0.02536 0.0897,0.02274 0.16976,0.06709 z m 1.22457,0.480004 q -0.2541,-0.0085 -0.35699,0.05319 -0.1029,0.0617 -0.10819,0.219745 -0.004,0.117756 0.0635,0.189815 0.0674,0.07206 0.18669,0.07605 0.17974,0.006 0.28341,-0.12546 0.10373,-0.133029 0.11188,-0.376288 l 0.001,-0.03099 z m 0.63803,-0.153915 -0.0332,0.990082 -0.45089,-0.0151 0.006,-0.193678 q -0.086,0.111908 -0.21664,0.169578 -0.13068,0.05767 -0.28562,0.05248 -0.29594,-0.0099 -0.45649,-0.171954 -0.15899,-0.161992 -0.1496,-0.442438 0.0102,-0.303687 0.21177,-0.441194 0.20165,-0.139056 0.6138,-0.125254 l 0.31453,0.01053 0.003,-0.07592 q 0.004,-0.110009 -0.075,-0.168487 -0.0771,-0.05998 -0.23205,-0.06516 -0.16268,-0.0054 -0.31748,0.03125 -0.15319,0.0352 -0.32199,0.119515 l 0.013,-0.387356 q 0.15237,-0.05694 0.3083,-0.08119 0.15593,-0.02425 0.32946,-0.01844 0.423,0.01417 0.58767,0.191858 0.16623,0.177746 0.15139,0.620881 z m 0.79977,0.306888 0.0741,-1.337402 -0.45973,-0.02547 0.0193,-0.348281 0.91327,0.0506 -0.0934,1.685683 q -0.0113,0.204325 0.0474,0.292977 0.0587,0.08865 0.21044,0.09706 l 0.36222,0.02007 -0.0193,0.348281 -0.48914,-0.0271 q -0.32352,-0.01792 -0.45512,-0.192905 -0.1316,-0.17498 -0.11007,-0.563507 z"
         id="text58"
         style="font-weight:bold;font-size:3.175px;font-family:Monospace;-inkscape-font-specification:'Monospace Bold';white-space:pre;fill:#ffffff;stroke-width:0.377953"
         aria-label="Neutral" /><path
         style="font-weight:bold;font-size:3.175px;font-family:Monospace;-inkscape-font-specification:'Monospace Bold';white-space:pre;fill:#ffffff;stroke-width:0.377953"
         d="m 51.955312,36.226051 q -0.354863,0.10467 -0.539656,0.0642 -0.185733,-0.04171 -0.334164,-0.236559 -0.190707,-0.250346 -0.139361,-0.515528 0.05134,-0.265182 0.331289,-0.478435 0.127023,-0.09676 0.276592,-0.163927 0.14863,-0.0684 0.316401,-0.106552 l 0.270558,0.35517 q -0.180099,0.0066 -0.333836,0.05552 -0.153737,0.0489 -0.272128,0.139088 -0.131956,0.10052 -0.161854,0.207097 -0.0299,0.106577 0.04526,0.205235 0.05825,0.07646 0.147325,0.08851 0.08937,0.0099 0.298192,-0.05371 l 0.201714,-0.06011 q 0.283985,-0.08771 0.491208,-0.03314 0.207224,0.05457 0.363171,0.259287 0.212313,0.27871 0.152277,0.542717 -0.05974,0.261834 -0.392715,0.515483 -0.136889,0.104278 -0.300376,0.176198 -0.161314,0.07221 -0.338421,0.105787 l -0.286529,-0.376136 q 0.224435,-0.0073 0.398607,-0.06004 0.175406,-0.05372 0.308595,-0.155175 0.134422,-0.102399 0.162384,-0.219193 0.02702,-0.118028 -0.05659,-0.227786 -0.06294,-0.08263 -0.159244,-0.106711 -0.09724,-0.02532 -0.21821,0.01032 z m 1.566163,-0.809951 -0.788174,-1.083012 -0.372286,0.270935 -0.205254,-0.282035 0.739558,-0.53822 0.993427,1.365047 q 0.120416,0.16546 0.221982,0.197 0.101566,0.03154 0.224408,-0.05786 l 0.293316,-0.213463 0.205253,0.282034 -0.396101,0.288267 q -0.261979,0.190658 -0.474568,0.138295 -0.212589,-0.05236 -0.441561,-0.366988 z m 0.777196,-1.807878 0.738422,-0.513069 0.791718,1.139462 0.463424,-0.321995 0.199035,0.286456 -1.30115,0.904063 -0.199036,-0.286457 0.464697,-0.322879 -0.592683,-0.853005 -0.365392,0.253881 z m -0.116716,-0.947742 0.37303,-0.259189 0.302534,0.435415 -0.373031,0.259188 z m 2.938555,0.04367 q -0.128482,-0.193827 -0.279225,-0.261301 -0.1516,-0.06877 -0.271773,0.01089 -0.118881,0.0788 -0.115447,0.243921 0.0047,0.164263 0.134064,0.359383 0.130194,0.196413 0.279645,0.264743 0.150744,0.06747 0.269625,-0.01133 0.120173,-0.07966 0.116739,-0.244778 -0.0043,-0.166411 -0.133628,-0.361532 z m 0.801742,0.387374 q 0.230409,0.347598 0.174691,0.605866 -0.05357,0.258704 -0.406337,0.49254 -0.118881,0.0788 -0.247169,0.1378 -0.127432,0.06029 -0.271588,0.103767 l -0.23041,-0.347598 q 0.146652,-0.01165 0.276624,-0.05689 0.129972,-0.04523 0.247561,-0.123179 0.160231,-0.106212 0.185934,-0.232986 0.02656,-0.125483 -0.07965,-0.285714 l -0.103642,-0.156355 q 0.01296,0.140206 -0.04538,0.251416 -0.05834,0.11121 -0.190143,0.198577 -0.248099,0.164456 -0.522598,0.06742 -0.274498,-0.09704 -0.494629,-0.429131 -0.22784,-0.343721 -0.215443,-0.642091 0.0124,-0.298371 0.257912,-0.461114 0.12405,-0.08223 0.259508,-0.08832 0.135458,-0.0061 0.261259,0.06304 l -0.122486,-0.184782 0.378611,-0.250967 z m 1.050764,-1.848561 0.602007,0.952816 -0.381388,0.240968 -0.564745,-0.893838 q -0.100196,-0.158584 -0.189127,-0.197754 -0.08762,-0.04 -0.189849,0.02459 -0.104849,0.06625 -0.105033,0.196563 -10e-4,0.129006 0.102496,0.292833 l 0.530793,0.840103 -0.381388,0.240968 -1.288478,-2.039314 0.381388,-0.240969 0.500155,0.791611 q -0.03638,-0.147557 0.01968,-0.276504 0.05606,-0.128947 0.194989,-0.216722 0.208387,-0.131663 0.402323,-0.05981 0.193107,0.07054 0.366174,0.344459 z m 0.581805,-1.643121 0.254147,0.422436 0.508782,-0.306096 0.179821,0.298893 -0.508782,0.306096 0.423578,0.704058 q 0.05994,0.09963 0.134137,0.114698 0.07473,0.01294 0.187641,-0.05499 l 0.298893,-0.179821 0.179821,0.298893 -0.32679,0.196604 q -0.33476,0.2014 -0.516925,0.166256 -0.182964,-0.03647 -0.357191,-0.326067 l -0.412389,-0.685461 -0.379926,0.228573 -0.179821,-0.298893 0.379926,-0.228573 -0.254147,-0.422435 z m 2.031878,0.549859 -0.665242,-1.162578 -0.399636,0.228676 -0.17324,-0.302754 0.79389,-0.454274 0.838482,1.465333 q 0.101634,0.177616 0.19915,0.220055 0.09752,0.04244 0.229383,-0.03302 l 0.314865,-0.18017 0.17324,0.302755 -0.425203,0.243306 q -0.281225,0.160921 -0.486828,0.08566 -0.205603,-0.07526 -0.398861,-0.412996 z m 2.556092,-0.384636 q 0.03661,0.258891 -0.02314,0.41841 -0.05765,0.160141 -0.218375,0.247501 l -0.329628,0.179162 -0.165095,-0.303748 0.16209,-0.0881 q 0.122588,-0.06663 0.156846,-0.13995 0.035,-0.07196 0.01139,-0.254984 l -0.01445,-0.09801 -1.386481,-1.16794 0.419526,-0.228024 0.886922,0.800718 -0.204511,-1.171627 0.419526,-0.228024 z m 2.347214,-3.550054 0.221862,0.945757 0.388696,-0.189735 z m -0.434386,-0.253747 0.502936,-0.245499 1.57677,1.805947 -0.410986,0.200616 -0.379112,-0.451516 -0.550304,0.268621 0.125554,0.575286 -0.410986,0.200616 z m 2.880849,0.202799 q -0.09741,-0.211157 -0.2361,-0.300835 -0.139337,-0.09108 -0.270255,-0.03069 -0.12951,0.05975 -0.151302,0.223457 -0.02038,0.163062 0.07768,0.375627 0.09871,0.213973 0.235991,0.3043 0.138687,0.08968 0.268197,0.02993 0.130918,-0.0604 0.15271,-0.224108 0.02114,-0.165119 -0.07692,-0.377684 z m 0.733273,0.505133 q 0.174693,0.378676 0.08023,0.625423 -0.0924,0.247505 -0.47671,0.424796 -0.12951,0.05975 -0.265296,0.09849 -0.135137,0.04015 -0.284238,0.06113 l -0.174694,-0.378676 q 0.146714,0.01085 0.282065,-0.01403 0.135351,-0.02488 0.263453,-0.08398 0.174557,-0.08053 0.219296,-0.201898 0.04539,-0.119963 -0.03514,-0.29452 l -0.07858,-0.170334 q -0.0086,0.140542 -0.0832,0.241552 -0.07462,0.10101 -0.218208,0.16725 -0.270281,0.124688 -0.526766,-0.01308 -0.256484,-0.137773 -0.423384,-0.499557 -0.172745,-0.374452 -0.114983,-0.66744 0.05776,-0.292988 0.325229,-0.416377 0.135141,-0.06234 0.269944,-0.0477 0.134802,0.01464 0.248586,0.102148 l -0.09287,-0.201303 0.41246,-0.190279 z m 1.382214,-1.835547 q -0.09545,-0.03286 -0.201458,-0.02394 -0.104588,0.0083 -0.21405,0.05593 -0.132207,0.05752 -0.211308,0.147723 -0.0783,0.08817 -0.09397,0.199805 -0.01062,0.06886 0.0086,0.151814 0.0206,0.08233 0.08863,0.238706 l 0.31913,0.733538 -0.416524,0.181211 -0.692686,-1.592175 0.416525,-0.181212 0.107613,0.247356 q 0.0018,-0.163066 0.09612,-0.292032 0.09374,-0.130388 0.262911,-0.203986 0.0853,-0.03711 0.175602,-0.05104 0.09111,-0.01597 0.18235,-0.0083 z m 2.16711,0.376098 q -0.121683,0.120158 -0.261438,0.212534 -0.139754,0.09238 -0.309057,0.161669 -0.403171,0.16501 -0.705036,0.03729 -0.301018,-0.129742 -0.467203,-0.535783 -0.1609,-0.393127 -0.0491,-0.70523 0.111804,-0.312102 0.466193,-0.457147 0.357258,-0.146219 0.640732,-0.01432 0.284321,0.129874 0.441697,0.514393 l 0.06988,0.170739 -1.088993,0.445704 q 0.07895,0.188803 0.227596,0.236846 0.148647,0.04804 0.368167,-0.0418 0.144912,-0.05931 0.268491,-0.158466 0.123578,-0.09916 0.240103,-0.252381 z m -0.725776,-0.758275 q -0.07099,-0.165259 -0.188851,-0.215852 -0.117015,-0.05261 -0.27771,0.01316 -0.144912,0.05931 -0.19459,0.183499 -0.05027,0.122755 3.08e-4,0.291344 z m 2.510498,0.06822 q -0.124283,0.117467 -0.266024,0.206764 -0.141742,0.0893 -0.31252,0.15487 -0.406685,0.156152 -0.705684,0.02186 -0.298107,-0.136295 -0.455371,-0.545874 -0.152262,-0.396553 -0.03366,-0.706135 0.118604,-0.309582 0.476081,-0.44684 0.360372,-0.13837 0.640892,-3.04e-4 0.281412,0.136063 0.43034,0.523933 l 0.06613,0.172225 -1.098482,0.421777 q 0.0748,0.190485 0.222361,0.241769 0.147561,0.05128 0.368994,-0.03374 0.146175,-0.05612 0.271892,-0.152555 0.125718,-0.09643 0.245567,-0.247068 z M 74.294771,23.74573 q -0.06736,-0.166773 -0.184084,-0.219932 -0.115837,-0.05516 -0.277932,0.0071 -0.146175,0.05613 -0.198558,0.179199 -0.05294,0.121626 -0.0061,0.291281 z"
         id="text59"
         aria-label="Slightly Agree" /><path
         d="m 131.44091,21.891518 q -0.29181,-0.227437 -0.36658,-0.40121 -0.0743,-0.175255 -0.002,-0.409414 0.0924,-0.30085 0.33781,-0.413614 0.24544,-0.112764 0.58186,-0.0095 0.15265,0.04687 0.29438,0.129299 0.14218,0.08095 0.27093,0.19508 l -0.13104,0.426821 q -0.1103,-0.14252 -0.23962,-0.238981 -0.12931,-0.09646 -0.27158,-0.140141 -0.15858,-0.04869 -0.26262,-0.01089 -0.10404,0.03779 -0.14044,0.156353 -0.0282,0.09188 0.0139,0.171303 0.044,0.07839 0.21737,0.21107 l 0.16638,0.128922 q 0.23673,0.179714 0.31311,0.379929 0.0764,0.200215 8.5e-4,0.44623 -0.10283,0.334937 -0.35238,0.439953 -0.24762,0.103989 -0.64776,-0.01886 -0.16451,-0.0505 -0.31821,-0.14148 -0.15267,-0.08904 -0.28314,-0.213422 l 0.13877,-0.452016 q 0.13666,0.178179 0.28103,0.288992 0.14585,0.111268 0.30591,0.160409 0.16154,0.0496 0.27275,0.0043 0.11167,-0.0468 0.15217,-0.178701 0.0305,-0.09929 -0.006,-0.191596 -0.0361,-0.09378 -0.13551,-0.171342 z m 1.57069,0.801012 0.42104,-1.27156 -0.4371,-0.144731 0.10965,-0.331135 0.86831,0.287512 -0.53068,1.602695 q -0.0643,0.194266 -0.0308,0.29519 0.0335,0.100924 0.17776,0.14868 l 0.34439,0.114031 -0.10965,0.331135 -0.46506,-0.15399 q -0.30759,-0.101847 -0.38888,-0.305137 -0.0813,-0.20329 0.041,-0.57269 z m 1.9221,-0.421621 0.84721,0.301243 -0.46485,1.307327 0.53169,0.189056 -0.11686,0.328658 -1.49283,-0.530811 0.11686,-0.328657 0.53315,0.189575 0.34799,-0.97867 -0.41922,-0.149063 z m 0.70229,-0.647019 0.42798,0.152179 -0.17763,0.49956 -0.42798,-0.152179 z m 1.67644,2.413756 q 0.0827,-0.217349 0.0497,-0.379177 -0.0324,-0.163277 -0.16719,-0.21454 -0.13331,-0.05071 -0.26551,0.04828 -0.13075,0.09954 -0.21398,0.318339 -0.0838,0.220247 -0.0523,0.381524 0.033,0.161828 0.16629,0.212539 0.13475,0.05126 0.26696,-0.04773 0.13275,-0.10044 0.21598,-0.319237 z m 0.15226,0.877306 q -0.14828,0.389779 -0.39065,0.494961 -0.24147,0.107182 -0.63705,-0.0433 -0.1333,-0.05071 -0.256,-0.120606 -0.12324,-0.06845 -0.24256,-0.16028 l 0.14827,-0.389779 q 0.0949,0.112404 0.2074,0.191686 0.11249,0.07928 0.24435,0.129442 0.17967,0.06835 0.29768,0.01538 0.11746,-0.05152 0.18581,-0.231195 l 0.0667,-0.175328 q -0.1064,0.09222 -0.23078,0.109592 -0.12437,0.01738 -0.27217,-0.03885 -0.27821,-0.105832 -0.35926,-0.385467 -0.0811,-0.279636 0.0606,-0.652027 0.14663,-0.385431 0.39635,-0.549187 0.24973,-0.163756 0.52503,-0.05903 0.13911,0.05292 0.22298,0.159462 0.0839,0.106545 0.10097,0.249064 l 0.0788,-0.207206 0.42455,0.161505 z m 2.11456,-0.222989 -0.42368,1.044399 -0.41804,-0.169586 0.39745,-0.979753 q 0.0705,-0.173827 0.0505,-0.268927 -0.0185,-0.09452 -0.1306,-0.139973 -0.11492,-0.04662 -0.22095,0.02915 -0.10544,0.07434 -0.17828,0.25391 l -0.37356,0.920853 -0.41805,-0.169587 0.9068,-2.235331 0.41804,0.169587 -0.35199,0.867699 q 0.0987,-0.115536 0.2362,-0.145095 0.13746,-0.02956 0.28974,0.03222 0.22842,0.09266 0.28301,0.292144 0.0552,0.198046 -0.0666,0.498293 z m 1.67434,-0.484448 -0.19527,0.452672 0.5452,0.235183 -0.13816,0.320287 -0.5452,-0.235183 -0.32545,0.754453 q -0.046,0.106762 -0.0151,0.175844 0.033,0.06827 0.15401,0.120467 l 0.32029,0.138162 -0.13816,0.320287 -0.35018,-0.151058 q -0.35872,-0.154742 -0.43629,-0.323273 -0.077,-0.169954 0.0569,-0.480276 l 0.31686,-0.734525 -0.40712,-0.17562 0.13816,-0.320286 0.40712,0.17562 0.19527,-0.452672 z m 0.73683,1.971747 0.55732,-1.218002 -0.41869,-0.191579 0.14513,-0.317188 0.83174,0.380577 -0.70246,1.53519 q -0.0851,0.186084 -0.0628,0.290066 0.0223,0.103981 0.16047,0.167196 l 0.32988,0.150941 -0.14514,0.317188 -0.44547,-0.203835 q -0.29463,-0.134814 -0.35325,-0.345764 -0.0586,-0.210949 0.10329,-0.56479 z m 1.80174,1.853355 q -0.18908,0.180586 -0.35355,0.224961 -0.16374,0.04645 -0.32838,-0.03329 l -0.33766,-0.163526 0.15069,-0.311147 0.16604,0.08041 q 0.12557,0.06082 0.20512,0.04594 0.0789,-0.01348 0.21388,-0.139298 l 0.0712,-0.06885 0.14148,-1.807317 0.42974,0.208124 -0.13406,1.187353 0.8331,-0.848814 0.42974,0.208124 z m 4.00461,-0.30153 -0.7074,1.311179 0.10915,0.05889 q 0.23741,0.128082 0.41861,0.03384 0.18193,-0.09561 0.37553,-0.454446 0.19212,-0.356106 0.17139,-0.559296 -0.0207,-0.20319 -0.25813,-0.331272 z m -0.20669,-0.580078 0.43115,0.232609 q 0.49936,0.269414 0.59021,0.626695 0.0916,0.355917 -0.19991,0.896215 -0.29224,0.541663 -0.64146,0.663282 -0.34848,0.120256 -0.84785,-0.149158 l -0.43115,-0.232609 z m 1.55201,1.503365 0.78182,0.444148 -0.68537,1.206426 0.49066,0.278741 -0.1723,0.303291 -1.37761,-0.782619 0.17229,-0.303291 0.49201,0.279507 0.51307,-0.903135 -0.38687,-0.219776 z m 0.80421,-0.514863 0.39495,0.224372 -0.26189,0.461003 -0.39495,-0.224372 z m 1.8839,2.143486 -0.20354,0.340708 q -0.0665,-0.133608 -0.1629,-0.238177 -0.0943,-0.105106 -0.21144,-0.175072 -0.13043,-0.07792 -0.22003,-0.07907 -0.0888,-0.0025 -0.13333,0.07204 -0.0636,0.106471 0.18145,0.343161 l 0.0123,0.01274 0.0959,0.0934 q 0.18273,0.177785 0.21363,0.349746 0.033,0.171425 -0.0815,0.363074 -0.13754,0.230243 -0.35844,0.255393 -0.21876,0.02461 -0.52221,-0.156664 -0.13442,-0.0803 -0.26118,-0.188536 -0.12756,-0.106903 -0.2448,-0.240147 l 0.20354,-0.340708 q 0.0854,0.150321 0.1954,0.268424 0.11136,0.118899 0.23647,0.193635 0.13708,0.08189 0.23147,0.08411 0.0944,0.0022 0.13971,-0.07365 0.0445,-0.07453 0.0178,-0.14467 -0.0254,-0.06934 -0.18601,-0.2267 l -0.0935,-0.08836 q -0.19337,-0.184146 -0.23145,-0.353168 -0.0381,-0.169023 0.0701,-0.350024 0.1288,-0.215604 0.35608,-0.242361 0.22727,-0.02676 0.50941,0.141799 0.12644,0.07553 0.23882,0.171563 0.11451,0.0955 0.20831,0.207515 z m 0.81214,1.522528 q -0.21537,-0.135135 -0.33533,-0.133541 -0.11997,0.0016 -0.20401,0.135538 -0.0626,0.0998 -0.0406,0.195975 0.022,0.09617 0.12313,0.15962 0.15232,0.09558 0.30806,0.03407 0.15655,-0.06282 0.28592,-0.268994 l 0.0165,-0.02626 z m 0.62888,0.1878 -0.52653,0.839122 -0.38213,-0.239782 0.103,-0.164147 q -0.13058,0.0535 -0.27253,0.03764 -0.14196,-0.01586 -0.27327,-0.09826 -0.25082,-0.157382 -0.30811,-0.378181 -0.056,-0.219975 0.0932,-0.45766 0.1615,-0.257383 0.40491,-0.274862 0.24423,-0.01879 0.59353,0.200391 l 0.26658,0.16727 0.0404,-0.06434 q 0.0585,-0.09324 0.0199,-0.183358 -0.0365,-0.09061 -0.1678,-0.173011 -0.13789,-0.08652 -0.29014,-0.132639 -0.15012,-0.04661 -0.33842,-0.05861 l 0.206,-0.328295 q 0.16034,0.0274 0.30731,0.08485 0.14698,0.05745 0.29405,0.149737 0.3585,0.22495 0.41149,0.461352 0.0543,0.237227 -0.18137,0.612796 z m 1.17022,0.878323 q 0.12787,-0.194226 0.13079,-0.359356 0.004,-0.166424 -0.11664,-0.245708 -0.11913,-0.07843 -0.26966,-0.01049 -0.14924,0.0688 -0.27797,0.264316 -0.12958,0.196816 -0.1338,0.361093 -0.003,0.165129 0.11621,0.243561 0.12042,0.07928 0.27095,0.01134 0.15139,-0.06924 0.28012,-0.264759 z m -0.0418,0.889441 q -0.22933,0.348313 -0.48875,0.398391 -0.25898,0.05223 -0.61247,-0.180511 -0.11913,-0.07843 -0.22373,-0.173287 -0.10545,-0.09356 -0.202,-0.2091 l 0.22933,-0.348312 q 0.0683,0.130322 0.16086,0.232125 0.0926,0.101803 0.21043,0.179382 0.16056,0.105713 0.28725,0.07962 0.12584,-0.0248 0.23156,-0.185363 l 0.10315,-0.156676 q -0.12388,0.06693 -0.24906,0.0569 -0.12518,-0.01003 -0.25726,-0.09699 -0.24861,-0.163684 -0.26704,-0.454245 -0.0184,-0.290561 0.20065,-0.623336 0.22677,-0.344428 0.50608,-0.450088 0.27932,-0.105661 0.52534,0.05632 0.1243,0.08184 0.18305,0.204049 0.0588,0.122207 0.0445,0.265042 l 0.12191,-0.185162 0.37939,0.249788 z m 2.28859,0.204481 q -0.0225,-0.09841 -0.0861,-0.18372 -0.0623,-0.08443 -0.16052,-0.15224 -0.11866,-0.0819 -0.23703,-0.10144 -0.11622,-0.01994 -0.2193,0.0257 -0.0641,0.02735 -0.1244,0.08744 -0.059,0.06097 -0.15591,0.201319 l -0.45441,0.658357 -0.37383,-0.258027 0.98631,-1.428992 0.37384,0.258028 -0.15323,0.222004 q 0.1394,-0.08462 0.29875,-0.07259 0.16022,0.01075 0.31205,0.115551 0.0766,0.05284 0.13607,0.122173 0.0617,0.06894 0.10336,0.150457 z m 0.82492,2.038893 q -0.1663,-0.03988 -0.31854,-0.109785 -0.15225,-0.0699 -0.30049,-0.177085 -0.35303,-0.255242 -0.40397,-0.579032 -0.0488,-0.324138 0.20828,-0.679676 0.24889,-0.344231 0.57297,-0.414093 0.32408,-0.06986 0.63439,0.154496 0.31282,0.226176 0.3505,0.536553 0.0399,0.310029 -0.20359,0.646722 l -0.10809,0.149502 -0.95354,-0.689427 q -0.11865,0.166742 -0.081,0.318345 0.0377,0.151602 0.22991,0.290578 0.12689,0.09174 0.27635,0.144325 0.14946,0.05258 0.34111,0.07063 z m 0.26068,-1.016747 q 0.10286,-0.147549 0.0836,-0.274356 -0.0171,-0.127154 -0.15782,-0.228888 -0.12688,-0.09174 -0.25858,-0.06835 -0.13079,0.02213 -0.24725,0.154107 z m 1.26769,2.16793 q -0.16538,-0.04351 -0.31606,-0.116728 -0.15068,-0.07321 -0.29654,-0.183615 -0.34736,-0.262903 -0.39121,-0.587729 -0.0417,-0.325127 0.2231,-0.674957 0.25636,-0.338705 0.58188,-0.401462 0.32553,-0.06276 0.63086,0.168336 0.3078,0.232964 0.33869,0.544091 0.0331,0.310826 -0.21769,0.642114 l -0.11133,0.147102 -0.93824,-0.71012 q -0.12226,0.164108 -0.0879,0.316498 0.0344,0.152391 0.2235,0.295538 0.12485,0.09449 0.27312,0.150336 0.14828,0.05584 0.33949,0.07807 z m 0.28286,-1.010803 q 0.10606,-0.145264 0.0896,-0.272461 -0.0143,-0.127499 -0.15278,-0.232286 -0.12485,-0.0945 -0.25702,-0.07399 -0.13125,0.01927 -0.25057,0.148663 z"
         id="text60"
         style="font-weight:bold;font-size:3.175px;font-family:Monospace;-inkscape-font-specification:'Monospace Bold';white-space:pre;fill:#ffffff;stroke-width:0.377953"
         aria-label="Slightly Disagree" /><path
         style="font-weight:bold;font-size:3.175px;font-family:Monospace;-inkscape-font-specification:'Monospace Bold';white-space:pre;fill:#ffffff;stroke-width:0.377953"
         d="m 173.66965,48.602012 -1.13799,0.961544 0.08,0.09473 q 0.1741,0.206047 0.37722,0.184614 0.2043,-0.02243 0.51574,-0.285582 0.30907,-0.261147 0.3641,-0.457838 0.055,-0.196691 -0.11906,-0.402738 z m 0.0198,-0.615483 0.31618,0.3742 q 0.3662,0.433409 0.32006,0.799161 -0.045,0.364751 -0.51389,0.760975 -0.47011,0.397225 -0.83962,0.382672 -0.36832,-0.01555 -0.73453,-0.448963 l -0.31618,-0.3742 z m 0.89453,1.96689 0.56517,0.699352 -1.07918,0.87211 0.35469,0.438904 -0.2713,0.219246 -0.99586,-1.232307 0.2713,-0.219246 0.35567,0.44011 0.80787,-0.652865 -0.27966,-0.346058 z m 0.93681,-0.185003 0.28551,0.353294 -0.41238,0.333253 -0.28551,-0.353294 z m 0.96925,2.684057 -0.31407,0.242641 q -0.013,-0.148657 -0.0645,-0.28126 -0.0493,-0.132323 -0.13274,-0.240281 -0.0929,-0.120227 -0.17585,-0.154081 -0.0817,-0.0348 -0.15045,0.01828 -0.0981,0.07583 0.0434,0.385753 l 0.007,0.01634 0.0551,0.122008 q 0.10503,0.232306 0.0709,0.403654 -0.032,0.171627 -0.20863,0.308113 -0.21223,0.163972 -0.42702,0.106577 -0.2126,-0.05712 -0.42871,-0.336829 -0.0957,-0.123907 -0.17411,-0.271009 -0.0796,-0.146154 -0.13999,-0.31305 l 0.31406,-0.242641 q 0.0245,0.17113 0.0837,0.321297 0.0601,0.151394 0.14925,0.266714 0.0976,0.126361 0.18466,0.162947 0.087,0.03659 0.15697,-0.01744 0.0687,-0.05308 0.0695,-0.128131 0.002,-0.07383 -0.0902,-0.279032 l -0.0547,-0.116432 q -0.11262,-0.24212 -0.0862,-0.413357 0.0264,-0.171237 0.19324,-0.30014 0.19874,-0.153547 0.42005,-0.09531 0.22131,0.05823 0.42224,0.318315 0.09,0.116547 0.15951,0.247031 0.0716,0.130764 0.11797,0.269332 z m 0.19892,1.714089 q -0.151,-0.204548 -0.26324,-0.246947 -0.11223,-0.0424 -0.23945,0.05152 -0.0948,0.06998 -0.10948,0.167537 -0.0147,0.09756 0.0562,0.193598 0.1068,0.14468 0.27424,0.144398 0.16869,-0.0012 0.36451,-0.145762 l 0.0249,-0.01841 z m 0.51661,0.40483 -0.79699,0.588363 -0.26794,-0.362948 0.15591,-0.115094 q -0.1411,0.002 -0.26741,-0.06466 -0.12632,-0.06669 -0.21839,-0.191416 -0.17587,-0.238223 -0.14841,-0.464675 0.0284,-0.225204 0.25412,-0.391861 0.24446,-0.180468 0.47739,-0.107698 0.23417,0.07185 0.4791,0.403615 l 0.18691,0.253191 0.0611,-0.04512 q 0.0886,-0.06537 0.0856,-0.163378 -8.1e-4,-0.09768 -0.0929,-0.222402 -0.0967,-0.13096 -0.22151,-0.229577 -0.12266,-0.09829 -0.29352,-0.178341 l 0.31181,-0.230189 q 0.1392,0.08415 0.25498,0.191382 0.11577,0.10723 0.2189,0.246921 0.25136,0.340498 0.2142,0.579899 -0.0362,0.240647 -0.39295,0.503984 z m 0.76782,1.245503 q 0.19006,-0.133988 0.25318,-0.286605 0.0644,-0.15351 -0.0187,-0.271348 -0.0822,-0.116572 -0.24713,-0.108403 -0.16406,0.0094 -0.35539,0.144317 -0.1926,0.135775 -0.25662,0.287125 -0.0631,0.152616 0.0191,0.269188 0.0831,0.117839 0.24803,0.10967 0.16622,-0.0091 0.35755,-0.143944 z m -0.36422,0.812524 q -0.34085,0.240286 -0.60061,0.191998 -0.26013,-0.04613 -0.50399,-0.392041 -0.0822,-0.116571 -0.14483,-0.243115 -0.0639,-0.12565 -0.11152,-0.2685 l 0.34085,-0.240285 q 0.0159,0.146258 0.0648,0.274879 0.0489,0.128621 0.13023,0.243925 0.11076,0.157119 0.23822,0.179175 0.12619,0.02295 0.28331,-0.08781 l 0.15332,-0.108084 q -0.13978,0.01697 -0.25261,-0.03815 -0.11284,-0.05513 -0.20395,-0.184368 -0.17151,-0.243281 -0.0824,-0.52045 0.0891,-0.277168 0.41476,-0.506735 0.33705,-0.237605 0.63565,-0.233773 0.2986,0.0038 0.46832,0.244579 0.0857,0.121641 0.0957,0.256868 0.01,0.135228 -0.0555,0.26296 l 0.1812,-0.127736 0.26172,0.371256 z m 2.05518,1.02747 q 0.0151,-0.09982 -0.0129,-0.202466 -0.0271,-0.101362 -0.0937,-0.200408 -0.0805,-0.119628 -0.18349,-0.181115 -0.10087,-0.06107 -0.21351,-0.0563 -0.0696,0.002 -0.14776,0.03587 -0.0773,0.03515 -0.21875,0.130337 l -0.66374,0.446508 -0.25354,-0.376892 1.44068,-0.969164 0.25354,0.376891 -0.22382,0.150567 q 0.1607,-0.02776 0.3046,0.04173 0.14519,0.06862 0.24816,0.221693 0.0519,0.07718 0.082,0.163479 0.0322,0.08672 0.0412,0.177839 z m 0.0219,2.199339 q -0.14018,-0.09795 -0.25631,-0.218697 -0.11612,-0.120748 -0.21489,-0.27473 -0.23519,-0.366689 -0.16416,-0.686672 0.0732,-0.319516 0.44247,-0.556382 0.35756,-0.229333 0.68473,-0.175806 0.32717,0.05353 0.53391,0.375846 0.20841,0.32493 0.12994,0.62758 -0.0763,0.303118 -0.42604,0.52743 l -0.15529,0.0996 -0.63527,-0.99045 q -0.17142,0.111787 -0.19179,0.266671 -0.0204,0.154884 0.10769,0.35454 0.0845,0.131799 0.2044,0.235411 0.11987,0.103611 0.29163,0.19051 z m 0.61454,-0.850924 q 0.1497,-0.0997 0.17814,-0.224768 0.0306,-0.124601 -0.0632,-0.270754 -0.0845,-0.131799 -0.21566,-0.158202 -0.12982,-0.02724 -0.28649,0.05298 z m 0.38681,2.481398 q -0.138,-0.100993 -0.25146,-0.224251 -0.11345,-0.123259 -0.20882,-0.279365 -0.22712,-0.371745 -0.1491,-0.690098 0.0801,-0.317839 0.45453,-0.54657 0.36248,-0.221458 0.68841,-0.160788 0.32592,0.06067 0.52556,0.387435 0.20125,0.329411 0.11618,0.630273 -0.0829,0.301376 -0.43748,0.517984 l -0.15743,0.09618 -0.61345,-1.004108 q -0.17382,0.108011 -0.19757,0.262412 -0.0238,0.154402 0.0999,0.356811 0.0816,0.133616 0.1992,0.239825 0.11758,0.106209 0.2874,0.196844 z m 0.63301,-0.837278 q 0.15184,-0.0964 0.18302,-0.220818 0.0333,-0.123902 -0.0572,-0.272071 -0.0816,-0.133616 -0.21215,-0.162881 -0.12919,-0.03007 -0.28757,0.04671 z"
         id="text61"
         aria-label="Disagree" /><path
         style="font-weight:bold;font-size:3.175px;font-family:Monospace;-inkscape-font-specification:'Monospace Bold';white-space:pre;fill:#ffffff;stroke-width:0.377953"
         d="m 190.8465,78.612043 q 0.0147,-0.369684 0.11236,-0.531718 0.0991,-0.162528 0.33128,-0.240586 0.2983,-0.10029 0.53298,0.03343 0.23469,0.133722 0.34683,0.467291 0.0509,0.151356 0.0665,0.314568 0.0171,0.162718 -6.1e-4,0.33386 l -0.42321,0.142283 q 0.0515,-0.1727 0.0545,-0.333999 0.003,-0.161299 -0.0444,-0.302368 -0.0529,-0.157233 -0.14421,-0.219749 -0.0914,-0.06252 -0.20891,-0.02299 -0.0911,0.03063 -0.1311,0.111134 -0.038,0.08148 -0.0448,0.299657 l -0.008,0.210336 q -0.008,0.297111 -0.12624,0.475866 -0.11817,0.178755 -0.36211,0.260765 -0.3321,0.111653 -0.56288,-0.02992 -0.22882,-0.140601 -0.36221,-0.537357 -0.0548,-0.16311 -0.0705,-0.34103 -0.0166,-0.175956 0.008,-0.35447 l 0.44819,-0.150682 q -0.0651,0.214896 -0.0711,0.396793 -0.005,0.183367 0.048,0.342069 0.0539,0.160172 0.1555,0.224132 0.10311,0.06347 0.2339,0.0195 0.0985,-0.0331 0.15216,-0.116582 0.0552,-0.08397 0.0602,-0.209981 z m 1.84158,1.742439 -0.47057,0.146993 0.17704,0.566755 -0.33295,0.104004 -0.17704,-0.566755 -0.78428,0.244988 q -0.11099,0.03467 -0.14318,0.103194 -0.0302,0.06954 0.009,0.195324 l 0.10401,0.33295 -0.33295,0.104005 -0.11372,-0.364026 q -0.11648,-0.372904 -0.0392,-0.541583 0.0787,-0.169142 0.40132,-0.26991 l 0.76356,-0.238517 -0.1322,-0.423216 0.33295,-0.104004 0.1322,0.423216 0.47057,-0.146993 z m -0.1738,2.833687 q 0.0449,-0.09042 0.0497,-0.196697 0.005,-0.104787 -0.0279,-0.219471 -0.04,-0.138514 -0.11927,-0.228574 -0.0773,-0.089 -0.18604,-0.118925 -0.0669,-0.0194 -0.15166,-0.01106 -0.0843,0.0098 -0.24813,0.05715 l -0.76853,0.221998 -0.12606,-0.436394 1.66813,-0.481856 0.12606,0.436395 -0.25916,0.07486 q 0.16149,0.02274 0.27722,0.132927 0.11723,0.109755 0.16843,0.286993 0.0258,0.08936 0.028,0.180714 0.004,0.09241 -0.0152,0.181903 z m 0.43455,1.032301 q -0.0418,-0.157325 -0.20501,-0.210209 -0.16173,-0.05328 -0.40895,0.01239 -0.24723,0.06567 -0.36269,0.192587 -0.11397,0.126518 -0.0722,0.283842 0.0422,0.158823 0.20392,0.212106 0.16323,0.05288 0.41045,-0.01279 0.24722,-0.06567 0.36119,-0.192189 0.11546,-0.126915 0.0733,-0.285738 z m -0.73058,-0.63683 q 0.40604,-0.107862 0.6985,0.03902 0.29436,0.14798 0.38869,0.503084 0.0947,0.356603 -0.0878,0.629653 -0.18061,0.274151 -0.58666,0.382013 -0.40605,0.107862 -0.7004,-0.04012 -0.29246,-0.14688 -0.38719,-0.503482 -0.0943,-0.355104 0.0863,-0.629255 0.18251,-0.273051 0.58856,-0.380913 z m 1.10104,3.270899 -1.09527,0.265803 -0.1064,-0.43841 1.02748,-0.24935 q 0.1838,-0.04461 0.24935,-0.116347 0.0674,-0.0706 0.0389,-0.188113 -0.0289,-0.119019 -0.15266,-0.162362 -0.12342,-0.04184 -0.31325,0.0042 l -0.96571,0.234361 -0.10639,-0.43841 1.68735,-0.409491 0.10639,0.43841 -0.2531,0.06142 q 0.15145,0.0127 0.2557,0.107047 0.10426,0.09435 0.14301,0.254041 0.0581,0.239544 -0.0719,0.400331 -0.12858,0.160421 -0.44345,0.236835 z m 0.10656,1.533265 q 0.22711,-0.04996 0.3444,-0.166235 0.1188,-0.116611 0.0878,-0.257422 -0.0306,-0.139297 -0.18589,-0.195626 -0.15492,-0.05482 -0.38355,-0.0045 -0.23014,0.05062 -0.34776,0.165387 -0.11728,0.116278 -0.0866,0.255575 0.031,0.140811 0.18622,0.19714 0.15677,0.056 0.3854,0.0057 z m -0.65038,0.608156 q -0.40729,0.08959 -0.6281,-0.0555 -0.22199,-0.14324 -0.31291,-0.556588 -0.0306,-0.139297 -0.0394,-0.280228 -0.0103,-0.140598 0.001,-0.290735 l 0.40729,-0.08959 q -0.042,0.14099 -0.0467,0.27853 -0.005,0.137539 0.0256,0.275322 0.0413,0.187748 0.15028,0.25743 0.10746,0.07001 0.29521,0.02872 l 0.18321,-0.0403 q -0.13545,-0.03846 -0.21815,-0.132974 -0.0827,-0.09451 -0.11667,-0.248949 -0.0639,-0.290707 0.12554,-0.511757 0.18948,-0.22105 0.5786,-0.306644 0.40275,-0.08859 0.67658,0.03055 0.27384,0.119137 0.33712,0.406815 0.032,0.145354 -0.0112,0.273898 -0.0431,0.128544 -0.15299,0.22096 l 0.21652,-0.04763 0.0976,0.443631 z m 0.74497,0.683831 1.31408,-0.259481 -0.0892,-0.451715 0.34221,-0.06757 0.17719,0.897346 -1.65629,0.327054 q -0.20076,0.03964 -0.2721,0.118519 -0.0713,0.07888 -0.0419,0.227927 l 0.0703,0.355896 -0.3422,0.06757 -0.0949,-0.480612 q -0.0628,-0.317873 0.0742,-0.488713 0.13694,-0.170839 0.51869,-0.246221 z m -0.45079,2.545129 q -0.25706,-0.04784 -0.3892,-0.155324 -0.13341,-0.105693 -0.16497,-0.285885 l -0.0647,-0.369545 0.34054,-0.05964 0.0318,0.181718 q 0.0241,0.137435 0.0826,0.193279 0.057,0.05611 0.23805,0.09209 l 0.0975,0.01755 1.54902,-0.941789 0.0824,0.47033 -1.0417,0.58537 1.17569,0.179681 0.0824,0.47033 z m 2.58661,3.071396 -1.47721,0.193526 0.0161,0.122972 q 0.035,0.267466 0.21749,0.359265 0.18399,0.0916 0.58826,0.03863 0.4012,-0.05256 0.55385,-0.18826 0.15265,-0.1357 0.11761,-0.403166 z m 0.34947,-0.507029 0.0636,0.485742 q 0.0737,0.5626 -0.16288,0.845324 -0.23504,0.282522 -0.84376,0.362268 -0.61025,0.07995 -0.91321,-0.132091 -0.30142,-0.212241 -0.37513,-0.774841 l -0.0636,-0.485742 z m -0.31101,2.13769 0.0976,0.893862 -1.37932,0.150531 0.0612,0.560976 -0.34676,0.03784 -0.17189,-1.575047 0.34676,-0.03784 0.0614,0.562517 1.03257,-0.112688 -0.0483,-0.442307 z m 0.8882,0.350644 0.0493,0.451555 -0.52708,0.05752 -0.0493,-0.451555 z m -0.63466,2.781559 -0.39537,0.0345 q 0.0694,-0.132109 0.0977,-0.271525 0.03,-0.138007 0.0181,-0.273915 -0.0132,-0.151352 -0.0648,-0.22466 -0.05,-0.07344 -0.13648,-0.06589 -0.12355,0.01079 -0.1719,0.348044 l -0.003,0.01739 -0.0196,0.132429 q -0.0371,0.252227 -0.15839,0.377987 -0.11961,0.12716 -0.34201,0.14659 -0.26718,0.0233 -0.41693,-0.14098 -0.14806,-0.162914 -0.17883,-0.51504 -0.0136,-0.155985 -1.2e-4,-0.322121 0.0119,-0.166002 0.0513,-0.339065 l 0.39537,-0.03454 q -0.0719,0.157229 -0.10316,0.315583 -0.0312,0.159898 -0.0185,0.305072 0.0139,0.159075 0.0674,0.236881 0.0535,0.07781 0.14151,0.07012 0.0865,-0.0076 0.12769,-0.07029 0.0413,-0.06119 0.0748,-0.28354 l 0.0169,-0.127526 q 0.036,-0.264588 0.15073,-0.394436 0.11471,-0.129848 0.32475,-0.148198 0.25019,-0.02186 0.40497,0.146696 0.15479,0.168553 0.18339,0.495968 0.0128,0.146719 7.9e-4,0.294052 -0.0104,0.148743 -0.0462,0.290374 z m -0.75821,1.54966 q -0.0167,-0.2537 -0.0882,-0.34999 -0.0716,-0.0963 -0.22937,-0.0859 -0.11757,0.008 -0.18261,0.0819 -0.065,0.0742 -0.0572,0.1933 0.0118,0.17945 0.15287,0.26961 0.14264,0.0901 0.38551,0.0741 l 0.0309,-0.002 z m 0.21626,0.61968 -0.98851,0.0649 -0.0296,-0.45017 0.19337,-0.0127 q -0.11986,-0.0745 -0.19017,-0.1988 -0.0703,-0.12433 -0.0805,-0.27903 -0.0194,-0.29547 0.12597,-0.47126 0.14547,-0.17423 0.42547,-0.19262 0.3032,-0.0199 0.45997,0.1671 0.15832,0.18692 0.18534,0.59841 l 0.0206,0.31403 0.0758,-0.005 q 0.10983,-0.007 0.16024,-0.0913 0.0521,-0.0827 0.0419,-0.23735 -0.0107,-0.16243 -0.0625,-0.31284 -0.0502,-0.14896 -0.15077,-0.30859 l 0.38674,-0.0254 q 0.0717,0.14599 0.11129,0.29876 0.0395,0.15277 0.0509,0.32602 0.0277,0.42233 -0.1328,0.60377 -0.16044,0.18299 -0.60287,0.21204 z m -0.0258,1.46262 q 0.23232,-0.0102 0.36783,-0.10465 0.13705,-0.0945 0.1307,-0.23852 -0.006,-0.14249 -0.14955,-0.22463 -0.14321,-0.0806 -0.37708,-0.0703 -0.23542,0.0104 -0.37099,0.10324 -0.1355,0.0944 -0.12923,0.23691 0.006,0.14404 0.14963,0.22618 0.14483,0.0821 0.37869,0.0718 z m -0.74511,0.4875 q -0.41663,0.0183 -0.60926,-0.16249 -0.1941,-0.17922 -0.21273,-0.60204 -0.006,-0.14248 0.009,-0.28283 0.014,-0.14028 0.051,-0.28623 l 0.41662,-0.0183 q -0.0656,0.13169 -0.0938,0.26639 -0.0282,0.1347 -0.022,0.27564 0.008,0.19205 0.10387,0.2794 0.0939,0.0874 0.2859,0.079 l 0.1874,-0.008 q -0.12683,-0.0611 -0.19208,-0.16845 -0.0652,-0.1073 -0.0722,-0.26528 -0.0131,-0.29736 0.21151,-0.48261 0.22461,-0.18524 0.62265,-0.20278 0.41198,-0.0181 0.6613,0.14623 0.24932,0.16437 0.26228,0.45864 0.007,0.14869 -0.058,0.26792 -0.0646,0.11923 -0.18865,0.19142 l 0.22148,-0.01 0.02,0.4538 z m 1.17627,1.9737 q 0.0665,-0.0759 0.0984,-0.17744 0.0319,-0.1 0.0292,-0.2193 -0.003,-0.14414 -0.0568,-0.25148 -0.052,-0.10583 -0.14941,-0.16257 -0.0597,-0.0359 -0.14377,-0.0495 -0.084,-0.0121 -0.2545,-0.008 l -0.79975,0.018 -0.0102,-0.45412 1.73589,-0.039 0.0102,0.45412 -0.26968,0.006 q 0.15028,0.0633 0.23398,0.19943 0.0852,0.1361 0.0894,0.32054 0.002,0.093 -0.0192,0.18186 -0.0197,0.0904 -0.0613,0.17195 z m -1.16732,1.86375 q -0.0652,-0.15807 -0.0979,-0.32237 -0.0327,-0.1643 -0.0329,-0.34724 -3.9e-4,-0.43563 0.23195,-0.66683 0.23389,-0.22965 0.67262,-0.23004 0.42478,-3.8e-4 0.67148,0.22109 0.24669,0.22148 0.24703,0.6044 3.5e-4,0.38602 -0.22891,0.59862 -0.2277,0.21414 -0.64318,0.21451 l -0.18448,1.6e-4 -0.001,-1.17667 q -0.20464,0.002 -0.3053,0.12119 -0.10066,0.11947 -0.10045,0.35666 1.4e-4,0.15658 0.0452,0.30847 0.0451,0.15189 0.14291,0.31768 z m 0.97634,-0.38534 q 0.17983,-0.003 0.27122,-0.0933 0.0929,-0.0885 0.0928,-0.26208 -1.4e-4,-0.15658 -0.0963,-0.24951 -0.0947,-0.0929 -0.26985,-0.10983 z m -1.0115,2.29841 q -0.0618,-0.15944 -0.091,-0.32441 -0.0291,-0.16497 -0.0254,-0.34787 0.009,-0.43554 0.24627,-0.66167 0.23879,-0.22456 0.67743,-0.21549 0.42469,0.009 0.66655,0.23552 0.24186,0.22674 0.23395,0.60958 -0.008,0.38594 -0.24177,0.59354 -0.23227,0.20919 -0.64766,0.2006 l -0.18444,-0.004 0.0243,-1.17643 q -0.20462,-0.003 -0.30784,0.11459 -0.10321,0.11726 -0.10812,0.35441 -0.003,0.15654 0.0386,0.30937 0.0418,0.15282 0.13603,0.32069 z m 0.98442,-0.3642 q 0.17986,6.1e-4 0.27317,-0.0874 0.0948,-0.0864 0.0984,-0.26002 0.003,-0.15655 -0.0909,-0.25153 -0.0926,-0.095 -0.26742,-0.11563 z"
         id="text62"
         aria-label="Strongly Disagree" /><path
         d="m 28.978096,60.711864 0.703119,0.6703 0.22157,-0.37147 z m -0.502436,0.02524 0.286692,-0.480648 2.307878,0.649112 -0.234277,0.392773 -0.564362,-0.170553 -0.313693,0.525917 0.419825,0.412874 -0.234277,0.392773 z m 2.522455,-1.406284 q -0.197062,-0.123464 -0.362215,-0.122659 -0.166467,-1.8e-5 -0.243015,0.12216 -0.07572,0.120865 -0.0044,0.269826 0.07214,0.147649 0.27052,0.271936 0.199689,0.12511 0.364019,0.125618 0.165153,-8.05e-4 0.240878,-0.121669 0.07655,-0.122178 0.0052,-0.27114 -0.07263,-0.149785 -0.27101,-0.274072 z m 0.890156,0.02168 q 0.353398,0.221413 0.409316,0.479638 0.05806,0.257734 -0.166649,0.616386 -0.07572,0.120865 -0.168196,0.227579 -0.09116,0.107536 -0.204489,0.206668 l -0.353398,-0.221412 q 0.128749,-0.07118 0.228438,-0.166053 0.09969,-0.09487 0.174589,-0.214424 0.102064,-0.162905 0.07312,-0.288978 -0.02764,-0.125251 -0.190539,-0.227314 L 31.531499,59.665 q 0.06971,0.122338 0.0625,0.247715 -0.0072,0.125376 -0.09116,0.259378 -0.158034,0.252239 -0.448105,0.277228 -0.290071,0.02499 -0.627704,-0.186545 -0.349456,-0.218943 -0.46139,-0.495799 -0.111935,-0.276856 0.04445,-0.526467 0.07902,-0.12612 0.199867,-0.187611 0.120851,-0.06149 0.263971,-0.05049 l -0.187866,-0.117703 0.241166,-0.384927 z m 0.152838,-2.292681 q -0.09788,0.02471 -0.181733,0.09017 -0.083,0.06417 -0.14858,0.163919 -0.0792,0.120475 -0.09607,0.239259 -0.01731,0.116636 0.03064,0.218664 0.02879,0.06345 0.09022,0.122394 0.06229,0.05765 0.204785,0.151327 l 0.66844,0.439443 -0.249528,0.37956 -1.450878,-0.95383 0.249529,-0.379559 0.225404,0.148184 q -0.08774,-0.13746 -0.07931,-0.297038 0.0071,-0.16043 0.108483,-0.314585 0.0511,-0.07773 0.119072,-0.138791 0.06753,-0.06321 0.148088,-0.106728 z m 2.019803,-0.870748 q -0.03612,0.167152 -0.102572,0.320934 -0.06645,0.153783 -0.170262,0.304409 -0.247214,0.358693 -0.569772,0.416924 -0.322955,0.05608 -0.684201,-0.192898 -0.349757,-0.241055 -0.426912,-0.563476 -0.07716,-0.32242 0.140147,-0.637713 0.219061,-0.317845 0.528509,-0.362519 0.309052,-0.04683 0.65115,0.188948 l 0.151902,0.104692 -0.667742,0.968854 q 0.169376,0.114853 0.32009,0.07375 0.150714,-0.04111 0.285318,-0.236408 0.08886,-0.128925 0.138055,-0.279534 0.0492,-0.150609 0.06291,-0.342618 z m -1.022369,-0.237684 q -0.149832,-0.0995 -0.276171,-0.07737 -0.126736,0.01997 -0.22527,0.16294 -0.08886,0.128925 -0.0625,0.26006 0.02508,0.130255 0.159646,0.24371 z m 2.138818,-1.316329 q -0.03977,0.166322 -0.109569,0.318614 -0.0698,0.152293 -0.176879,0.300612 -0.255001,0.353199 -0.578756,0.404361 -0.324104,0.049 -0.679817,-0.207818 -0.344401,-0.248649 -0.414485,-0.57268 -0.07008,-0.324031 0.154063,-0.634494 0.225961,-0.312978 0.536313,-0.350872 0.310001,-0.04006 0.646861,0.203146 l 0.149575,0.10799 -0.688775,0.954016 q 0.166824,0.11853 0.3184,0.08073 0.151577,-0.0378 0.290421,-0.230109 0.09166,-0.126951 0.144137,-0.276448 0.05248,-0.149497 0.07039,-0.34116 z m -1.016926,-0.25999 q -0.14762,-0.102753 -0.274413,-0.08339 -0.127142,0.0172 -0.228779,0.157974 -0.09166,0.126951 -0.06817,0.258631 0.02222,0.130772 0.154276,0.247143 z"
         id="text63"
         style="font-weight:bold;font-size:3.175px;font-family:Monospace;-inkscape-font-specification:'Monospace Bold';white-space:pre;fill:#ffffff;stroke-width:0.377953"
         aria-label="Agree" /><circle
         style="fill:none;stroke:none;stroke-width:0.864744;stroke-opacity:1"
         id="circle72"
         cx="-148.90463"
         cy="17.915007"
         r="87.383476"
         transform="rotate(-127.92575)" /><path
         style="font-weight:bold;font-size:3.175px;font-family:Monospace;-inkscape-font-specification:'Monospace Bold';white-space:pre;fill:#ffffff;stroke-width:0.377953"
         d="m 17.390585,106.6977 q -0.129451,0.34659 -0.272803,0.47003 -0.144902,0.12345 -0.389842,0.12509 -0.314703,0.002 -0.495886,-0.19821 -0.181183,-0.20033 -0.183546,-0.55223 -0.0011,-0.15968 0.03506,-0.31961 0.03458,-0.15991 0.104844,-0.31697 l 0.446474,-0.003 q -0.102878,0.14798 -0.156117,0.30027 -0.05324,0.15229 -0.05224,0.30111 0.0011,0.16588 0.06837,0.25379 0.06725,0.0879 0.191275,0.0871 0.09612,-6.5e-4 0.15925,-0.0646 0.06157,-0.0655 0.136162,-0.27067 l 0.07309,-0.19739 q 0.100444,-0.27973 0.268537,-0.41264 0.168094,-0.1329 0.425437,-0.13463 0.350358,-0.002 0.525381,0.20422 0.173463,0.20502 0.176274,0.62359 0.0012,0.17208 -0.03954,0.34599 -0.03915,0.17235 -0.118683,0.33412 l -0.472828,0.003 q 0.128993,-0.1838 0.191409,-0.35476 0.06241,-0.1725 0.06128,-0.33993 -0.0011,-0.16898 -0.07772,-0.26148 -0.07814,-0.0925 -0.21611,-0.0916 -0.103867,7e-4 -0.180964,0.0632 -0.07865,0.0625 -0.122813,0.18066 z m -1.204954,-2.23119 0.492936,0.007 0.009,-0.5937 0.348776,0.005 -0.009,0.5937 0.821561,0.0125 q 0.116258,0.002 0.168258,-0.0533 0.05047,-0.0566 0.05247,-0.18836 l 0.0053,-0.34878 0.348776,0.005 -0.0058,0.38133 q -0.0059,0.39063 -0.132024,0.52671 -0.127652,0.13605 -0.465577,0.13093 l -0.799859,-0.0121 -0.0067,0.44333 -0.348776,-0.005 0.0067,-0.44334 -0.492936,-0.007 z m 1.051482,-2.63778 q -0.07092,0.0718 -0.108736,0.17128 -0.03776,0.0979 -0.04218,0.21718 -0.0053,0.14408 0.04177,0.25442 0.04561,0.10873 0.139485,0.17116 0.05749,0.0394 0.140577,0.058 0.08314,0.017 0.253557,0.0234 l 0.799403,0.0296 -0.01682,0.45393 -1.735138,-0.0643 0.01682,-0.45392 0.269566,0.01 q -0.146258,-0.0721 -0.221709,-0.213 -0.077,-0.14092 -0.07017,-0.32528 0.0034,-0.093 0.02996,-0.1804 0.02502,-0.0891 0.07138,-0.168 z m -0.0894,-1.11692 q -0.0096,0.1625 0.128866,0.26384 0.136903,0.10126 0.392257,0.11632 0.255355,0.0151 0.404759,-0.0693 0.147856,-0.0845 0.157441,-0.24695 0.0097,-0.16405 -0.127227,-0.2653 -0.138451,-0.10135 -0.393805,-0.11641 -0.255355,-0.0151 -0.403211,0.0694 -0.149404,0.0844 -0.15908,0.24841 z m 0.494378,0.83361 q -0.4194,-0.0247 -0.651142,-0.25583 -0.233199,-0.23272 -0.211565,-0.5995 0.02172,-0.36833 0.280573,-0.57048 0.257391,-0.203795 0.676792,-0.179058 0.4194,0.02474 0.652599,0.257468 0.231742,0.23108 0.210017,0.59941 -0.02163,0.36678 -0.279025,0.57057 -0.258848,0.20215 -0.678249,0.17742 z m -0.02067,-3.451564 1.123387,0.09096 -0.03641,0.449663 -1.053851,-0.08532 q -0.188519,-0.01526 -0.27325,0.03231 -0.08615,0.04591 -0.09591,0.166435 -0.0099,0.122074 0.09407,0.202038 0.104081,0.07842 0.298781,0.09418 l 0.990497,0.0802 -0.03641,0.449664 -1.730664,-0.140124 0.03641,-0.449664 0.2596,0.02102 q -0.139829,-0.05954 -0.209253,-0.181811 -0.06942,-0.122274 -0.05616,-0.286069 0.01989,-0.245692 0.193822,-0.357595 0.172384,-0.112027 0.495338,-0.08588 z m 0.3799,-1.489679 q -0.23132,-0.02383 -0.379168,0.04977 -0.14939,0.07344 -0.164166,0.216862 -0.01462,0.141876 0.115119,0.244076 0.129894,0.100659 0.362756,0.12465 0.234403,0.02415 0.382093,-0.04791 0.147847,-0.0736 0.162465,-0.215478 0.01478,-0.143418 -0.11496,-0.245619 -0.131277,-0.102359 -0.364139,-0.126351 z m 0.808364,-0.373356 q 0.414833,0.04274 0.578963,0.249786 0.165831,0.205663 0.122457,0.626665 -0.01462,0.141876 -0.05051,0.278443 -0.03435,0.136726 -0.0923,0.275696 l -0.414833,-0.04274 q 0.08413,-0.120689 0.131715,-0.249816 0.04759,-0.129128 0.06205,-0.269462 0.0197,-0.191224 -0.06191,-0.291584 -0.08007,-0.100201 -0.271294,-0.119902 l -0.186597,-0.01922 q 0.116538,0.07902 0.165401,0.19471 0.04886,0.115688 0.03266,0.272985 -0.0305,0.296089 -0.279778,0.446517 -0.249273,0.150429 -0.645601,0.109596 -0.410206,-0.04226 -0.632825,-0.241308 -0.222619,-0.199047 -0.192431,-0.492051 0.01525,-0.148045 0.09657,-0.256555 0.08131,-0.10851 0.214598,-0.161793 l -0.220525,-0.02272 0.04655,-0.451844 z m -0.492528,-0.883325 -1.329079,-0.166386 -0.0572,0.456871 -0.346114,-0.04333 0.11362,-0.907589 1.675193,0.209716 q 0.203053,0.02542 0.295555,-0.02706 0.0925,-0.05248 0.111374,-0.20323 l 0.04506,-0.359959 0.346115,0.04333 -0.06085,0.486098 q -0.04025,0.321502 -0.223908,0.440688 -0.183659,0.119185 -0.569769,0.07085 z m 1.227708,-2.274706 q 0.228981,0.126225 0.320635,0.269808 0.09341,0.142275 0.06672,0.323252 l -0.05474,0.371156 -0.342017,-0.05044 0.02692,-0.182511 q 0.02036,-0.138034 -0.01769,-0.209461 -0.03651,-0.0712 -0.197027,-0.162256 l -0.08705,-0.04731 -1.766557,0.407049 0.06966,-0.472381 1.172905,-0.228196 -1.05959,-0.54019 0.06966,-0.472381 z m -1.428598,-4.008915 0.889419,0.390655 0.08176,-0.424734 z m -0.463781,0.1949 0.105788,-0.549566 2.390958,-0.175992 -0.08645,0.449092 -0.588705,0.03192 -0.115752,0.601326 0.535371,0.245144 -0.08645,0.449092 z m 1.892444,-2.18153 q -0.227336,-0.04894 -0.382335,0.0081 -0.156514,0.0567 -0.186857,0.197645 -0.03002,0.139432 0.08779,0.255184 0.11813,0.114237 0.346982,0.163504 0.230366,0.04959 0.385039,-0.0059 0.154999,-0.05702 0.185016,-0.196455 0.03034,-0.140948 -0.08746,-0.2567 -0.11932,-0.116079 -0.348171,-0.165346 z m 0.84429,-0.282883 q 0.407688,0.08777 0.548236,0.311493 0.142389,0.222537 0.05332,0.636288 -0.03002,0.139432 -0.0806,0.271266 -0.04907,0.132159 -0.121846,0.263972 l -0.407688,-0.08777 q 0.0968,-0.110783 0.158198,-0.233944 0.0614,-0.123162 0.09109,-0.261078 0.04046,-0.187931 -0.02971,-0.2966 -0.06865,-0.108342 -0.256583,-0.1488 l -0.183384,-0.03948 q 0.107216,0.09127 0.143157,0.211601 0.03594,0.12033 0.0027,0.274919 -0.06264,0.290989 -0.326849,0.413308 -0.264205,0.122318 -0.653706,0.03847 -0.403142,-0.08679 -0.602702,-0.308946 -0.19956,-0.222158 -0.137569,-0.510117 0.03132,-0.145495 0.123994,-0.24448 0.09267,-0.09899 0.230977,-0.137401 l -0.216726,-0.04666 0.0956,-0.444062 z m -0.637399,-2.207591 q -0.0836,0.05658 -0.140138,0.146695 -0.05618,0.08861 -0.08385,0.204733 -0.03342,0.14025 -0.0088,0.257674 0.02346,0.115556 0.103309,0.195142 0.04868,0.04985 0.126524,0.08433 0.0782,0.03298 0.24409,0.07251 l 0.778165,0.185422 -0.105289,0.441865 -1.689039,-0.402468 0.105288,-0.441865 0.262404,0.06253 q -0.129322,-0.09934 -0.17576,-0.252249 -0.04795,-0.153264 -0.0052,-0.332724 0.02156,-0.09048 0.06467,-0.171054 0.04195,-0.08244 0.102867,-0.150796 z m 1.602313,-1.506785 q 0.02299,0.169459 0.0129,0.336681 -0.01008,0.167221 -0.05637,0.344203 -0.110222,0.421458 -0.393644,0.586099 -0.28453,0.162748 -0.708988,0.05174 -0.410959,-0.107476 -0.593344,-0.384322 -0.182384,-0.276846 -0.0855,-0.647309 0.09767,-0.373463 0.373386,-0.520889 0.274608,-0.149319 0.676567,-0.0442 l 0.178483,0.04668 -0.297717,1.138386 q 0.198373,0.05028 0.326066,-0.03972 0.127694,-0.08999 0.187707,-0.319469 0.03962,-0.151485 0.03456,-0.309845 -0.0051,-0.158361 -0.05757,-0.343556 z m -1.042182,0.124847 q -0.174768,-0.0425 -0.286009,0.02135 -0.112349,0.06196 -0.156281,0.22994 -0.03962,0.151485 0.02984,0.265795 0.06796,0.113919 0.233124,0.174741 z m 1.562406,-1.966252 q 0.01927,0.169921 0.0055,0.336882 -0.01374,0.166961 -0.06388,0.342888 -0.119415,0.418946 -0.406371,0.577348 -0.288022,0.156485 -0.709949,0.03622 -0.40851,-0.11644 -0.584795,-0.397209 -0.176286,-0.280769 -0.07132,-0.649024 0.105816,-0.371237 0.38469,-0.512597 0.277809,-0.143277 0.677373,-0.02939 l 0.177418,0.05057 -0.322546,1.131601 q 0.197225,0.0546 0.326857,-0.03257 0.129631,-0.08718 0.19465,-0.315287 0.04292,-0.150582 0.04133,-0.309016 -0.0016,-0.158433 -0.05005,-0.344733 z m -1.044665,0.10202 q -0.173795,-0.04631 -0.286407,0.01509 -0.113677,0.05948 -0.161273,0.226466 -0.04292,0.150582 0.02402,0.266385 0.06545,0.115377 0.229247,0.179798 z"
         id="text64"
         aria-label="Strongly Agree" /><path
         id="circle64"
         style="fill:none;stroke:none;stroke-width:0.877267"
         d="M 189.62716,78.187863 A 88.648998,88.648998 0 0 1 135.06391,191.06008 88.648998,88.648998 0 0 1 22.191681,136.49683 88.648998,88.648998 0 0 1 76.754944,23.624596 88.648998,88.648998 0 0 1 189.62716,78.187863 Z" /><circle
         style="fill:#ffe680;fill-opacity:1;stroke:#f9f9f9;stroke-width:0.7;stroke-dasharray:none;stroke-opacity:1"
         id="path65"
         cx="119.55425"
         cy="-27.735411"
         r="2.9134099" /><circle
         style="fill:#ff9955;fill-opacity:1;stroke:#f9f9f9;stroke-width:0.7;stroke-dasharray:none;stroke-opacity:1"
         id="circle65"
         cx="105.8773"
         cy="-10.875493"
         r="2.9134099" /><circle
         style="fill:#ff5555;fill-opacity:1;stroke:#f9f9f9;stroke-width:0.7;stroke-dasharray:none;stroke-opacity:1"
         id="circle66"
         cx="98.246284"
         cy="-19.482092"
         r="2.9134099" /><circle
         style="fill:#aaeeff;fill-opacity:1;stroke:#f9f9f9;stroke-width:0.7;stroke-dasharray:none;stroke-opacity:1"
         id="circle67"
         cx="94.99041"
         cy="-27.439045"
         r="2.9134099" /><circle
         style="fill:#c6afe9;fill-opacity:1;stroke:#f9f9f9;stroke-width:0.7;stroke-dasharray:none;stroke-opacity:1"
         id="circle68"
         cx="118.43834"
         cy="-10.494538"
         r="2.9134099" /><circle
         style="fill:#aade87;fill-opacity:1;stroke:#f9f9f9;stroke-width:0.7;stroke-dasharray:none;stroke-opacity:1"
         id="circle69"
         cx="107.65193"
         cy="-25.483072"
         r="2.9134099" /><circle
         style="fill:none;stroke:none;stroke-width:0.864744;stroke-opacity:1"
         id="circle70"
         cx="-103.90001"
         cy="-107.78982"
         r="87.383476"
         transform="rotate(178.98863)" /><circle
         style="fill:none;stroke:none;stroke-width:0.864744;stroke-opacity:1"
         id="circle71"
         cx="-144.85057"
         cy="-38.882492"
         r="87.383476"
         transform="rotate(-149.81194)" /><circle
         style="fill:none;stroke:none;stroke-width:0.864744;stroke-opacity:1"
         id="circle75"
         cx="10.36654"
         cy="149.61975"
         r="87.383476"
         transform="rotate(-40.822685)" /></g></g></svg>
