<?xml version="1.0" encoding="UTF-8" standalone="no"?>
<!-- Created with Inkscape (http://www.inkscape.org/) -->

<svg
   version="1.1"
   id="svg1"
   xml:space="preserve"
   width="629.75922"
   height="600"
   sodipodi:docname="spectrum.svg"
   inkscape:version="1.2.2 (b0a8486541, 2022-12-01)"
   xmlns:inkscape="http://www.inkscape.org/namespaces/inkscape"
   xmlns:sodipodi="http://sodipodi.sourceforge.net/DTD/sodipodi-0.dtd"
   xmlns="http://www.w3.org/2000/svg"
   xmlns:svg="http://www.w3.org/2000/svg"><defs
     id="defs1"><rect
       x="242.36637"
       y="345.57633"
       width="211.89725"
       height="102.01396"
       id="rect464" /><rect
       x="119.63915"
       y="470.58508"
       width="234.49704"
       height="88.636938"
       id="rect927" /></defs><sodipodi:namedview
     id="namedview1"
     pagecolor="#ffffff"
     bordercolor="#000000"
     borderopacity="0.25"
     inkscape:showpageshadow="2"
     inkscape:pageopacity="0"
     inkscape:pagecheckerboard="0"
     inkscape:deskcolor="#d1d1d1"
     showgrid="false"
     inkscape:zoom="1.4142136"
     inkscape:cx="42.426406"
     inkscape:cy="248.90158"
     inkscape:window-width="1720"
     inkscape:window-height="1303"
     inkscape:window-x="20"
     inkscape:window-y="20"
     inkscape:window-maximized="0"
     inkscape:current-layer="g1"
     inkscape:pageshadow="2" /><inkscape:clipboard
     min="38.679246,51.71354"
     max="761.89587,740.75465"
     geom-min="40.288131,53.322266"
     geom-max="760.28712,740.75465" /><g
     id="g2"
     transform="scale(0.87077532)"
     style="display:inline"><g
       id="g1"
       transform="matrix(3.7795276,0,0,3.7795276,-38.679246,-51.71354)"><path
         id="disagree"
         style="fill:#000000;stroke:#ffffff;stroke-width:0.85128;stroke-opacity:1"
         d="M 166.77554,36.10854 145.0326,63.442397 a 58.820286,58.820286 0 0 1 15.84342,22.986219 L 192.98955,70.835042 A 95.25,95.25 0 0 0 166.77554,36.10854 Z" /><path
         id="slightlyDisagree"
         style="fill:#000000;stroke:#ffffff;stroke-width:0.85128;stroke-opacity:1"
         d="m 127.14593,16.534676 -7.63418,33.601909 a 58.820286,58.820286 0 0 1 25.52323,13.302844 L 166.77554,36.10854 A 95.25,95.25 0 0 0 127.14593,16.534676 Z" /><path
         id="stronglyDisagree"
         style="fill:#000000;stroke:#ffffff;stroke-width:0.85128;stroke-opacity:1"
         d="m 192.98955,70.835042 -32.11353,15.593574 c 3.15784,9.838407 4.52212,18.195074 3.45924,27.498834 l 36.50152,-0.0635 c 0.7736,-14.724607 -2.27418,-31.403312 -7.84723,-43.028908 z"
         sodipodi:nodetypes="ccccc" /><path
         id="agree"
         style="fill:#000000;stroke:#ffffff;stroke-width:0.85128;stroke-opacity:1"
         d="m 42.875585,38.031922 c -5.809247,5.161641 -10.946314,10.998027 -15.311092,17.368822 -3.684117,5.377311 -6.818032,11.135351 -9.341544,17.189732 l 15.835086,7.586872 16.321171,7.819764 c 1.585008,-4.533811 3.713865,-8.841037 6.329346,-12.831677 2.318419,-3.537389 5.019199,-6.826023 8.062485,-9.803218 L 53.922554,51.820946 Z"
         sodipodi:nodetypes="cscccsccc" /><path
         id="stonglyAgree"
         style="fill:#000000;stroke:#ffffff;stroke-width:0.85128;stroke-opacity:1"
         d="M 18.222949,72.589883 C 15.827053,77.71842 13.784106,84.292208 12.43925,91.238186 10.952111,98.91903 10.31859,107.05498 11.005373,114.1951 l 15.899878,-0.0277 20.590366,-0.0358 c -0.521081,-4.51563 -0.404781,-9.38612 0.182106,-14.06122 0.544446,-4.337022 1.493877,-8.505894 2.715132,-12.067333 L 33.823956,80.064598 Z"
         sodipodi:nodetypes="cscccsccc" /><path
         id="slightlyAgree"
         style="fill:#000000;stroke:#ffffff;stroke-width:0.85128;stroke-opacity:1"
         d="M 82.594214,17.201124 A 95.25,95.25 0 0 0 42.875585,38.031922 L 64.771037,65.362217 A 58.820286,58.820286 0 0 1 90.258661,50.667132 Z" /><path
         id="neutral"
         style="fill:#000000;stroke:#ffffff;stroke-width:0.85128;stroke-opacity:1"
         d="m 82.594214,17.201124 7.665634,33.471349 c 9.949862,-2.575282 19.966582,-2.701417 29.251902,-0.535295 l 7.63418,-33.602502 C 110.58702,13.694348 97.511852,13.869124 82.594214,17.201124 Z"
         sodipodi:nodetypes="ccccc" /><path
         style="fill:#cccccc;stroke:none;stroke-width:0.582083;stroke-opacity:1"
         d="m 105.90347,87.968059 c -7.737848,0.0042 -14.695137,3.393394 -19.456693,8.776873 -3.954514,4.471028 -6.394532,10.317568 -6.509387,16.742898 h 51.94407 c -0.11544,-6.45787 -2.57959,-12.33089 -6.56931,-16.810417 -4.76249,-5.347166 -11.69875,-8.70875 -19.40868,-8.709354 z"
         id="notReplied"
         sodipodi:nodetypes="csccsc" /><path
         style="fill:#cccccc;stroke:none;stroke-width:0.582083;stroke-opacity:1"
         d="m 105.90347,140.22663 c -7.95885,-0.004 -15.091914,-3.58976 -19.859269,-9.24299 -3.717026,-4.40774 -5.995925,-10.07247 -6.106811,-16.27686 h 51.94407 c -0.11544,6.45906 -2.58046,12.33306 -6.57146,16.81291 -4.76243,5.34576 -11.69776,8.70634 -19.40653,8.70694 z"
         id="indifferent"
         sodipodi:nodetypes="csccsc" /><path
         id="path1549"
         style="display:inline;font-size:8px;line-height:1;font-family:monospace;-inkscape-font-specification:'monospace Bold';text-align:center;letter-spacing:0px;white-space:pre;fill:#ffffff;stroke-linecap:round;font-weight:bold"
         d="m 203.23747,35.163261 -0.8976,-2.143902 1.05214,-0.4405 2.34732,5.606575 -1.05213,0.4405 -0.25043,-0.598131 q -0.023,0.420413 -0.21934,0.710112 -0.19271,0.28819 -0.55664,0.440555 -0.69181,0.289643 -1.30607,-0.105342 -0.61425,-0.394984 -1.03665,-1.40388 -0.42843,-1.023308 -0.27219,-1.73241 0.15984,-0.71061 0.87688,-1.010814 0.32429,-0.135771 0.65102,-0.07353 0.32882,0.05713 0.66369,0.310765 z m -0.86065,2.071185 q 0.24439,0.583718 0.57775,0.83375 0.33336,0.250032 0.67566,0.106718 0.34231,-0.143313 0.4017,-0.557778 0.0594,-0.414465 -0.185,-0.998183 -0.24439,-0.583718 -0.58135,-0.832241 -0.33697,-0.248523 -0.67927,-0.10521 -0.3423,0.143313 -0.39809,0.55627 -0.0558,0.412956 0.1886,0.996674 z m -2.10501,-0.188071 q -0.24073,-0.08214 -0.50777,-0.05891 -0.26347,0.02166 -0.53895,0.142413 -0.33272,0.145845 -0.5314,0.373683 -0.19668,0.222693 -0.2354,0.504099 -0.0263,0.173587 0.0226,0.382461 0.0525,0.207306 0.22499,0.600846 l 0.80921,1.846057 -1.04824,0.459492 -1.75642,-4.006945 1.04824,-0.459493 0.27287,0.622508 q 0.003,-0.410887 0.24015,-0.736496 0.2353,-0.329187 0.66103,-0.515807 0.21466,-0.09409 0.44211,-0.129819 0.22946,-0.04087 0.4594,-0.02225 z m -6.5166,2.482777 q -0.37286,0.170879 -0.43458,0.598776 -0.0633,0.424346 0.20518,1.010278 0.26852,0.585931 0.63294,0.818538 0.36279,0.229056 0.73565,0.05818 0.37642,-0.172507 0.43976,-0.596853 0.0617,-0.427897 -0.2068,-1.013828 -0.26853,-0.585931 -0.63132,-0.814987 -0.36441,-0.232607 -0.74083,-0.0601 z m -1.26987,2.085887 q -0.44103,-0.962347 -0.20101,-1.751259 0.24195,-0.794091 1.08356,-1.179789 0.84516,-0.387326 1.60107,-0.05054 0.75784,0.331608 1.19887,1.293955 0.44103,0.962348 0.19908,1.756438 -0.24002,0.788913 -1.08518,1.176238 -0.84161,0.385698 -1.59945,0.05409 -0.75591,-0.336786 -1.19694,-1.299133 z m -0.14044,2.233721 q -0.18824,0.276287 -0.45234,0.493601 -0.26242,0.220838 -0.60773,0.386075 -0.91262,0.436699 -1.6901,0.133185 -0.77747,-0.303514 -1.24284,-1.276032 -0.46705,-0.976042 -0.2121,-1.773582 0.25325,-0.801064 1.16587,-1.237763 0.31712,-0.151748 0.64499,-0.217698 0.33139,-0.06764 0.69804,-0.05254 l 0.45187,0.944329 q -0.31824,-0.08589 -0.63846,-0.05824 -0.31838,0.02243 -0.60731,0.160694 -0.50388,0.241112 -0.62176,0.69159 -0.11789,0.450479 0.16538,1.042446 0.28326,0.591968 0.70633,0.779264 0.42307,0.187296 0.92694,-0.05382 0.29951,-0.143318 0.51305,-0.36675 0.21185,-0.226956 0.34661,-0.542608 z m -4.34311,2.090624 q -0.18364,0.279367 -0.4441,0.501027 -0.25872,0.225154 -0.60125,0.39609 -0.90526,0.451757 -1.68766,0.161164 -0.7824,-0.290592 -1.26381,-1.255267 -0.48315,-0.968171 -0.24146,-1.769825 0.23995,-0.805149 1.14521,-1.256907 0.31457,-0.156981 0.6413,-0.228354 0.33022,-0.07312 0.69707,-0.0641 l 0.46746,0.936713 q -0.31963,-0.0806 -0.63934,-0.04766 -0.31797,0.02771 -0.60457,0.170733 -0.49982,0.249426 -0.61022,0.701796 -0.11041,0.452369 0.18263,1.039563 0.29303,0.587194 0.71914,0.767455 0.42611,0.180262 0.92593,-0.06916 0.29709,-0.14826 0.50689,-0.375199 0.20807,-0.230434 0.33758,-0.548276 z m -6.40433,1.187346 q -0.5684,0.295498 -0.718,0.558182 -0.14961,0.262685 0.0342,0.616203 0.13693,0.263406 0.37398,0.338289 0.23705,0.07488 0.50392,-0.06386 0.40204,-0.20901 0.4671,-0.625857 0.0632,-0.420313 -0.21963,-0.964454 l -0.036,-0.06932 z m 1.21047,-1.126784 1.15136,2.21469 -1.00856,0.524328 -0.22523,-0.433233 q -0.0504,0.35197 -0.26595,0.640156 -0.2156,0.288185 -0.56218,0.468367 -0.66199,0.344147 -1.21482,0.186888 -0.54936,-0.15906 -0.87549,-0.786382 -0.35316,-0.679311 -0.0806,-1.230467 0.27079,-0.554622 1.19272,-1.033905 l 0.70357,-0.365769 -0.0883,-0.169828 q -0.12793,-0.246076 -0.37302,-0.277153 -0.24343,-0.03634 -0.59002,0.143837 -0.36391,0.189191 -0.65838,0.461149 -0.29281,0.26669 -0.55915,0.660505 l -0.45046,-0.866467 q 0.26412,-0.313411 0.57647,-0.559444 0.31235,-0.246033 0.70053,-0.447837 0.94618,-0.491895 1.52743,-0.305384 0.58471,0.18471 1.10003,1.175949 z m -7.14738,-0.0075 1.03164,1.90678 -0.87953,0.475855 -1.03164,-1.906779 z m -3.12293,4.085368 -1.13954,-2.025695 0.99412,-0.559236 2.98004,5.297449 -0.99412,0.559236 -0.31792,-0.565152 q 0.0258,0.420254 -0.13574,0.730715 -0.15809,0.308546 -0.50195,0.501981 -0.65367,0.367717 -1.30949,0.04643 -0.65582,-0.321287 -1.19207,-1.274556 -0.54391,-0.966886 -0.47074,-1.689301 0.0766,-0.724329 0.75408,-1.105452 0.30641,-0.172367 0.63815,-0.148333 0.33322,0.01871 0.69518,0.231915 z m -0.61531,2.156829 q 0.31026,0.551534 0.6703,0.761331 0.36004,0.209796 0.68347,0.02785 0.32343,-0.181943 0.33449,-0.600496 0.0111,-0.418552 -0.29921,-0.970086 -0.31026,-0.551534 -0.67371,-0.759415 -0.36345,-0.207882 -0.68688,-0.02594 -0.32343,0.181943 -0.33108,0.59858 -0.008,0.416637 0.30262,0.968171 z m -10.16151,3.440823 2.98909,-1.81329 0.46396,0.764805 -0.60563,3.437649 1.96712,-1.193327 0.4437,0.731408 -3.06925,1.861915 -0.46396,-0.764806 0.60898,-3.439675 -1.89031,1.146729 z m 1.10009,4.208302 q -0.24985,0.351062 -0.55661,0.641016 -0.30676,0.289954 -0.69689,0.535444 -0.92903,0.584599 -1.73371,0.398659 -0.80345,-0.191326 -1.39221,-1.126966 -0.57004,-0.905885 -0.42804,-1.729064 0.14199,-0.823178 0.95861,-1.337043 0.82323,-0.518025 1.58407,-0.313733 0.76208,0.198906 1.31963,1.084954 l 0.24757,0.393432 -2.50937,1.579041 q 0.27792,0.434331 0.66772,0.489039 0.38981,0.05471 0.89565,-0.263598 0.33392,-0.210123 0.59759,-0.509882 0.26367,-0.29976 0.48636,-0.730653 z M 160.7303,58.31681 q -0.24794,-0.379353 -0.56244,-0.453751 -0.31328,-0.07979 -0.68357,0.153222 -0.33392,0.210123 -0.4033,0.53993 -0.0715,0.3265 0.12726,0.72298 z m -4.50547,1.007935 0.54634,0.837568 q -0.37599,0.0027 -0.71939,0.105469 -0.34226,0.09733 -0.63018,0.285134 -0.32063,0.209143 -0.42233,0.41073 -0.10383,0.198315 0.0157,0.381533 0.17073,0.261739 0.97759,-0.03138 l 0.0424,-0.01366 0.31751,-0.113831 q 0.60458,-0.217132 1.02809,-0.09696 0.42465,0.114767 0.73196,0.585899 0.3692,0.566012 0.18189,1.093944 -0.18617,0.522525 -0.93213,1.009104 -0.33045,0.215546 -0.71567,0.382871 -0.38308,0.170597 -0.8144,0.288705 l -0.54633,-0.837567 q 0.43473,-0.02706 0.8238,-0.145595 0.39233,-0.120665 0.69988,-0.321272 0.33699,-0.219814 0.44637,-0.431075 0.10938,-0.211261 -0.0123,-0.39775 -0.11951,-0.183218 -0.30786,-0.200274 -0.18508,-0.01919 -0.71895,0.170481 l -0.30343,0.113972 q -0.63075,0.234206 -1.05554,0.133521 -0.42478,-0.100684 -0.71502,-0.545642 -0.34573,-0.530023 -0.15501,-1.074172 0.19073,-0.544149 0.88434,-0.996582 0.31081,-0.202741 0.6525,-0.351 0.34283,-0.153665 0.70017,-0.242178 z m -4.0832,2.682498 0.55989,0.828565 q -0.37589,0.0089 -0.71757,0.117163 -0.34064,0.102889 -0.62546,0.295352 -0.31718,0.214334 -0.41559,0.417549 -0.10059,0.199979 0.0219,0.381227 0.17497,0.258927 0.97695,-0.04728 l 0.0422,-0.01435 0.31562,-0.118983 q 0.60096,-0.226943 1.02637,-0.113678 0.42646,0.107841 0.7414,0.573909 0.37836,0.559929 0.19967,1.090839 -0.17765,0.525486 -0.91559,1.024141 -0.32689,0.220895 -0.70934,0.394468 -0.38026,0.176808 -0.80959,0.30192 L 151.2726,66.30952 q 0.43423,-0.03414 0.82132,-0.158982 0.39032,-0.127035 0.69456,-0.33262 0.33336,-0.22527 0.43929,-0.438283 0.10593,-0.213013 -0.0187,-0.397498 -0.12247,-0.181248 -0.31108,-0.195237 -0.18536,-0.01618 -0.71608,0.18216 l -0.30153,0.118895 q -0.62686,0.24444 -1.05323,0.150682 -0.42637,-0.09376 -0.72381,-0.533932 -0.35431,-0.524327 -0.17247,-1.071508 0.18185,-0.547181 0.868,-1.010842 0.30748,-0.207773 0.64671,-0.361573 0.34028,-0.159225 0.69614,-0.253541 z m -5.54794,3.146347 0.92332,2.266876 0.89298,-0.624764 z m -1.18073,-0.461109 1.15544,-0.808387 4.63315,3.876174 -0.9442,0.660593 -1.12077,-0.975034 -1.26426,0.884522 0.53824,1.382587 -0.9442,0.660593 z"
         transform="matrix(0.30384799,0,0,0.30384799,10.233884,13.682541)" /><path
         id="path1562"
         style="display:inline;font-size:8px;line-height:1;font-family:monospace;-inkscape-font-specification:'monospace Bold';text-align:center;letter-spacing:0px;white-space:pre;fill:#ffffff;stroke-linecap:round;font-weight:bold"
         d="m 325.25253,16.060596 q -0.40212,0.154823 -0.81796,0.227276 -0.41585,0.07245 -0.87666,0.06181 -1.09737,-0.02533 -1.66572,-0.624547 -0.56436,-0.60303 -0.53884,-1.708204 0.0247,-1.070027 0.59748,-1.678064 0.57278,-0.608036 1.53736,-0.585768 0.9724,0.02245 1.49407,0.612771 0.52567,0.586507 0.50151,1.633103 l -0.0107,0.46472 -2.96406,-0.06843 q -0.008,0.515578 0.28685,0.776358 0.29484,0.26078 0.89234,0.274574 0.39442,0.0091 0.77975,-0.09531 0.38532,-0.104416 0.80886,-0.340798 z m -0.91169,-2.48264 q 0.003,-0.453184 -0.21854,-0.688821 -0.21719,-0.239451 -0.65457,-0.249548 -0.39443,-0.0091 -0.63433,0.227608 -0.23981,0.232808 -0.29296,0.673105 z m -3.696,-0.571934 q -0.18635,-0.173121 -0.43968,-0.26075 -0.24942,-0.0876 -0.5502,-0.08961 -0.36327,-0.0024 -0.63756,0.124657 -0.27036,0.1232 -0.42041,0.364392 -0.0947,0.147809 -0.13521,0.358481 -0.0366,0.210699 -0.0394,0.640377 l -0.0134,2.01558 -1.14451,-0.0076 0.0292,-4.374902 1.14451,0.0076 -0.005,0.679672 q 0.17046,-0.373871 0.51947,-0.574673 0.34903,-0.204708 0.81386,-0.201609 0.23437,0.0016 0.45663,0.06164 0.22619,0.0562 0.42858,0.166924 z m -6.69299,-2.4584 0.0121,1.242129 1.49602,-0.01452 0.009,0.878865 -1.49603,0.01451 0.0201,2.070215 q 0.003,0.292955 0.14471,0.420491 0.14574,0.123592 0.47775,0.12037 l 0.87887,-0.0085 0.009,0.878865 -0.9609,0.0093 q -0.98432,0.0096 -1.335,-0.299562 -0.35071,-0.313018 -0.35897,-1.164541 l -0.0196,-2.01553 -1.11714,0.01084 -0.009,-0.878865 1.11714,-0.01084 -0.012,-1.242129 z m -6.87026,4.225353 -0.0741,-2.846692 1.14415,-0.02979 0.0695,2.67097 q 0.0123,0.472496 0.15035,0.672096 0.13806,0.1996 0.44655,0.191569 0.30849,-0.008 0.47319,-0.285849 0.1686,-0.27792 0.15579,-0.76994 l -0.0654,-2.510868 1.14414,-0.02979 0.11386,4.373519 -1.14414,0.02979 -0.0169,-0.648218 q -0.1116,0.366309 -0.39928,0.573085 -0.28378,0.206674 -0.6938,0.217348 -0.62479,0.01627 -0.95577,-0.38932 -0.32707,-0.405688 -0.34822,-1.217913 z m -1.1056,1.35012 q -0.39115,0.180766 -0.80137,0.280235 -0.41022,0.09947 -0.87075,0.118962 -1.09667,0.04642 -1.70296,-0.514378 -0.60256,-0.564867 -0.64931,-1.669347 -0.0453,-1.069355 0.48657,-1.713516 0.53182,-0.644162 1.4958,-0.684965 0.97179,-0.04114 1.53092,0.513841 0.56286,0.550908 0.60713,1.596846 l 0.0197,0.464428 -2.96219,0.125385 q 0.0257,0.514999 0.33696,0.755958 0.31125,0.240958 0.90837,0.215683 0.39418,-0.01669 0.77186,-0.146054 0.37768,-0.129369 0.78487,-0.392919 z m -1.07196,-2.417767 q -0.027,-0.452389 -0.26308,-0.67307 -0.23237,-0.224749 -0.66948,-0.206247 -0.39417,0.01669 -0.6181,0.268568 -0.22408,0.24798 -0.24835,0.690808 z m -7.90507,-2.753014 1.23616,-0.07243 1.87012,4.135975 -0.2479,-4.231025 1.01388,-0.05941 0.34113,5.822046 -1.22836,0.07197 -1.87792,-4.135518 0.2479,4.231025 -1.01388,0.05941 z"
         transform="matrix(0.30384799,0,0,0.30384799,10.233884,13.682541)" /><path
         id="path1595"
         style="display:inline;font-size:8px;line-height:1;font-family:monospace;-inkscape-font-specification:'monospace Bold';text-align:center;letter-spacing:0px;white-space:pre;fill:#ffffff;stroke-linecap:round;font-weight:bold"
         d="m 487.01072,67.596842 1.35039,-1.891675 0.92835,0.662713 -3.53144,4.94697 -0.92835,-0.662713 0.37674,-0.527762 q -0.36957,0.201721 -0.71923,0.187289 -0.34647,-0.01216 -0.66758,-0.241389 -0.61042,-0.435756 -0.59791,-1.16594 0.0125,-0.730184 0.64798,-1.620385 0.64456,-0.902917 1.32972,-1.143325 0.68833,-0.238139 1.32101,0.213505 0.28614,0.204261 0.4052,0.514826 0.12451,0.309656 0.0851,0.727886 z m -2.21406,0.35845 q -0.36767,0.515044 -0.40478,0.930095 -0.0371,0.415051 0.26491,0.630659 0.30203,0.215609 0.68569,0.04794 0.38366,-0.167668 0.75133,-0.682713 0.36767,-0.515044 0.40161,-0.932365 0.0339,-0.41732 -0.26809,-0.632929 -0.30203,-0.215609 -0.68251,-0.04567 -0.38049,0.169938 -0.74816,0.684983 z m -0.94788,-1.888687 q -0.0568,-0.247923 -0.21714,-0.462771 -0.15707,-0.212631 -0.40473,-0.38332 -0.29912,-0.206158 -0.59742,-0.255191 -0.29286,-0.05003 -0.55252,0.06514 -0.16143,0.06902 -0.3133,0.220534 -0.14865,0.153732 -0.39249,0.507529 l -1.14384,1.65963 -0.94239,-0.649506 2.48276,-3.602299 0.94239,0.649507 -0.38572,0.559643 q 0.35111,-0.213449 0.75264,-0.183408 0.40374,0.02682 0.78648,0.290617 0.19298,0.133005 0.34306,0.307604 0.15552,0.1736 0.2607,0.378929 z m -5.54021,-4.234377 q -0.34152,-0.227148 -0.73786,-0.05446 -0.39417,0.169432 -0.75112,0.706097 -0.35695,0.536665 -0.36299,0.968948 -0.004,0.42903 0.33764,0.656179 0.34477,0.229311 0.73895,0.05988 0.39634,-0.172685 0.75328,-0.70935 0.35695,-0.536665 0.36082,-0.965695 0.006,-0.432283 -0.33872,-0.661595 z m -2.44197,0.01778 q 0.58626,-0.881432 1.38342,-1.092465 0.80257,-0.212122 1.57341,0.300584 0.7741,0.514869 0.88549,1.334883 0.1168,0.818925 -0.46946,1.700357 -0.58626,0.881431 -1.38883,1.093553 -0.79716,0.211033 -1.57126,-0.303836 -0.77084,-0.512706 -0.88764,-1.331631 -0.11139,-0.820014 0.47487,-1.701445 z m -1.9734,1.055892 q -0.334,-0.01471 -0.65776,-0.124957 -0.32586,-0.106958 -0.64807,-0.313669 -0.85154,-0.546307 -1.00251,-1.367161 -0.15097,-0.820855 0.43119,-1.72829 0.58428,-0.910722 1.39663,-1.113554 0.81447,-0.20612 1.66601,0.340187 0.29591,0.189836 0.5245,0.433951 0.23188,0.246225 0.41196,0.565959 l -0.56529,0.881133 q -0.0944,-0.315824 -0.2864,-0.573586 -0.1866,-0.258941 -0.4562,-0.431903 -0.47015,-0.301628 -0.91526,-0.164853 -0.44511,0.136775 -0.79947,0.689126 -0.35436,0.552352 -0.29103,1.01067 0.0633,0.458318 0.53348,0.759947 0.27946,0.17929 0.58182,0.243319 0.30447,0.06074 0.6438,0.0093 z m -4.06299,-2.5934 q -0.3342,-0.0092 -0.65973,-0.114074 -0.32759,-0.10156 -0.65317,-0.30292 -0.86045,-0.532164 -1.02496,-1.350412 -0.16451,-0.818248 0.40258,-1.735177 0.56915,-0.920251 1.37805,-1.136476 0.81095,-0.219547 1.6714,0.312617 0.299,0.184922 0.53159,0.425227 0.23592,0.24236 0.42126,0.559076 l -0.55066,0.890351 q -0.0996,-0.314221 -0.29584,-0.568776 -0.19085,-0.255822 -0.46327,-0.424307 -0.47507,-0.29382 -0.91786,-0.14971 -0.44278,0.14411 -0.78797,0.70224 -0.34519,0.558131 -0.2743,1.01534 0.0709,0.457209 0.54596,0.75103 0.28239,0.174648 0.58576,0.233673 0.30543,0.0557 0.64387,-0.0014 z m -4.37891,-4.821556 q -0.55033,-0.327921 -0.85243,-0.31695 -0.3021,0.01097 -0.50605,0.353252 -0.15197,0.255033 -0.0909,0.496018 0.061,0.240985 0.31942,0.394948 0.38926,0.231944 0.77798,0.06797 0.39073,-0.167333 0.70465,-0.694178 l 0.04,-0.06711 z m 1.59507,0.436609 -1.27769,2.144292 -0.97651,-0.581859 0.24994,-0.419463 q -0.32581,0.142347 -0.68432,0.110616 -0.3585,-0.03173 -0.69407,-0.231684 -0.64094,-0.381908 -0.79805,-0.934782 -0.15375,-0.550874 0.20816,-1.158256 0.39191,-0.657717 1.00404,-0.715858 0.61412,-0.0615 1.50674,0.470374 l 0.68121,0.405902 0.098,-0.16443 q 0.14197,-0.238254 0.0395,-0.463034 -0.0972,-0.226137 -0.43273,-0.426088 -0.35235,-0.20995 -0.73855,-0.317298 -0.38085,-0.108704 -0.85588,-0.128022 l 0.49988,-0.838925 q 0.40548,0.05973 0.77904,0.195919 0.37356,0.136193 0.7494,0.360139 0.91611,0.545868 1.06329,1.138297 0.15054,0.594429 -0.42133,1.55416 z m -3.70682,-4.2179 -0.49762,0.8674 q -0.17337,-0.333638 -0.421,-0.592788 -0.2423,-0.260594 -0.54047,-0.431647 -0.33205,-0.190492 -0.55783,-0.189422 -0.22384,-0.0023 -0.33269,0.187426 -0.15551,0.271062 0.47239,0.856449 l 0.0314,0.03155 0.24574,0.231045 q 0.46826,0.439761 0.55378,0.871606 0.0908,0.4304 -0.18907,0.918313 -0.33628,0.586173 -0.89165,0.65936 -0.55004,0.07174 -1.32257,-0.371442 -0.34222,-0.196323 -0.66639,-0.463354 -0.32611,-0.263643 -0.6274,-0.594107 l 0.49761,-0.8674 q 0.22176,0.374904 0.50421,0.667544 0.28585,0.294583 0.60435,0.4773 0.34899,0.200211 0.58689,0.201583 0.23789,0.0014 0.34868,-0.191759 0.10886,-0.189744 0.0384,-0.365256 -0.0671,-0.173569 -0.47871,-0.562846 l -0.23947,-0.218436 q -0.49536,-0.455313 -0.59881,-0.879436 -0.10345,-0.424123 0.1609,-0.884929 0.3149,-0.548901 0.88627,-0.626423 0.57137,-0.07752 1.28968,0.334564 0.32189,0.18466 0.60929,0.421589 0.29273,0.235485 0.53403,0.51352 z m -5.81114,1.314555 q -0.42811,-0.04889 -0.83026,-0.177152 -0.40215,-0.128261 -0.80571,-0.35099 -0.961,-0.530399 -1.18744,-1.324633 -0.22113,-0.795766 0.31304,-1.763609 0.51719,-0.937064 1.30636,-1.210916 0.78917,-0.273852 1.63389,0.19237 0.85157,0.469997 1.04074,1.234741 0.19449,0.763211 -0.31137,1.679755 l -0.22462,0.406973 -2.59574,-1.432642 q -0.24573,0.453319 -0.10509,0.820956 0.14065,0.367637 0.6639,0.65643 0.34541,0.190641 0.73531,0.276442 0.38989,0.0858 0.87474,0.07231 z m 0.34101,-2.622672 q 0.21211,-0.400488 0.12512,-0.711741 -0.0817,-0.312787 -0.46472,-0.524191 -0.34541,-0.190641 -0.66764,-0.09186 -0.32033,0.09536 -0.57124,0.461054 z m 1.58336,-3.378117 0.96443,0.532286 -1.96826,0.591283 -0.67372,-0.371845 z m -5.56291,-0.01654 1.08931,-2.053146 1.00759,0.534583 -2.84867,5.369235 -1.00759,-0.534583 0.3039,-0.57281 q -0.33976,0.248668 -0.68827,0.280444 -0.34505,0.03361 -0.69357,-0.151301 -0.66253,-0.351507 -0.74636,-1.076971 -0.0838,-0.725463 0.42878,-1.691649 0.51994,-0.979989 1.16743,-1.308599 0.65095,-0.326778 1.33763,0.03754 0.31056,0.164768 0.46951,0.456934 0.16424,0.290545 0.18031,0.710319 z m -2.1475,0.647117 q -0.29658,0.559008 -0.27868,0.97533 0.0179,0.416323 0.34572,0.590245 0.32782,0.173923 0.68603,-0.04285 0.35822,-0.216769 0.6548,-0.775777 0.29659,-0.559007 0.27523,-0.977161 -0.0214,-0.418153 -0.34917,-0.592075 -0.32781,-0.173923 -0.68258,0.04468 -0.35476,0.2186 -0.65135,0.777608 z m -5.95406,-3.795151 -1.24733,2.551251 -1.02121,-0.499275 1.17013,-2.393333 q 0.20932,-0.428133 0.17571,-0.670666 -0.0284,-0.244327 -0.30211,-0.378153 -0.27723,-0.135542 -0.56048,0.03469 -0.27973,0.171952 -0.49591,0.614122 l -1.09978,2.249452 -1.0212,-0.499275 1.92161,-3.9304 1.0212,0.499275 -0.28824,0.58956 q 0.26835,-0.273176 0.61905,-0.323471 0.3507,-0.05029 0.72268,0.131572 0.55798,0.2728 0.66036,0.783758 0.1041,0.507449 -0.25448,1.240889 z m -5.37815,0.301958 q -0.4304,-0.0205 -0.84015,-0.121917 -0.40974,-0.101414 -0.82713,-0.296998 -0.99394,-0.465755 -1.27235,-1.243295 -0.27322,-0.77942 0.19585,-1.780437 0.45415,-0.969182 1.22351,-1.29457 0.76935,-0.325387 1.64303,0.08401 0.88075,0.412716 1.12004,1.163292 0.24447,0.748697 -0.19974,1.696656 l -0.19724,0.420922 -2.6847,-1.258036 q -0.21525,0.468563 -0.0506,0.826105 0.16462,0.357542 0.70581,0.611139 0.35725,0.167406 0.75196,0.227263 0.39471,0.05986 0.87761,0.01437 z m 0.16701,-2.639469 q 0.18519,-0.413626 0.0778,-0.718453 -0.10217,-0.306707 -0.49833,-0.492346 -0.35725,-0.167407 -0.67225,-0.04755 -0.31334,0.116317 -0.53954,0.497784 z m -11.8008,-4.019717 1.12244,-2.617112 1.05187,0.451131 -1.05316,2.455562 q -0.1863,0.43439 -0.1443,0.67342 0.042,0.23903 0.3256,0.360666 0.28361,0.121636 0.54935,-0.06192 0.26933,-0.182014 0.46333,-0.634354 l 0.99003,-2.308372 1.05187,0.451131 -1.72446,4.020803 -1.05187,-0.451131 0.25559,-0.59594 q -0.25448,0.286139 -0.60226,0.353752 -0.34418,0.06915 -0.72113,-0.09252 -0.57441,-0.246351 -0.70558,-0.753147 -0.12758,-0.505256 0.19268,-1.251976 z m -1.56877,0.764538 q -0.43089,8.5e-4 -0.84516,-0.08013 -0.41427,-0.08098 -0.84083,-0.255645 -1.0158,-0.415929 -1.3324,-1.178718 -0.31151,-0.764923 0.10738,-1.787954 0.40557,-0.990497 1.15785,-1.35361 0.75229,-0.363112 1.64518,0.0025 0.90012,0.368563 1.17631,1.10636 0.28127,0.735661 -0.11541,1.704469 l -0.17614,0.430179 -2.74375,-1.123452 q -0.19177,0.478654 -0.01,0.827599 0.18214,0.348945 0.73523,0.575412 0.36511,0.149497 0.7623,0.189721 0.39719,0.04022 0.87724,-0.02914 z m 0.036,-2.644503 q 0.16447,-0.422295 0.0421,-0.721427 -0.11724,-0.301267 -0.52212,-0.467046 -0.36511,-0.149498 -0.67378,-0.01418 -0.30718,0.131702 -0.51421,0.523909 z m -6.7551,-0.486207 -0.82943,2.125123 -1.06256,-0.414715 2.19571,-5.625753 1.06257,0.414714 -0.23861,0.611337 q 0.30516,-0.287642 0.64767,-0.35943 0.34251,-0.07179 0.71004,0.07166 0.69867,0.272689 0.86567,0.983628 0.16701,0.71094 -0.23066,1.729834 -0.40336,1.03345 -1.01224,1.433177 -0.60524,0.401147 -1.32938,0.118516 -0.3275,-0.127823 -0.52417,-0.397472 -0.19161,-0.271867 -0.25461,-0.690619 z m 2.05704,-0.887016 q 0.23008,-0.589503 0.16424,-1.000977 -0.0658,-0.411473 -0.41153,-0.546397 -0.3457,-0.134925 -0.6765,0.121741 -0.33081,0.256665 -0.56089,0.846169 -0.23008,0.589503 -0.1606,1.002397 0.0695,0.412894 0.41517,0.547818 0.3457,0.134924 0.67286,-0.123162 0.32717,-0.258085 0.55725,-0.847589 z m -8.05738,-3.731359 -0.94461,2.678138 -1.07199,-0.378105 0.88614,-2.512365 q 0.15852,-0.449427 0.0971,-0.686462 -0.0564,-0.239419 -0.34373,-0.340767 -0.29102,-0.102647 -0.55273,0.09914 -0.25802,0.203082 -0.42174,0.667243 l -0.83287,2.361329 -1.07199,-0.378105 1.45525,-4.125879 1.07199,0.378105 -0.21829,0.618882 q 0.23504,-0.302316 0.57759,-0.392742 0.34256,-0.09042 0.73304,0.0473 0.58573,0.206593 0.74639,0.702324 0.16196,0.492047 -0.1096,1.261965 z m -8.38294,-2.1504 1.16654,-3.489885 1.0929,0.365316 -1.25817,3.764037 q -0.1387,0.414934 -0.007,0.722625 0.13315,0.303986 0.50733,0.42906 0.37419,0.125075 0.66337,-0.03774 0.29043,-0.166518 0.42913,-0.581451 l 1.25817,-3.764038 1.0929,0.365316 -1.16653,3.489885 q -0.37646,1.126248 -0.99563,1.487663 -0.61917,0.361416 -1.61205,0.02954 -0.98917,-0.330642 -1.27026,-0.992979 -0.27738,-0.661098 0.0991,-1.787346 z"
         transform="matrix(0.30384799,0,0,0.30384799,10.233884,13.682541)" /><path
         id="path1628"
         style="display:inline;font-size:8px;line-height:1;font-family:monospace;-inkscape-font-specification:'monospace Bold';text-align:center;letter-spacing:0px;white-space:pre;fill:#ffffff;stroke-linecap:round;font-weight:bold"
         d="m 575.39401,172.29261 2.08667,-1.02362 0.50235,1.02405 -5.45691,2.6769 -0.50234,-1.02405 0.58216,-0.28558 q -0.42104,0.002 -0.72191,-0.17668 -0.29915,-0.17522 -0.47291,-0.52943 -0.33031,-0.67335 0.0274,-1.31003 0.35772,-0.63668 1.33969,-1.11838 0.99599,-0.48859 1.71313,-0.37483 0.71887,0.11726 1.06122,0.81515 0.15483,0.31563 0.11215,0.64549 -0.0375,0.33164 -0.27071,0.68101 z m -2.11874,-0.73583 q -0.56814,0.2787 -0.79788,0.62636 -0.22975,0.34765 -0.0663,0.68081 0.16343,0.33317 0.5807,0.36778 0.41727,0.0346 0.9854,-0.24409 0.56814,-0.2787 0.79616,-0.62986 0.22803,-0.35116 0.0646,-0.68432 -0.16343,-0.33317 -0.57898,-0.36427 -0.41554,-0.0311 -0.98368,0.24759 z m 0.0626,-2.11223 q 0.0677,-0.24518 0.0286,-0.51037 -0.0373,-0.26172 -0.17419,-0.52954 -0.16536,-0.32346 -0.4046,-0.50825 -0.23399,-0.18309 -0.5172,-0.20502 -0.17484,-0.0159 -0.38044,0.0453 -0.20382,0.0647 -0.58641,0.2603 l -1.79471,0.91748 -0.52097,-1.01908 3.89549,-1.99144 0.52097,1.01909 -0.60519,0.30939 q 0.41035,-0.0211 0.74946,0.19595 0.34259,0.21532 0.55418,0.62921 0.10668,0.20869 0.15586,0.43361 0.0544,0.22663 0.0495,0.45728 z m -2.86529,-6.35723 q -0.19271,-0.36207 -0.62351,-0.39828 -0.42736,-0.038 -0.99632,0.26477 -0.56897,0.30282 -0.77954,0.68039 -0.20713,0.37575 -0.0144,0.73781 0.19454,0.36552 0.6219,0.40357 0.4308,0.0362 0.99976,-0.2666 0.56897,-0.30282 0.77609,-0.67857 0.21058,-0.37757 0.016,-0.74309 z m -2.15757,-1.14385 q 0.93448,-0.49736 1.73624,-0.30458 0.80705,0.1944 1.24201,1.01164 0.4368,0.82068 0.14546,1.59525 -0.28605,0.77618 -1.22053,1.27354 -0.93448,0.49736 -1.74153,0.30296 -0.80176,-0.19278 -1.23856,-1.01347 -0.43496,-0.81724 -0.14891,-1.59342 0.29134,-0.77456 1.22582,-1.27192 z m -2.23812,-0.008 q -0.28696,-0.17154 -0.51955,-0.42229 -0.236,-0.24886 -0.42142,-0.58377 -0.49002,-0.88513 -0.23313,-1.67923 0.2569,-0.79411 1.20012,-1.3163 0.94664,-0.52408 1.75789,-0.31686 0.81467,0.20533 1.30469,1.09045 0.17028,0.30757 0.25555,0.63096 0.0872,0.3268 0.0938,0.6937 l -0.91589,0.50705 q 0.0669,-0.32278 0.0203,-0.64079 -0.0413,-0.31649 -0.19641,-0.59672 -0.27055,-0.4887 -0.72723,-0.57968 -0.45667,-0.091 -1.03081,0.22688 -0.57413,0.31786 -0.73602,0.75128 -0.16189,0.43343 0.10866,0.92213 0.16082,0.29048 0.39652,0.4904 0.23911,0.19803 0.5622,0.31384 z m -2.34434,-4.21159 q -0.28975,-0.16678 -0.52645,-0.41365 -0.24008,-0.24493 -0.43101,-0.57673 -0.50458,-0.87691 -0.26084,-1.67515 0.24374,-0.79824 1.17821,-1.33594 0.93785,-0.53966 1.75241,-0.34587 0.81795,0.19184 1.32253,1.06875 0.17534,0.30472 0.26594,0.62664 0.0925,0.32532 0.10528,0.69206 l -0.90738,0.52212 q 0.0615,-0.32384 0.01,-0.64104 -0.0465,-0.31577 -0.20624,-0.5934 -0.27859,-0.48416 -0.73671,-0.56758 -0.45811,-0.0834 -1.02692,0.24388 -0.5688,0.3273 -0.72351,0.76334 -0.15471,0.43604 0.12389,0.92021 0.16559,0.28778 0.40456,0.48378 0.24235,0.19405 0.56731,0.30451 z m -1.56441,-6.32254 q -0.32863,-0.54991 -0.59972,-0.6837 -0.27108,-0.13378 -0.61309,0.0706 -0.25484,0.1523 -0.31555,0.39336 -0.0607,0.24106 0.0936,0.49925 0.23245,0.38896 0.65242,0.42922 0.42332,0.0383 0.94976,-0.27635 l 0.0671,-0.0401 z m 1.19649,1.14163 -2.14263,1.28047 -0.58313,-0.97575 0.41914,-0.25048 q -0.35434,-0.0294 -0.65479,-0.22758 -0.30044,-0.19815 -0.50083,-0.53346 -0.38274,-0.64044 -0.25849,-1.20162 0.12625,-0.55782 0.73316,-0.92052 0.65721,-0.39276 1.22354,-0.15328 0.56968,0.23748 1.10271,1.12941 l 0.40679,0.68067 0.1643,-0.0982 q 0.23807,-0.14227 0.25458,-0.38877 0.0219,-0.24515 -0.17852,-0.58046 -0.21041,-0.35208 -0.49932,-0.62993 -0.28356,-0.2765 -0.69246,-0.51906 l 0.83827,-0.50097 q 0.3285,0.2451 0.5926,0.54233 0.2641,0.29724 0.48853,0.67279 0.54706,0.91539 0.39529,1.50666 -0.14976,0.59463 -1.10874,1.16774 z m -1.25958,-5.47223 -0.8498,0.52711 q 0.006,-0.37595 -0.0891,-0.72161 -0.0895,-0.34439 -0.2707,-0.63651 -0.20178,-0.32531 -0.401,-0.43158 -0.1959,-0.10832 -0.38179,0.007 -0.26556,0.16472 0.009,0.97805 l 0.0127,0.0427 0.10657,0.32002 q 0.2033,0.60936 0.0735,1.03003 -0.12441,0.42192 -0.60242,0.71842 -0.57428,0.35621 -1.09781,0.15691 -0.51814,-0.19803 -0.9876,-0.95488 -0.20796,-0.33527 -0.36646,-0.7242 -0.16183,-0.38688 -0.27008,-0.82077 l 0.8498,-0.52711 q 0.0172,0.43524 0.12679,0.82691 0.11169,0.39498 0.30524,0.70701 0.21208,0.34192 0.42079,0.45608 0.20872,0.11416 0.39793,-0.003 0.18589,-0.1153 0.20723,-0.30322 0.0234,-0.18459 -0.15405,-0.72265 l -0.10703,-0.30594 q -0.21977,-0.63593 -0.10943,-1.05831 0.11033,-0.42238 0.56179,-0.70241 0.53776,-0.33356 1.07742,-0.13049 0.53967,0.20308 0.97618,0.90682 0.1956,0.31535 0.33604,0.66033 0.14581,0.34624 0.22616,0.70551 z m -5.73845,-1.60233 q -0.35356,-0.2463 -0.64659,-0.55013 -0.29303,-0.30383 -0.54243,-0.69147 -0.59392,-0.9231 -0.41609,-1.72961 0.18323,-0.80534 1.1129,-1.40348 0.9001,-0.57913 1.72467,-0.44543 0.82456,0.1337 1.34662,0.94511 0.52629,0.81798 0.32966,1.58084 -0.19122,0.76403 -1.07162,1.33048 l -0.39092,0.25151 -1.60421,-2.49335 q -0.43152,0.28228 -0.4823,0.67262 -0.0508,0.39033 0.2726,0.89294 0.21347,0.33179 0.51587,0.59243 0.3024,0.26064 0.73551,0.47898 z m 1.5454,-2.14625 q 0.37684,-0.25175 0.44807,-0.56699 0.0766,-0.31406 -0.16009,-0.68198 -0.21348,-0.33179 -0.54396,-0.39785 -0.32721,-0.0682 -0.72167,0.13452 z m 2.99749,-2.22122 0.59604,0.92639 -2.01298,-0.41419 -0.41638,-0.64715 z m -4.88792,-2.65586 1.93355,-1.28972 0.63294,0.94891 -5.05648,3.37277 -0.63294,-0.9489 0.53944,-0.35982 q -0.41709,0.0575 -0.73889,-0.08 -0.31964,-0.13426 -0.53857,-0.46248 -0.41617,-0.62394 -0.14549,-1.30221 0.27068,-0.67827 1.18059,-1.2852 0.9229,-0.6156 1.64879,-0.59736 0.72804,0.0215 1.1594,0.66818 0.19508,0.29247 0.19624,0.62507 0.007,0.33368 -0.17858,0.71075 z m -2.19725,-0.45015 q -0.52644,0.35115 -0.70836,0.72605 -0.18192,0.3749 0.024,0.68362 0.20592,0.30872 0.62411,0.28803 0.41819,-0.0207 0.94463,-0.37184 0.52645,-0.35115 0.7062,-0.7293 0.17975,-0.37815 -0.0262,-0.68687 -0.20592,-0.30872 -0.62194,-0.28478 -0.41602,0.0239 -0.94247,0.37509 z m -3.43816,-6.16726 -2.30914,1.65306 -0.66168,-0.92429 2.16621,-1.55074 q 0.3875,-0.2774 0.47308,-0.50681 0.091,-0.2285 -0.0863,-0.47625 -0.17963,-0.25092 -0.50974,-0.23559 -0.32784,0.0185 -0.72804,0.30501 l -2.03598,1.45751 -0.66168,-0.92429 3.5574,-2.54667 0.66168,0.92429 -0.53361,0.382 q 0.36588,-0.113 0.69841,0.009 0.33252,0.12225 0.57354,0.45893 0.36154,0.50503 0.20903,1.00333 -0.14932,0.49603 -0.81316,0.97125 z m -4.87652,-2.28778 q -0.36906,-0.22241 -0.68152,-0.50621 -0.31246,-0.28381 -0.58692,-0.65413 -0.65361,-0.88184 -0.52944,-1.69834 0.12963,-0.81568 1.01775,-1.47394 0.85988,-0.63732 1.69147,-0.55838 0.8316,0.0789 1.40612,0.85408 0.57917,0.78142 0.43337,1.55561 -0.14033,0.775 -0.98138,1.39836 l -0.37345,0.2768 -1.76543,-2.38193 q -0.41192,0.31017 -0.4368,0.703 -0.0249,0.39284 0.33099,0.87299 0.23492,0.31696 0.55388,0.55705 0.31895,0.2401 0.76554,0.42935 z m 1.40024,-2.24365 q 0.35939,-0.2761 0.40964,-0.59535 0.0557,-0.31844 -0.2048,-0.66992 -0.23493,-0.31696 -0.56906,-0.36104 -0.33099,-0.0464 -0.71119,0.1819 z m -6.18347,-10.83184 2.17343,2.73841 -0.70067,0.55611 -3.48643,-0.17026 1.43033,1.80215 -0.67007,0.53182 -2.23171,-2.81184 0.70067,-0.5561 3.48886,0.17331 -1.37448,-1.73177 z m -4.03718,1.61886 q -0.37962,-0.20385 -0.70576,-0.47183 -0.32613,-0.26797 -0.61861,-0.62423 -0.69649,-0.84838 -0.61294,-1.67003 0.0891,-0.8211 0.94348,-1.52255 0.82724,-0.67914 1.66173,-0.64151 0.83448,0.0376 1.4467,0.78337 0.61718,0.75176 0.50992,1.53222 -0.10177,0.781 -0.9109,1.44527 l -0.35927,0.29496 -1.88128,-2.29153 q -0.39605,0.3302 -0.40144,0.72378 -0.005,0.39358 0.37384,0.85551 0.25034,0.30494 0.5808,0.52893 0.33046,0.224 0.78588,0.39089 z m 1.28736,-2.31028 q 0.34527,-0.29356 0.37964,-0.6149 0.0399,-0.32081 -0.23774,-0.65896 -0.25034,-0.30493 -0.58625,-0.3324 -0.33288,-0.03 -0.70131,0.21692 z m -1.5658,-4.34422 -0.76232,0.64721 q -0.0499,-0.37267 -0.19498,-0.70045 -0.13955,-0.32733 -0.36203,-0.58937 -0.24776,-0.29183 -0.46052,-0.3674 -0.20979,-0.0781 -0.37654,0.0635 -0.23823,0.20226 0.15391,0.96591 l 0.0189,0.0403 0.15281,0.3007 q 0.29135,0.57252 0.22532,1.00777 -0.0605,0.4357 -0.48933,0.79975 -0.51516,0.43737 -1.06243,0.31785 -0.54178,-0.11907 -1.11819,-0.79801 -0.25534,-0.30076 -0.46973,-0.66191 -0.21736,-0.35863 -0.3887,-0.77169 l 0.76231,-0.64721 q 0.0815,0.4279 0.24791,0.79899 0.16899,0.37408 0.40663,0.65399 0.2604,0.30671 0.48373,0.38869 0.22332,0.082 0.39306,-0.0621 0.16676,-0.14158 0.16002,-0.33058 -0.004,-0.18602 -0.25943,-0.69185 l -0.15118,-0.28671 q -0.31157,-0.59634 -0.26504,-1.03041 0.0465,-0.43407 0.45152,-0.77789 0.4824,-0.40956 1.04619,-0.28869 0.5638,0.12086 1.09977,0.75216 0.24017,0.28289 0.43017,0.60325 0.19551,0.32081 0.3282,0.66421 z m -3.1749,-3.71455 -0.75153,0.6597 q -0.0561,-0.37179 -0.20652,-0.69712 -0.14494,-0.32498 -0.37171,-0.58332 -0.25254,-0.2877 -0.46652,-0.35975 -0.21105,-0.0746 -0.37544,0.0697 -0.23486,0.20615 0.16983,0.96323 l 0.0195,0.04 0.15775,0.29814 q 0.30076,0.56763 0.24192,1.00391 -0.0533,0.43664 -0.47605,0.80772 -0.50787,0.44581 -1.05705,0.33534 -0.54366,-0.11011 -1.13121,-0.77944 -0.26027,-0.2965 -0.48058,-0.65406 -0.22326,-0.35499 -0.4014,-0.76517 l 0.75153,-0.6597 q 0.0885,0.42649 0.26107,0.79479 0.17514,0.37123 0.41737,0.64718 0.26543,0.30237 0.49007,0.38065 0.22465,0.0783 0.39199,-0.0686 0.16439,-0.14431 0.15454,-0.33318 -0.007,-0.18592 -0.27082,-0.68747 l -0.15589,-0.28417 q -0.32138,-0.59111 -0.28201,-1.02589 0.0394,-0.43478 0.43861,-0.78525 0.47557,-0.41747 1.04129,-0.30592 0.56571,0.11154 1.11202,0.7339 0.24482,0.27889 0.44008,0.59607 0.20078,0.31754 0.33912,0.6587 z m -3.82081,-5.1085 -2.13234,1.20182 0.7324,0.80707 z m 0.30853,-1.22946 0.94765,1.04428 -3.26095,5.08497 -0.77439,-0.85335 0.82591,-1.23478 -1.0369,-1.14262 -1.30367,0.7083 -0.77439,-0.85336 z"
         transform="matrix(0.30384799,0,0,0.30384799,10.233884,13.682541)" /><path
         id="path1704"
         style="display:inline;font-size:8px;line-height:1;font-family:monospace;-inkscape-font-specification:'monospace Bold';text-align:center;letter-spacing:0px;white-space:pre;shape-inside:url(#rect464);fill:#ffffff;stroke-linecap:round;font-weight:bold;text-anchor:middle"
         d="m 391.15137,351.64033 q -0.39844,0.16406 -0.8125,0.24609 -0.41407,0.082 -0.875,0.082 -1.09766,0 -1.67969,-0.58593 -0.57813,-0.58985 -0.57813,-1.69532 0,-1.07031 0.5586,-1.6914 0.55859,-0.6211 1.52344,-0.6211 0.97265,0 1.50781,0.57813 0.53906,0.57422 0.53906,1.62109 v 0.46485 h -2.96484 q 0.004,0.51562 0.30468,0.76953 0.30079,0.2539 0.89844,0.2539 0.39453,0 0.77735,-0.11328 0.38281,-0.11328 0.80078,-0.35937 z m -0.96875,-2.46094 q -0.008,-0.45312 -0.23438,-0.68359 -0.22265,-0.23438 -0.66015,-0.23438 -0.39454,0 -0.62891,0.24219 -0.23438,0.23828 -0.27734,0.67969 z m -3.65625,-0.49219 q -0.1875,-0.17187 -0.44141,-0.25781 -0.25,-0.0859 -0.55078,-0.0859 -0.36328,0 -0.63672,0.12891 -0.26953,0.125 -0.41797,0.36719 -0.0937,0.14844 -0.13281,0.35937 -0.0352,0.21094 -0.0352,0.64063 v 2.01562 h -1.14453 v -4.375 h 1.14453 v 0.67969 q 0.16797,-0.375 0.51563,-0.57812 0.34765,-0.20704 0.8125,-0.20704 0.23437,0 0.45703,0.0586 0.22656,0.0547 0.42969,0.16406 z m -6.90625,-0.38281 q -0.41016,0 -0.64453,0.36328 -0.23438,0.35938 -0.23438,1.00391 0,0.64453 0.23438,1.00781 0.23437,0.35938 0.64453,0.35938 0.41406,0 0.64843,-0.35938 0.23438,-0.36328 0.23438,-1.00781 0,-0.64453 -0.23438,-1.00391 -0.23437,-0.36328 -0.64843,-0.36328 z m -2.02344,1.36719 q 0,-1.05859 0.54687,-1.67578 0.55079,-0.6211 1.47657,-0.6211 0.92968,0 1.47656,0.6211 0.55078,0.61719 0.55078,1.67578 0,1.05859 -0.55078,1.67969 -0.54688,0.61718 -1.47656,0.61718 -0.92578,0 -1.47657,-0.61718 -0.54687,-0.6211 -0.54687,-1.67969 z m -1.05469,1.96094 q -0.28906,0.16797 -0.62109,0.25 -0.33203,0.0859 -0.71485,0.0859 -1.01171,0 -1.58203,-0.60937 -0.57031,-0.60938 -0.57031,-1.6875 0,-1.08203 0.57422,-1.69141 0.57422,-0.61328 1.58594,-0.61328 0.35156,0 0.67578,0.082 0.32812,0.082 0.65234,0.25391 v 1.04687 q -0.25,-0.21484 -0.55078,-0.32812 -0.29687,-0.11719 -0.61719,-0.11719 -0.55859,0 -0.85937,0.35547 -0.30078,0.35547 -0.30078,1.01172 0,0.65625 0.30078,1.00781 0.30078,0.35156 0.85937,0.35156 0.33203,0 0.6211,-0.10937 0.28906,-0.11328 0.54687,-0.33984 z m -4.77734,-2.61719 v 2.83984 h -1.13672 v -2.66406 q 0,-0.47656 -0.13672,-0.67969 -0.13281,-0.20703 -0.4375,-0.20703 -0.30859,0 -0.48828,0.27735 -0.17578,0.27734 -0.17578,0.76953 v 2.5039 h -1.13672 v -4.375 h 1.13672 v 0.65625 q 0.12109,-0.36328 0.41406,-0.5625 0.29297,-0.19922 0.70703,-0.19922 0.6211,0 0.9375,0.41407 0.31641,0.41015 0.31641,1.22656 z m -4.69531,2.625 q -0.39844,0.16406 -0.8125,0.24609 -0.41407,0.082 -0.875,0.082 -1.09766,0 -1.67969,-0.58593 -0.57813,-0.58985 -0.57813,-1.69532 0,-1.07031 0.5586,-1.6914 0.55859,-0.6211 1.52343,-0.6211 0.97266,0 1.50782,0.57813 0.53906,0.57422 0.53906,1.62109 v 0.46485 h -2.96484 q 0.004,0.51562 0.30468,0.76953 0.30078,0.2539 0.89844,0.2539 0.39453,0 0.77734,-0.11328 0.38282,-0.11328 0.80079,-0.35937 z m -0.96875,-2.46094 q -0.008,-0.45312 -0.23438,-0.68359 -0.22266,-0.23438 -0.66016,-0.23438 -0.39453,0 -0.6289,0.24219 -0.23438,0.23828 -0.27735,0.67969 z m -12.34375,1.14844 v -2.84766 h 1.14453 v 2.67188 q 0,0.47265 0.13281,0.67578 0.13281,0.20312 0.44141,0.20312 0.30859,0 0.48046,-0.27343 0.17579,-0.27344 0.17579,-0.76563 v -2.51172 h 1.14453 v 4.375 h -1.14453 v -0.64843 q -0.1211,0.36328 -0.41407,0.5625 -0.28906,0.19921 -0.69922,0.19921 -0.625,0 -0.94531,-0.41406 -0.3164,-0.41406 -0.3164,-1.22656 z m -2.35157,-2.22656 v -2.32422 h 1.14063 v 6.07812 h -1.14063 v -0.64843 q -0.18359,0.3789 -0.47656,0.57031 -0.28906,0.1914 -0.68359,0.1914 -0.75,0 -1.16407,-0.60156 -0.41406,-0.60156 -0.41406,-1.69531 0,-1.10938 0.41797,-1.70313 0.42188,-0.59375 1.19922,-0.59375 0.35156,0 0.62891,0.1836 0.28125,0.17969 0.49218,0.54297 z m -1.59375,1.57812 q 0,0.63281 0.21094,0.99219 0.21094,0.35937 0.58203,0.35937 0.3711,0 0.58594,-0.35937 0.21484,-0.35938 0.21484,-0.99219 0,-0.63281 -0.21484,-0.99219 -0.21484,-0.35937 -0.58594,-0.35937 -0.37109,0 -0.58203,0.35937 -0.21094,0.35938 -0.21094,0.99219 z m -2.1289,-0.66406 v 2.83984 h -1.13672 v -2.66406 q 0,-0.47656 -0.13672,-0.67969 -0.13281,-0.20703 -0.4375,-0.20703 -0.30859,0 -0.48828,0.27735 -0.17578,0.27734 -0.17578,0.76953 v 2.5039 h -1.13672 v -4.375 h 1.13672 v 0.65625 q 0.12109,-0.36328 0.41406,-0.5625 0.29297,-0.19922 0.70703,-0.19922 0.62109,0 0.9375,0.41407 0.31641,0.41015 0.31641,1.22656 z m -6.59375,-0.71094 q -0.41016,0 -0.64453,0.36328 -0.23438,0.35938 -0.23438,1.00391 0,0.64453 0.23438,1.00781 0.23437,0.35938 0.64453,0.35938 0.41406,0 0.64843,-0.35938 0.23438,-0.36328 0.23438,-1.00781 0,-0.64453 -0.23438,-1.00391 -0.23437,-0.36328 -0.64843,-0.36328 z m -2.02344,1.36719 q 0,-1.05859 0.54687,-1.67578 0.55079,-0.6211 1.47657,-0.6211 0.92968,0 1.47656,0.6211 0.55078,0.61719 0.55078,1.67578 0,1.05859 -0.55078,1.67969 -0.54688,0.61718 -1.47656,0.61718 -0.92578,0 -1.47657,-0.61718 -0.54687,-0.6211 -0.54687,-1.67969 z m -3.47266,1.56641 v 2.28125 h -1.14062 v -6.03907 h 1.14062 v 0.65625 q 0.17969,-0.3789 0.47266,-0.57031 0.29297,-0.19141 0.6875,-0.19141 0.75,0 1.16406,0.60157 0.41406,0.60156 0.41406,1.69531 0,1.10937 -0.42187,1.70312 -0.41797,0.59375 -1.19531,0.59375 -0.35157,0 -0.63282,-0.17968 -0.27734,-0.1836 -0.48828,-0.55078 z m 1.59375,-1.57422 q 0,-0.63282 -0.21093,-0.99219 -0.21094,-0.35938 -0.58204,-0.35938 -0.37109,0 -0.58593,0.35938 -0.21485,0.35937 -0.21485,0.99219 0,0.63281 0.21485,0.99218 0.21484,0.35938 0.58593,0.35938 0.3711,0 0.58204,-0.35938 0.21093,-0.35937 0.21093,-0.99218 z m -3.83203,1.97656 q -0.39844,0.16406 -0.8125,0.24609 -0.41406,0.082 -0.875,0.082 -1.09765,0 -1.67969,-0.58593 -0.57812,-0.58985 -0.57812,-1.69532 0,-1.07031 0.55859,-1.6914 0.5586,-0.6211 1.52344,-0.6211 0.97266,0 1.50781,0.57813 0.53907,0.57422 0.53907,1.62109 v 0.46485 h -2.96485 q 0.004,0.51562 0.30469,0.76953 0.30078,0.2539 0.89844,0.2539 0.39453,0 0.77734,-0.11328 0.38281,-0.11328 0.80078,-0.35937 z m -0.96875,-2.46094 q -0.008,-0.45312 -0.23437,-0.68359 -0.22266,-0.23438 -0.66016,-0.23438 -0.39453,0 -0.62891,0.24219 -0.23437,0.23828 -0.27734,0.67969 z m -0.24609,-3.72265 h 1.10156 l -1.4375,1.46875 h -0.76953 z m -3.41016,3.23046 q -0.1875,-0.17187 -0.4414,-0.25781 -0.25,-0.0859 -0.55079,-0.0859 -0.36328,0 -0.63671,0.12891 -0.26954,0.125 -0.41797,0.36719 -0.0937,0.14844 -0.13282,0.35937 -0.0351,0.21094 -0.0351,0.64063 v 2.01562 h -1.14453 v -4.375 h 1.14453 v 0.67969 q 0.16797,-0.375 0.51562,-0.57812 0.34766,-0.20704 0.8125,-0.20704 0.23438,0 0.45703,0.0586 0.22657,0.0547 0.42969,0.16406 z m -10.25781,-1.07031 v 1 q -0.31641,-0.20312 -0.66016,-0.30469 -0.33984,-0.10546 -0.68359,-0.10546 -0.38281,0 -0.57813,0.11328 -0.19531,0.10937 -0.19531,0.32812 0,0.3125 0.83594,0.50781 l 0.043,0.0117 0.32812,0.0781 q 0.625,0.14844 0.91407,0.48047 0.29296,0.32812 0.29296,0.89062 0,0.67578 -0.44531,1.01563 -0.4414,0.33593 -1.33203,0.33593 -0.39453,0 -0.80859,-0.0703 -0.41407,-0.0664 -0.83985,-0.20312 v -1 q 0.37891,0.21484 0.76953,0.32812 0.39454,0.11328 0.76172,0.11328 0.40235,0 0.60938,-0.11718 0.20703,-0.11719 0.20703,-0.33985 0,-0.21875 -0.14844,-0.33594 -0.14453,-0.11718 -0.69531,-0.25 l -0.31641,-0.0703 q -0.65625,-0.14844 -0.95703,-0.46484 -0.30078,-0.31641 -0.30078,-0.84766 0,-0.63281 0.45703,-0.98437 0.45703,-0.35157 1.28516,-0.35157 0.37109,0 0.73828,0.0625 0.37109,0.0586 0.71875,0.17969 z m -5.95313,2.1836 q -0.64062,0 -0.89453,0.16406 -0.2539,0.16406 -0.2539,0.5625 0,0.29687 0.17578,0.47265 0.17578,0.17579 0.47656,0.17579 0.45313,0 0.70313,-0.33985 0.25,-0.34375 0.25,-0.95703 v -0.0781 z m 1.59375,-0.44141 v 2.49609 h -1.13671 v -0.48828 q -0.20704,0.28906 -0.53125,0.44531 -0.32422,0.15625 -0.71485,0.15625 -0.74609,0 -1.16406,-0.39453 -0.41406,-0.39453 -0.41406,-1.10156 0,-0.76562 0.49609,-1.12891 0.49609,-0.36718 1.53516,-0.36718 h 0.79297 v -0.19141 q 0,-0.27734 -0.20313,-0.41797 -0.19922,-0.14453 -0.58984,-0.14453 -0.41016,0 -0.79688,0.10547 -0.38281,0.10156 -0.80078,0.32812 v -0.97656 q 0.37891,-0.15625 0.76953,-0.23047 0.39063,-0.0742 0.82813,-0.0742 1.0664,0 1.49609,0.4336 0.43359,0.43359 0.43359,1.55078 z m -7.35937,-2.36719 v 1.71094 h 0.47266 q 0.5664,0 0.79296,-0.19141 0.23047,-0.1914 0.23047,-0.66406 0,-0.47266 -0.23047,-0.66406 -0.22656,-0.19141 -0.79296,-0.19141 z m -1.15234,-0.96875 h 1.58203 q 1.20703,0 1.73437,0.42969 0.53125,0.42969 0.53125,1.39453 0,0.96484 -0.53125,1.39453 -0.52734,0.42969 -1.73437,0.42969 h -0.42969 v 2.18359 h -1.15234 z"
         transform="matrix(0.30384799,0,0,0.30384799,0.014344,10.847489)" /><path
         id="path3074"
         style="display:inline;font-size:7.99999px;line-height:1;font-family:monospace;-inkscape-font-specification:'monospace Bold';text-align:center;letter-spacing:0px;white-space:pre;fill:#ffffff;stroke-width:3.29112;stroke-linecap:round;font-weight:bold"
         d="m 30.987191,218.35905 -2.235166,-0.63719 0.312705,-1.09692 5.845242,1.66633 -0.312705,1.09692 -0.623593,-0.17777 q 0.314056,0.28044 0.41781,0.61466 0.104826,0.33046 -0.0033,0.70987 -0.205614,0.72127 -0.897644,0.95455 -0.692029,0.23327 -1.743872,-0.0666 -1.06687,-0.30414 -1.523283,-0.86887 -0.455343,-0.56849 -0.242232,-1.31605 0.09638,-0.33809 0.348975,-0.55448 0.249908,-0.22121 0.657099,-0.32447 z m 1.080729,1.96533 q 0.608567,0.17349 1.012001,0.0692 0.403435,-0.10433 0.505171,-0.46121 0.101736,-0.35687 -0.18497,-0.66201 -0.286705,-0.30514 -0.895271,-0.47862 -0.608567,-0.17349 -1.013072,-0.0654 -0.404506,0.10809 -0.506242,0.46496 -0.101736,0.35688 0.186041,0.65826 0.287776,0.30138 0.896342,0.47486 z m -1.461041,1.52705 q -0.214446,0.13679 -0.363006,0.35991 -0.147552,0.21935 -0.225185,0.50994 -0.09376,0.35097 -0.0398,0.64841 0.0512,0.29267 0.246866,0.49858 0.119211,0.12889 0.312918,0.22107 0.194716,0.0884 0.609844,0.19931 l 1.947327,0.52025 -0.295408,1.10575 -4.226757,-1.12921 0.295409,-1.10575 0.656657,0.17543 q -0.31894,-0.25907 -0.425451,-0.64737 -0.110285,-0.38931 0.0097,-0.8384 0.06049,-0.22644 0.17457,-0.42643 0.111311,-0.20477 0.269407,-0.37278 z m -2.128328,6.64081 q -0.09925,0.39797 0.196519,0.71328 0.291979,0.31438 0.917355,0.47034 0.625375,0.15597 1.034574,0.0165 0.405409,-0.14045 0.50466,-0.53842 0.100196,-0.40175 -0.191784,-0.71613 -0.295769,-0.31531 -0.921145,-0.47128 -0.625375,-0.15596 -1.030784,-0.0155 -0.409199,0.1395 -0.509395,0.54126 z m 0.836917,2.29414 q -1.027132,-0.25617 -1.493641,-0.93614 -0.469355,-0.6847 -0.245332,-1.58297 0.224968,-0.90205 0.959937,-1.28238 0.732123,-0.38506 1.759255,-0.1289 1.027131,0.25616 1.496486,0.94086 0.46651,0.67997 0.241542,1.58203 -0.224023,0.89827 -0.956147,1.28333 -0.734968,0.38033 -1.7621,0.12417 z m 1.657401,1.50428 q 0.09836,0.31953 0.103304,0.66151 0.0087,0.34286 -0.07769,0.71578 -0.22844,0.98559 -0.95085,1.40358 -0.72241,0.41799 -1.772691,0.17456 -1.054087,-0.24432 -1.518069,-0.9413 -0.467787,-0.69786 -0.239348,-1.68345 0.07938,-0.34249 0.2325,-0.63981 0.154002,-0.30113 0.394644,-0.57816 l 1.019839,0.23637 q -0.265744,0.19504 -0.444014,0.46247 -0.181194,0.26275 -0.253518,0.57479 -0.126127,0.54417 0.152246,0.91744 0.278374,0.37328 0.917676,0.52146 0.639301,0.14817 1.049699,-0.0655 0.410397,-0.21363 0.536524,-0.7578 0.07497,-0.32346 0.03369,-0.62975 -0.04509,-0.30717 -0.207586,-0.60948 z m -1.077411,4.69812 q 0.103668,0.31784 0.114303,0.65969 0.01445,0.34267 -0.06576,0.71698 -0.211999,0.98926 -0.92735,1.41922 -0.715351,0.42996 -1.76954,0.20404 -1.058008,-0.22673 -1.53353,-0.91589 -0.479341,-0.68998 -0.267342,-1.67924 0.07367,-0.34375 0.221816,-0.64358 0.148966,-0.30365 0.384963,-0.58466 l 1.023633,0.21937 q -0.26246,0.19943 -0.436253,0.46979 -0.176794,0.26573 -0.243913,0.57893 -0.11705,0.54619 0.1675,0.91478 0.28455,0.36859 0.926229,0.50611 0.64168,0.13751 1.048464,-0.0829 0.406784,-0.22043 0.523834,-0.76663 0.06958,-0.32465 0.0232,-0.63022 -0.05019,-0.30638 -0.217704,-0.60594 z m -3.069045,5.74497 q -0.123794,0.62855 -0.01189,0.90937 0.111906,0.28083 0.502833,0.35782 0.291279,0.0574 0.497715,-0.0811 0.206435,-0.1385 0.264558,-0.43361 0.08756,-0.44459 -0.197567,-0.75555 -0.28896,-0.31171 -0.890681,-0.43022 l -0.07665,-0.0151 z m -0.125111,-1.64901 2.449043,0.48235 -0.219658,1.11529 -0.479078,-0.0944 q 0.243608,0.25899 0.334261,0.60729 0.09065,0.3483 0.01517,0.73157 -0.144175,0.73203 -0.612037,1.06588 -0.467108,0.33002 -1.160812,0.19339 -0.751193,-0.14795 -1.011762,-0.70489 -0.264402,-0.5577 -0.06361,-1.57718 l 0.153233,-0.77802 -0.187799,-0.037 q -0.272116,-0.0536 -0.449342,0.11853 -0.180303,0.16754 -0.255787,0.5508 -0.07926,0.40242 -0.05051,0.80223 0.02567,0.39523 0.167198,0.8491 l -0.958155,-0.18871 q -0.08009,-0.40196 -0.07742,-0.79956 0.0027,-0.39761 0.08721,-0.82686 0.206072,-1.04631 0.714525,-1.38411 0.509208,-0.34163 1.605337,-0.12575 z m -4.46599,5.58138 2.13378,0.38349 -0.176888,0.98423 -2.133779,-0.38349 z m 1.244326,4.98993 -2.294086,-0.37303 0.183065,-1.12583 5.999324,0.97551 -0.183065,1.12583 -0.64003,-0.10407 q 0.344527,0.24203 0.486432,0.56192 0.142532,0.31603 0.07921,0.70545 -0.120371,0.74028 -0.78059,1.05242 -0.660219,0.31215 -1.739788,0.13661 -1.094993,-0.17805 -1.613963,-0.6859 -0.518343,-0.5117 -0.393583,-1.27896 0.05642,-0.34701 0.28215,-0.59129 0.222497,-0.24876 0.614924,-0.39866 z m 1.301876,1.82637 q 0.624608,0.10156 1.013178,-0.049 0.388571,-0.15053 0.44813,-0.51681 0.05956,-0.36628 -0.260676,-0.63602 -0.320234,-0.26974 -0.944843,-0.3713 -0.624608,-0.10156 -1.013805,0.0528 -0.389197,0.15438 -0.448756,0.52066 -0.05956,0.36628 0.261302,0.63216 0.320861,0.26589 0.94547,0.36745 z m -4.628415,7.97925 1.232029,0.15853 0.190931,-1.48386 0.871719,0.11217 -0.190932,1.48386 2.053382,0.26421 q 0.290572,0.0374 0.436371,-0.0856 0.142423,-0.12739 0.184797,-0.45671 l 0.112166,-0.87172 0.871718,0.11217 -0.122635,0.95308 q -0.125626,0.97632 -0.479938,1.28125 -0.358186,0.30444 -1.202785,0.19576 l -1.999141,-0.25723 -0.142575,1.10805 -0.871719,-0.11217 0.142576,-1.10805 -1.232029,-0.15853 z m 2.334705,3.70338 2.822243,0.31565 -0.126348,1.12968 -2.647551,-0.29612 q -0.473609,-0.053 -0.690671,0.0603 -0.220511,0.10897 -0.254377,0.41177 -0.0343,0.30668 0.221352,0.51608 0.256086,0.20552 0.745223,0.26023 l 2.488388,0.27831 -0.126348,1.12968 -4.347885,-0.48629 0.126348,-1.12967 0.652183,0.0729 q -0.34757,-0.16072 -0.51299,-0.47402 -0.165421,-0.3133 -0.119397,-0.72479 0.06903,-0.61725 0.5157,-0.88567 0.442784,-0.26885 1.25413,-0.17811 z m 2.094911,4.96246 q 0.125604,0.41218 0.168066,0.83215 0.04246,0.41997 -0.0012,0.87883 -0.103918,1.09273 -0.742325,1.61667 -0.641926,0.51969 -1.742428,0.41503 -1.065504,-0.10133 -1.630924,-0.71621 -0.56542,-0.61489 -0.474075,-1.5754 0.09208,-0.96828 0.718276,-1.4463 0.622673,-0.48228 1.664845,-0.38317 l 0.462755,0.044 -0.28069,2.95152 q 0.513679,0.0449 0.79492,-0.23046 0.281241,-0.2754 0.337823,-0.87037 0.03735,-0.39276 -0.03918,-0.78457 -0.07653,-0.39182 -0.281949,-0.83121 z m -2.541595,0.73141 q -0.451829,-0.0351 -0.702712,0.16861 -0.254401,0.19947 -0.295821,0.635 -0.03735,0.39276 0.18156,0.64901 0.215021,0.25588 0.650377,0.34044 z m -1.743366,5.38131 q -0.266415,-0.1502 -0.383243,-0.35919 -0.116829,-0.20899 -0.09423,-0.49717 0.04429,-0.56467 0.450516,-0.74831 0.406533,-0.18754 1.637127,-0.091 l 2.457294,0.19273 -0.0733,0.93463 -2.799991,-0.21961 q -0.486786,-0.0382 -0.656149,0.023 -0.169363,0.0612 -0.184635,0.25588 -0.01527,0.19471 0.146073,0.28573 0.161346,0.091 0.640343,0.12859 l 2.799991,0.21961 -0.07239,0.92295 -2.799992,-0.21961 q -0.478997,-0.0376 -0.65256,0.0272 -0.173563,0.0648 -0.188835,0.25947 -0.01527,0.19471 0.142485,0.28153 0.157757,0.0868 0.644542,0.125 l 2.799992,0.21961 -0.07331,0.93463 -4.3616,-0.34209 0.06506,-0.82949 0.451737,0.0354 q -0.249387,-0.11751 -0.38057,-0.3433 -0.135078,-0.2261 -0.114309,-0.49091 0.02077,-0.26481 0.19754,-0.47037 0.172876,-0.20586 0.40241,-0.23488 z m 3.468699,3.49233 q 0.139159,0.4078 0.195479,0.82614 0.05632,0.41834 0.02787,0.87839 -0.06774,1.09557 -0.688485,1.64032 -0.624398,0.54062 -1.727758,0.4724 -1.068271,-0.0661 -1.653705,-0.66192 -0.585435,-0.59586 -0.525888,-1.55886 0.06003,-0.9708 0.670079,-1.46926 0.606393,-0.50259 1.651271,-0.43798 l 0.463957,0.0287 -0.18298,2.95918 q 0.514882,0.0279 0.786867,-0.25661 0.271986,-0.28454 0.308871,-0.88105 0.02435,-0.39378 -0.06509,-0.78286 -0.08944,-0.38907 -0.309268,-0.82143 z m -2.516032,0.81502 q -0.452742,-0.0202 -0.696754,0.19174 -0.24767,0.20777 -0.274671,0.64443 -0.02435,0.39378 0.202912,0.64266 0.223362,0.24863 0.661274,0.31876 z m -3.242613,5.35961 1.240913,0.0562 0.06771,-1.49456 0.878005,0.0398 -0.06771,1.49456 2.068188,0.0937 q 0.292669,0.0133 0.427807,-0.12139 0.131412,-0.13872 0.146438,-0.47041 l 0.03978,-0.87801 0.878004,0.0398 -0.04349,0.95995 q -0.04455,0.98336 -0.372461,1.31652 -0.331815,0.33298 -1.182504,0.29444 l -2.013558,-0.0912 -0.05056,1.11604 -0.878004,-0.0398 0.05056,-1.11604 -1.240914,-0.0562 z m 5.259965,3.45221 q 0.152513,0.403 0.222578,0.81926 0.07006,0.41625 0.05678,0.87699 -0.03163,1.0972 -0.634096,1.66211 -0.606257,0.56089 -1.711266,0.52903 -1.069866,-0.0308 -1.674605,-0.6071 -0.604738,-0.57626 -0.576935,-1.5407 0.02803,-0.97225 0.621334,-1.49053 0.589513,-0.52229 1.635952,-0.49212 l 0.46465,0.0134 -0.08544,2.96361 q 0.515523,0.011 0.777991,-0.28238 0.262468,-0.29334 0.27969,-0.89075 0.01137,-0.39437 -0.09083,-0.78028 -0.102203,-0.38592 -0.33615,-0.81081 z m -2.487828,0.89743 q -0.453162,-0.005 -0.690063,0.21458 -0.240694,0.21581 -0.253301,0.65313 -0.01137,0.39437 0.223964,0.63562 0.231428,0.24115 0.671413,0.29682 z m -3.758702,1.19687 1.499994,-1.06268 -0.02218,0.76921 -1.509562,1.39458 z m 4.472185,5.49656 -3.374736,-0.0419 -0.01439,1.16007 -0.878838,-0.0109 0.02859,-2.30451 4.253573,0.0528 q 0.515585,0.006 0.732399,-0.15108 0.216814,-0.15748 0.221563,-0.54026 l 0.01134,-0.91399 0.878838,0.0109 -0.01532,1.23428 q -0.01013,0.81634 -0.436382,1.16655 -0.426252,0.35021 -1.406644,0.33804 z m 1.200411,4.62688 2.281229,-0.009 0.0045,1.14061 -6.039008,0.0239 -0.0045,-1.14062 0.656244,-0.003 q -0.379615,-0.17818 -0.57218,-0.47039 -0.192566,-0.29221 -0.19413,-0.68674 -0.003,-0.74999 0.596944,-1.16643 0.599916,-0.41644 1.693656,-0.42078 1.109365,-0.004 1.704781,0.41512 0.595401,0.41561 0.598482,1.19295 0.0014,0.35156 -0.177177,0.63352 -0.182493,0.27807 -0.548841,0.49046 z m -1.580521,-1.5875 q -0.632807,0.003 -0.991343,0.21487 -0.358536,0.21236 -0.357065,0.58345 0.0015,0.37109 0.361694,0.58451 0.360223,0.21342 0.99303,0.21091 0.632807,-0.003 0.991327,-0.21878 0.35852,-0.21626 0.35705,-0.58735 -0.0015,-0.37109 -0.361679,-0.5806 -0.360208,-0.20952 -0.993014,-0.20701 z m -1.689082,5.51197 q -0.279901,-0.12325 -0.416728,-0.31973 -0.136827,-0.19649 -0.142691,-0.48549 -0.01149,-0.56629 0.374694,-0.78901 0.386107,-0.22663 1.620226,-0.25167 l 2.464333,-0.05 0.01902,0.93731 -2.808012,0.057 q -0.48818,0.01 -0.650703,0.0874 -0.162523,0.0775 -0.158561,0.27281 0.004,0.19527 0.173482,0.26997 0.169519,0.0747 0.649888,0.0649 l 2.808012,-0.057 0.01878,0.92559 -2.808012,0.057 q -0.48037,0.01 -0.646719,0.0913 -0.166349,0.0815 -0.162386,0.27679 0.004,0.19527 0.169496,0.26614 0.165535,0.0709 0.653715,0.061 l 2.808012,-0.057 0.01902,0.93731 -4.374094,0.0888 -0.01688,-0.83186 0.453031,-0.009 q -0.259741,-0.0924 -0.412506,-0.3042 -0.156671,-0.21171 -0.16206,-0.47728 -0.0054,-0.26557 0.150297,-0.48752 0.151779,-0.22188 0.377344,-0.27334 z m 0.531106,5.15346 q 0.01499,0.40988 0.3866,0.63082 0.367702,0.22108 1.011802,0.19751 0.644099,-0.0236 0.99857,-0.27106 0.350566,-0.24735 0.335572,-0.65723 -0.01514,-0.41379 -0.382839,-0.63487 -0.371605,-0.22094 -1.015705,-0.19737 -0.6441,0.0236 -0.994666,0.27091 -0.35447,0.2475 -0.339334,0.66129 z m 1.440241,1.9721 q -1.057884,0.0387 -1.69465,-0.48525 -0.640813,-0.52771 -0.674656,-1.45287 -0.03399,-0.92906 0.566701,-1.49828 0.596639,-0.57297 1.654524,-0.61167 1.057885,-0.0387 1.698697,0.48901 0.636766,0.52395 0.670752,1.45301 0.03384,0.92516 -0.562797,1.49814 -0.600686,0.56921 -1.658571,0.60791 z m 2.059753,0.90455 q 0.154856,0.26563 0.240941,0.56229 0.08608,0.29665 0.103603,0.62822 0.06224,1.17804 -0.681247,1.83928 -0.74349,0.66124 -2.210192,0.73874 -1.470604,0.0777 -2.279634,-0.50151 -0.80903,-0.57922 -0.871273,-1.75726 -0.01752,-0.33157 0.03662,-0.63954 0.05414,-0.30797 0.180552,-0.58065 l 1.279464,-0.0676 q -0.257392,0.31089 -0.367379,0.59834 -0.114093,0.28376 -0.09843,0.58022 0.03339,0.63193 0.553698,0.92911 0.516204,0.29348 1.503107,0.24134 0.983003,-0.0519 1.469306,-0.39839 0.482197,-0.35015 0.448808,-0.98208 -0.01566,-0.29646 -0.155123,-0.56682 -0.143566,-0.27406 -0.432286,-0.55609 z"
         transform="matrix(0.30384799,0,0,0.30384799,10.233884,13.682541)" /><path
         id="path3142"
         style="display:inline;font-size:7.99999px;line-height:1;font-family:monospace;-inkscape-font-specification:'monospace Bold';text-align:center;letter-spacing:0px;white-space:pre;fill:#ffffff;stroke-width:3.29112;stroke-linecap:round;font-weight:bold"
         d="m 611.3846,320.26363 2.32285,0.0796 -0.0391,1.13996 -6.07455,-0.20814 0.0391,-1.13995 0.64806,0.0222 q -0.3724,-0.19646 -0.55366,-0.49581 -0.1814,-0.29545 -0.16789,-0.68975 0.0257,-0.74956 0.64107,-1.14278 0.61539,-0.39322 1.7085,-0.35576 1.10872,0.038 1.68781,0.47604 0.57896,0.44196 0.55234,1.21885 -0.012,0.35135 -0.20503,0.62225 -0.18921,0.27493 -0.5595,0.4733 z m -1.52262,-1.64685 q -0.63244,-0.0217 -0.99883,0.17684 -0.36639,0.1985 -0.37909,0.56938 -0.0127,0.37088 0.3391,0.5979 0.3518,0.22702 0.98424,0.24869 0.63244,0.0217 0.99896,-0.18074 0.36653,-0.20241 0.37923,-0.57329 0.0127,-0.37087 -0.33923,-0.59399 -0.35194,-0.22312 -0.98438,-0.24479 z m 1.0499,-1.83389 q 0.17517,-0.18442 0.2656,-0.43676 0.0904,-0.24844 0.0957,-0.54917 0.006,-0.36322 -0.11759,-0.6389 -0.1202,-0.27171 -0.35972,-0.42442 -0.14675,-0.0964 -0.35696,-0.13917 -0.21028,-0.0389 -0.6399,-0.0465 l -2.0153,-0.0358 0.0203,-1.14435 4.3743,0.0776 -0.0203,1.14435 -0.67958,-0.0121 q 0.37196,0.1746 0.56889,0.5258 0.20083,0.35127 0.19259,0.81604 -0.004,0.23434 -0.0667,0.45592 -0.0587,0.22556 -0.17166,0.42671 z m 0.46603,-6.9575 q 5e-4,-0.41016 -0.3625,-0.64498 -0.35908,-0.23481 -1.00361,-0.2356 -0.64453,-7.9e-4 -1.0081,0.23314 -0.35966,0.23393 -0.36016,0.64409 -5.1e-4,0.41406 0.35858,0.64888 0.36299,0.23482 1.00752,0.2356 0.64453,7.9e-4 1.00419,-0.23314 0.36357,-0.23393 0.36408,-0.64799 z m -1.36471,-2.02511 q 1.05859,0.001 1.67511,0.54893 0.62042,0.55154 0.61928,1.47732 -10e-4,0.92968 -0.6229,1.4758 -0.61786,0.55002 -1.67645,0.54872 -1.05859,-10e-4 -1.67901,-0.55283 -0.61652,-0.54763 -0.61538,-1.47732 10e-4,-0.92578 0.619,-1.4758 0.62176,-0.54612 1.68035,-0.54482 z m -1.9708,-1.0608 q -0.17237,-0.28646 -0.25946,-0.61719 -0.091,-0.33068 -0.0969,-0.71345 -0.0155,-1.0116 0.58512,-1.59116 0.60058,-0.57956 1.67858,-0.59604 1.0819,-0.0165 1.69998,0.54829 0.62199,0.56477 0.63746,1.57637 0.005,0.35152 -0.0717,0.67696 -0.077,0.32934 -0.2439,0.65615 l -1.04676,0.016 q 0.211,-0.25325 0.31967,-0.55573 0.11263,-0.29863 0.10774,-0.61891 -0.009,-0.55853 -0.36857,-0.85384 -0.36002,-0.29531 -1.0162,-0.28528 -0.65617,0.01 -1.00309,0.31616 -0.34692,0.30612 -0.33838,0.86465 0.005,0.33199 0.11885,0.61934 0.11769,0.2873 0.34817,0.54162 z m -0.0848,-4.81937 q -0.17707,-0.28358 -0.26962,-0.61283 -0.0965,-0.32913 -0.10863,-0.71175 -0.0322,-1.0112 0.55877,-1.6006 0.59093,-0.5894 1.66851,-0.62369 1.08148,-0.0344 1.7088,0.52015 0.63123,0.55443 0.6634,1.56563 0.0112,0.35139 -0.0605,0.67805 -0.0716,0.33057 -0.23303,0.66009 l -1.04635,0.0333 q 0.20679,-0.2567 0.31045,-0.56093 0.10769,-0.30045 0.0975,-0.6206 -0.0178,-0.55831 -0.38261,-0.84764 -0.36486,-0.28933 -1.02077,-0.26846 -0.65592,0.0209 -0.99774,0.33268 -0.34182,0.3118 -0.32406,0.87011 0.0106,0.33187 0.12907,0.61731 0.12241,0.28531 0.35706,0.53579 z m 1.59736,-6.31426 q -0.0309,-0.63988 -0.20708,-0.88556 -0.17613,-0.24569 -0.5741,-0.22645 -0.29653,0.0143 -0.46362,0.19841 -0.16708,0.18407 -0.15255,0.4845 0.0219,0.45259 0.3734,0.68588 0.35543,0.23311 0.96799,0.20349 l 0.078,-0.004 z m 0.51787,1.57057 -2.49318,0.12056 -0.0549,-1.13539 0.48771,-0.0236 q -0.29873,-0.19283 -0.47045,-0.50912 -0.17173,-0.31629 -0.1906,-0.70646 -0.036,-0.74522 0.33785,-1.18176 0.37407,-0.43263 1.08028,-0.46678 0.76473,-0.037 1.15155,0.44099 0.39071,0.47778 0.4409,1.51562 l 0.0383,0.79205 0.19118,-0.009 q 0.27702,-0.0134 0.40767,-0.22307 0.13474,-0.20597 0.11588,-0.59614 -0.0198,-0.40968 -0.14384,-0.79085 -0.11993,-0.37746 -0.36642,-0.784 l 0.97542,-0.0472 q 0.17437,0.37091 0.26737,0.7575 0.093,0.38658 0.11413,0.82357 0.0515,1.06516 -0.36083,1.51529 -0.41214,0.45403 -1.52802,0.50799 z m 1.46594,-5.42057 -0.9979,0.0648 q 0.1822,-0.3289 0.26128,-0.67851 0.0832,-0.34596 0.061,-0.68899 -0.0248,-0.382 -0.1505,-0.56957 -0.12179,-0.18781 -0.34008,-0.17364 -0.31185,0.0202 -0.45259,0.86708 l -0.009,0.0436 -0.0567,0.3325 q -0.10764,0.6333 -0.42024,0.94327 -0.30845,0.31361 -0.86977,0.35005 -0.67436,0.0438 -1.04234,-0.37857 -0.36383,-0.41872 -0.42153,-1.30747 -0.0256,-0.3937 0.0178,-0.81145 0.0394,-0.41749 0.14829,-0.85124 l 0.9979,-0.0648 q -0.18985,0.39203 -0.27758,0.78918 -0.0875,0.40104 -0.0637,0.76745 0.0261,0.4015 0.15642,0.6005 0.13035,0.19901 0.35254,0.18458 0.21829,-0.0142 0.32561,-0.16989 0.10758,-0.15182 0.20443,-0.71005 l 0.0497,-0.32029 q 0.10561,-0.66449 0.40187,-0.98514 0.29625,-0.32065 0.82638,-0.35507 0.63149,-0.041 1.01192,0.3923 0.38043,0.43329 0.43409,1.25968 0.024,0.37031 -0.0145,0.74077 -0.0344,0.37411 -0.13274,0.72889 z m -4.30766,-4.11598 q -0.1959,-0.38379 -0.3113,-0.78981 -0.11541,-0.40603 -0.15287,-0.86544 -0.0892,-1.09403 0.44751,-1.72175 0.54091,-0.62414 1.64272,-0.71397 1.06678,-0.087 1.73121,0.4193 0.66443,0.50627 0.74283,1.46792 0.079,0.96944 -0.45368,1.54981 -0.52852,0.58394 -1.57193,0.66901 l -0.46331,0.0378 -0.24092,-2.95503 q -0.5136,0.0458 -0.74223,0.36621 -0.22862,0.32042 -0.18006,0.9161 0.0321,0.39322 0.17608,0.76556 0.14401,0.37234 0.42326,0.76893 z m 2.37408,-1.16552 q 0.45099,-0.0446 0.66228,-0.28915 0.21551,-0.24097 0.17996,-0.67702 -0.0321,-0.39323 -0.29249,-0.60715 -0.25654,-0.21423 -0.69998,-0.22119 z m 3.69034,-0.54779 0.0895,1.09792 -1.5807,-1.31339 -0.0625,-0.76699 z m -3.06114,-4.64486 2.31309,-0.2271 0.11146,1.13516 -6.04903,0.59391 -0.11146,-1.13516 0.64533,-0.0634 q -0.39503,-0.14569 -0.61414,-0.41856 -0.21874,-0.26897 -0.25729,-0.66161 -0.0733,-0.74641 0.48494,-1.21728 0.55822,-0.47086 1.64674,-0.57773 1.10406,-0.1084 1.73581,0.24955 0.63213,0.36184 0.70809,1.13546 0.0344,0.34988 -0.12126,0.64384 -0.15135,0.29746 -0.49228,0.54288 z m -1.7263,-1.43191 q -0.62979,0.0618 -0.96683,0.30687 -0.33704,0.24505 -0.30078,0.61436 0.0363,0.36932 0.41491,0.54802 0.37864,0.1787 1.00843,0.11687 0.62978,-0.0618 0.96644,-0.31077 0.33666,-0.24893 0.3004,-0.61825 -0.0363,-0.36931 -0.41452,-0.54413 -0.37827,-0.17481 -1.00805,-0.11297 z m -0.12837,-7.05961 -2.81554,0.3707 -0.14838,-1.12699 2.64126,-0.34776 q 0.47248,-0.0622 0.65602,-0.22427 0.18793,-0.1587 0.14815,-0.46078 -0.0403,-0.30595 -0.33871,-0.4479 -0.29791,-0.13807 -0.78589,-0.0738 l -2.48248,0.32685 -0.14838,-1.12699 4.33756,-0.5711 0.14838,1.12699 -0.65063,0.0857 q 0.37598,0.0726 0.61174,0.3371 0.23575,0.26445 0.2898,0.67497 0.0811,0.61578 -0.28814,0.98353 -0.36534,0.36724 -1.17476,0.47381 z m -3.2243,-4.31492 q -0.22081,-0.37001 -0.36278,-0.76753 -0.14197,-0.39752 -0.20968,-0.85346 -0.16125,-1.08574 0.33283,-1.74753 0.49852,-0.65851 1.592,-0.8209 1.0587,-0.15723 1.75511,0.30407 0.69641,0.46129 0.83815,1.41567 0.14288,0.9621 -0.35036,1.57638 -0.4888,0.61756 -1.52432,0.77135 l -0.4598,0.0683 -0.43553,-2.93267 q -0.50946,0.0796 -0.71643,0.41442 -0.20696,0.33482 -0.11917,0.92599 0.058,0.39025 0.22625,0.75227 0.16829,0.36202 0.47311,0.7393 z m 2.29193,-1.31975 q 0.44706,-0.0743 0.64174,-0.33225 0.19913,-0.25467 0.13486,-0.68742 -0.058,-0.39025 -0.33195,-0.58651 -0.27012,-0.19683 -0.71305,-0.17449 z m 1.2222,-10.75364 -1.22201,0.22298 0.26856,1.47179 -0.86463,0.15776 -0.26856,-1.47179 -2.03668,0.37164 q -0.28821,0.0526 -0.38978,0.21407 -0.097,0.16462 -0.0374,0.49125 l 0.15777,0.86463 -0.86463,0.15777 -0.17249,-0.94533 q -0.1767,-0.96838 0.0683,-1.36648 0.24886,-0.39881 1.08659,-0.55167 l 1.98289,-0.36182 -0.20055,-1.09903 0.86463,-0.15777 0.20054,1.09904 1.22201,-0.22298 z m -3.34877,-2.8198 -2.78491,0.55587 -0.2225,-1.11473 2.61253,-0.52146 q 0.46734,-0.0933 0.63977,-0.26711 0.17703,-0.17077 0.11739,-0.46956 -0.0604,-0.30263 -0.36755,-0.42455 -0.30639,-0.11809 -0.78905,-0.0217 l -2.45547,0.4901 -0.2225,-1.11472 4.29037,-0.85636 0.2225,1.11473 -0.64356,0.12845 q 0.37996,0.0476 0.63267,0.29595 0.25271,0.24831 0.33376,0.65436 0.12157,0.60908 -0.22255,1.00041 -0.34029,0.39057 -1.1409,0.55037 z m -3.50229,-4.09249 q -0.24477,-0.35462 -0.41268,-0.74189 -0.16792,-0.38727 -0.2656,-0.83774 -0.23261,-1.07273 0.21667,-1.76571 0.45393,-0.68999 1.53429,-0.92426 1.046,-0.22682 1.77137,0.18747 0.72536,0.41428 0.92983,1.35721 0.20612,0.95056 -0.24546,1.59608 -0.44694,0.64851 -1.47004,0.87036 l -0.45428,0.0985 -0.62831,-2.8975 q -0.50308,0.11308 -0.68748,0.46084 -0.1844,0.34776 -0.0578,0.93184 0.0836,0.38557 0.27545,0.73568 0.19183,0.35011 0.52091,0.70643 z m 2.19975,-1.46826 q 0.44118,-0.10366 0.6184,-0.37392 0.18186,-0.26726 0.0891,-0.69483 -0.0836,-0.38557 -0.36996,-0.56329 -0.28254,-0.17856 -0.72303,-0.12701 z m 0.0281,-5.65634 q 0.29943,0.0623 0.47417,0.22594 0.17475,0.16369 0.24067,0.44513 0.12916,0.55148 -0.20218,0.84974 -0.33045,0.30207 -1.5323,0.58356 l -2.39989,0.56208 -0.21379,-0.9128 2.73459,-0.64047 q 0.47541,-0.11135 0.61823,-0.22102 0.14281,-0.10968 0.0983,-0.29985 -0.0445,-0.19016 -0.2259,-0.22792 -0.18135,-0.0378 -0.64916,0.0718 l -2.73459,0.64047 -0.21112,-0.90138 2.73459,-0.64048 q 0.46781,-0.10956 0.61354,-0.22393 0.14572,-0.11437 0.10118,-0.30454 -0.0445,-0.19017 -0.2212,-0.22502 -0.17666,-0.0349 -0.65208,0.0765 l -2.73459,0.64048 -0.21379,-0.9128 4.25972,-0.99768 0.18974,0.81011 -0.44118,0.10333 q 0.27329,0.0363 0.4668,0.21162 0.19733,0.17444 0.2579,0.43307 0.0606,0.25863 -0.0455,0.50813 -0.10225,0.24862 -0.31215,0.34593 z m -4.36499,-2.27525 q -0.25636,-0.34633 -0.43698,-0.72785 -0.18062,-0.38151 -0.29314,-0.8285 -0.26794,-1.06445 0.1582,-1.7719 0.43088,-0.70462 1.50291,-0.97447 1.03793,-0.26126 1.77659,0.12882 0.73866,0.39009 0.97418,1.32575 0.23742,0.94323 -0.19258,1.60332 -0.42526,0.66292 -1.44047,0.91846 l -0.45078,0.11347 -0.72372,-2.87515 q -0.49907,0.12965 -0.67188,0.48331 -0.1728,0.35366 -0.0269,0.93324 0.0963,0.38259 0.2996,0.72617 0.2033,0.34358 0.54398,0.68884 z m 2.15002,-1.54016 q 0.43751,-0.11818 0.6057,-0.39415 0.17294,-0.27313 0.0661,-0.69739 -0.0963,-0.3826 -0.38837,-0.55077 -0.28829,-0.16912 -0.72683,-0.10304 z m 1.463,-6.09099 -1.19943,0.32309 0.38912,1.4446 -0.84865,0.2286 -0.38913,-1.4446 -1.99905,0.53847 q -0.28289,0.0762 -0.37078,0.24551 -0.0831,0.17207 0.003,0.49267 l 0.2286,0.84866 -0.84866,0.2286 -0.24993,-0.92787 q -0.25603,-0.95049 -0.0447,-1.36746 0.21509,-0.41799 1.03735,-0.63947 l 1.94625,-0.52425 -0.29058,-1.07874 0.84866,-0.2286 0.29057,1.07874 1.19944,-0.32309 z m -6.05964,-1.69278 q -0.26767,-0.33768 -0.4608,-0.71301 -0.19313,-0.37534 -0.32035,-0.81837 -0.30297,-1.05501 0.0996,-1.77616 0.40736,-0.71847 1.46989,-1.0236 1.02873,-0.29542 1.77988,0.07 0.75114,0.36547 1.01745,1.29283 0.26847,0.93487 -0.13949,1.60881 -0.40312,0.67661 -1.40933,0.96556 l -0.44678,0.12831 -0.81834,-2.84967 q -0.49452,0.14607 -0.65554,0.50525 -0.16102,0.35918 0.004,0.93362 0.1089,0.3792 0.32344,0.71588 0.21454,0.33667 0.56644,0.67048 z m 2.09794,-1.61037 q 0.43337,-0.13258 0.59235,-0.41395 0.16382,-0.2787 0.0431,-0.6992 -0.1089,-0.37921 -0.40637,-0.53763 -0.29371,-0.1595 -0.72983,-0.079 z m 3.21793,-2.28151 -1.10656,1.46792 -0.21241,-0.73964 1.01493,-1.78705 z m -5.93029,-3.87968 3.22806,-0.98501 -0.3386,-1.10965 0.84064,-0.25651 0.67264,2.20434 -4.0687,1.24153 q -0.49317,0.15049 -0.65192,0.36637 -0.15875,0.21589 -0.047,0.58204 l 0.26677,0.87426 -0.84064,0.25652 -0.36026,-1.18064 q -0.23827,-0.78086 0.0615,-1.24398 0.29976,-0.46311 1.23754,-0.74927 z m -2.54918,-4.04341 -2.17064,0.70175 -0.35087,-1.08531 5.74622,-1.85772 0.35088,1.08532 -0.62443,0.20187 q 0.41581,0.0544 0.68806,0.2743 0.27224,0.21988 0.39361,0.59528 0.23071,0.71364 -0.21431,1.29267 -0.44502,0.57904 -1.48574,0.91549 -1.05558,0.34126 -1.75031,0.12249 -0.69353,-0.21505 -0.93266,-0.9547 -0.10814,-0.33452 -0.0237,-0.6574 0.0894,-0.32038 0.37387,-0.63404 z m 1.98814,1.03222 q 0.60213,-0.19467 0.87919,-0.50593 0.27706,-0.31125 0.16291,-0.66435 -0.11416,-0.3531 -0.5222,-0.44698 -0.40803,-0.0939 -1.01016,0.10079 -0.60213,0.19466 -0.87799,0.50964 -0.27586,0.31497 -0.1617,0.66807 0.11415,0.3531 0.52099,0.44326 0.40684,0.0902 1.00896,-0.1045 z m -0.0662,-5.76542 q 0.30413,0.0323 0.49421,0.17791 0.19009,0.14558 0.28354,0.41912 0.18311,0.53599 -0.11708,0.86558 -0.29893,0.33329 -1.46702,0.73235 l -2.33248,0.79685 -0.30308,-0.88716 2.65777,-0.90798 q 0.46206,-0.15786 0.59332,-0.28113 0.13126,-0.12327 0.0681,-0.3081 -0.0631,-0.18482 -0.24735,-0.20445 -0.18421,-0.0196 -0.63888,0.13571 l -2.65777,0.90798 -0.29929,-0.87607 2.65777,-0.90798 q 0.45467,-0.15533 0.58836,-0.28356 0.13369,-0.12823 0.0706,-0.31306 -0.0631,-0.18482 -0.24239,-0.20202 -0.17924,-0.0172 -0.64131,0.14067 l -2.65777,0.90798 -0.30308,-0.88716 4.14006,-1.41438 0.26899,0.78735 -0.42879,0.14649 q 0.27553,0.009 0.48546,0.16438 0.21362,0.15406 0.29949,0.40542 0.0859,0.25136 0.005,0.51014 -0.0771,0.25752 -0.27639,0.37512 z m -2.07352,-4.74862 q -0.13899,-0.38589 -0.5602,-0.48329 -0.41753,-0.0987 -1.02393,0.11968 -0.6064,0.21841 -0.86876,0.56202 -0.25869,0.34229 -0.1197,0.72818 0.14031,0.38956 0.55784,0.48829 0.42121,0.0974 1.02761,-0.12101 0.60639,-0.21841 0.86508,-0.56069 0.26237,-0.34361 0.12206,-0.73318 z m -1.97197,-1.44042 q 0.99596,-0.35872 1.76194,-0.0533 0.77099,0.30773 1.08471,1.17873 0.31504,0.87468 -0.084,1.59967 -0.39403,0.72734 -1.38999,1.08606 -0.99596,0.35872 -1.76695,0.051 -0.76599,-0.30537 -1.08103,-1.18005 -0.31371,-0.87101 0.0803,-1.59834 0.39903,-0.72499 1.39499,-1.08371 z m -2.23744,-0.23498 q -0.22839,-0.20587 -0.40072,-0.46222 -0.17233,-0.25635 -0.28998,-0.56683 -0.41802,-1.10315 0.0888,-1.95939 0.50682,-0.85624 1.88027,-1.37668 1.3771,-0.52183 2.32409,-0.21649 0.94698,0.30534 1.365,1.40848 0.11765,0.31049 0.15987,0.62032 0.0422,0.30984 0.005,0.60805 l -1.19812,0.45401 q 0.1505,-0.3745 0.16773,-0.6818 0.0223,-0.30502 -0.0829,-0.58263 -0.22423,-0.59175 -0.81033,-0.71638 -0.58106,-0.12235 -1.50521,0.22784 -0.9205,0.34881 -1.27821,0.8269 -0.35267,0.48035 -0.12844,1.0721 0.1052,0.27761 0.32036,0.49267 0.22021,0.21732 0.5811,0.39804 z"
         transform="matrix(0.30384799,0,0,0.30384799,10.233884,13.682541)" /><path
         id="path1522"
         style="display:inline;font-size:8px;line-height:1;font-family:monospace;-inkscape-font-specification:'monospace Bold';text-align:center;letter-spacing:0px;white-space:pre;fill:#ffffff;stroke-linecap:round;font-weight:bold"
         d="m 91.085498,115.64139 -1.765589,-1.51152 0.741787,-0.86647 4.617239,3.95281 -0.741787,0.86647 -0.492584,-0.4217 q 0.168438,0.38588 0.123312,0.73292 -0.04259,0.34406 -0.299162,0.64376 -0.48775,0.56974 -1.214005,0.49307 -0.726255,-0.0767 -1.557121,-0.78798 -0.842735,-0.72146 -1.021958,-1.42511 -0.176682,-0.70661 0.328851,-1.29712 0.228633,-0.26706 0.548466,-0.35835 0.319406,-0.0968 0.732551,-0.0208 z m 0.162352,2.237 q 0.480715,0.41154 0.890894,0.48501 0.410178,0.0735 0.651513,-0.20842 0.241335,-0.2819 0.108056,-0.67882 -0.133279,-0.39692 -0.613994,-0.80846 -0.480715,-0.41154 -0.893434,-0.48205 -0.412719,-0.0705 -0.654054,0.21139 -0.241334,0.28191 -0.105515,0.67586 0.135819,0.39395 0.616534,0.80549 z m -1.964867,0.77836 q -0.251958,0.0348 -0.480054,0.17565 -0.225605,0.1378 -0.417387,0.36951 -0.231632,0.27985 -0.306674,0.57269 -0.07556,0.28734 0.01636,0.55611 0.05457,0.16687 0.192165,0.33145 0.140082,0.16158 0.471095,0.43556 l 1.552755,1.28518 -0.729766,0.8817 -3.370319,-2.78955 0.729765,-0.8817 0.523603,0.43338 q -0.181785,-0.3685 -0.116595,-0.76584 0.06218,-0.39982 0.35857,-0.75792 0.14944,-0.18055 0.336547,-0.31471 0.186587,-0.13967 0.40036,-0.22641 z m -4.704608,5.1473 q -0.256233,0.32027 -0.118984,0.73023 0.134198,0.40752 0.63748,0.81017 0.503281,0.40266 0.933367,0.44659 0.427036,0.0415 0.683269,-0.27877 0.258674,-0.32332 0.124475,-0.73084 -0.137248,-0.40996 -0.64053,-0.81261 -0.503281,-0.40265 -0.930317,-0.44415 -0.430086,-0.0439 -0.68876,0.27938 z m -0.196517,2.43411 q -0.826601,-0.66133 -0.966887,-1.47392 -0.140895,-0.81809 0.437459,-1.54098 0.580795,-0.72595 1.407419,-0.76496 0.826015,-0.0445 1.652616,0.61681 0.826601,0.66133 0.967497,1.47942 0.140285,0.81259 -0.44051,1.53854 -0.578354,0.72289 -1.404368,0.7674 -0.826625,0.039 -1.653226,-0.62231 z m 0.878637,2.0586 q -0.04393,0.33142 -0.182126,0.64427 -0.135107,0.31524 -0.369262,0.61809 -0.618837,0.80038 -1.449765,0.87883 -0.830927,0.0785 -1.683846,-0.58101 -0.85601,-0.66185 -0.986862,-1.48885 -0.133943,-0.8294 0.484894,-1.62979 0.21504,-0.27812 0.478251,-0.48444 0.2656,-0.20941 0.599887,-0.36077 l 0.828197,0.64034 q -0.322883,0.0664 -0.59648,0.23503 -0.274298,0.16318 -0.470223,0.41658 -0.341675,0.44191 -0.244438,0.8973 0.09724,0.45538 0.616406,0.85679 0.519168,0.4014 0.981273,0.37849 0.462104,-0.0229 0.803779,-0.46482 0.203093,-0.26268 0.293376,-0.55826 0.08719,-0.29797 0.06565,-0.64051 z m -2.9394,3.82002 q -0.03843,0.3321 -0.171414,0.6472 -0.129859,0.31744 -0.358959,0.62413 -0.605476,0.81054 -1.434988,0.90275 -0.829512,0.0922 -1.693252,-0.553 -0.86687,-0.64755 -1.011422,-1.47228 -0.147682,-0.82706 0.457795,-1.6376 0.210397,-0.28165 0.470149,-0.49231 0.262091,-0.21378 0.593821,-0.37067 l 0.838704,0.62652 q -0.321738,0.0717 -0.592499,0.24489 -0.271554,0.1677 -0.463249,0.42432 -0.334298,0.44752 -0.229521,0.90123 0.104778,0.4537 0.630533,0.84644 0.525754,0.39275 0.987415,0.36217 0.461661,-0.0306 0.795959,-0.47809 0.198709,-0.26601 0.284076,-0.56305 0.08224,-0.29937 0.05502,-0.64151 z m -5.186479,3.93993 q -0.374836,0.51952 -0.390351,0.82142 -0.01552,0.3019 0.307599,0.53503 0.240752,0.1737 0.486154,0.134 0.245401,-0.0397 0.421391,-0.28362 0.265128,-0.36746 0.135807,-0.76904 -0.132488,-0.40387 -0.629831,-0.76271 l -0.06336,-0.0457 z m 0.574557,-1.55073 2.024219,1.46049 -0.665105,0.92182 -0.395974,-0.28569 q 0.113281,0.33702 0.05029,0.69137 -0.06299,0.35435 -0.29155,0.67113 -0.436546,0.60505 -1.00105,0.71316 -0.562219,0.10494 -1.135589,-0.30875 -0.620887,-0.44797 -0.625223,-1.06284 -0.0075,-0.61716 0.600462,-1.45979 l 0.463973,-0.64306 -0.155222,-0.11199 q -0.224913,-0.16228 -0.457804,-0.0798 -0.233773,0.077 -0.462331,0.39377 -0.239986,0.33262 -0.380728,0.70794 -0.141625,0.36987 -0.20245,0.84139 l -0.791948,-0.5714 q 0.09499,-0.39869 0.26336,-0.7589 0.16837,-0.36021 0.424356,-0.715 0.623964,-0.8648 1.227003,-0.95956 0.605324,-0.0979 1.511312,0.55575 z m -6.387802,3.20753 1.778867,1.23924 -0.571614,0.82052 -1.778867,-1.23924 z m -0.952205,5.05319 -1.928755,-1.29688 0.636452,-0.94655 5.043938,3.3915 -0.636452,0.94655 -0.538107,-0.36182 q 0.211993,0.36378 0.20736,0.7137 -0.0025,0.34668 -0.222597,0.67409 -0.418489,0.62238 -1.148737,0.63033 -0.730248,0.008 -1.637897,-0.60235 -0.920616,-0.61901 -1.180119,-1.29717 -0.257324,-0.68139 0.176422,-1.32647 0.196167,-0.29175 0.503276,-0.41946 0.306047,-0.13313 0.725216,-0.10547 z m 0.42032,2.20314 q 0.52514,0.3531 0.941067,0.37858 0.415928,0.0255 0.622993,-0.28247 0.207065,-0.30795 0.02872,-0.68677 -0.178348,-0.37881 -0.703488,-0.73191 -0.52514,-0.3531 -0.943248,-0.37534 -0.418107,-0.0222 -0.625172,0.28571 -0.207065,0.30796 -0.02654,0.68353 0.180528,0.37557 0.705668,0.72867 z m -5.168378,9.23987 -2.414172,-1.51027 0.607009,-0.9703 2.265149,1.41704 q 0.400706,0.25068 0.643349,0.24581 0.242642,-0.005 0.406306,-0.26649 0.163665,-0.26161 0.02301,-0.55234 -0.138587,-0.29405 -0.555851,-0.55508 l -2.129373,-1.33211 0.607009,-0.9703 3.709016,2.32031 -0.607009,0.9703 -0.549729,-0.3439 q 0.243758,0.29533 0.257273,0.64936 0.01559,0.35071 -0.201942,0.69843 -0.331472,0.52986 -0.852383,0.58181 -0.51884,0.0486 -1.207658,-0.38227 z m 0.515179,1.66718 q -0.06524,0.42592 -0.208805,0.82287 -0.143561,0.39695 -0.381576,0.79168 -0.566797,0.93999 -1.369117,1.13586 -0.803649,0.19051 -1.750334,-0.38032 -0.916578,-0.55268 -1.16002,-1.35175 -0.243442,-0.79908 0.254775,-1.62534 0.502251,-0.83295 1.273676,-0.99271 0.770097,-0.16512 1.666605,0.37545 l 0.398076,0.24003 -1.530958,2.53899 q 0.44358,0.26291 0.816331,0.13644 0.372751,-0.12647 0.681363,-0.63828 0.203725,-0.33786 0.304388,-0.72418 0.100663,-0.38633 0.105743,-0.87134 z m -2.607696,-0.44116 q -0.392074,-0.22729 -0.70643,-0.15227 -0.315684,0.0696 -0.541596,0.44431 -0.203724,0.33786 -0.117347,0.66363 0.08303,0.32375 0.438848,0.58848 z m -1.516971,6.60063 1.972605,1.14583 -0.572917,0.9863 -5.221998,-3.03331 0.572916,-0.98631 0.567462,0.32963 q -0.237388,-0.3457 -0.255745,-0.69517 -0.01836,-0.34947 0.17981,-0.69062 0.376712,-0.64853 1.104861,-0.70442 0.72815,-0.0559 1.67392,0.49349 0.95928,0.55722 1.260797,1.22024 0.30348,0.65965 -0.08697,1.33183 -0.176583,0.30399 -0.473227,0.45694 -0.298059,0.1476 -0.721517,0.14557 z m -0.56072,-2.16883 q -0.547195,-0.31785 -0.963898,-0.31596 -0.416703,0.002 -0.603097,0.32278 -0.186394,0.32089 0.01645,0.68717 0.202841,0.36628 0.750036,0.68414 0.547195,0.31785 0.96586,0.31258 0.418665,-0.005 0.605059,-0.32616 0.186394,-0.32088 -0.01841,-0.68379 -0.204803,-0.36291 -0.751998,-0.68076 z m -4.924335,7.38724 2.500812,1.34561 -0.538612,1.00101 -2.346016,-1.26232 q -0.419669,-0.22581 -0.663326,-0.20166 -0.245245,0.0189 -0.389616,0.28718 -0.146221,0.27175 0.01287,0.5614 0.160943,0.28621 0.594371,0.51942 l 2.204981,1.18643 -0.538612,1.00101 -3.852696,-2.07301 0.538612,-1.00101 0.577904,0.31095 q -0.262533,-0.27877 -0.299151,-0.63116 -0.03662,-0.35239 0.159578,-0.71702 0.294293,-0.54694 0.808846,-0.62938 0.511113,-0.0843 1.230055,0.30255 z m -3.415966,7.95092 -3.268249,-1.69075 0.529483,-1.0235 3.52499,1.82358 q 0.388582,0.20102 0.712935,0.11813 0.320884,-0.0847 0.502164,-0.4351 0.181281,-0.35042 0.06501,-0.66125 -0.119739,-0.31264 -0.508321,-0.51366 l -3.524991,-1.82357 0.529483,-1.0235 3.268249,1.69076 q 1.054721,0.54563 1.316332,1.21313 0.261611,0.6675 -0.219411,1.59732 -0.479226,0.92635 -1.176987,1.10193 -0.695965,0.17212 -1.750687,-0.37352 z"
         transform="matrix(0.30384799,0,0,0.30384799,10.233884,13.682541)" /><path
         id="path1671"
         style="display:inline;font-size:8px;line-height:1;font-family:monospace;-inkscape-font-specification:'monospace Bold';text-align:center;letter-spacing:0px;white-space:pre;shape-inside:url(#rect927);fill:#ffffff;stroke-linecap:round;font-weight:bold"
         d="m 293.73926,472.42578 v 1 q -0.31641,-0.20312 -0.66016,-0.30469 -0.33984,-0.10547 -0.68359,-0.10547 -0.38281,0 -0.57813,0.11329 -0.19531,0.10937 -0.19531,0.32812 0,0.3125 0.83594,0.50781 l 0.043,0.0117 0.32812,0.0781 q 0.625,0.14843 0.91406,0.48047 0.29297,0.32812 0.29297,0.89062 0,0.67578 -0.44531,1.01563 -0.44141,0.33593 -1.33203,0.33593 -0.39453,0 -0.80859,-0.0703 -0.41407,-0.0664 -0.83985,-0.20312 v -1 q 0.37891,0.21484 0.76953,0.32812 0.39453,0.11328 0.76172,0.11328 0.40235,0 0.60938,-0.11719 0.20703,-0.11718 0.20703,-0.33984 0,-0.21875 -0.14844,-0.33594 -0.14453,-0.11718 -0.69531,-0.25 l -0.31641,-0.0703 q -0.65625,-0.14844 -0.95703,-0.46484 -0.30078,-0.31641 -0.30078,-0.84766 0,-0.63281 0.45703,-0.98437 0.45703,-0.35157 1.28516,-0.35157 0.37109,0 0.73828,0.0625 0.37109,0.0586 0.71875,0.17969 z m -7.82422,-0.13672 h 2.26562 v 3.4961 h 1.42188 v 0.8789 h -3.99219 v -0.8789 h 1.42578 v -2.61719 h -1.12109 z m 1.12109,-2.1289 h 1.14453 v 1.33593 h -1.14453 z m -2.29687,2.1289 -1.39063,4.375 h -1.41015 l -1.39063,-4.375 h 1.16016 l 0.93359,3.41406 0.9375,-3.41406 z m -6.58594,2.32031 q -0.64062,0 -0.89453,0.16407 -0.25391,0.16406 -0.25391,0.5625 0,0.29687 0.17578,0.47265 0.17579,0.17578 0.47657,0.17578 0.45312,0 0.70312,-0.33984 0.25,-0.34375 0.25,-0.95703 v -0.0781 z m 1.59375,-0.4414 v 2.49609 h -1.13672 v -0.48828 q -0.20703,0.28906 -0.53125,0.44531 -0.32422,0.15625 -0.71484,0.15625 -0.7461,0 -1.16406,-0.39453 -0.41407,-0.39453 -0.41407,-1.10156 0,-0.76563 0.4961,-1.12891 0.49609,-0.36718 1.53515,-0.36718 h 0.79297 v -0.19141 q 0,-0.27734 -0.20312,-0.41797 -0.19922,-0.14453 -0.58985,-0.14453 -0.41015,0 -0.79687,0.10547 -0.38281,0.10156 -0.80078,0.32812 v -0.97656 q 0.3789,-0.15625 0.76953,-0.23047 0.39062,-0.0742 0.82812,-0.0742 1.06641,0 1.4961,0.4336 0.43359,0.43359 0.43359,1.55078 z m -10.08984,-1.74219 v 1 q -0.31641,-0.20312 -0.66016,-0.30469 -0.33984,-0.10547 -0.68359,-0.10547 -0.38282,0 -0.57813,0.11329 -0.19531,0.10937 -0.19531,0.32812 0,0.3125 0.83594,0.50781 l 0.043,0.0117 0.32812,0.0781 q 0.625,0.14843 0.91406,0.48047 0.29297,0.32812 0.29297,0.89062 0,0.67578 -0.44531,1.01563 -0.44141,0.33593 -1.33203,0.33593 -0.39453,0 -0.8086,-0.0703 -0.41406,-0.0664 -0.83984,-0.20312 v -1 q 0.37891,0.21484 0.76953,0.32812 0.39453,0.11328 0.76172,0.11328 0.40234,0 0.60938,-0.11719 0.20703,-0.11718 0.20703,-0.33984 0,-0.21875 -0.14844,-0.33594 -0.14453,-0.11718 -0.69531,-0.25 l -0.31641,-0.0703 q -0.65625,-0.14844 -0.95703,-0.46484 -0.30078,-0.31641 -0.30078,-0.84766 0,-0.63281 0.45703,-0.98437 0.45703,-0.35157 1.28516,-0.35157 0.37109,0 0.73828,0.0625 0.37109,0.0586 0.71875,0.17969 z m -4.50391,1.39844 v 2.83984 H 264.0166 V 474 q 0,-0.47656 -0.13672,-0.67969 -0.13281,-0.20703 -0.4375,-0.20703 -0.30859,0 -0.48828,0.27734 -0.17578,0.27735 -0.17578,0.76954 v 2.5039 h -1.13672 v -4.375 h 1.13672 v 0.65625 q 0.12109,-0.36328 0.41406,-0.5625 0.29297,-0.19922 0.70703,-0.19922 0.6211,0 0.9375,0.41407 0.31641,0.41015 0.31641,1.22656 z m -6.26562,0.78515 q -0.64063,0 -0.89454,0.16407 -0.2539,0.16406 -0.2539,0.5625 0,0.29687 0.17578,0.47265 0.17578,0.17578 0.47656,0.17578 0.45313,0 0.70313,-0.33984 0.25,-0.34375 0.25,-0.95703 v -0.0781 z m 1.59375,-0.4414 v 2.49609 h -1.13672 v -0.48828 q -0.20703,0.28906 -0.53125,0.44531 -0.32422,0.15625 -0.71485,0.15625 -0.74609,0 -1.16406,-0.39453 -0.41406,-0.39453 -0.41406,-1.10156 0,-0.76563 0.49609,-1.12891 0.4961,-0.36718 1.53516,-0.36718 h 0.79297 v -0.19141 q 0,-0.27734 -0.20313,-0.41797 -0.19922,-0.14453 -0.58984,-0.14453 -0.41016,0 -0.79688,0.10547 -0.38281,0.10156 -0.80078,0.32812 v -0.97656 q 0.37891,-0.15625 0.76953,-0.23047 0.39063,-0.0742 0.82813,-0.0742 1.0664,0 1.49609,0.4336 0.4336,0.43359 0.4336,1.55078 z m -5.27344,-1.74219 v 1 q -0.31641,-0.20312 -0.66016,-0.30469 -0.33984,-0.10547 -0.68359,-0.10547 -0.38281,0 -0.57813,0.11329 -0.19531,0.10937 -0.19531,0.32812 0,0.3125 0.83594,0.50781 l 0.043,0.0117 0.32812,0.0781 q 0.625,0.14843 0.91406,0.48047 0.29297,0.32812 0.29297,0.89062 0,0.67578 -0.44531,1.01563 -0.44141,0.33593 -1.33203,0.33593 -0.39453,0 -0.80859,-0.0703 -0.41407,-0.0664 -0.83985,-0.20312 v -1 q 0.37891,0.21484 0.76953,0.32812 0.39453,0.11328 0.76172,0.11328 0.40235,0 0.60938,-0.11719 0.20703,-0.11718 0.20703,-0.33984 0,-0.21875 -0.14844,-0.33594 -0.14453,-0.11718 -0.69531,-0.25 l -0.31641,-0.0703 q -0.65625,-0.14844 -0.95703,-0.46484 -0.30078,-0.31641 -0.30078,-0.84766 0,-0.63281 0.45703,-0.98437 0.45703,-0.35157 1.28516,-0.35157 0.37109,0 0.73828,0.0625 0.37109,0.0586 0.71875,0.17969 z m -12.87891,2.71094 v -2.84766 h 1.14453 v 2.67188 q 0,0.47265 0.13282,0.67578 0.13281,0.20312 0.4414,0.20312 0.3086,0 0.48047,-0.27343 0.17578,-0.27344 0.17578,-0.76563 v -2.51172 h 1.14453 v 4.375 h -1.14453 v -0.64844 q -0.12109,0.36329 -0.41406,0.5625 -0.28906,0.19922 -0.69922,0.19922 -0.625,0 -0.94531,-0.41406 -0.31641,-0.41406 -0.31641,-1.22656 z m -3.03515,-2.02344 q -0.41016,0 -0.64454,0.36328 -0.23437,0.35938 -0.23437,1.00391 0,0.64453 0.23437,1.00781 0.23438,0.35938 0.64454,0.35938 0.41406,0 0.64843,-0.35938 0.23438,-0.36328 0.23438,-1.00781 0,-0.64453 -0.23438,-1.00391 -0.23437,-0.36328 -0.64843,-0.36328 z m -2.02344,1.36719 q 0,-1.0586 0.54687,-1.67578 0.55078,-0.6211 1.47657,-0.6211 0.92968,0 1.47656,0.6211 0.55078,0.61718 0.55078,1.67578 0,1.05859 -0.55078,1.67969 -0.54688,0.61718 -1.47656,0.61718 -0.92579,0 -1.47657,-0.61718 -0.54687,-0.6211 -0.54687,-1.67969 z m -7.32031,-3.4336 v 1.24219 h 1.49609 v 0.87891 h -1.49609 v 2.07031 q 0,0.29297 0.14062,0.42188 0.14453,0.125 0.47656,0.125 h 0.87891 v 0.8789 h -0.96094 q -0.98437,0 -1.33203,-0.3125 -0.34766,-0.3164 -0.34766,-1.16797 v -2.01562 h -1.11718 v -0.87891 h 1.11718 v -1.24219 z m -3.32813,2.77735 v 2.83984 h -1.13672 V 474 q 0,-0.47656 -0.13672,-0.67969 -0.13281,-0.20703 -0.4375,-0.20703 -0.30859,0 -0.48828,0.27734 -0.17578,0.27735 -0.17578,0.76954 v 2.5039 h -1.13672 v -4.375 h 1.13672 v 0.65625 q 0.12109,-0.36328 0.41406,-0.5625 0.29297,-0.19922 0.70703,-0.19922 0.6211,0 0.9375,0.41407 0.31641,0.41015 0.31641,1.22656 z m -4.69531,2.625 q -0.39844,0.16406 -0.8125,0.24609 -0.41406,0.082 -0.875,0.082 -1.09766,0 -1.67969,-0.58593 -0.57812,-0.58985 -0.57812,-1.69532 0,-1.07031 0.55859,-1.6914 0.55859,-0.6211 1.52344,-0.6211 0.97265,0 1.50781,0.57813 0.53906,0.57422 0.53906,1.62109 v 0.46485 h -2.96484 q 0.004,0.51562 0.30469,0.76953 0.30078,0.2539 0.89843,0.2539 0.39453,0 0.77735,-0.11328 0.38281,-0.11328 0.80078,-0.35937 z m -0.96875,-2.46094 q -0.008,-0.45312 -0.23438,-0.68359 -0.22265,-0.23438 -0.66015,-0.23438 -0.39453,0 -0.62891,0.24219 -0.23437,0.23828 -0.27734,0.67969 z m -3.65625,-0.49219 q -0.1875,-0.17187 -0.44141,-0.25781 -0.25,-0.0859 -0.55078,-0.0859 -0.36328,0 -0.63672,0.12891 -0.26953,0.125 -0.41797,0.36719 -0.0937,0.14843 -0.13281,0.35937 -0.0352,0.21094 -0.0352,0.64063 v 2.01562 h -1.14453 v -4.375 h 1.14453 v 0.67969 q 0.16797,-0.375 0.51563,-0.57813 0.34766,-0.20703 0.8125,-0.20703 0.23437,0 0.45703,0.0586 0.22656,0.0547 0.42969,0.16406 z m -5.00781,2.95313 q -0.39844,0.16406 -0.8125,0.24609 -0.41407,0.082 -0.875,0.082 -1.09766,0 -1.67969,-0.58593 -0.57813,-0.58985 -0.57813,-1.69532 0,-1.07031 0.5586,-1.6914 0.55859,-0.6211 1.52343,-0.6211 0.97266,0 1.50782,0.57813 0.53906,0.57422 0.53906,1.62109 v 0.46485 h -2.96484 q 0.004,0.51562 0.30468,0.76953 0.30078,0.2539 0.89844,0.2539 0.39453,0 0.77734,-0.11328 0.38282,-0.11328 0.80079,-0.35937 z m -0.96875,-2.46094 q -0.008,-0.45312 -0.23438,-0.68359 -0.22266,-0.23438 -0.66016,-0.23438 -0.39453,0 -0.6289,0.24219 -0.23438,0.23828 -0.27735,0.67969 z m -0.2461,-3.72266 h 1.10156 l -1.4375,1.46875 h -0.76953 z m -5.01953,1.64063 v 0.38281 h 1.34375 v 0.87891 h -1.34375 v 3.49609 h -1.14453 v -3.49609 h -1.0625 v -0.87891 h 1.0625 v -0.30469 q 0,-0.78906 0.32812,-1.09375 0.32813,-0.30468 1.21875,-0.30468 h 0.94141 v 0.8789 h -0.89453 q -0.25781,0 -0.35156,0.0937 -0.0898,0.0937 -0.0977,0.34766 z m -4.81641,0 v 0.38281 h 1.34375 v 0.87891 h -1.34375 v 3.49609 h -1.14453 v -3.49609 h -1.0625 v -0.87891 h 1.0625 v -0.30469 q 0,-0.78906 0.32813,-1.09375 0.32812,-0.30468 1.21875,-0.30468 h 0.9414 v 0.8789 h -0.89453 q -0.25781,0 -0.35156,0.0937 -0.0898,0.0937 -0.0977,0.34766 z m -6.83984,0.38281 h 2.26563 v 3.4961 h 1.42187 v 0.8789 h -3.99219 v -0.8789 h 1.42578 v -2.61719 h -1.12109 z m 1.12109,-2.1289 h 1.14454 v 1.33593 h -1.14454 z m -3.71093,2.75 v -2.32422 h 1.14062 v 6.07812 h -1.14062 v -0.64844 q -0.1836,0.37891 -0.47657,0.57032 -0.28906,0.1914 -0.68359,0.1914 -0.75,0 -1.16406,-0.60156 -0.41406,-0.60156 -0.41406,-1.69531 0,-1.10938 0.41796,-1.70313 0.42188,-0.59375 1.19922,-0.59375 0.35157,0 0.62891,0.1836 0.28125,0.17968 0.49219,0.54297 z m -1.59375,1.57812 q 0,0.63281 0.21093,0.99219 0.21094,0.35937 0.58204,0.35937 0.37109,0 0.58593,-0.35937 0.21485,-0.35938 0.21485,-0.99219 0,-0.63281 -0.21485,-0.99219 -0.21484,-0.35937 -0.58593,-0.35937 -0.3711,0 -0.58204,0.35937 -0.21093,0.35938 -0.21093,0.99219 z m -2.12891,-0.66406 v 2.83984 H 186.9541 V 474 q 0,-0.47656 -0.13672,-0.67969 -0.13281,-0.20703 -0.4375,-0.20703 -0.30859,0 -0.48828,0.27734 -0.17578,0.27735 -0.17578,0.76954 v 2.5039 h -1.13672 v -4.375 h 1.13672 v 0.65625 q 0.12109,-0.36328 0.41406,-0.5625 0.29297,-0.19922 0.70703,-0.19922 0.6211,0 0.9375,0.41407 0.31641,0.41015 0.31641,1.22656 z m -8.32812,-1.97656 v -1.01563 h 3.47265 v 1.01563 h -1.16015 v 3.80078 h 1.16015 v 1.01562 h -3.47265 v -1.01562 h 1.16015 v -3.80078 z"
         transform="matrix(0.30384799,0,0,0.30384799,33.933156,-33.381738)" /></g></g></svg>
