<?xml version="1.0" encoding="UTF-8" standalone="no"?>
<!-- Created with Inkscape (http://www.inkscape.org/) -->

<svg
   version="1.1"
   id="svg1"
   xml:space="preserve"
   width="800"
   height="600"
   sodipodi:docname="spectrum.svg"
   inkscape:version="1.2.2 (b0a8486541, 2022-12-01)"
   xmlns:inkscape="http://www.inkscape.org/namespaces/inkscape"
   xmlns:sodipodi="http://sodipodi.sourceforge.net/DTD/sodipodi-0.dtd"
   xmlns="http://www.w3.org/2000/svg"
   xmlns:svg="http://www.w3.org/2000/svg"><defs
     id="defs1"><rect
       x="242.36636"
       y="345.57632"
       width="211.89725"
       height="102.01396"
       id="rect464" /><rect
       x="119.63915"
       y="470.58508"
       width="234.49704"
       height="88.63694"
       id="rect927" /></defs><sodipodi:namedview
     id="namedview1"
     pagecolor="#ffffff"
     bordercolor="#000000"
     borderopacity="0.25"
     inkscape:showpageshadow="2"
     inkscape:pageopacity="0"
     inkscape:pagecheckerboard="0"
     inkscape:deskcolor="#d1d1d1"
     showgrid="false"
     inkscape:zoom="1.4142136"
     inkscape:cx="39.597979"
     inkscape:cy="305.47012"
     inkscape:window-width="3440"
     inkscape:window-height="1303"
     inkscape:window-x="0"
     inkscape:window-y="0"
     inkscape:window-maximized="1"
     inkscape:current-layer="g1"
     inkscape:pageshadow="2" /><inkscape:clipboard
     min="38.679246,51.71354"
     max="761.89587,740.75465"
     geom-min="40.288131,53.322266"
     geom-max="760.28712,740.75465" /><g
     id="g2"
     transform="scale(0.87077532)"
     style="display:inline"><g
       id="g1"
       transform="matrix(3.7795276,0,0,3.7795276,-38.679246,-51.71354)"><path
         id="disagree"
         style="fill:#000000;stroke:#ffffff;stroke-width:1.07703;stroke-opacity:1"
         d="m 208.86568,41.504376 -27.50905,34.582643 a 74.419098,74.419098 0 0 1 20.04501,29.082031 L 242.0315,85.440153 A 120.50977,120.50977 0 0 0 208.86568,41.504376 Z" /><path
         id="slightlyDisagree"
         style="fill:#000000;stroke:#ffffff;stroke-width:1.07703;stroke-opacity:1"
         d="m 158.72652,16.739633 -9.65873,42.512947 a 74.419098,74.419098 0 0 1 32.29185,16.830684 L 208.86568,41.504376 A 120.50977,120.50977 0 0 0 158.72652,16.739633 Z" /><path
         id="stronglyDisagree"
         style="fill:#000000;stroke:#ffffff;stroke-width:1.07703;stroke-opacity:1"
         d="m 242.0315,85.440153 -40.62986,19.728897 c 3.99528,12.4475 5.72136,23.02031 4.37661,34.79138 l 46.18152,-0.0803 c 0.97875,-18.6295 -2.87728,-39.73131 -9.92827,-54.439937 z"
         sodipodi:nodetypes="ccccc" /><path
         id="agree"
         style="fill:#000000;stroke:#ffffff;stroke-width:1.07703;stroke-opacity:1"
         d="m 52.108146,43.937828 c -7.349827,6.53048 -13.849215,13.914643 -19.371508,21.974937 -4.661124,6.803344 -8.626136,14.088384 -11.818869,21.74835 l 20.034462,9.598869 20.649455,9.893526 c 2.005343,-5.73615 4.698761,-11.185636 8.007853,-16.234566 2.933251,-4.475487 6.350262,-8.636249 10.200611,-12.402979 L 66.08471,61.383624 Z"
         sodipodi:nodetypes="cscccsccc" /><path
         id="stonglyAgree"
         style="fill:#000000;stroke:#ffffff;stroke-width:1.07703;stroke-opacity:1"
         d="m 20.917769,87.660369 c -3.031275,6.488605 -5.616,14.805701 -7.317504,23.593721 -1.88152,9.71777 -2.683047,20.01133 -1.814133,29.04497 l 20.116437,-0.035 26.050816,-0.0453 c -0.659269,-5.71315 -0.512127,-11.87527 0.230399,-17.79018 0.68883,-5.48719 1.890045,-10.76162 3.43517,-15.26753 L 40.656076,97.117334 Z"
         sodipodi:nodetypes="cscccsccc" /><path
         id="slightlyAgree"
         style="fill:#000000;stroke:#ffffff;stroke-width:1.07703;stroke-opacity:1"
         d="M 102.35993,17.582819 C 92.185893,20.130458 82.424749,23.985904 73.310608,29.026376 65.753864,33.205547 58.641898,38.199358 52.108146,43.937828 L 65.373636,60.49605 79.81015,78.515965 c 4.439672,-4.355038 9.389222,-8.118475 14.723677,-11.218259 5.480003,-3.184361 11.366203,-5.668359 17.523123,-7.373881 l -4.27996,-18.687973 z"
         sodipodi:nodetypes="cscccsccc" /><path
         id="neutral"
         style="fill:#000000;stroke:#ffffff;stroke-width:1.07703;stroke-opacity:1"
         d="m 102.35993,17.582819 9.69852,42.347764 c 12.58851,-3.258233 25.26161,-3.417818 37.00934,-0.677252 l 9.65873,-42.513698 c -20.95024,-3.593568 -37.49288,-3.372442 -56.36659,0.843186 z"
         sodipodi:nodetypes="ccccc" /><path
         style="fill:#cccccc;stroke:none;stroke-width:0.736448;stroke-opacity:1"
         d="m 131.85067,107.11675 c -9.78988,0.005 -18.5922,4.2933 -24.61649,11.10445 -5.00324,5.65672 -8.090325,13.05373 -8.235645,21.18302 h 65.719345 c -0.14605,-8.17046 -3.26368,-15.60097 -8.31145,-21.26845 -6.02548,-6.76521 -14.80119,-11.01826 -24.55576,-11.01902 z"
         id="indifferent"
         sodipodi:nodetypes="csccsc" /><path
         style="fill:#cccccc;stroke:none;stroke-width:0.736448;stroke-opacity:1"
         d="m 131.85067,173.234 c -10.06949,-0.005 -19.0942,-4.54174 -25.12583,-11.69418 -4.70276,-5.57664 -7.586008,-12.74363 -7.726305,-20.59339 h 65.719345 c -0.14605,8.17197 -3.26478,15.60372 -8.31417,21.2716 -6.0254,6.76343 -14.79994,11.01521 -24.55304,11.01597 z"
         id="notReplied"
         sodipodi:nodetypes="csccsc" /><path
         id="path1549"
         style="font-weight:bold;font-size:8px;line-height:1;font-family:monospace;-inkscape-font-specification:'monospace Bold';text-align:center;letter-spacing:0px;white-space:pre;display:inline;fill:#ffffff;stroke-width:0.384427;stroke-linecap:round"
         d="m 45.432274,58.383602 -0.669433,-0.591767 0.290417,-0.328529 1.750645,1.547548 -0.290411,0.328526 -0.186766,-0.165097 q 0.06239,0.149356 0.04292,0.282469 -0.01847,0.131998 -0.118916,0.245626 -0.190954,0.216021 -0.469646,0.182113 -0.278686,-0.03391 -0.593714,-0.312383 -0.319526,-0.282457 -0.384118,-0.554019 -0.0636,-0.272686 0.134318,-0.496578 0.08951,-0.101254 0.213007,-0.134395 0.123356,-0.03525 0.281704,-0.0035 z m 0.04875,0.860844 q 0.182269,0.161119 0.339482,0.191866 0.157215,0.03074 0.251701,-0.07614 0.09448,-0.106896 0.04567,-0.260265 -0.0488,-0.153384 -0.231071,-0.314502 -0.182269,-0.161118 -0.340475,-0.19074 -0.15821,-0.02962 -0.252696,0.07727 -0.09448,0.106883 -0.04469,0.259141 0.0498,0.152254 0.232071,0.313372 z m -0.759992,0.287192 q -0.09707,0.01189 -0.185592,0.06459 -0.08755,0.05161 -0.162693,0.139479 -0.09075,0.10615 -0.12137,0.218256 -0.03081,0.109983 0.0029,0.213861 0.01994,0.06447 0.07186,0.128565 0.05286,0.06297 0.178416,0.170295 l 0.588998,0.503478 -0.285887,0.334449 -1.278444,-1.092822 0.285888,-0.334449 0.198613,0.169779 q -0.06773,-0.142705 -0.04013,-0.295083 0.02634,-0.153303 0.142453,-0.289139 0.05854,-0.06848 0.131283,-0.118916 0.07257,-0.05254 0.155247,-0.08463 z m -1.839828,1.949821 q -0.100444,0.121535 -0.0502,0.279958 0.04912,0.157453 0.240077,0.315311 0.19099,0.157847 0.356037,0.177364 0.163891,0.01856 0.264339,-0.102974 0.101405,-0.122699 0.05232,-0.28016 -0.05025,-0.158416 -0.24124,-0.316263 -0.190989,-0.157847 -0.354881,-0.176406 -0.165047,-0.01952 -0.266451,0.103177 z m -0.09041,0.934417 q -0.313684,-0.259251 -0.362646,-0.572451 -0.04915,-0.315318 0.177571,-0.589646 0.227681,-0.275489 0.545653,-0.285436 0.317775,-0.01202 0.63146,0.247192 0.313685,0.259251 0.362841,0.574567 0.04895,0.313203 -0.178725,0.58869 -0.226724,0.27433 -0.544496,0.286395 -0.317974,0.01 -0.631659,-0.249307 z m 0.325214,0.796568 q -0.01891,0.127124 -0.07394,0.246529 -0.05387,0.120346 -0.145719,0.23532 -0.242766,0.303865 -0.562635,0.328936 -0.319866,0.02508 -0.643679,-0.23363 -0.324983,-0.259635 -0.370221,-0.578319 -0.04641,-0.319622 0.196354,-0.623486 0.08436,-0.105594 0.18679,-0.183287 0.103379,-0.07886 0.232794,-0.134996 l 0.314422,0.251201 q -0.124521,0.02353 -0.230714,0.08669 -0.106441,0.06103 -0.183287,0.157252 -0.134039,0.16777 -0.09944,0.343404 0.03459,0.175634 0.23169,0.333103 0.197102,0.157469 0.374863,0.151489 0.177765,-0.0059 0.311799,-0.173747 0.07968,-0.09974 0.116183,-0.212787 0.03534,-0.114007 0.02915,-0.245797 z m -1.153234,1.450365 q -0.0168,0.127425 -0.06985,0.247721 -0.05186,0.121218 -0.1418,0.237701 -0.237698,0.307846 -0.557109,0.33821 -0.319413,0.03037 -0.647461,-0.222936 -0.329237,-0.254215 -0.379752,-0.572106 -0.0517,-0.31881 0.186,-0.626654 0.08259,-0.106972 0.183729,-0.186358 0.102051,-0.08057 0.23052,-0.138844 l 0.318543,0.245956 q -0.124115,0.02559 -0.229243,0.0905 -0.105416,0.06278 -0.180662,0.160267 -0.131239,0.169972 -0.09374,0.345006 0.03749,0.175038 0.237176,0.329219 0.199685,0.15418 0.37732,0.145258 0.177638,-0.009 0.308882,-0.178886 0.07801,-0.101026 0.11264,-0.214681 0.03344,-0.114576 0.02508,-0.246247 z m -2.017765,1.482699 q -0.147264,0.197395 -0.155079,0.313338 -0.0078,0.115955 0.114956,0.207538 0.09147,0.06824 0.186043,0.05449 0.09457,-0.01375 0.163716,-0.106428 0.104164,-0.13962 0.05692,-0.294771 -0.04847,-0.15604 -0.237408,-0.297035 l -0.02406,-0.01797 z m 0.230362,-0.592542 0.769104,0.573799 -0.261305,0.350248 -0.150457,-0.112249 q 0.04146,0.130245 0.01509,0.266058 -0.02639,0.135815 -0.116183,0.256181 -0.171513,0.229888 -0.389161,0.267974 -0.216747,0.03688 -0.4346,-0.125646 -0.235909,-0.176 -0.233813,-0.412361 9e-4,-0.237267 0.23976,-0.557426 l 0.182287,-0.244333 -0.05898,-0.044 q -0.08545,-0.06375 -0.175479,-0.03349 -0.09034,0.02816 -0.180131,0.148516 -0.09428,0.12638 -0.150685,0.269778 -0.05671,0.141297 -0.08298,0.322168 l -0.300903,-0.224489 q 0.03895,-0.152669 0.105884,-0.290091 0.06693,-0.137428 0.167499,-0.272226 0.245144,-0.328584 0.477521,-0.361307 0.23327,-0.03393 0.577504,0.222892 z m -2.474897,1.193503 0.676142,0.487269 -0.224761,0.311878 -0.67614,-0.487269 z m -0.39712,1.936525 -0.733385,-0.510367 0.250467,-0.359912 1.917891,1.334675 -0.250465,0.359914 -0.204609,-0.142389 q 0.07921,0.14115 0.07532,0.275606 -0.003,0.133243 -0.08971,0.257733 -0.16469,0.236654 -0.445428,0.235216 -0.280738,-0.0014 -0.625861,-0.241615 -0.35005,-0.243605 -0.445623,-0.505871 -0.0947,-0.263504 0.07597,-0.50878 0.0772,-0.110932 0.196033,-0.15813 0.11846,-0.04927 0.279407,-0.03607 z m 0.147996,0.849428 q 0.199676,0.138958 0.359392,0.151313 0.159717,0.0124 0.241224,-0.104695 0.08149,-0.117093 0.01527,-0.263802 -0.06617,-0.146729 -0.265894,-0.285665 -0.199675,-0.13896 -0.360254,-0.15008 -0.160572,-0.01113 -0.242072,0.105947 -0.08149,0.117094 -0.01441,0.262568 0.06699,0.145516 0.266757,0.284431 z m -2.940963,2.89137 0.731035,-1.127787 0.288562,0.187047 0.365693,1.291085 0.481094,-0.742197 0.275962,0.178878 -0.750641,1.158031 -0.288562,-0.187047 -0.364872,-1.292347 -0.462308,0.713215 z m 1.084992,1.272345 q -0.02772,0.163314 -0.08536,0.315 -0.05764,0.151684 -0.151579,0.301934 -0.223694,0.357799 -0.533301,0.428111 -0.310083,0.06824 -0.670429,-0.157043 -0.348885,-0.218121 -0.437501,-0.526777 -0.08863,-0.308653 0.10801,-0.62316 0.198219,-0.317052 0.495723,-0.373679 0.297038,-0.05869 0.638278,0.154649 l 0.151519,0.09474 -0.604212,0.966433 q 0.168864,0.103809 0.312931,0.05752 0.144063,-0.04631 0.265864,-0.241114 0.0804,-0.128608 0.121484,-0.276471 0.04109,-0.14787 0.04605,-0.334265 z m -0.999604,-0.185751 q -0.1493,-0.08979 -0.27059,-0.06292 -0.121775,0.02482 -0.210933,0.16743 -0.0804,0.128608 -0.04922,0.254357 0.0299,0.124963 0.165037,0.228917 z m -1.390616,1.10283 0.32925,0.198444 q -0.129675,0.06386 -0.23132,0.156896 -0.102165,0.09095 -0.17038,0.204147 -0.07596,0.126038 -0.07743,0.212824 -0.0028,0.08602 0.06932,0.129402 0.102898,0.06201 0.3331,-0.174422 l 0.0124,-0.01189 0.09084,-0.09254 q 0.172898,-0.176328 0.339585,-0.205606 0.166172,-0.03135 0.351375,0.08028 0.222498,0.134105 0.246025,0.34816 0.02301,0.211998 -0.153724,0.505234 -0.07829,0.129896 -0.183613,0.252275 -0.104024,0.123154 -0.233541,0.236207 l -0.329247,-0.198446 q 0.145939,-0.0821 0.260743,-0.188253 0.115588,-0.107415 0.188453,-0.228317 0.07985,-0.132471 0.08234,-0.22389 0.0025,-0.09141 -0.07077,-0.13562 -0.07202,-0.04341 -0.140058,-0.01779 -0.06726,0.02437 -0.220291,0.179318 l -0.08594,0.09022 q -0.179103,0.18661 -0.342966,0.222856 -0.16386,0.03625 -0.338774,-0.06918 -0.208354,-0.125571 -0.233412,-0.345817 -0.02506,-0.220243 0.139281,-0.492902 0.07364,-0.12218 0.167083,-0.230674 0.09293,-0.110553 0.201795,-0.200984 z m -0.964231,1.611711 0.332432,0.19306 q -0.128603,0.06598 -0.228736,0.160635 -0.100671,0.09261 -0.167038,0.206887 -0.0739,0.127262 -0.07395,0.214058 -0.0014,0.08603 0.07143,0.128248 0.103885,0.06033 0.330198,-0.179861 l 0.01215,-0.01202 0.08932,-0.09399 q 0.170004,-0.179118 0.336191,-0.211105 0.165642,-0.03405 0.352635,0.07454 0.224652,0.130467 0.251657,0.344113 0.02645,0.211596 -0.145483,0.507668 -0.07617,0.13116 -0.179482,0.25523 -0.102013,0.124824 -0.229662,0.23998 l -0.332432,-0.19306 q 0.144571,-0.08448 0.257641,-0.192474 0.11383,-0.109288 0.184716,-0.231352 0.07767,-0.133754 0.07868,-0.225201 10e-4,-0.09145 -0.07301,-0.134431 -0.07271,-0.04223 -0.140331,-0.01551 -0.06685,0.02544 -0.217342,0.182881 l -0.08446,0.09161 q -0.176043,0.189501 -0.339296,0.228403 -0.163253,0.0389 -0.339858,-0.06365 -0.210368,-0.122167 -0.239001,-0.341976 -0.02864,-0.219803 0.131239,-0.495103 0.07165,-0.123369 0.163309,-0.233363 0.09112,-0.112058 0.198495,-0.20425 z m -1.393537,2.01737 0.698915,0.630023 0.204494,-0.365666 z m -0.485805,0.03801 0.264601,-0.473139 2.252163,0.566139 -0.216226,0.386637 -0.55106,-0.149886 -0.28952,0.517699 0.417657,0.388422 -0.216227,0.386637 z" /><path
         id="path1562"
         style="font-weight:bold;font-size:8px;line-height:1;font-family:monospace;-inkscape-font-specification:'monospace Bold';text-align:center;letter-spacing:0px;white-space:pre;display:inline;fill:#ffffff;stroke-width:0.384427;stroke-linecap:round"
         d="m 135.84583,19.305251 q -0.15458,0.05951 -0.31444,0.08737 -0.15987,0.02785 -0.33701,0.02376 -0.42187,-0.0097 -0.64035,-0.240092 -0.21696,-0.231821 -0.20715,-0.65668 0.0101,-0.411346 0.22969,-0.645092 0.2202,-0.233746 0.591,-0.225185 0.37382,0.0086 0.57436,0.235566 0.20208,0.225469 0.19279,0.627808 l -0.004,0.178651 -1.13946,-0.0263 q -0.003,0.198202 0.11032,0.298453 0.11336,0.100254 0.34303,0.105555 0.15164,0.0035 0.29977,-0.03664 0.14813,-0.04014 0.31094,-0.131012 z m -0.35047,-0.954393 q 0.001,-0.174216 -0.084,-0.264802 -0.0835,-0.09205 -0.25164,-0.09594 -0.15162,-0.0035 -0.24385,0.0875 -0.0922,0.0895 -0.1126,0.25876 z m -1.42085,-0.219867 q -0.0716,-0.06655 -0.16902,-0.100241 -0.0959,-0.03368 -0.21152,-0.03445 -0.13965,-9.22e-4 -0.24509,0.04793 -0.104,0.04736 -0.16162,0.140082 -0.0364,0.05682 -0.052,0.13781 -0.0141,0.081 -0.0152,0.246178 l -0.005,0.774843 -0.43997,-0.0029 0.0114,-1.681829 0.43998,0.0029 -0.003,0.261284 q 0.0655,-0.143726 0.1997,-0.220921 0.13417,-0.07869 0.31287,-0.07751 0.0901,6.15e-4 0.17553,0.0237 0.0869,0.02161 0.16477,0.06417 z m -2.57297,-0.945075 0.005,0.477507 0.57511,-0.0056 0.004,0.33786 -0.57512,0.0056 0.008,0.795847 q 0.001,0.112615 0.0557,0.161647 0.0561,0.04751 0.18365,0.04627 l 0.33786,-0.0033 0.004,0.337859 -0.3694,0.0035 q -0.3784,0.0037 -0.51322,-0.115158 -0.13482,-0.120332 -0.13799,-0.447681 l -0.008,-0.774823 -0.42946,0.0042 -0.004,-0.337859 0.42946,-0.0042 -0.005,-0.477507 z m -2.6411,1.624339 -0.0285,-1.094345 0.43985,-0.01151 0.0267,1.026793 q 0.005,0.18164 0.0578,0.258372 0.0531,0.07673 0.17168,0.07365 0.11854,-0.003 0.18189,-0.109882 0.0648,-0.106846 0.0598,-0.295986 l -0.0252,-0.965245 0.43983,-0.01151 0.0438,1.681298 -0.43985,0.01151 -0.006,-0.249193 q -0.0429,0.140819 -0.1535,0.22031 -0.10906,0.07945 -0.26671,0.08355 -0.24019,0.0062 -0.36743,-0.149665 -0.12576,-0.155956 -0.13387,-0.468198 z m -0.42503,0.519022 q -0.15037,0.0695 -0.30806,0.107731 -0.15771,0.03823 -0.33475,0.04574 -0.42159,0.01785 -0.65466,-0.197741 -0.23163,-0.217149 -0.24961,-0.641741 -0.0175,-0.411089 0.18705,-0.658722 0.20445,-0.247633 0.57503,-0.263319 0.37358,-0.01581 0.58853,0.197535 0.21637,0.211783 0.23339,0.61387 l 0.008,0.178539 -1.13875,0.0482 q 0.0101,0.197979 0.12954,0.29061 0.11969,0.09264 0.34919,0.08292 0.15154,-0.0065 0.29673,-0.05615 0.14519,-0.04974 0.30172,-0.151049 z m -0.41209,-0.929455 q -0.0101,-0.17391 -0.10109,-0.258746 -0.0893,-0.0864 -0.25736,-0.07929 -0.15152,0.0065 -0.23761,0.10324 -0.0862,0.09533 -0.0955,0.265564 z m -3.03892,-1.058331 0.47522,-0.02785 0.71892,1.58998 -0.0953,-1.62652 0.38977,-0.02284 0.13114,2.238149 -0.47221,0.02767 -0.72193,-1.589803 0.0953,1.626519 -0.38977,0.02284 z" /><path
         id="path1595"
         style="font-weight:bold;font-size:8px;line-height:1;font-family:monospace;-inkscape-font-specification:'monospace Bold';text-align:center;letter-spacing:0px;white-space:pre;display:inline;fill:#ffffff;stroke-width:0.384427;stroke-linecap:round"
         d="m 198.03001,39.117164 0.51913,-0.727211 0.35688,0.254765 -1.35758,1.901748 -0.35688,-0.254765 0.14483,-0.202886 q -0.14208,0.07754 -0.27649,0.072 -0.13319,-0.0047 -0.25664,-0.0928 -0.23466,-0.167516 -0.22986,-0.448218 0.005,-0.280703 0.24911,-0.62292 0.24779,-0.347106 0.51117,-0.439525 0.26462,-0.09155 0.50784,0.08207 0.10995,0.07852 0.15577,0.197913 0.0478,0.119042 0.0328,0.279819 z m -0.85114,0.137798 q -0.14134,0.197996 -0.15561,0.357552 -0.0143,0.159558 0.10184,0.242443 0.11615,0.08288 0.26359,0.01843 0.1475,-0.06445 0.28884,-0.262453 0.14134,-0.197997 0.15439,-0.358426 0.013,-0.160429 -0.10312,-0.243314 -0.11614,-0.08288 -0.26237,-0.01756 -0.14627,0.06532 -0.28761,0.263326 z m -0.3644,-0.726063 q -0.0218,-0.09531 -0.0835,-0.177901 -0.0603,-0.08174 -0.15559,-0.147359 -0.11501,-0.07925 -0.22967,-0.0981 -0.11261,-0.01923 -0.2124,0.02504 -0.0621,0.02653 -0.12045,0.08478 -0.0572,0.0591 -0.15089,0.195108 l -0.43972,0.638006 -0.36229,-0.249687 0.95444,-1.38482 0.36229,0.249687 -0.14828,0.215143 q 0.13497,-0.08206 0.28934,-0.07051 0.1552,0.01037 0.30234,0.111716 0.0741,0.05113 0.13187,0.118258 0.0598,0.06674 0.10021,0.145669 z m -2.1298,-1.627808 q -0.13129,-0.08732 -0.28366,-0.02094 -0.15152,0.06513 -0.28874,0.271443 -0.13722,0.206308 -0.13955,0.37249 -0.001,0.16493 0.12981,0.252251 0.13253,0.08816 0.28406,0.02301 0.15237,-0.06638 0.28959,-0.272693 0.13722,-0.206308 0.1387,-0.371239 0.003,-0.166182 -0.13021,-0.254335 z m -0.93876,0.0068 q 0.22538,-0.338846 0.53182,-0.419973 0.30853,-0.08154 0.60487,0.11555 0.29758,0.19793 0.34041,0.513165 0.0449,0.314816 -0.18048,0.653663 -0.22537,0.338846 -0.5339,0.420391 -0.30645,0.08113 -0.60404,-0.116802 -0.29632,-0.197099 -0.34122,-0.511916 -0.0429,-0.315234 0.18254,-0.65408 z m -0.75862,0.405913 q -0.1284,-0.0057 -0.25287,-0.04804 -0.12525,-0.04112 -0.24913,-0.120585 -0.32735,-0.210016 -0.38539,-0.525573 -0.0581,-0.31556 0.16576,-0.664402 0.22461,-0.350106 0.53691,-0.42808 0.31309,-0.07924 0.64045,0.130777 0.11374,0.07298 0.20164,0.166822 0.0891,0.09466 0.15836,0.217571 l -0.21731,0.33873 q -0.0363,-0.121408 -0.11007,-0.220502 -0.0717,-0.09954 -0.17538,-0.166035 -0.18074,-0.115955 -0.35185,-0.06337 -0.17111,0.05258 -0.30734,0.264919 -0.13623,0.212339 -0.11185,0.388529 0.0243,0.17619 0.20508,0.292143 0.10741,0.06893 0.22367,0.09354 0.11703,0.02336 0.24749,0.0035 z m -1.56192,-0.996972 q -0.12849,-0.0035 -0.25363,-0.04385 -0.12588,-0.03904 -0.25109,-0.116448 -0.33078,-0.204578 -0.39402,-0.519135 -0.0633,-0.314556 0.15476,-0.667048 0.21879,-0.353769 0.52976,-0.436892 0.31175,-0.0844 0.64253,0.120181 0.11488,0.07109 0.20436,0.163469 0.0907,0.09317 0.16194,0.214924 l -0.21169,0.342274 q -0.0383,-0.120801 -0.11374,-0.218652 -0.0734,-0.09834 -0.17809,-0.163115 -0.18263,-0.112957 -0.35285,-0.05755 -0.17022,0.0554 -0.30291,0.26996 -0.13271,0.21456 -0.10539,0.390323 0.0272,0.175764 0.20988,0.288717 0.10855,0.06714 0.22518,0.08983 0.11741,0.02141 0.24752,-5.37e-4 z M 189.742,34.463329 q -0.21157,-0.126064 -0.3277,-0.121851 -0.11614,0.0042 -0.19455,0.135799 -0.0584,0.09804 -0.0349,0.190683 0.0234,0.09264 0.12273,0.151828 0.14964,0.08917 0.29908,0.02613 0.1502,-0.06432 0.27087,-0.266861 l 0.0154,-0.0258 z m 0.61319,0.167844 -0.49119,0.824322 -0.37539,-0.223681 0.096,-0.161253 q -0.12525,0.05472 -0.26306,0.04252 -0.13781,-0.01215 -0.26683,-0.08907 -0.24638,-0.146816 -0.30678,-0.359355 -0.0591,-0.21177 0.08,-0.445265 0.15066,-0.252844 0.38597,-0.275195 0.23609,-0.02365 0.57924,0.180825 l 0.26188,0.15604 0.0377,-0.06321 q 0.0545,-0.09159 0.0152,-0.178003 -0.0373,-0.08693 -0.16636,-0.1638 -0.13545,-0.08071 -0.28392,-0.121977 -0.14641,-0.04179 -0.32901,-0.04922 l 0.19215,-0.322505 q 0.15589,0.02296 0.29949,0.07532 0.14361,0.05235 0.2881,0.138448 0.35218,0.209847 0.40875,0.437592 0.0578,0.228514 -0.16197,0.597461 z m -1.425,-1.621474 -0.19131,0.333452 q -0.0667,-0.128259 -0.16185,-0.227884 -0.0931,-0.100178 -0.20777,-0.165937 -0.12764,-0.07323 -0.21444,-0.07281 -0.086,-8.84e-4 -0.12789,0.07205 -0.0597,0.104201 0.1816,0.329241 l 0.0127,0.01215 0.0945,0.08882 q 0.18002,0.169057 0.2129,0.335069 0.0349,0.165457 -0.0726,0.353023 -0.12928,0.225342 -0.34278,0.253477 -0.21144,0.02758 -0.50843,-0.142792 -0.13156,-0.07547 -0.25618,-0.178126 -0.12538,-0.101355 -0.24118,-0.228391 l 0.19129,-0.333451 q 0.0853,0.144122 0.19383,0.256622 0.10982,0.113247 0.23233,0.183486 0.13416,0.07696 0.22562,0.07749 0.0915,5.38e-4 0.13404,-0.07372 0.0419,-0.07294 0.0148,-0.140414 -0.0258,-0.06673 -0.18404,-0.216373 l -0.0921,-0.08397 q -0.19043,-0.175035 -0.23021,-0.338079 -0.0397,-0.163045 0.0619,-0.340191 0.12108,-0.211011 0.34072,-0.240813 0.21964,-0.0298 0.49578,0.128615 0.12373,0.07099 0.23422,0.16207 0.11261,0.09052 0.20531,0.19741 z m -2.23397,0.50535 q -0.16458,-0.0188 -0.31917,-0.06811 -0.15459,-0.0493 -0.30973,-0.134931 -0.36944,-0.2039 -0.4565,-0.509224 -0.085,-0.305914 0.12032,-0.677979 0.19883,-0.360232 0.50221,-0.465508 0.30337,-0.105276 0.6281,0.07395 0.32737,0.18068 0.4001,0.474667 0.0748,0.2934 -0.11969,0.645744 l -0.0864,0.156451 -0.99787,-0.550747 q -0.0945,0.174268 -0.0404,0.315598 0.054,0.14133 0.25521,0.252349 0.13278,0.07329 0.28267,0.106277 0.14989,0.03298 0.33628,0.0278 z m 0.1311,-1.008226 q 0.0815,-0.153957 0.0481,-0.273612 -0.0314,-0.120244 -0.17865,-0.201513 -0.13278,-0.07329 -0.25666,-0.03531 -0.1231,0.03665 -0.2196,0.177242 z m 0.60868,-1.298638 0.37076,0.204625 -0.75665,0.227306 -0.259,-0.142948 z m -2.13853,-0.0063 0.41876,-0.789286 0.38735,0.205509 -1.0951,2.064078 -0.38736,-0.205508 0.11678,-0.220203 q -0.1306,0.0956 -0.26459,0.107807 -0.13264,0.01292 -0.26663,-0.05816 -0.25469,-0.135128 -0.28692,-0.414016 -0.0323,-0.278888 0.16485,-0.650315 0.19987,-0.376734 0.44879,-0.50306 0.25024,-0.125621 0.51421,0.01444 0.11943,0.06334 0.18049,0.175657 0.0631,0.111691 0.0693,0.273065 z m -0.82555,0.248769 q -0.11399,0.214897 -0.10716,0.374942 0.006,0.160046 0.13291,0.226907 0.12601,0.06686 0.26371,-0.01647 0.13772,-0.08333 0.25173,-0.298229 0.11399,-0.214899 0.10577,-0.375648 -0.009,-0.160749 -0.13423,-0.22761 -0.12601,-0.06686 -0.2624,0.01718 -0.13639,0.08403 -0.25039,0.298934 z m -2.2889,-1.458958 -0.47951,0.980768 -0.39258,-0.191933 0.44983,-0.920062 q 0.0805,-0.164586 0.0676,-0.257822 -0.0114,-0.09393 -0.11614,-0.145372 -0.10653,-0.0521 -0.21547,0.01333 -0.10754,0.06611 -0.19064,0.236086 l -0.42279,0.864749 -0.39257,-0.191934 0.73872,-1.510951 0.39258,0.191934 -0.11083,0.226643 q 0.10311,-0.105011 0.23798,-0.124356 0.13482,-0.01933 0.27781,0.05058 0.2145,0.104872 0.25386,0.301298 0.04,0.195076 -0.0978,0.477031 z m -2.06751,0.116081 q -0.16546,-0.0078 -0.32298,-0.04686 -0.15751,-0.03898 -0.31796,-0.114172 -0.38211,-0.179049 -0.48913,-0.477956 -0.10501,-0.299629 0.0753,-0.684447 0.1746,-0.37258 0.47036,-0.497668 0.29575,-0.12509 0.63163,0.0323 0.33857,0.158659 0.43057,0.447201 0.094,0.287819 -0.0768,0.652239 l -0.0758,0.161814 -1.03207,-0.483622 q -0.0827,0.180128 -0.0195,0.317576 0.0633,0.137448 0.27133,0.234938 0.13734,0.06436 0.28908,0.08736 0.15173,0.02301 0.33737,0.0056 z m 0.0642,-1.014682 q 0.0712,-0.159009 0.0299,-0.276193 -0.0392,-0.117903 -0.19158,-0.18927 -0.13732,-0.06436 -0.25843,-0.01828 -0.12044,0.04471 -0.20741,0.191362 z m -4.53655,-1.545287 0.4315,-1.006087 0.40437,0.173426 -0.40486,0.943985 q -0.0716,0.16699 -0.0554,0.25888 0.0162,0.09189 0.12513,0.13865 0.10906,0.04676 0.21118,-0.02381 0.1035,-0.06996 0.17812,-0.243862 l 0.38059,-0.8874 0.40437,0.173426 -0.66293,1.545705 -0.40436,-0.173427 0.0983,-0.229095 q -0.0978,0.109996 -0.23153,0.135991 -0.13232,0.02658 -0.27722,-0.03557 -0.22083,-0.0947 -0.27125,-0.289529 -0.0491,-0.194234 0.074,-0.481293 z m -0.60306,0.293909 q -0.16565,3.27e-4 -0.32492,-0.03081 -0.15925,-0.03114 -0.32323,-0.09828 -0.3905,-0.159894 -0.51221,-0.453131 -0.11969,-0.294057 0.0412,-0.687338 0.15591,-0.380773 0.44511,-0.520363 0.2892,-0.13959 0.63246,9.6e-4 0.34603,0.141686 0.45219,0.425316 0.10818,0.282807 -0.0444,0.655242 l -0.0677,0.165373 -1.05477,-0.431886 q -0.0738,0.184009 -0.004,0.318152 0.07,0.134144 0.28263,0.221204 0.14036,0.05747 0.29306,0.07294 0.15268,0.01546 0.33724,-0.01126 z m 0.0138,-1.016618 q 0.0633,-0.162341 0.0162,-0.277336 -0.045,-0.115816 -0.20072,-0.179545 -0.14036,-0.05747 -0.25902,-0.0054 -0.11805,0.05063 -0.19768,0.201404 z m -2.59684,-0.186911 -0.31885,0.816955 -0.40848,-0.159428 0.84408,-2.16269 0.40848,0.159428 -0.0917,0.235013 q 0.11728,-0.110578 0.24899,-0.138174 0.13167,-0.02759 0.27295,0.02754 0.26859,0.104834 0.33278,0.378133 0.0642,0.273304 -0.0887,0.664995 -0.15506,0.397286 -0.38913,0.550951 -0.23267,0.154211 -0.51105,0.04556 -0.12589,-0.04914 -0.20151,-0.152799 -0.0736,-0.104518 -0.0979,-0.265493 z m 0.79079,-0.340993 q 0.0884,-0.22662 0.0631,-0.384802 -0.0253,-0.158181 -0.1582,-0.210049 -0.1329,-0.05187 -0.26006,0.0468 -0.12718,0.09867 -0.21563,0.32529 -0.0884,0.226621 -0.0617,0.385349 0.0267,0.158727 0.1596,0.210595 0.1329,0.05187 0.25867,-0.04734 0.12576,-0.09922 0.21423,-0.325838 z m -3.09748,-1.434434 -0.36313,1.029548 -0.4121,-0.145353 0.34065,-0.96582 q 0.061,-0.172773 0.0373,-0.263895 -0.0216,-0.09204 -0.13213,-0.131 -0.11185,-0.03946 -0.21248,0.03811 -0.0992,0.07807 -0.16214,0.256506 l -0.32017,0.907758 -0.41211,-0.145353 0.55945,-1.586099 0.4121,0.145353 -0.0839,0.237915 q 0.0903,-0.116221 0.22204,-0.150981 0.1317,-0.03475 0.28181,0.01818 0.22517,0.07942 0.28694,0.269993 0.0622,0.189157 -0.0421,0.485134 z m -3.22263,-0.826671 0.44845,-1.341605 0.42015,0.140437 -0.48369,1.446997 q -0.0533,0.159512 -0.003,0.277796 0.0511,0.116866 0.19503,0.164942 0.14384,0.04808 0.25502,-0.01451 0.11159,-0.06402 0.16496,-0.223526 l 0.48368,-1.446997 0.42014,0.140437 -0.44845,1.341606 q -0.14472,0.432959 -0.38274,0.571897 -0.23802,0.138938 -0.61972,0.01139 -0.38026,-0.127107 -0.48832,-0.381728 -0.10665,-0.254143 0.0381,-0.687103 z" /><path
         id="path1628"
         style="font-weight:bold;font-size:8px;line-height:1;font-family:monospace;-inkscape-font-specification:'monospace Bold';text-align:center;letter-spacing:0px;white-space:pre;display:inline;fill:#ffffff;stroke-width:0.384427;stroke-linecap:round"
         d="m 232.00692,79.365021 0.80217,-0.393508 0.19312,0.393673 -2.09778,1.029073 -0.19312,-0.393673 0.2238,-0.109781 q -0.16186,7.69e-4 -0.27752,-0.06792 -0.11501,-0.06736 -0.18181,-0.203526 -0.12697,-0.258854 0.0101,-0.503611 0.13752,-0.244757 0.51501,-0.429935 0.38289,-0.187828 0.65857,-0.144095 0.27636,0.04508 0.40797,0.313366 0.0596,0.121332 0.0431,0.248144 -0.0144,0.127491 -0.10413,0.261797 z m -0.81451,-0.282873 q -0.21841,0.107137 -0.30672,0.24079 -0.0883,0.133646 -0.0256,0.261722 0.0629,0.128079 0.22325,0.141384 0.1604,0.0133 0.37881,-0.09384 0.21841,-0.107136 0.30606,-0.242135 0.0877,-0.134995 0.0248,-0.263071 -0.0629,-0.128079 -0.22257,-0.140035 -0.15975,-0.01202 -0.37816,0.09518 z m 0.024,-0.811998 q 0.0261,-0.09426 0.0114,-0.1962 -0.0143,-0.100608 -0.0669,-0.203569 -0.0636,-0.124344 -0.15554,-0.195384 -0.09,-0.07038 -0.19883,-0.07882 -0.0672,-0.0061 -0.14626,0.01741 -0.0783,0.02487 -0.22543,0.100064 l -0.68992,0.352704 -0.20028,-0.391762 1.49753,-0.765562 0.20027,0.391765 -0.23264,0.11894 q 0.15774,-0.0081 0.28811,0.07533 0.13169,0.08277 0.21303,0.241885 0.041,0.08023 0.06,0.166691 0.0209,0.08712 0.019,0.175791 z m -1.10149,-2.44389 q -0.074,-0.139189 -0.23969,-0.153108 -0.16429,-0.01461 -0.38301,0.101784 -0.21873,0.116411 -0.29968,0.26156 -0.0796,0.144449 -0.005,0.283634 0.0748,0.140515 0.23909,0.155143 0.1656,0.01392 0.38432,-0.102493 0.21873,-0.11641 0.29835,-0.26086 0.081,-0.145148 0.006,-0.285665 z m -0.82938,-0.439726 q 0.35924,-0.191198 0.66745,-0.117093 0.31025,0.07474 0.47746,0.388901 0.16792,0.315492 0.0559,0.613257 -0.10995,0.298384 -0.4692,0.489583 -0.35924,0.191199 -0.6695,0.116461 -0.30821,-0.07412 -0.47613,-0.389604 -0.16721,-0.314169 -0.0573,-0.612554 0.11197,-0.297761 0.47124,-0.488959 z m -0.8604,-0.003 q -0.11032,-0.06594 -0.19972,-0.16234 -0.0907,-0.09567 -0.16201,-0.224416 -0.18838,-0.340268 -0.0896,-0.645541 0.0988,-0.305278 0.46137,-0.506021 0.36391,-0.201471 0.67578,-0.121813 0.31317,0.07893 0.50155,0.419198 0.0654,0.118232 0.0983,0.242558 0.0335,0.125634 0.0361,0.266676 l -0.35209,0.194924 q 0.0257,-0.12409 0.008,-0.246337 -0.0159,-0.121661 -0.0755,-0.229395 -0.104,-0.187869 -0.27957,-0.222844 -0.17555,-0.03498 -0.39627,0.08722 -0.2207,0.122193 -0.28294,0.288813 -0.0623,0.166621 0.0418,0.354491 0.0619,0.111666 0.15243,0.188523 0.092,0.07613 0.21614,0.120648 z m -0.90122,-1.619048 q -0.11134,-0.06412 -0.20238,-0.159018 -0.0922,-0.09416 -0.16571,-0.22171 -0.19396,-0.337108 -0.10033,-0.643973 0.0938,-0.306865 0.45294,-0.513572 0.36053,-0.207459 0.67367,-0.132961 0.31444,0.07375 0.50842,0.410856 0.0674,0.117145 0.10223,0.240897 0.0356,0.125065 0.0405,0.266046 l -0.34881,0.200717 q 0.0237,-0.124495 0.004,-0.246432 -0.0178,-0.121395 -0.0793,-0.228119 -0.10717,-0.186124 -0.28322,-0.218193 -0.1761,-0.03206 -0.39476,0.09375 -0.21867,0.125823 -0.27814,0.293448 -0.0595,0.167625 0.0476,0.353753 0.0636,0.110629 0.15553,0.185978 0.0931,0.0746 0.21808,0.117056 z m -0.60141,-2.430553 q -0.1264,-0.211401 -0.23055,-0.262833 -0.10425,-0.05143 -0.23569,0.02714 -0.0979,0.05855 -0.12133,0.151218 -0.0233,0.09267 0.0359,0.191924 0.0893,0.149527 0.25081,0.165005 0.16274,0.01473 0.36511,-0.106239 l 0.0258,-0.01542 z m 0.45996,0.438873 -0.82368,0.492246 -0.22417,-0.375104 0.16112,-0.09629 q -0.13621,-0.01126 -0.25171,-0.08749 -0.11551,-0.07618 -0.19253,-0.205076 -0.14713,-0.246202 -0.0993,-0.461935 0.0486,-0.214441 0.28185,-0.353873 0.25264,-0.150987 0.47036,-0.05892 0.21899,0.0913 0.4239,0.434176 l 0.15639,0.261667 0.0631,-0.03775 q 0.0915,-0.0547 0.0978,-0.149454 0.009,-0.09424 -0.0686,-0.223145 -0.0808,-0.135349 -0.19195,-0.242162 -0.10906,-0.106289 -0.2662,-0.19954 l 0.32226,-0.192586 q 0.12626,0.09422 0.22781,0.208486 0.10147,0.114272 0.1878,0.258638 0.2103,0.3519 0.15195,0.5792 -0.0576,0.228592 -0.42623,0.448911 z m -0.48422,-2.103672 -0.32668,0.202635 q 0.003,-0.144526 -0.0343,-0.277407 -0.0344,-0.132392 -0.104,-0.244691 -0.0776,-0.125064 -0.15415,-0.165911 -0.0753,-0.04164 -0.14677,0.0027 -0.10211,0.06332 0.004,0.375989 l 0.005,0.01641 0.041,0.123027 q 0.0782,0.234253 0.0282,0.395971 -0.0478,0.162197 -0.2316,0.27618 -0.22076,0.136936 -0.42201,0.06033 -0.1992,-0.07613 -0.37966,-0.367081 -0.08,-0.128887 -0.14088,-0.278403 -0.0623,-0.148726 -0.10388,-0.315525 l 0.32669,-0.202635 q 0.006,0.167317 0.0487,0.317886 0.0429,0.15184 0.11728,0.271793 0.0815,0.131444 0.16176,0.17533 0.0802,0.04389 0.15297,-0.0012 0.0715,-0.04432 0.0797,-0.116562 0.009,-0.07097 -0.0592,-0.277807 l -0.0411,-0.117612 q -0.0845,-0.244469 -0.042,-0.406844 0.0424,-0.162373 0.21597,-0.270024 0.20673,-0.12823 0.41418,-0.05016 0.20747,0.07807 0.37527,0.348607 0.0751,0.121231 0.12919,0.253849 0.056,0.133103 0.0869,0.271217 z m -2.206,-0.615979 q -0.13592,-0.09469 -0.24857,-0.211485 -0.11261,-0.116802 -0.20852,-0.26582 -0.22833,-0.354864 -0.15996,-0.664907 0.0705,-0.309595 0.42783,-0.539536 0.34601,-0.222633 0.66301,-0.171235 0.31698,0.05139 0.51768,0.363326 0.20231,0.314454 0.12672,0.607717 -0.0735,0.293713 -0.41196,0.511472 l -0.15028,0.09669 -0.61669,-0.958511 q -0.1659,0.108516 -0.18542,0.258573 -0.0195,0.150053 0.10476,0.34327 0.0821,0.127549 0.19832,0.227746 0.11627,0.100191 0.28274,0.184133 z m 0.59408,-0.825076 q 0.14488,-0.09677 0.17226,-0.217967 0.0295,-0.120737 -0.0615,-0.262171 -0.0821,-0.127549 -0.20911,-0.152944 -0.12576,-0.02621 -0.27743,0.05171 z m 1.15233,-0.853896 0.22913,0.356129 -0.77385,-0.159226 -0.16007,-0.248781 z m -1.87906,-1.020984 0.74332,-0.495803 0.24331,0.364787 -1.94385,1.296582 -0.24332,-0.364782 0.20738,-0.138325 q -0.16034,0.0221 -0.28405,-0.03076 -0.12285,-0.05161 -0.20704,-0.177789 -0.15998,-0.239859 -0.0559,-0.500604 0.10413,-0.260745 0.45385,-0.494065 0.35479,-0.236653 0.63384,-0.229641 0.27989,0.0082 0.4457,0.256866 0.075,0.112437 0.0754,0.240293 0.003,0.128275 -0.0687,0.273231 z m -0.84468,-0.17305 q -0.20238,0.134991 -0.2723,0.279113 -0.07,0.144123 0.009,0.262803 0.0792,0.118675 0.23992,0.11073 0.16077,-0.008 0.36315,-0.142946 0.20238,-0.134991 0.27148,-0.280362 0.0691,-0.145371 -0.0101,-0.264051 -0.0792,-0.118675 -0.23908,-0.109477 -0.15993,0.0092 -0.36231,0.144194 z m -1.32172,-2.370859 -0.88769,0.635481 -0.25436,-0.355323 0.83274,-0.596145 q 0.14896,-0.106644 0.18187,-0.194833 0.0349,-0.08784 -0.0332,-0.183082 -0.0691,-0.09646 -0.19597,-0.09056 -0.12601,0.0071 -0.27987,0.117258 l -0.78269,0.560306 -0.25437,-0.355321 1.36757,-0.979009 0.25436,0.355322 -0.20514,0.146851 q 0.14067,-0.04343 0.26849,0.0034 0.12784,0.047 0.22049,0.176425 0.13899,0.194148 0.0803,0.385708 -0.0574,0.190687 -0.31261,0.373375 z m -1.87466,-0.879485 q -0.14188,-0.0855 -0.262,-0.194601 -0.12007,-0.109097 -0.22562,-0.251465 -0.25127,-0.339002 -0.20353,-0.652887 0.0498,-0.313569 0.39124,-0.566622 0.33056,-0.245002 0.65025,-0.214656 0.31969,0.03033 0.54056,0.328331 0.22264,0.300399 0.1666,0.598018 -0.0539,0.297931 -0.37727,0.537567 l -0.14358,0.106416 -0.67867,-0.915677 q -0.15835,0.119232 -0.16792,0.270252 -0.0101,0.151017 0.12724,0.3356 0.0903,0.121851 0.21293,0.214145 0.1226,0.0923 0.29429,0.165054 z m 0.53829,-0.862518 q 0.13815,-0.106137 0.15747,-0.228869 0.0214,-0.12242 -0.0787,-0.257535 -0.0903,-0.121851 -0.21877,-0.138793 -0.12724,-0.01784 -0.27339,0.06993 z m -2.37709,-4.16405 0.83552,1.052718 -0.26936,0.213784 -1.34027,-0.06545 0.54985,0.692795 -0.25759,0.204445 -0.85793,-1.080946 0.26936,-0.21378 1.34121,0.06662 -0.52838,-0.665739 z m -1.552,0.622333 q -0.14594,-0.07837 -0.27132,-0.181384 -0.12538,-0.103012 -0.23781,-0.23997 -0.26775,-0.326141 -0.23563,-0.642005 0.0343,-0.315652 0.36271,-0.585308 0.318,-0.261081 0.63881,-0.246615 0.32079,0.01446 0.55615,0.301148 0.23725,0.288997 0.19602,0.589027 -0.0391,0.300238 -0.35017,0.555601 l -0.13812,0.113387 -0.72321,-0.880926 q -0.15225,0.126938 -0.15433,0.27824 -0.003,0.151304 0.14373,0.328881 0.0963,0.117233 0.22327,0.203335 0.12703,0.08611 0.30211,0.150269 z m 0.49489,-0.888134 q 0.13273,-0.112855 0.14594,-0.236384 0.0153,-0.123331 -0.0913,-0.253322 -0.0963,-0.11722 -0.22537,-0.127783 -0.12798,-0.01151 -0.26962,0.08339 z m -0.60194,-1.670034 -0.29304,0.248805 q -0.0192,-0.143265 -0.0749,-0.269272 -0.0537,-0.125836 -0.13917,-0.226569 -0.0953,-0.112185 -0.17704,-0.141239 -0.0806,-0.03002 -0.14475,0.02441 -0.0916,0.07776 0.0592,0.371321 l 0.008,0.0155 0.0587,0.115601 q 0.11197,0.220092 0.0867,0.387412 -0.0233,0.167495 -0.18811,0.307446 -0.19804,0.168137 -0.40843,0.122193 -0.20828,-0.04578 -0.42986,-0.306777 -0.0982,-0.115626 -0.18057,-0.254456 -0.0836,-0.137867 -0.14943,-0.296658 l 0.29305,-0.248805 q 0.0314,0.164497 0.0953,0.307154 0.0649,0.143805 0.15633,0.25141 0.10008,0.117904 0.18596,0.149423 0.0858,0.03153 0.1511,-0.02387 0.0641,-0.05443 0.0615,-0.127084 -0.001,-0.07151 -0.0997,-0.265965 l -0.0581,-0.110224 q -0.11981,-0.229249 -0.10185,-0.396117 0.0178,-0.166869 0.17357,-0.299042 0.18546,-0.157446 0.40218,-0.110983 0.21674,0.04646 0.42278,0.289151 0.0924,0.108743 0.16537,0.231905 0.0752,0.123331 0.12614,0.25534 z m -1.22051,-1.427973 -0.2889,0.253607 q -0.0215,-0.142926 -0.0793,-0.267992 -0.0557,-0.124925 -0.14291,-0.224243 -0.097,-0.110603 -0.17934,-0.138298 -0.0811,-0.02868 -0.14432,0.0268 -0.0903,0.07925 0.0653,0.370292 l 0.008,0.01537 0.0606,0.114614 q 0.11564,0.218211 0.093,0.385929 -0.0205,0.167856 -0.18301,0.310509 -0.19523,0.171382 -0.40635,0.128915 -0.209,-0.04233 -0.43486,-0.299639 -0.10008,-0.113981 -0.18476,-0.251437 -0.0858,-0.136467 -0.1543,-0.294152 l 0.2889,-0.253606 q 0.034,0.163954 0.10033,0.305538 0.0673,0.142711 0.16046,0.248793 0.1021,0.116246 0.1884,0.146332 0.0864,0.0301 0.15068,-0.02637 0.0633,-0.05548 0.0595,-0.128084 -0.003,-0.07147 -0.10413,-0.264281 l -0.06,-0.10925 q -0.12361,-0.227237 -0.10843,-0.394378 0.0152,-0.167141 0.16862,-0.301872 0.18282,-0.160486 0.40029,-0.1176 0.21747,0.04288 0.4275,0.282131 0.0941,0.107213 0.16917,0.229144 0.0772,0.122066 0.13037,0.253223 z m -1.46882,-1.963843 -0.81972,0.462011 0.28154,0.31026 z m 0.11854,-0.472638 0.3643,0.401449 -1.25359,1.954799 -0.2977,-0.328051 0.3175,-0.474682 -0.39861,-0.439254 -0.50117,0.27229 -0.29769,-0.328055 z" /><path
         id="path1704"
         style="font-weight:bold;font-size:8px;line-height:1;font-family:monospace;-inkscape-font-specification:'monospace Bold';text-align:center;letter-spacing:0px;text-anchor:middle;white-space:pre;shape-inside:url(#rect464);display:inline;fill:#ffffff;stroke-width:0.384427;stroke-linecap:round"
         d="m 148.2494,144.7242 q -0.15316,0.063 -0.31234,0.0946 -0.15918,0.0315 -0.33637,0.0315 -0.42197,0 -0.64572,-0.22525 -0.22226,-0.22675 -0.22226,-0.65173 0,-0.41145 0.21475,-0.65022 0.21474,-0.23877 0.58565,-0.23877 0.37392,0 0.57964,0.22226 0.20724,0.22074 0.20724,0.62318 v 0.17871 h -1.13978 q 0.001,0.19822 0.11716,0.29583 0.11564,0.0975 0.34539,0.0975 0.15167,0 0.29883,-0.0435 0.14716,-0.0435 0.30784,-0.13815 z m -0.37241,-0.94606 q -0.003,-0.17418 -0.0901,-0.26278 -0.0857,-0.0901 -0.25377,-0.0901 -0.15167,0 -0.24177,0.0931 -0.0901,0.0916 -0.10665,0.26129 z m -1.40555,-0.18921 q -0.0721,-0.066 -0.1697,-0.0991 -0.0962,-0.033 -0.21173,-0.033 -0.13965,0 -0.24478,0.0496 -0.10362,0.0481 -0.16068,0.14116 -0.0361,0.0571 -0.051,0.13814 -0.0135,0.0811 -0.0135,0.24629 v 0.77485 h -0.44 V 143.125 h 0.44 v 0.26129 q 0.0645,-0.14416 0.19821,-0.22225 0.13365,-0.0796 0.31234,-0.0796 0.0901,0 0.1757,0.0225 0.0871,0.021 0.16518,0.063 z m -2.65496,-0.14716 q -0.15767,0 -0.24776,0.13966 -0.0901,0.13816 -0.0901,0.38593 0,0.24776 0.0901,0.38743 0.0901,0.13815 0.24776,0.13815 0.15919,0 0.24928,-0.13815 0.0901,-0.13967 0.0901,-0.38743 0,-0.24777 -0.0901,-0.38593 -0.0901,-0.13966 -0.24928,-0.13966 z m -0.77786,0.52559 q 0,-0.40695 0.21023,-0.64422 0.21174,-0.23877 0.56763,-0.23877 0.3574,0 0.56763,0.23877 0.21174,0.23727 0.21174,0.64422 0,0.40695 -0.21174,0.64572 -0.21023,0.23726 -0.56763,0.23726 -0.35589,0 -0.56763,-0.23726 -0.21023,-0.23877 -0.21023,-0.64572 z m -0.40545,0.75383 q -0.11109,0.0645 -0.23877,0.0961 -0.12763,0.033 -0.2748,0.033 -0.38893,0 -0.60818,-0.23427 -0.21924,-0.23426 -0.21924,-0.64871 0,-0.41597 0.22075,-0.65022 0.22075,-0.23577 0.60967,-0.23577 0.13516,0 0.25979,0.0315 0.12614,0.0315 0.25078,0.0977 v 0.40245 q -0.0962,-0.0826 -0.21173,-0.12614 -0.11412,-0.045 -0.23726,-0.045 -0.21475,0 -0.33037,0.13665 -0.11564,0.13666 -0.11564,0.38894 0,0.25227 0.11564,0.38742 0.11564,0.13515 0.33037,0.13515 0.12763,0 0.23876,-0.042 0.11109,-0.0435 0.21023,-0.13065 z m -1.83653,-1.00611 v 1.09171 h -0.43699 v -1.02413 q 0,-0.18322 -0.0526,-0.2613 -0.0511,-0.0796 -0.16818,-0.0796 -0.11868,0 -0.18771,0.10666 -0.0676,0.10666 -0.0676,0.29583 v 0.96257 h -0.43698 v -1.68187 h 0.43698 v 0.25228 q 0.0466,-0.13965 0.15918,-0.21624 0.1126,-0.0765 0.2718,-0.0765 0.23876,0 0.3604,0.15919 0.12159,0.15766 0.12159,0.47152 z m -1.80501,1.00912 q -0.15317,0.063 -0.31235,0.0946 -0.15918,0.0315 -0.33637,0.0315 -0.42197,0 -0.64572,-0.22525 -0.22225,-0.22675 -0.22225,-0.65173 0,-0.41145 0.21475,-0.65022 0.21472,-0.23877 0.58564,-0.23877 0.37392,0 0.57965,0.22226 0.20723,0.22074 0.20723,0.62318 v 0.17871 h -1.13977 q 0.001,0.19822 0.11716,0.29583 0.11564,0.0975 0.34539,0.0975 0.15167,0 0.29884,-0.0435 0.14716,-0.0435 0.30784,-0.13815 z m -0.37242,-0.94606 q -0.003,-0.17418 -0.0901,-0.26278 -0.0857,-0.0901 -0.25379,-0.0901 -0.15167,0 -0.24176,0.0931 -0.0901,0.0916 -0.10666,0.26129 z m -4.74526,0.4415 v -1.09472 h 0.43998 v 1.02715 q 0,0.18169 0.0511,0.25978 0.0511,0.0781 0.16968,0.0781 0.11868,0 0.1847,-0.10514 0.0676,-0.10513 0.0676,-0.29433 v -0.96557 h 0.43998 v 1.68187 h -0.43998 v -0.24928 q -0.0466,0.13965 -0.15919,0.21625 -0.11108,0.0765 -0.26879,0.0765 -0.24027,0 -0.3634,-0.15918 -0.12159,-0.15918 -0.12159,-0.47152 z m -0.90401,-0.85595 v -0.8935 h 0.43849 v 2.3366 h -0.43849 v -0.24928 q -0.0706,0.14566 -0.1832,0.21925 -0.11108,0.0736 -0.26279,0.0736 -0.28833,0 -0.4475,-0.23126 -0.15918,-0.23126 -0.15918,-0.65172 0,-0.42648 0.16068,-0.65474 0.16219,-0.22825 0.46102,-0.22825 0.13514,0 0.24176,0.0706 0.10818,0.0691 0.18921,0.20873 z m -0.61268,0.60667 q 0,0.24327 0.0811,0.38142 0.0811,0.13816 0.22373,0.13816 0.14267,0 0.22526,-0.13816 0.0826,-0.13815 0.0826,-0.38142 0,-0.24327 -0.0826,-0.38143 -0.0826,-0.13815 -0.22526,-0.13815 -0.14265,0 -0.22373,0.13815 -0.0811,0.13816 -0.0811,0.38143 z m -0.81841,-0.25528 v 1.09171 h -0.43698 v -1.02413 q 0,-0.18322 -0.0525,-0.2613 -0.0511,-0.0796 -0.16819,-0.0796 -0.11868,0 -0.18771,0.10666 -0.0676,0.10666 -0.0676,0.29583 v 0.96257 h -0.43698 v -1.68187 h 0.43698 v 0.25228 q 0.0466,-0.13965 0.15918,-0.21624 0.1126,-0.0765 0.2718,-0.0765 0.23877,0 0.3604,0.15919 0.12159,0.15766 0.12159,0.47152 z m -2.53481,-0.27331 q -0.15767,0 -0.24778,0.13966 -0.0901,0.13816 -0.0901,0.38593 0,0.24776 0.0901,0.38743 0.0901,0.13815 0.24778,0.13815 0.15917,0 0.24928,-0.13815 0.0901,-0.13967 0.0901,-0.38743 0,-0.24777 -0.0901,-0.38593 -0.0901,-0.13966 -0.24928,-0.13966 z m -0.77787,0.52559 q 0,-0.40695 0.21024,-0.64422 0.21174,-0.23877 0.56763,-0.23877 0.35739,0 0.56763,0.23877 0.21174,0.23727 0.21174,0.64422 0,0.40695 -0.21174,0.64572 -0.21024,0.23726 -0.56763,0.23726 -0.35589,0 -0.56763,-0.23726 -0.21024,-0.23877 -0.21024,-0.64572 z m -1.33498,0.60217 v 0.87697 h -0.43848 v -2.32158 h 0.43848 v 0.25228 q 0.0691,-0.14566 0.18171,-0.21925 0.1126,-0.0736 0.26429,-0.0736 0.28832,0 0.44749,0.23126 0.15918,0.23126 0.15918,0.65173 0,0.42647 -0.16218,0.65473 -0.16068,0.22825 -0.4595,0.22825 -0.13516,0 -0.24327,-0.0691 -0.10666,-0.0706 -0.18772,-0.21173 z m 0.61268,-0.60518 q 0,-0.24327 -0.0811,-0.38142 -0.0811,-0.13816 -0.22375,-0.13816 -0.14266,0 -0.22525,0.13816 -0.0826,0.13815 -0.0826,0.38142 0,0.24327 0.0826,0.38142 0.0826,0.13816 0.22525,0.13816 0.14267,0 0.22375,-0.13816 0.0811,-0.13815 0.0811,-0.38142 z m -1.47313,0.75985 q -0.15317,0.063 -0.31235,0.0946 -0.15917,0.0315 -0.33638,0.0315 -0.42196,0 -0.64571,-0.22525 -0.22225,-0.22675 -0.22225,-0.65173 0,-0.41145 0.21474,-0.65022 0.21475,-0.23877 0.58565,-0.23877 0.37392,0 0.57965,0.22226 0.20722,0.22074 0.20722,0.62318 v 0.17871 h -1.13976 q 10e-4,0.19822 0.11716,0.29583 0.11564,0.0975 0.34538,0.0975 0.15166,0 0.29883,-0.0435 0.14717,-0.0435 0.30785,-0.13815 z m -0.37242,-0.94606 q -0.003,-0.17418 -0.0901,-0.26278 -0.0857,-0.0901 -0.25379,-0.0901 -0.15166,0 -0.24176,0.0931 -0.0901,0.0916 -0.10666,0.26129 z m -0.0946,-1.43107 h 0.42348 l -0.55263,0.56461 h -0.29583 z m -1.31095,1.24186 q -0.0721,-0.066 -0.16969,-0.0991 -0.0962,-0.033 -0.21174,-0.033 -0.13966,0 -0.24477,0.0496 -0.10362,0.0481 -0.16068,0.14116 -0.0361,0.0571 -0.0511,0.13814 -0.0135,0.0811 -0.0135,0.24629 v 0.77485 h -0.43998 V 143.125 h 0.43998 v 0.26129 q 0.0645,-0.14416 0.19822,-0.22225 0.13365,-0.0796 0.31235,-0.0796 0.0901,0 0.17568,0.0225 0.087,0.021 0.16519,0.063 z m -3.94339,-0.41145 v 0.38443 q -0.12158,-0.0781 -0.25377,-0.11716 -0.13064,-0.0405 -0.26279,-0.0405 -0.14717,0 -0.22226,0.0435 -0.075,0.042 -0.075,0.12614 0,0.12007 0.32136,0.19521 l 0.0166,0.005 0.12614,0.03 q 0.24027,0.0571 0.35139,0.1847 0.11261,0.12614 0.11261,0.34238 0,0.25979 -0.1712,0.39044 -0.16969,0.12913 -0.51206,0.12913 -0.15167,0 -0.31085,-0.0271 -0.15918,-0.0256 -0.32286,-0.0781 v -0.38443 q 0.14566,0.0826 0.29583,0.12614 0.15167,0.0435 0.29283,0.0435 0.15467,0 0.23426,-0.045 0.0796,-0.045 0.0796,-0.13066 0,-0.0841 -0.0571,-0.12914 -0.0555,-0.045 -0.2673,-0.0961 l -0.12158,-0.0271 q -0.25228,-0.0571 -0.36791,-0.17869 -0.11564,-0.12159 -0.11564,-0.32587 0,-0.24327 0.17569,-0.37842 0.17569,-0.13516 0.49406,-0.13516 0.14265,0 0.2838,0.024 0.14267,0.0225 0.27631,0.0691 z m -2.28853,0.83943 q -0.24627,0 -0.34388,0.063 -0.0977,0.0631 -0.0977,0.21625 0,0.11412 0.0676,0.1817 0.0676,0.0676 0.1832,0.0676 0.17419,0 0.27031,-0.13066 0.0961,-0.13214 0.0961,-0.36791 v -0.03 z m 0.61268,-0.16969 v 0.95957 h -0.43698 v -0.18771 q -0.0796,0.11108 -0.20423,0.17119 -0.12462,0.0601 -0.27481,0.0601 -0.28681,0 -0.44749,-0.15168 -0.15919,-0.15167 -0.15919,-0.42347 0,-0.29432 0.19072,-0.43399 0.19071,-0.14114 0.59016,-0.14114 h 0.30484 v -0.0736 q 0,-0.10666 -0.0781,-0.16068 -0.0765,-0.0555 -0.22674,-0.0555 -0.15769,0 -0.30635,0.0405 -0.14716,0.0391 -0.30784,0.12614 v -0.37542 q 0.14566,-0.0601 0.29583,-0.0886 0.15016,-0.0285 0.31836,-0.0285 0.40994,0 0.57513,0.16669 0.16669,0.16667 0.16669,0.59616 z m -2.82914,-0.91 v 0.65772 h 0.1817 q 0.21774,0 0.30483,-0.0736 0.0886,-0.0735 0.0886,-0.25527 0,-0.18171 -0.0886,-0.25528 -0.087,-0.0736 -0.30483,-0.0736 z m -0.44299,-0.37243 h 0.60818 q 0.46401,0 0.66673,0.1652 0.20423,0.16518 0.20423,0.53609 0,0.3709 -0.20423,0.5361 -0.20272,0.16518 -0.66673,0.16518 h -0.16519 v 0.83943 h -0.44299 z" /><path
         id="path3074"
         style="font-weight:bold;font-size:7.99999px;line-height:1;font-family:monospace;-inkscape-font-specification:'monospace Bold';text-align:center;letter-spacing:0px;white-space:pre;display:inline;fill:#ffffff;stroke-width:1.26519;stroke-linecap:round"
         d="m 22.722355,97.074204 -0.859258,-0.24496 0.120218,-0.42169 2.247068,0.64058 -0.120206,0.42169 -0.239725,-0.0683 q 0.120724,0.1078 0.160617,0.23629 0.0403,0.12704 -0.0013,0.27289 -0.07904,0.27728 -0.345078,0.36696 -0.266035,0.0897 -0.670391,-0.0256 -0.410134,-0.1169 -0.585591,-0.33401 -0.175046,-0.21855 -0.09312,-0.50593 0.03704,-0.12997 0.134155,-0.21316 0.09607,-0.085 0.252606,-0.12475 z m 0.41546,0.75552 q 0.23395,0.0667 0.389041,0.0266 0.155092,-0.0401 0.194201,-0.17731 0.03911,-0.13718 -0.0711,-0.25449 -0.110211,-0.11728 -0.344165,-0.184 -0.23395,-0.0667 -0.389452,-0.0252 -0.155503,0.0415 -0.194613,0.17874 -0.03911,0.1372 0.07152,0.25305 0.110628,0.1159 0.344577,0.18255 z m -0.561662,0.58704 q -0.08244,0.0526 -0.13955,0.13836 -0.05672,0.0844 -0.08657,0.19603 -0.03605,0.13492 -0.0153,0.24927 0.01969,0.11247 0.0949,0.19166 0.04583,0.0496 0.120295,0.085 0.07485,0.034 0.234439,0.0767 l 0.748606,0.2 -0.113564,0.42508 -1.624879,-0.4341 0.113564,-0.42508 0.252435,0.0674 q -0.12261,-0.0996 -0.163554,-0.24887 -0.0424,-0.14966 0.0037,-0.3223 0.02325,-0.087 0.06711,-0.16393 0.04279,-0.0787 0.103569,-0.14331 z m -0.818186,2.552906 q -0.03816,0.15298 0.07554,0.27419 0.112248,0.12083 0.352656,0.18082 0.240411,0.06 0.397718,0.006 0.15585,-0.054 0.194004,-0.20699 0.03853,-0.15444 -0.07372,-0.27531 -0.113703,-0.1212 -0.354113,-0.18116 -0.24041,-0.06 -0.39626,-0.006 -0.157308,0.0536 -0.195825,0.20807 z m 0.321732,0.88193 q -0.394857,-0.0984 -0.574194,-0.35989 -0.180434,-0.26321 -0.09431,-0.60853 0.08649,-0.34678 0.369026,-0.49299 0.281447,-0.14802 0.676304,-0.0496 0.394857,0.0984 0.575289,0.36169 0.179339,0.2614 0.09285,0.60818 -0.08612,0.34531 -0.367568,0.49334 -0.282542,0.1462 -0.677399,0.0477 z m 0.63715,0.57828 q 0.03782,0.12285 0.03971,0.2543 0.0033,0.1318 -0.02987,0.27516 -0.08782,0.37888 -0.365533,0.53958 -0.277712,0.16068 -0.681469,0.0671 -0.405219,-0.0939 -0.583586,-0.36186 -0.179831,-0.26828 -0.09202,-0.64717 0.03052,-0.13165 0.08937,-0.24595 0.0592,-0.11577 0.151712,-0.22226 l 0.392053,0.0908 q -0.102164,0.075 -0.170691,0.17779 -0.06966,0.10096 -0.09746,0.22096 -0.04848,0.20919 0.05853,0.35269 0.10701,0.1435 0.352779,0.20046 0.245764,0.0569 0.403531,-0.0252 0.157769,-0.0821 0.206255,-0.29131 0.02882,-0.12437 0.01296,-0.2421 -0.01733,-0.11804 -0.0798,-0.2343 z m -0.414186,1.80608 q 0.03985,0.12221 0.04394,0.2536 0.0056,0.13174 -0.02528,0.27563 -0.0815,0.3803 -0.356498,0.54559 -0.275,0.16528 -0.68026,0.0784 -0.406725,-0.0872 -0.58953,-0.35209 -0.18427,-0.26525 -0.102771,-0.64556 0.02832,-0.13215 0.08527,-0.2474 0.05726,-0.11678 0.147991,-0.22477 l 0.393511,0.0843 q -0.100899,0.0767 -0.167707,0.1806 -0.06797,0.1021 -0.09376,0.22256 -0.045,0.20996 0.06439,0.35166 0.109389,0.14171 0.356068,0.19456 0.246679,0.0529 0.403057,-0.0319 0.156379,-0.0848 0.201376,-0.29471 0.02675,-0.12475 0.0089,-0.24227 -0.01929,-0.11779 -0.08369,-0.23294 z m -1.179823,2.20852 q -0.04758,0.24163 -0.0046,0.34958 0.04302,0.10793 0.193302,0.13756 0.11197,0.022 0.191336,-0.0311 0.07936,-0.0533 0.101696,-0.16669 0.03367,-0.17091 -0.07595,-0.29045 -0.111084,-0.11981 -0.342402,-0.16538 l -0.02947,-0.006 z m -0.0481,-0.63393 0.941477,0.18543 -0.08444,0.42875 -0.18417,-0.0363 q 0.09365,0.0996 0.128498,0.23345 0.03484,0.1339 0.0058,0.28124 -0.05543,0.28142 -0.235284,0.40976 -0.179568,0.12686 -0.446247,0.0744 -0.28878,-0.0569 -0.388949,-0.27098 -0.101645,-0.2144 -0.02446,-0.60631 l 0.05891,-0.2991 -0.07219,-0.0142 q -0.104606,-0.0206 -0.172739,0.0455 -0.06932,0.0644 -0.09833,0.21174 -0.03047,0.15471 -0.01942,0.30841 0.0099,0.15193 0.06427,0.32642 l -0.368341,-0.0725 q -0.0308,-0.15453 -0.02976,-0.30738 0.001,-0.15285 0.03353,-0.31787 0.07923,-0.40223 0.274683,-0.53209 0.195753,-0.13132 0.617135,-0.0483 z m -1.716847,2.14563 0.820283,0.14742 -0.068,0.37837 -0.820281,-0.14742 z m 0.478353,1.91827 -0.881908,-0.1434 0.07037,-0.4328 2.3063,0.375 -0.07037,0.4328 -0.246043,-0.04 q 0.132444,0.093 0.186997,0.21602 0.0548,0.12146 0.03045,0.2712 -0.04628,0.28458 -0.30008,0.40458 -0.253806,0.11994 -0.668821,0.0525 -0.420944,-0.0684 -0.62045,-0.26368 -0.199266,-0.19672 -0.151305,-0.49167 0.02169,-0.1334 0.108465,-0.22731 0.08554,-0.0956 0.236393,-0.15326 z m 0.500477,0.7021 q 0.240116,0.0391 0.389492,-0.0189 0.149377,-0.0578 0.172273,-0.19867 0.0229,-0.14081 -0.100216,-0.2445 -0.123104,-0.10375 -0.363222,-0.14274 -0.240117,-0.0391 -0.389735,0.0202 -0.149618,0.0593 -0.172514,0.20016 -0.0229,0.1408 0.100456,0.24302 0.123344,0.10222 0.363464,0.14125 z m -1.779288,3.06744 0.473626,0.061 0.07339,-0.57043 0.335112,0.0431 -0.07339,0.57044 0.789375,0.10159 q 0.111704,0.0144 0.167753,-0.0329 0.05475,-0.049 0.07104,-0.17557 l 0.04312,-0.33512 0.335112,0.0432 -0.04714,0.36638 q -0.04829,0.37532 -0.184501,0.49256 -0.137696,0.11703 -0.462383,0.0753 l -0.768523,-0.0989 -0.05481,0.42595 -0.335112,-0.0431 0.05481,-0.42595 -0.473625,-0.061 z m 0.897524,1.42367 1.084945,0.12134 -0.04857,0.43429 -1.017789,-0.11387 q -0.182068,-0.0204 -0.265513,0.0232 -0.08477,0.0419 -0.09779,0.15829 -0.01318,0.11792 0.0851,0.1984 0.09844,0.0789 0.286485,0.10007 l 0.956602,0.10704 -0.04857,0.43428 -1.671443,-0.18695 0.04857,-0.43426 0.250718,0.028 q -0.133616,-0.0617 -0.197207,-0.18223 -0.06359,-0.12045 -0.0459,-0.27863 0.02653,-0.23729 0.19825,-0.34048 0.170218,-0.10337 0.482121,-0.0684 z m 0.805339,1.90772 q 0.04828,0.15845 0.06461,0.3199 0.01632,0.16144 -4.62e-4,0.33784 -0.03995,0.42007 -0.28537,0.62149 -0.246773,0.19978 -0.669835,0.15954 -0.409609,-0.039 -0.626971,-0.27531 -0.217363,-0.23639 -0.182248,-0.60564 0.0354,-0.37223 0.276125,-0.55599 0.239373,-0.1854 0.640012,-0.14731 l 0.177895,0.017 -0.107909,1.13465 q 0.197472,0.0172 0.305588,-0.0886 0.108111,-0.10589 0.129868,-0.33459 0.01436,-0.15099 -0.01506,-0.30161 -0.02942,-0.15063 -0.108389,-0.31955 z m -0.977057,0.28117 q -0.173695,-0.0135 -0.270141,0.0648 -0.0978,0.0767 -0.113728,0.24411 -0.01436,0.15098 0.0698,0.24949 0.08265,0.0983 0.250022,0.13087 z m -0.670197,2.06872 q -0.102417,-0.0577 -0.147328,-0.13808 -0.04491,-0.0803 -0.03622,-0.19113 0.01703,-0.21707 0.17319,-0.28767 0.156283,-0.0721 0.629356,-0.0349 l 0.944649,0.0741 -0.02818,0.3593 -1.076392,-0.0844 q -0.187133,-0.0147 -0.25224,0.009 -0.06511,0.0235 -0.07098,0.0983 -0.0058,0.0749 0.05615,0.10982 0.06202,0.0349 0.246165,0.0495 l 1.076391,0.0844 -0.02783,0.3548 -1.076392,-0.0844 q -0.184139,-0.0144 -0.250861,0.0101 -0.06673,0.0249 -0.0726,0.0997 -0.0058,0.0749 0.05477,0.10817 0.06064,0.0334 0.24778,0.0481 l 1.076392,0.0844 -0.02819,0.3593 -1.676715,-0.1315 0.02501,-0.31888 0.173659,0.0137 q -0.09588,-0.0452 -0.146301,-0.13197 -0.05192,-0.0869 -0.04394,-0.18873 0.008,-0.10185 0.07594,-0.18082 0.06646,-0.0792 0.154697,-0.0903 z m 1.333461,1.34254 q 0.05349,0.15677 0.07515,0.31759 0.02165,0.16083 0.01075,0.33768 -0.02604,0.42117 -0.264673,0.63058 -0.240035,0.20784 -0.664196,0.18161 -0.410672,-0.0254 -0.635729,-0.25447 -0.225057,-0.22906 -0.202165,-0.59926 0.02308,-0.37321 0.257596,-0.56482 0.233114,-0.19321 0.634793,-0.16837 l 0.178357,0.0114 -0.07034,1.13759 q 0.197935,0.0101 0.302493,-0.0987 0.104556,-0.10944 0.118739,-0.33871 0.0094,-0.15138 -0.02503,-0.30095 -0.03439,-0.14957 -0.11889,-0.31578 z m -0.96723,0.31332 q -0.174046,-0.008 -0.26785,0.0738 -0.09521,0.0798 -0.105593,0.24773 -0.0094,0.15138 0.078,0.24707 0.08587,0.0956 0.254211,0.12259 z m -1.246547,2.06038 0.477041,0.0216 0.02603,-0.57455 0.337528,0.0153 -0.02603,0.57455 0.795066,0.0361 q 0.112514,0.005 0.164462,-0.0467 0.05052,-0.0534 0.05629,-0.18083 l 0.0153,-0.33753 0.337528,0.0153 -0.01671,0.36903 q -0.01713,0.37803 -0.143183,0.5061 -0.127559,0.12801 -0.454587,0.11324 l -0.774065,-0.035 -0.01943,0.42903 -0.337529,-0.0153 0.01943,-0.42904 -0.477041,-0.0216 z m 2.022072,1.32712 q 0.05863,0.15492 0.08556,0.31494 0.02694,0.16002 0.02182,0.33715 -0.01215,0.42179 -0.243764,0.63895 -0.233061,0.21563 -0.657857,0.20338 -0.411284,-0.0114 -0.643762,-0.23339 -0.232477,-0.22152 -0.22179,-0.59229 0.01075,-0.37375 0.238858,-0.57299 0.226625,-0.20079 0.628903,-0.18919 l 0.178624,0.005 -0.03284,1.1393 q 0.198181,0.004 0.29908,-0.10856 0.1009,-0.11272 0.107517,-0.34242 0.0044,-0.15161 -0.03492,-0.29997 -0.03928,-0.14835 -0.129224,-0.31169 z m -0.956388,0.345 q -0.174207,-0.003 -0.265279,0.0825 -0.09254,0.083 -0.09738,0.25108 -0.0044,0.15161 0.0861,0.24435 0.08897,0.0927 0.258108,0.11412 z m -1.444946,0.4601 0.576638,-0.40851 -0.0085,0.2957 -0.580317,0.53611 z m 1.719227,2.11303 -1.297338,-0.0161 -0.0056,0.44596 -0.337849,-0.004 0.01101,-0.88591 1.635188,0.0202 q 0.198204,0.003 0.281554,-0.0581 0.08335,-0.0605 0.08517,-0.2077 l 0.0043,-0.35135 0.337849,0.004 -0.0059,0.47449 q -0.0039,0.31383 -0.167758,0.44846 -0.163863,0.13463 -0.540751,0.12995 z m 0.461471,1.7787 0.876966,-0.004 0.0018,0.43849 -2.321556,0.009 -0.0018,-0.43849 0.252279,-0.001 q -0.145936,-0.0684 -0.219962,-0.18084 -0.07403,-0.11234 -0.07463,-0.26399 -0.0012,-0.28831 0.229481,-0.44841 0.230623,-0.16009 0.651087,-0.16176 0.426469,-0.001 0.655363,0.15958 0.228889,0.15978 0.230073,0.45861 5.38e-4,0.13515 -0.0681,0.24354 -0.07015,0.10691 -0.210989,0.18855 z m -0.607594,-0.61028 q -0.243268,10e-4 -0.3811,0.0826 -0.13783,0.0816 -0.137264,0.22429 5.75e-4,0.14265 0.139045,0.2247 0.138479,0.082 0.381747,0.0811 0.243267,-0.001 0.381093,-0.0841 0.137824,-0.0831 0.137258,-0.2258 -5.76e-4,-0.14265 -0.139039,-0.22319 -0.138473,-0.0806 -0.38174,-0.0796 z m -0.649328,2.11895 q -0.107605,-0.0473 -0.160202,-0.12285 -0.05261,-0.0755 -0.05486,-0.18663 -0.0044,-0.2177 0.144043,-0.30332 0.14843,-0.0872 0.622859,-0.0968 l 0.947354,-0.0192 0.0073,0.36033 -1.079474,0.0219 q -0.18767,0.004 -0.250148,0.0336 -0.06248,0.0299 -0.06096,0.10489 0.0015,0.075 0.06669,0.10374 0.06517,0.0287 0.249834,0.0249 l 1.079475,-0.0219 0.0072,0.35582 -1.079475,0.0219 q -0.184667,0.004 -0.248616,0.0351 -0.06394,0.0314 -0.06242,0.1064 0.0015,0.075 0.06516,0.10235 0.06364,0.0272 0.251305,0.0234 l 1.079476,-0.0219 0.0073,0.36033 -1.681519,0.0342 -0.0065,-0.31979 0.174158,-0.004 q -0.09985,-0.0356 -0.158578,-0.1169 -0.06022,-0.0814 -0.0623,-0.18348 -0.002,-0.1021 0.05778,-0.18741 0.05835,-0.0853 0.145061,-0.10514 z m 0.20417,1.98113 q 0.0058,0.15756 0.14862,0.2425 0.141354,0.085 0.388964,0.0759 0.247609,-0.009 0.383876,-0.10425 0.134768,-0.0951 0.129003,-0.25265 -0.0058,-0.15907 -0.147173,-0.24407 -0.142855,-0.0849 -0.390465,-0.0759 -0.247608,0.009 -0.382376,0.10413 -0.136267,0.0951 -0.130449,0.25421 z m 0.553667,0.75813 q -0.406679,0.0149 -0.651469,-0.18654 -0.246344,-0.20288 -0.259356,-0.55854 -0.01307,-0.35715 0.217855,-0.57598 0.229365,-0.22025 0.636044,-0.23513 0.406679,-0.0149 0.653025,0.18798 0.24479,0.20143 0.257855,0.55858 0.01301,0.35566 -0.216354,0.57593 -0.23092,0.21882 -0.6376,0.2337 z m 0.791825,0.34772 q 0.05953,0.1021 0.09262,0.21616 0.0331,0.114 0.03983,0.24151 0.02393,0.45287 -0.261889,0.70707 -0.285818,0.2542 -0.849658,0.28399 -0.565339,0.0299 -0.876352,-0.19279 -0.311013,-0.22266 -0.334941,-0.67554 -0.0067,-0.12747 0.01408,-0.24585 0.02081,-0.11843 0.06941,-0.22322 l 0.491859,-0.0259 q -0.09895,0.11956 -0.141229,0.23001 -0.04387,0.10906 -0.03784,0.22306 0.01284,0.24293 0.212856,0.35717 0.198443,0.11286 0.577834,0.0927 0.377894,-0.02 0.564841,-0.15315 0.18537,-0.1346 0.172534,-0.37753 -0.0061,-0.114 -0.05963,-0.21791 -0.05519,-0.10539 -0.166183,-0.21378 z" /><path
         id="path3142"
         style="font-weight:bold;font-size:7.99999px;line-height:1;font-family:monospace;-inkscape-font-specification:'monospace Bold';text-align:center;letter-spacing:0px;white-space:pre;display:inline;fill:#ffffff;stroke-width:1.26519;stroke-linecap:round"
         d="m 245.84267,136.24904 0.89296,0.0306 -0.0151,0.43823 -2.33522,-0.08 0.0151,-0.43823 0.24913,0.009 q -0.14316,-0.0755 -0.21285,-0.1906 -0.0697,-0.11362 -0.0645,-0.26516 0.0101,-0.28815 0.24645,-0.43932 0.23656,-0.15116 0.65679,-0.13676 0.42621,0.0145 0.64884,0.18301 0.22257,0.1699 0.21233,0.46855 -0.005,0.13507 -0.0788,0.23921 -0.0728,0.10564 -0.21508,0.18195 z m -0.58534,-0.63309 q -0.24312,-0.009 -0.38398,0.0679 -0.14085,0.0763 -0.14574,0.21889 -0.005,0.14258 0.13037,0.22985 0.13524,0.0873 0.37837,0.0957 0.24312,0.009 0.38402,-0.0695 0.14091,-0.0778 0.14579,-0.22038 0.005,-0.14258 -0.13041,-0.22834 -0.13529,-0.0858 -0.37842,-0.0941 z m 0.40361,-0.70499 q 0.0673,-0.0708 0.1021,-0.1679 0.0348,-0.0955 0.0368,-0.21113 0.003,-0.13962 -0.0452,-0.24561 -0.0462,-0.10438 -0.13829,-0.16316 -0.0564,-0.0371 -0.13722,-0.0535 -0.0809,-0.0149 -0.24599,-0.0178 l -0.77475,-0.0138 0.008,-0.43992 1.6816,0.0299 -0.008,0.43992 -0.26125,-0.005 q 0.14299,0.0672 0.21869,0.20214 0.0772,0.13504 0.074,0.31371 -10e-4,0.0901 -0.0257,0.17527 -0.0225,0.0867 -0.0659,0.16403 z m 0.17915,-2.67466 q 2e-4,-0.15767 -0.13935,-0.24794 -0.13805,-0.0902 -0.38582,-0.0906 -0.24778,-3e-4 -0.38754,0.0896 -0.13827,0.09 -0.13845,0.24761 -1.9e-4,0.15918 0.13784,0.24945 0.13955,0.0902 0.38732,0.0906 0.24778,3.1e-4 0.38604,-0.0896 0.13977,-0.09 0.13996,-0.24911 z m -0.52463,-0.7785 q 0.40695,3.8e-4 0.64396,0.21102 0.2385,0.21203 0.23806,0.56792 -3.8e-4,0.3574 -0.23945,0.56734 -0.23753,0.21144 -0.64448,0.21095 -0.40695,-3.9e-4 -0.64545,-0.21253 -0.23701,-0.21053 -0.23657,-0.56792 3.8e-4,-0.3559 0.23796,-0.56734 0.23902,-0.20994 0.64597,-0.20944 z m -0.75762,-0.40779 q -0.0663,-0.11008 -0.0997,-0.23728 -0.0349,-0.12711 -0.0372,-0.27427 -0.006,-0.38888 0.22493,-0.61168 0.23088,-0.2228 0.6453,-0.22913 0.41591,-0.006 0.65351,0.21077 0.23911,0.21712 0.24506,0.606 0.003,0.13514 -0.0276,0.26024 -0.0296,0.12661 -0.0937,0.25224 l -0.4024,0.006 q 0.0811,-0.0973 0.12285,-0.21363 0.0433,-0.11475 0.0414,-0.23793 -0.004,-0.21472 -0.14169,-0.32823 -0.1384,-0.11349 -0.39066,-0.10969 -0.25224,0.004 -0.38561,0.12158 -0.13337,0.11766 -0.13008,0.33239 0.003,0.12762 0.0457,0.2381 0.0453,0.11045 0.13384,0.20821 z m -0.0326,-1.8527 q -0.0681,-0.10906 -0.10362,-0.2356 -0.0371,-0.12652 -0.0418,-0.27361 -0.0127,-0.38873 0.21481,-0.61531 0.22716,-0.22659 0.64141,-0.23977 0.41576,-0.0132 0.65692,0.19996 0.24266,0.21314 0.25502,0.60187 0.004,0.13509 -0.0233,0.26067 -0.0276,0.12707 -0.0896,0.25375 l -0.40224,0.0128 q 0.0795,-0.0987 0.1193,-0.21564 0.0414,-0.11551 0.0374,-0.23856 -0.006,-0.21463 -0.14709,-0.32586 -0.14026,-0.11121 -0.39241,-0.10324 -0.25215,0.008 -0.38356,0.12789 -0.1314,0.11982 -0.12462,0.3345 0.004,0.12757 0.0496,0.23731 0.0471,0.10969 0.13727,0.20596 z m 0.61406,-2.42738 q -0.0114,-0.24598 -0.0796,-0.34043 -0.0677,-0.0944 -0.2207,-0.087 -0.114,0.005 -0.17823,0.0763 -0.0643,0.0707 -0.0586,0.18625 0.009,0.17399 0.14355,0.26368 0.13664,0.0896 0.37212,0.0782 l 0.03,-10e-4 z m 0.19909,0.60377 -0.95845,0.0463 -0.0211,-0.43648 0.18749,-0.009 q -0.11488,-0.0741 -0.18086,-0.19571 -0.066,-0.12158 -0.0733,-0.27158 -0.0138,-0.28648 0.12987,-0.4543 0.14381,-0.16632 0.4153,-0.17944 0.29398,-0.0143 0.44268,0.16952 0.1502,0.18367 0.1695,0.58265 l 0.0147,0.30448 0.0735,-0.004 q 0.10653,-0.005 0.15672,-0.0858 0.0517,-0.0792 0.0445,-0.22918 -0.008,-0.15749 -0.0553,-0.30403 -0.0461,-0.1451 -0.14087,-0.30138 l 0.37498,-0.0181 q 0.0671,0.14259 0.10273,0.2912 0.0358,0.14861 0.0439,0.3166 0.0197,0.40948 -0.13871,0.58252 -0.15843,0.17453 -0.58741,0.19528 z m 0.56354,-2.08381 -0.38362,0.0249 q 0.0701,-0.1264 0.10046,-0.26084 0.032,-0.13299 0.0234,-0.26487 -0.0101,-0.14685 -0.0578,-0.21896 -0.0468,-0.0723 -0.13074,-0.0668 -0.11994,0.008 -0.17399,0.33332 l -0.004,0.0167 -0.0218,0.12783 q -0.0414,0.24346 -0.16155,0.36261 -0.11855,0.12058 -0.33437,0.13457 -0.25923,0.0168 -0.40069,-0.14552 -0.13987,-0.16097 -0.16205,-0.50264 -0.0101,-0.15134 0.006,-0.31193 0.0152,-0.16051 0.0571,-0.32725 l 0.38361,-0.0249 q -0.073,0.15071 -0.10678,0.30338 -0.0337,0.15418 -0.0244,0.29503 0.0101,0.15434 0.0601,0.23085 0.0501,0.0765 0.13553,0.071 0.0839,-0.005 0.12513,-0.0653 0.0414,-0.0583 0.0786,-0.27295 l 0.0191,-0.1231 q 0.0406,-0.25546 0.15449,-0.37873 0.11387,-0.12323 0.31768,-0.13649 0.24277,-0.0158 0.38901,0.15081 0.14624,0.16657 0.16688,0.48426 0.009,0.14236 -0.005,0.28477 -0.0133,0.14381 -0.051,0.2802 z m -1.65597,-1.58229 q -0.0753,-0.14755 -0.11969,-0.30362 -0.0444,-0.1561 -0.0587,-0.33271 -0.0343,-0.42057 0.17203,-0.66188 0.20795,-0.23994 0.63151,-0.27448 0.4101,-0.0334 0.66553,0.16119 0.25542,0.19464 0.28556,0.56431 0.0304,0.37268 -0.17441,0.5958 -0.20318,0.22448 -0.60428,0.25719 l -0.17812,0.0145 -0.0926,-1.136 q -0.19745,0.0176 -0.28534,0.14078 -0.0879,0.12323 -0.0692,0.35218 0.0126,0.15117 0.0677,0.2943 0.0554,0.14314 0.16272,0.2956 z m 0.91266,-0.44805 q 0.17337,-0.0172 0.25459,-0.11122 0.0829,-0.0926 0.0692,-0.26026 -0.0127,-0.15116 -0.11248,-0.2334 -0.0986,-0.0824 -0.26909,-0.085 z m 1.41866,-0.2106 0.0344,0.42207 -0.60766,-0.5049 -0.024,-0.29485 z m -1.17678,-1.7856 0.88921,-0.0873 0.0429,0.43638 -2.3254,0.22831 -0.0429,-0.43637 0.24808,-0.0244 q -0.15186,-0.056 -0.23608,-0.16091 -0.0841,-0.10337 -0.0989,-0.25434 -0.0282,-0.28695 0.18642,-0.46796 0.21459,-0.18101 0.63306,-0.22209 0.42442,-0.0416 0.66729,0.0959 0.243,0.1391 0.2722,0.4365 0.0132,0.13451 -0.0466,0.2475 -0.0582,0.11438 -0.18925,0.20871 z m -0.66365,-0.55048 q -0.24211,0.0238 -0.37166,0.11792 -0.12957,0.0943 -0.11564,0.23619 0.0139,0.14196 0.1595,0.21066 0.14556,0.0687 0.38767,0.0449 0.24211,-0.0238 0.37153,-0.11944 0.12942,-0.0957 0.11551,-0.23766 -0.0139,-0.14198 -0.15935,-0.20919 -0.14543,-0.0672 -0.38753,-0.0434 z m -0.0493,-2.71389 -1.08237,0.1425 -0.0571,-0.43324 1.01536,-0.13369 q 0.18164,-0.0239 0.2522,-0.0862 0.0722,-0.061 0.0569,-0.17714 -0.0154,-0.11767 -0.13021,-0.17218 -0.1145,-0.053 -0.30212,-0.0283 l -0.95434,0.12563 -0.0571,-0.43324 1.66748,-0.21955 0.0571,0.43324 -0.25012,0.0329 q 0.14454,0.028 0.23516,0.12959 0.0906,0.10172 0.11147,0.25948 0.0311,0.23672 -0.11071,0.37809 -0.14045,0.14118 -0.45161,0.18215 z m -1.23951,-1.65877 q -0.0849,-0.14225 -0.13946,-0.29507 -0.0545,-0.15281 -0.0806,-0.32809 -0.062,-0.41739 0.12795,-0.67179 0.19165,-0.25315 0.61201,-0.31558 0.40699,-0.0605 0.67471,0.1169 0.26773,0.17733 0.3222,0.54423 0.0549,0.36985 -0.13468,0.606 -0.1879,0.2374 -0.58598,0.29652 l -0.17676,0.0263 -0.16744,-1.1274 q -0.19585,0.0306 -0.27541,0.15931 -0.0796,0.12872 -0.0458,0.35599 0.0223,0.15001 0.0869,0.28918 0.0647,0.13918 0.18189,0.28422 z m 0.88108,-0.50736 q 0.17186,-0.0286 0.2467,-0.12772 0.0765,-0.0979 0.0519,-0.26426 -0.0223,-0.15003 -0.1276,-0.22547 -0.10388,-0.0757 -0.27412,-0.0671 z m 0.46984,-4.13398 -0.46976,0.0858 0.10324,0.56579 -0.3324,0.0606 -0.10324,-0.5658 -0.78295,0.14287 q -0.11083,0.0202 -0.14984,0.0822 -0.0373,0.0633 -0.0144,0.18885 l 0.0606,0.33238 -0.33238,0.0606 -0.0663,-0.3634 q -0.0679,-0.37227 0.0263,-0.52532 0.0957,-0.1533 0.41772,-0.21207 l 0.76227,-0.1391 -0.0771,-0.4225 0.33238,-0.0606 0.0771,0.42251 0.46976,-0.0858 z m -1.28735,-1.08401 -1.07059,0.21369 -0.0855,-0.42853 1.00433,-0.20046 q 0.17965,-0.0359 0.24595,-0.10273 0.0681,-0.0657 0.0452,-0.18052 -0.0232,-0.1164 -0.14129,-0.16321 -0.11779,-0.0454 -0.30334,-0.009 l -0.94395,0.18842 -0.0855,-0.42854 1.64934,-0.3292 0.0855,0.42853 -0.24739,0.0494 q 0.14606,0.0183 0.24322,0.11374 0.0972,0.0954 0.1283,0.25156 0.0467,0.23413 -0.0855,0.38458 -0.13083,0.15014 -0.4386,0.21158 z m -1.34638,-1.57327 q -0.0941,-0.13632 -0.15864,-0.2852 -0.0645,-0.14887 -0.1021,-0.32204 -0.0894,-0.41239 0.0832,-0.67879 0.17451,-0.26525 0.58982,-0.3553 0.40212,-0.0872 0.68096,0.0721 0.27885,0.15925 0.35746,0.52174 0.0792,0.36543 -0.0944,0.61359 -0.17183,0.2493 -0.56513,0.33458 l -0.17463,0.0378 -0.24155,-1.11388 q -0.1934,0.0435 -0.26428,0.17716 -0.0708,0.1337 -0.0223,0.35823 0.0321,0.14822 0.10589,0.28281 0.0738,0.13459 0.20026,0.27157 z m 0.84565,-0.56442 q 0.16959,-0.0399 0.23773,-0.14376 0.07,-0.10273 0.0343,-0.2671 -0.0321,-0.14823 -0.14223,-0.21655 -0.10855,-0.0686 -0.27795,-0.0488 z m 0.0114,-2.17446 q 0.11514,0.0239 0.18229,0.0868 0.0672,0.0629 0.0925,0.17111 0.0497,0.21201 -0.0777,0.32666 -0.12703,0.11615 -0.58904,0.22435 l -0.9226,0.21607 -0.0822,-0.3509 1.05125,-0.24621 q 0.18277,-0.0428 0.23766,-0.085 0.0549,-0.0421 0.0378,-0.11526 -0.0171,-0.0731 -0.0868,-0.0875 -0.0697,-0.0145 -0.24956,0.0276 l -1.05125,0.24621 -0.0811,-0.34652 1.05125,-0.24621 q 0.17983,-0.0421 0.23586,-0.086 0.0561,-0.044 0.0388,-0.11703 -0.0171,-0.0731 -0.085,-0.0865 -0.0679,-0.0134 -0.25067,0.0294 l -1.05125,0.24622 -0.0822,-0.3509 1.63755,-0.38354 0.0729,0.31143 -0.1696,0.0397 q 0.10501,0.0139 0.17944,0.0814 0.0759,0.067 0.0992,0.16648 0.0233,0.0995 -0.0175,0.19535 -0.0394,0.0955 -0.12007,0.13298 z m -1.67801,-0.87466 q -0.0986,-0.13314 -0.16799,-0.27981 -0.0695,-0.14666 -0.11273,-0.31849 -0.10299,-0.40922 0.0609,-0.68117 0.16564,-0.27088 0.57777,-0.37461 0.399,-0.10046 0.68296,0.0495 0.28396,0.14995 0.3745,0.50964 0.0912,0.36261 -0.074,0.61637 -0.16348,0.25485 -0.55376,0.35308 l -0.17328,0.0436 -0.27823,-1.10529 q -0.19185,0.0498 -0.25829,0.18579 -0.0664,0.13596 -0.0101,0.35877 0.0371,0.14708 0.11513,0.27916 0.0782,0.13208 0.20913,0.26481 z m 0.82652,-0.59209 q 0.16819,-0.0454 0.23285,-0.15152 0.0664,-0.10501 0.0254,-0.26809 -0.0371,-0.14708 -0.14929,-0.21173 -0.11083,-0.065 -0.27942,-0.0396 z m 0.56242,-2.34153 -0.4611,0.12424 0.1496,0.55534 -0.32626,0.0879 -0.14958,-0.55535 -0.76849,0.207 q -0.10868,0.0293 -0.14254,0.0944 -0.0319,0.0662 0.001,0.1894 l 0.0879,0.32625 -0.32624,0.0879 -0.096,-0.3567 q -0.0984,-0.36539 -0.0172,-0.52569 0.0828,-0.16069 0.39879,-0.24583 l 0.7482,-0.20153 -0.11172,-0.4147 0.32626,-0.0879 0.11172,0.4147 0.46108,-0.12424 z m -2.32949,-0.65075 q -0.10286,-0.12981 -0.17715,-0.2741 -0.0743,-0.14429 -0.1231,-0.3146 -0.11653,-0.40558 0.0383,-0.68281 0.15659,-0.27619 0.56506,-0.3935 0.39548,-0.11362 0.68425,0.0269 0.28875,0.1405 0.39113,0.497 0.10324,0.35939 -0.0536,0.61847 -0.15498,0.26011 -0.54179,0.37118 l -0.17175,0.0493 -0.31459,-1.09548 q -0.1901,0.0562 -0.25201,0.19423 -0.0619,0.13807 0.001,0.35891 0.0419,0.14578 0.12437,0.2752 0.0825,0.12943 0.21776,0.25775 z m 0.8065,-0.61908 q 0.1666,-0.051 0.22772,-0.15912 0.063,-0.10716 0.0166,-0.26879 -0.0419,-0.14579 -0.15622,-0.20668 -0.11298,-0.0614 -0.28057,-0.0304 z m 1.23706,-0.87707 -0.42539,0.56432 -0.0816,-0.28434 0.39016,-0.686986 z m -2.27976,-1.491446 1.24096,-0.37866 -0.13018,-0.42658 0.32317,-0.0986 0.25858,0.84741 -1.56412,0.47727 q -0.18958,0.0578 -0.25061,0.14084 -0.061,0.083 -0.0181,0.22375 l 0.1026,0.3361 -0.32317,0.0986 -0.1385,-0.453862 q -0.0916,-0.30018 0.0237,-0.47822 0.11526,-0.17803 0.47575,-0.28804 z m -0.97998,-1.55439 -0.83445,0.26977 -0.13488,-0.41723 2.20899,-0.71415 0.1349,0.41722 -0.24005,0.0776 q 0.15985,0.0209 0.26451,0.10539 0.10463,0.0845 0.15131,0.22884 0.0887,0.27434 -0.0824,0.49694 -0.17108,0.2226 -0.57116,0.35194 -0.40579,0.13119 -0.67286,0.0471 -0.26661,-0.0826 -0.35854,-0.367 -0.0416,-0.12861 -0.009,-0.25273 0.0344,-0.1231 0.14373,-0.24375 z m 0.76431,0.39682 q 0.23146,-0.0749 0.33798,-0.1945 0.10653,-0.11969 0.0626,-0.25539 -0.0439,-0.13575 -0.20075,-0.17184 -0.15686,-0.0361 -0.38834,0.0387 -0.23147,0.0749 -0.33752,0.19593 -0.10602,0.12108 -0.0621,0.25682 0.0439,0.13574 0.2003,0.1704 0.15639,0.0347 0.38787,-0.0402 z m -0.0254,-2.2164 q 0.11691,0.0127 0.19,0.0684 0.073,0.0559 0.10893,0.16112 0.0703,0.20605 -0.045,0.33276 -0.11488,0.12813 -0.56396,0.28153 l -0.89667,0.30633 -0.11652,-0.34104 1.02172,-0.34906 q 0.17763,-0.0607 0.22809,-0.10805 0.0505,-0.0473 0.0262,-0.11842 -0.0243,-0.0711 -0.0952,-0.0786 -0.0708,-0.008 -0.24561,0.0521 l -1.02171,0.34905 -0.115,-0.33678 1.02171,-0.34905 q 0.1748,-0.0597 0.22619,-0.10906 0.0514,-0.0493 0.0272,-0.12032 -0.0243,-0.0711 -0.0933,-0.0777 -0.069,-0.006 -0.24653,0.054 l -1.02172,0.34905 -0.11653,-0.34104 1.59156,-0.54373 0.10336,0.30267 -0.16484,0.0563 q 0.1059,0.004 0.18663,0.0631 0.0821,0.0592 0.11513,0.15586 0.033,0.0967 0.003,0.19612 -0.0296,0.0989 -0.10628,0.14419 z m -0.79711,-1.82548 q -0.0534,-0.14836 -0.21536,-0.1858 -0.16051,-0.038 -0.39362,0.0461 -0.23312,0.084 -0.33398,0.21605 -0.0994,0.13158 -0.0461,0.27993 0.0539,0.14976 0.21445,0.18772 0.16192,0.0374 0.39504,-0.0466 0.23312,-0.084 0.33256,-0.21554 0.10084,-0.1321 0.0469,-0.28186 z m -0.75807,-0.55374 q 0.38287,-0.13791 0.67733,-0.0205 0.29638,0.1183 0.417,0.45313 0.12107,0.33625 -0.0323,0.61496 -0.15147,0.27961 -0.53434,0.4175 -0.38287,0.13791 -0.67927,0.0196 -0.29446,-0.11741 -0.41558,-0.45364 -0.12057,-0.33485 0.0309,-0.61444 0.15341,-0.27871 0.53628,-0.41662 z m -0.86013,-0.0903 q -0.0878,-0.0792 -0.15405,-0.17769 -0.0663,-0.0986 -0.11147,-0.21791 -0.1607,-0.42408 0.0342,-0.75324 0.19484,-0.32916 0.72283,-0.52923 0.52939,-0.2006 0.89345,-0.0832 0.36403,0.11741 0.52473,0.54146 0.0452,0.11931 0.0615,0.23847 0.0162,0.11905 0.003,0.23374 l -0.46058,0.17453 q 0.0578,-0.14396 0.0645,-0.26209 0.009,-0.11729 -0.0319,-0.22398 -0.0862,-0.22748 -0.3115,-0.2754 -0.22338,-0.0471 -0.57865,0.0876 -0.35386,0.13408 -0.49138,0.31788 -0.13557,0.18465 -0.0493,0.41215 0.0405,0.10678 0.12311,0.18938 0.0846,0.0835 0.22339,0.15303 z" /><path
         id="path1522"
         style="font-weight:bold;font-size:8px;line-height:1;font-family:monospace;-inkscape-font-specification:'monospace Bold';text-align:center;letter-spacing:0px;white-space:pre;display:inline;fill:#ffffff;stroke-width:0.384427;stroke-linecap:round"
         d="m 89.784413,26.346927 -0.340493,-0.82607 0.405397,-0.167098 0.890436,2.160277 -0.4054,0.167098 -0.09499,-0.230465 q -0.0097,0.161565 -0.08583,0.272517 -0.0747,0.110376 -0.214919,0.168173 -0.266565,0.109869 -0.501858,-0.04327 -0.235286,-0.153161 -0.395525,-0.541887 -0.162522,-0.39429 -0.10095,-0.666555 0.06296,-0.272829 0.339239,-0.386713 0.124951,-0.05151 0.250421,-0.02689 0.126279,0.02266 0.254469,0.120889 z m -0.335257,0.794377 q 0.0927,0.224914 0.220326,0.321738 0.127617,0.09684 0.259513,0.04246 0.131892,-0.05435 0.155601,-0.213569 0.02371,-0.159204 -0.06899,-0.384115 -0.0927,-0.224914 -0.221714,-0.32117 -0.129008,-0.09624 -0.2609,-0.04189 -0.131897,0.05437 -0.154217,0.212998 -0.02232,0.15863 0.07038,0.383542 z m -0.808818,-0.07677 q -0.09236,-0.03211 -0.195074,-0.02372 -0.10133,0.0077 -0.207486,0.05361 -0.12821,0.05535 -0.205071,0.142525 -0.07608,0.0852 -0.09153,0.193302 -0.0105,0.06668 0.0078,0.147073 0.01972,0.07981 0.08521,0.231457 l 0.307159,0.711378 -0.403943,0.174415 -0.6667,-1.544083 0.403943,-0.174414 0.103581,0.239886 q 0.0022,-0.157943 0.09388,-0.282618 0.09114,-0.126051 0.255208,-0.196883 0.08272,-0.03572 0.170227,-0.04896 0.0883,-0.01523 0.176652,-0.0076 z m -2.510327,0.940589 q -0.143702,0.06489 -0.168326,0.229263 -0.02524,0.162997 0.07673,0.388806 0.101987,0.225816 0.241582,0.316004 0.138978,0.08883 0.282675,0.02392 0.14507,-0.06551 0.170314,-0.228512 0.02463,-0.164362 -0.07735,-0.390175 -0.101987,-0.225812 -0.240964,-0.314635 -0.139601,-0.09018 -0.284663,-0.02467 z m -0.492579,0.799171 q -0.167504,-0.37088 -0.07357,-0.673645 0.09469,-0.304753 0.419038,-0.451241 0.325718,-0.14711 0.615593,-0.01604 0.290626,0.129085 0.458134,0.499958 0.167502,0.370882 0.07281,0.675637 -0.09393,0.302766 -0.419656,0.449872 -0.324349,0.146487 -0.614976,0.01741 -0.289873,-0.131072 -0.45738,-0.501948 z m -0.05881,0.858439 q -0.07295,0.105808 -0.174933,0.188793 -0.101342,0.08434 -0.234437,0.147134 -0.35175,0.165949 -0.649991,0.04763 -0.298245,-0.118308 -0.47508,-0.493156 -0.177484,-0.376198 -0.0778,-0.682249 0.09904,-0.307412 0.450798,-0.473363 0.12223,-0.05767 0.248408,-0.08233 0.127535,-0.0253 0.268451,-0.01872 l 0.171718,0.363973 q -0.122168,-0.03369 -0.245314,-0.02374 -0.122446,0.008 -0.233802,0.06049 -0.19421,0.09163 -0.240476,0.264555 -0.04626,0.172925 0.06137,0.401087 0.107643,0.228158 0.269885,0.301053 0.162263,0.07285 0.35645,-0.01872 0.115436,-0.05445 0.197998,-0.139907 0.08192,-0.08681 0.134392,-0.207856 z m -1.673966,0.794508 q -0.07119,0.10701 -0.171773,0.191672 -0.09992,0.08601 -0.231964,0.151002 -0.34895,0.171763 -0.649109,0.0584 -0.300155,-0.113361 -0.483196,-0.485208 -0.1837,-0.373198 -0.08911,-0.680865 0.09394,-0.309011 0.442883,-0.480775 0.121257,-0.05968 0.247009,-0.08644 0.127106,-0.02742 0.268105,-0.02318 l 0.17773,0.361075 q -0.122699,-0.03166 -0.245677,-0.01966 -0.122281,0.01 -0.232766,0.06436 -0.192665,0.09484 -0.236058,0.268505 -0.04338,0.173667 0.06802,0.400011 0.111413,0.226347 0.274839,0.296538 0.163434,0.07018 0.35609,-0.02465 0.114526,-0.05638 0.195656,-0.143168 0.08047,-0.08815 0.130929,-0.210058 z m -2.464381,0.442958 q -0.219124,0.112413 -0.277186,0.213075 -0.05805,0.100672 0.01189,0.236951 0.05209,0.101544 0.143064,0.13082 0.09095,0.02928 0.193851,-0.0235 0.154991,-0.0795 0.180864,-0.239614 0.02519,-0.161447 -0.08241,-0.371218 l -0.0137,-0.02672 z m 0.467689,-0.430625 0.437972,0.853783 -0.388811,0.199451 -0.08568,-0.167017 q -0.02009,0.135197 -0.103582,0.24553 -0.08348,0.110337 -0.217099,0.178871 -0.2552,0.130913 -0.467391,0.06931 -0.210857,-0.06229 -0.334915,-0.304131 -0.134338,-0.261881 -0.02839,-0.473187 0.105239,-0.212655 0.46067,-0.394958 l 0.271234,-0.139137 -0.03358,-0.06547 q -0.04866,-0.09487 -0.142821,-0.107314 -0.0935,-0.01447 -0.227113,0.05406 -0.140295,0.07196 -0.254065,0.175897 -0.113121,0.101912 -0.216327,0.252746 l -0.17135,-0.334035 q 0.102177,-0.119927 0.222775,-0.213854 0.120586,-0.09393 0.270237,-0.170691 0.36476,-0.187114 0.587813,-0.114197 0.224386,0.07223 0.420415,0.454361 z m -2.747782,-0.01774 0.392613,0.735154 -0.339097,0.181096 -0.392614,-0.735154 z m -1.208956,1.563982 -0.433868,-0.781079 0.383321,-0.212924 1.13462,2.042622 -0.383319,0.212925 -0.121041,-0.217916 q 0.009,0.161606 -0.05368,0.280622 -0.06142,0.118271 -0.194006,0.191933 -0.252045,0.140001 -0.503491,0.01513 -0.251437,-0.124888 -0.455619,-0.492436 -0.20709,-0.372816 -0.177462,-0.650378 0.03093,-0.278288 0.292177,-0.423393 0.118157,-0.06563 0.245624,-0.05571 0.128056,0.0078 0.266762,0.09059 z m -0.241003,0.827856 q 0.118131,0.212663 0.256102,0.294059 0.137997,0.08135 0.262684,0.01215 0.124711,-0.06927 0.129798,-0.230168 0.0051,-0.160875 -0.11302,-0.373539 -0.118131,-0.212663 -0.257415,-0.293332 -0.13932,-0.08061 -0.263994,-0.01139 -0.124711,0.06927 -0.128555,0.229403 -0.0038,0.160144 0.114323,0.372811 z m -3.384189,2.260969 -0.562805,-0.938964 0.377388,-0.226201 0.528064,0.881001 q 0.09341,0.155853 0.177353,0.196579 0.08396,0.0407 0.18569,-0.02026 0.101747,-0.06098 0.104391,-0.185111 0.0039,-0.124913 -0.09336,-0.287193 l -0.49641,-0.828196 0.377387,-0.226201 0.864666,1.442577 -0.377388,0.226202 -0.128156,-0.213809 q 0.03186,0.143721 -0.02536,0.267308 -0.05598,0.1228 -0.191181,0.203878 -0.206082,0.123521 -0.393533,0.0503 -0.186158,-0.074 -0.346746,-0.341902 z m -0.11488,0.6609 q -0.09675,0.13445 -0.215266,0.245294 -0.118511,0.110844 -0.268984,0.204425 -0.358324,0.222847 -0.667283,0.149736 -0.30848,-0.07518 -0.532912,-0.43605 -0.217299,-0.349398 -0.161046,-0.665555 0.05625,-0.316162 0.371218,-0.51205 0.317519,-0.197471 0.609589,-0.117397 0.292552,0.07801 0.505093,0.419754 l 0.09437,0.151742 -0.967856,0.601931 q 0.10596,0.167525 0.255695,0.189354 0.149738,0.02181 0.344837,-0.09952 0.128792,-0.0801 0.230763,-0.194795 0.101974,-0.114703 0.18845,-0.279897 z m -0.815868,-0.60668 q -0.09455,-0.146332 -0.215294,-0.175573 -0.120257,-0.03133 -0.263089,0.05752 -0.12879,0.0801 -0.156137,0.20674 -0.02814,0.125368 0.04746,0.278187 z m -1.672716,1.995195 0.475275,0.737017 -0.368509,0.237635 -1.258177,-1.951078 0.368511,-0.23764 0.136721,0.212023 q -0.02089,-0.159855 0.03388,-0.282732 0.05474,-0.122888 0.182232,-0.205074 0.242308,-0.156255 0.501411,-0.04817 0.259102,0.108086 0.486974,0.461453 0.231127,0.358413 0.218531,0.63813 -0.01139,0.278906 -0.262484,0.440857 -0.113576,0.07324 -0.241883,0.07379 -0.127848,-0.0015 -0.272501,-0.07621 z m 0.186932,-0.840639 q -0.131839,-0.204449 -0.274863,-0.2766 -0.14304,-0.07213 -0.262915,0.0052 -0.119903,0.07732 -0.114424,0.238181 0.0054,0.160864 0.1373,0.365316 0.131838,0.204449 0.276121,0.275794 0.144225,0.07146 0.264175,-0.0059 0.11989,-0.07732 0.113159,-0.23737 -0.0067,-0.160053 -0.138561,-0.3645 z m -2.976929,1.669216 0.621242,0.897717 -0.359333,0.248667 -0.582787,-0.842151 q -0.104252,-0.150645 -0.19191,-0.184946 -0.08726,-0.03643 -0.183592,0.03026 -0.09755,0.06751 -0.09369,0.194483 0.0051,0.126115 0.112779,0.281712 l 0.547754,0.791522 -0.359333,0.248666 -0.957073,-1.382999 0.359332,-0.248667 0.143562,0.207447 q -0.04119,-0.141325 0.0078,-0.268396 0.04903,-0.127068 0.179924,-0.217645 0.196336,-0.135869 0.386937,-0.07419 0.189752,0.06043 0.368344,0.318518 z m -2.558909,2.125778 -0.82373,-1.149989 0.360135,-0.257963 0.888438,1.240332 q 0.09794,0.136728 0.223491,0.16501 0.124685,0.02706 0.247976,-0.06125 0.123293,-0.08832 0.137791,-0.215073 0.01363,-0.127982 -0.08431,-0.264706 l -0.88844,-1.240329 0.360137,-0.257964 0.823729,1.149992 q 0.265833,0.371121 0.23879,0.645401 -0.02704,0.274279 -0.354219,0.50863 -0.325952,0.233477 -0.595563,0.171687 -0.26839,-0.06265 -0.534222,-0.433784 z" /><path
         id="path1671"
         style="font-weight:bold;font-size:8px;line-height:1;font-family:monospace;-inkscape-font-specification:'monospace Bold';text-align:center;letter-spacing:0px;white-space:pre;shape-inside:url(#rect927);display:inline;fill:#ffffff;stroke-width:0.384427;stroke-linecap:round"
         d="m 153.71547,135.19879 v 0.38442 q -0.12158,-0.0781 -0.25378,-0.11716 -0.13065,-0.0405 -0.2628,-0.0405 -0.14715,0 -0.22224,0.0435 -0.075,0.042 -0.075,0.12614 0,0.12007 0.32135,0.19522 l 0.0166,0.005 0.12614,0.03 q 0.24026,0.0571 0.35138,0.18471 0.1126,0.12614 0.1126,0.34237 0,0.2598 -0.17118,0.39044 -0.1697,0.12914 -0.51208,0.12914 -0.15167,0 -0.31084,-0.0271 -0.15918,-0.0256 -0.32285,-0.0781 v -0.38443 q 0.14566,0.0826 0.29582,0.12614 0.15166,0.0435 0.29282,0.0435 0.15468,0 0.23426,-0.045 0.0796,-0.045 0.0796,-0.13065 0,-0.0841 -0.0571,-0.12915 -0.0555,-0.045 -0.26728,-0.0961 l -0.12159,-0.0271 q -0.25228,-0.0571 -0.36791,-0.17869 -0.11564,-0.12159 -0.11564,-0.32587 0,-0.24327 0.17569,-0.37842 0.1757,-0.13515 0.49405,-0.13515 0.14266,0 0.28382,0.024 0.14265,0.0225 0.27631,0.0691 z m -3.00783,-0.0526 h 0.87096 v 1.344 h 0.54661 v 0.33787 h -1.5347 v -0.33787 h 0.5481 v -1.00612 h -0.43097 z m 0.43097,-0.8184 h 0.43999 v 0.51356 h -0.43999 z m -0.88298,0.8184 -0.53459,1.68187 h -0.5421 l -0.53459,-1.68187 h 0.44599 l 0.3589,1.31246 0.3604,-1.31246 z m -2.53181,0.892 q -0.24627,0 -0.34388,0.063 -0.0976,0.0631 -0.0976,0.21623 0,0.11412 0.0676,0.18171 0.0676,0.0676 0.18321,0.0676 0.1742,0 0.2703,-0.13064 0.0962,-0.13215 0.0962,-0.36792 v -0.03 z m 0.61268,-0.16969 v 0.95956 h -0.43699 v -0.1877 q -0.0796,0.11108 -0.20422,0.17118 -0.12463,0.0601 -0.2748,0.0601 -0.28682,0 -0.4475,-0.15167 -0.15918,-0.15168 -0.15918,-0.42348 0,-0.29432 0.19072,-0.43397 0.1907,-0.14116 0.59015,-0.14116 h 0.30483 v -0.0736 q 0,-0.10666 -0.0781,-0.16068 -0.0765,-0.0556 -0.22675,-0.0556 -0.15767,0 -0.30634,0.0405 -0.14715,0.0391 -0.30783,0.12614 v -0.37541 q 0.14565,-0.0601 0.29583,-0.0886 0.15016,-0.0285 0.31834,-0.0285 0.40996,0 0.57515,0.16669 0.16667,0.16669 0.16667,0.59616 z m -3.87881,-0.66974 v 0.38442 q -0.12158,-0.0781 -0.25377,-0.11716 -0.13064,-0.0405 -0.26279,-0.0405 -0.14717,0 -0.22226,0.0435 -0.075,0.042 -0.075,0.12614 0,0.12006 0.32136,0.19522 l 0.0166,0.005 0.12614,0.03 q 0.24027,0.0571 0.35139,0.18471 0.1126,0.12614 0.1126,0.34237 0,0.2598 -0.17119,0.39044 -0.16969,0.12914 -0.51206,0.12914 -0.15167,0 -0.31086,-0.0271 -0.15917,-0.0256 -0.32285,-0.0781 v -0.38443 q 0.14566,0.0826 0.29583,0.12614 0.15167,0.0435 0.29282,0.0435 0.15467,0 0.23427,-0.045 0.0796,-0.045 0.0796,-0.13064 0,-0.0841 -0.0571,-0.12915 -0.0555,-0.045 -0.2673,-0.0962 l -0.12158,-0.0271 q -0.25228,-0.0571 -0.36791,-0.1787 -0.11564,-0.12158 -0.11564,-0.32586 0,-0.24327 0.17569,-0.37842 0.17569,-0.13515 0.49405,-0.13515 0.14265,0 0.28381,0.024 0.14267,0.0225 0.27631,0.0691 z m -1.73142,0.53759 v 1.09171 h -0.43698 v -1.02413 q 0,-0.1832 -0.0525,-0.26129 -0.0511,-0.0796 -0.16819,-0.0796 -0.11868,0 -0.18771,0.10665 -0.0676,0.10666 -0.0676,0.29583 v 0.96257 h -0.43698 v -1.68187 h 0.43698 v 0.25228 q 0.0466,-0.13965 0.15918,-0.21623 0.1126,-0.0766 0.2718,-0.0766 0.23876,0 0.3604,0.15918 0.12159,0.15767 0.12159,0.47152 z m -2.40867,0.30184 q -0.24627,0 -0.34388,0.063 -0.0975,0.0631 -0.0975,0.21623 0,0.11412 0.0676,0.18171 0.0676,0.0676 0.1832,0.0676 0.17421,0 0.27031,-0.13064 0.0961,-0.13215 0.0961,-0.36792 v -0.03 z m 0.61268,-0.16969 v 0.95956 h -0.43699 v -0.1877 q -0.0796,0.11108 -0.20422,0.17118 -0.12463,0.0601 -0.2748,0.0601 -0.28682,0 -0.4475,-0.15167 -0.15918,-0.15168 -0.15918,-0.42348 0,-0.29432 0.19071,-0.43397 0.19071,-0.14116 0.59016,-0.14116 h 0.30483 v -0.0736 q 0,-0.10666 -0.0781,-0.16068 -0.0765,-0.0556 -0.22675,-0.0556 -0.15768,0 -0.30634,0.0405 -0.14717,0.0391 -0.30785,0.12614 v -0.37541 q 0.14567,-0.0601 0.29583,-0.0886 0.15018,-0.0285 0.31836,-0.0285 0.40995,0 0.57514,0.16669 0.16668,0.16669 0.16668,0.59616 z m -2.02725,-0.66974 v 0.38442 q -0.12158,-0.0781 -0.25378,-0.11716 -0.13065,-0.0405 -0.2628,-0.0405 -0.14715,0 -0.22224,0.0435 -0.075,0.042 -0.075,0.12614 0,0.12006 0.32136,0.19522 l 0.0166,0.005 0.12614,0.03 q 0.24026,0.0571 0.35138,0.18471 0.1126,0.12614 0.1126,0.34237 0,0.2598 -0.17119,0.39044 -0.16969,0.12914 -0.51206,0.12914 -0.15168,0 -0.31085,-0.0271 -0.15917,-0.0256 -0.32286,-0.0781 v -0.38443 q 0.14566,0.0826 0.29582,0.12614 0.15167,0.0435 0.29283,0.0435 0.15467,0 0.23427,-0.045 0.0796,-0.045 0.0796,-0.13064 0,-0.0841 -0.0571,-0.12915 -0.0555,-0.045 -0.2673,-0.0962 l -0.12159,-0.0271 q -0.25228,-0.0571 -0.3679,-0.1787 -0.11564,-0.12158 -0.11564,-0.32586 0,-0.24327 0.1757,-0.37842 0.17569,-0.13515 0.49404,-0.13515 0.14267,0 0.28382,0.024 0.14265,0.0225 0.27631,0.0691 z m -4.95099,1.04215 v -1.09472 h 0.43998 v 1.02715 q 0,0.18169 0.0511,0.25978 0.051,0.0781 0.16969,0.0781 0.11868,0 0.18469,-0.10513 0.0676,-0.10514 0.0676,-0.29434 v -0.96557 h 0.43998 v 1.68187 h -0.43998 v -0.24928 q -0.0466,0.13967 -0.15919,0.21625 -0.11108,0.0765 -0.26879,0.0765 -0.24027,0 -0.3634,-0.15917 -0.12159,-0.15917 -0.12159,-0.47153 z m -1.1668,-0.77786 q -0.15767,0 -0.24778,0.13965 -0.0901,0.13816 -0.0901,0.38593 0,0.24778 0.0901,0.38743 0.0901,0.13816 0.24778,0.13816 0.15917,0 0.24928,-0.13816 0.0901,-0.13965 0.0901,-0.38743 0,-0.24777 -0.0901,-0.38593 -0.0901,-0.13965 -0.24928,-0.13965 z m -0.77787,0.52558 q 0,-0.40695 0.21024,-0.64421 0.21173,-0.23877 0.56763,-0.23877 0.35739,0 0.56763,0.23877 0.21174,0.23726 0.21174,0.64421 0,0.40695 -0.21174,0.64572 -0.21024,0.23726 -0.56763,0.23726 -0.3559,0 -0.56763,-0.23726 -0.21024,-0.23877 -0.21024,-0.64572 z m -2.81412,-1.31996 v 0.47752 h 0.57514 v 0.33788 h -0.57514 v 0.79589 q 0,0.1126 0.054,0.16218 0.0555,0.0481 0.1832,0.0481 h 0.33788 v 0.33787 h -0.36941 q -0.37842,0 -0.51207,-0.12007 -0.13364,-0.12158 -0.13364,-0.449 v -0.77486 h -0.42949 v -0.33788 h 0.42949 v -0.47752 z m -1.27942,1.06768 v 1.09171 h -0.43698 v -1.02413 q 0,-0.1832 -0.0526,-0.26129 -0.0511,-0.0796 -0.16818,-0.0796 -0.11867,0 -0.1877,0.10665 -0.0676,0.10666 -0.0676,0.29583 v 0.96257 h -0.43699 v -1.68187 h 0.43699 v 0.25228 q 0.0466,-0.13965 0.15917,-0.21623 0.1126,-0.0766 0.2718,-0.0766 0.23877,0 0.36041,0.15918 0.12158,0.15767 0.12158,0.47152 z m -1.805,1.00912 q -0.15318,0.0631 -0.31235,0.0946 -0.15918,0.0315 -0.33638,0.0315 -0.42197,0 -0.64572,-0.22524 -0.22224,-0.22676 -0.22224,-0.65173 0,-0.41146 0.21474,-0.65022 0.21473,-0.23877 0.58565,-0.23877 0.37391,0 0.57965,0.22225 0.20722,0.22075 0.20722,0.62319 v 0.1787 h -1.13976 q 10e-4,0.19822 0.11716,0.29583 0.11564,0.0977 0.34537,0.0977 0.15167,0 0.29884,-0.0435 0.14717,-0.0435 0.30785,-0.13816 z m -0.37242,-0.94605 q -0.003,-0.17419 -0.0901,-0.26279 -0.0857,-0.0901 -0.25379,-0.0901 -0.15166,0 -0.24177,0.0931 -0.0901,0.0916 -0.10665,0.2613 z m -1.40556,-0.18921 q -0.0721,-0.066 -0.16969,-0.0991 -0.0961,-0.033 -0.21174,-0.033 -0.13965,0 -0.24476,0.0496 -0.10362,0.0481 -0.16068,0.14116 -0.0361,0.0571 -0.0511,0.13815 -0.0135,0.0811 -0.0135,0.24628 v 0.77486 h -0.43999 v -1.68187 h 0.43999 v 0.26129 q 0.0645,-0.14415 0.19821,-0.22225 0.13366,-0.0796 0.31236,-0.0796 0.0901,0 0.17569,0.0225 0.0871,0.021 0.16519,0.0631 z m -1.92513,1.13526 q -0.15318,0.0631 -0.31235,0.0946 -0.15918,0.0315 -0.33638,0.0315 -0.42197,0 -0.64572,-0.22524 -0.22224,-0.22676 -0.22224,-0.65173 0,-0.41146 0.21474,-0.65022 0.21473,-0.23877 0.58565,-0.23877 0.37391,0 0.57965,0.22225 0.20722,0.22075 0.20722,0.62319 v 0.1787 h -1.13976 q 0.001,0.19822 0.11716,0.29583 0.11564,0.0977 0.34537,0.0977 0.15167,0 0.29884,-0.0435 0.14717,-0.0435 0.30785,-0.13816 z m -0.37242,-0.94605 q -0.003,-0.17419 -0.0901,-0.26279 -0.0857,-0.0901 -0.25379,-0.0901 -0.15167,0 -0.24177,0.0931 -0.0901,0.0916 -0.10665,0.2613 z m -0.0946,-1.43108 h 0.42346 l -0.55261,0.56461 h -0.29583 z m -1.92965,0.6307 v 0.14715 h 0.51658 v 0.33788 h -0.51658 v 1.34399 h -0.43998 v -1.34399 h -0.40846 v -0.33788 h 0.40846 v -0.11716 q 0,-0.30333 0.12614,-0.42046 0.12614,-0.11716 0.46851,-0.11716 h 0.36191 v 0.33789 h -0.34388 q -0.0991,0 -0.13515,0.0361 -0.0345,0.036 -0.0376,0.13364 z m -1.85155,0 v 0.14715 h 0.51657 v 0.33788 h -0.51657 v 1.34399 h -0.43999 v -1.34399 h -0.40846 v -0.33788 h 0.40846 v -0.11716 q 0,-0.30333 0.12614,-0.42046 0.12614,-0.11716 0.46852,-0.11716 h 0.3619 v 0.33789 h -0.34388 q -0.0991,0 -0.13515,0.0361 -0.0345,0.036 -0.0376,0.13364 z m -2.62943,0.14715 h 0.87098 v 1.344 h 0.5466 v 0.33787 h -1.53469 v -0.33787 h 0.5481 v -1.00612 h -0.43099 z m 0.43099,-0.8184 h 0.43999 v 0.51356 h -0.43999 z m -1.42658,1.05717 v -0.89349 h 0.43848 v 2.33659 h -0.43848 v -0.24928 q -0.0706,0.14566 -0.18321,0.21925 -0.11109,0.0736 -0.2628,0.0736 -0.28831,0 -0.44748,-0.23125 -0.15918,-0.23126 -0.15918,-0.65173 0,-0.42647 0.16067,-0.65472 0.16219,-0.22826 0.46101,-0.22826 0.13516,0 0.24178,0.0706 0.10805,0.0691 0.18921,0.20873 z m -0.61268,0.60667 q 0,0.24327 0.0811,0.38143 0.0811,0.13815 0.22375,0.13815 0.14266,0 0.22525,-0.13815 0.0826,-0.13816 0.0826,-0.38143 0,-0.24327 -0.0826,-0.38142 -0.0826,-0.13816 -0.22525,-0.13816 -0.14267,0 -0.22375,0.13816 -0.0811,0.13815 -0.0811,0.38142 z m -0.81842,-0.25528 v 1.09171 h -0.43698 v -1.02413 q 0,-0.1832 -0.0525,-0.26129 -0.0511,-0.0796 -0.16818,-0.0796 -0.11868,0 -0.18771,0.10665 -0.0676,0.10666 -0.0676,0.29583 v 0.96257 h -0.437 v -1.68187 h 0.437 v 0.25228 q 0.0466,-0.13965 0.15918,-0.21623 0.1126,-0.0766 0.2718,-0.0766 0.23877,0 0.36039,0.15918 0.12158,0.15767 0.12158,0.47152 z m -3.20155,-0.75983 v -0.39044 h 1.33498 v 0.39044 h -0.44599 v 1.46111 h 0.44599 v 0.39043 h -1.33498 v -0.39043 h 0.446 v -1.46111 z" /></g></g></svg>
